<?xml version="1.0" encoding="UTF-8"?>
<svg width="12px" height="969px" style="width: 100%; height: 100%;" version="1.1" xmlns="http://www.w3.org/2000/svg" xmlns:xlink="http://www.w3.org/1999/xlink">
    <title>左装饰</title>
    <defs>
        <linearGradient x1="50%" y1="100%" x2="50%" y2="0%" id="linearGradient-1">
            <stop stop-color="#FFFFFF" stop-opacity="0" offset="0%"></stop>
            <stop stop-color="#FFFFFF" stop-opacity="0.1" offset="7%"></stop>
            <stop stop-color="#86A9FF" stop-opacity="0.41" offset="31.9411058%"></stop>
            <stop stop-color="#3E6392" stop-opacity="0.67" offset="56.6488199%"></stop>
            <stop stop-color="#98C4FF" stop-opacity="0.85" offset="76%"></stop>
            <stop stop-color="#A7E4FF" stop-opacity="0.96" offset="91%"></stop>
            <stop stop-color="#87B3FF" stop-opacity="0.560642483" offset="100%"></stop>
        </linearGradient>
        <linearGradient x1="100%" y1="49.9969983%" x2="0%" y2="49.9969983%" id="linearGradient-2">
            <stop stop-color="#17527D" offset="0%"></stop>
            <stop stop-color="#17527D" stop-opacity="0" offset="100%"></stop>
        </linearGradient>
        <linearGradient x1="49.7409326%" y1="99.7572816%" x2="49.7409326%" y2="0%" id="linearGradient-3">
            <stop stop-color="#FFFFFF" offset="0%"></stop>
            <stop stop-color="#7F848A" offset="100%"></stop>
        </linearGradient>
        <linearGradient x1="50%" y1="0%" x2="50%" y2="100.004959%" id="linearGradient-4">
            <stop stop-color="#17527D" stop-opacity="0" offset="0%"></stop>
            <stop stop-color="#17527D" offset="100%"></stop>
        </linearGradient>
        <linearGradient x1="50%" y1="0%" x2="50%" y2="100.004959%" id="linearGradient-5">
            <stop stop-color="#17527D" stop-opacity="0" offset="0%"></stop>
            <stop stop-color="#17527D" offset="100%"></stop>
        </linearGradient>
        <linearGradient x1="50%" y1="0%" x2="50%" y2="100.004959%" id="linearGradient-6">
            <stop stop-color="#17527D" stop-opacity="0" offset="0%"></stop>
            <stop stop-color="#17527D" offset="100%"></stop>
        </linearGradient>
        <linearGradient x1="50%" y1="0%" x2="50%" y2="100.004959%" id="linearGradient-7">
            <stop stop-color="#17527D" stop-opacity="0" offset="0%"></stop>
            <stop stop-color="#17527D" offset="100%"></stop>
        </linearGradient>
        <linearGradient x1="50%" y1="0%" x2="50%" y2="100.004959%" id="linearGradient-8">
            <stop stop-color="#17527D" stop-opacity="0" offset="0%"></stop>
            <stop stop-color="#17527D" offset="100%"></stop>
        </linearGradient>
        <!-- <linearGradient x1="50%" y1="100%" x2="50%" y2="0%" id="linearGradient-9">
            <stop stop-color="#87B3FF" stop-opacity="0.560642483" offset="0%"></stop>
            <stop stop-color="#A7E4FF" stop-opacity="0.96" offset="9%"></stop>
            <stop stop-color="#98C4FF" stop-opacity="0.85" offset="24%"></stop>
            <stop stop-color="#3E6392" stop-opacity="0.67" offset="43.3511801%"></stop>
            <stop stop-color="#86A9FF" stop-opacity="0.41" offset="68.0588942%"></stop>
            <stop stop-color="#FFFFFF" stop-opacity="0.1" offset="93%"></stop>
            <stop stop-color="#FFFFFF" stop-opacity="0" offset="100%"></stop>
        </linearGradient> -->
        <linearGradient id="linearGradient-left-9" x1="0%" y1="0%" x2="0%" y2="100%">
      <animateTransform
        attributeName="gradientTransform"
        type="translate"
        from="0 -1"  
        to="0 1"     
        dur="2s"     
        repeatCount="indefinite"  
      />
      <stop offset="0%" stop-color="#FFFFFF" stop-opacity="0" />
      <stop offset="65%" stop-color="#FFFFFF" stop-opacity="0.8" />
      <stop offset="50%" stop-color="#FFFFFF" stop-opacity="1" />
      <stop offset="75%" stop-color="#FFFFFF" stop-opacity="0.8" />
      <stop offset="100%" stop-color="#FFFFFF" stop-opacity="0" />
    </linearGradient>
        <linearGradient x1="50%" y1="0%" x2="50%" y2="100.004959%" id="linearGradient-10">
            <stop stop-color="#17527D" stop-opacity="0" offset="0%"></stop>
            <stop stop-color="#17527D" offset="100%"></stop>
        </linearGradient>
        <linearGradient x1="49.7005988%" y1="100.056883%" x2="49.7005988%" y2="0.0568828214%" id="linearGradient-11">
            <stop stop-color="#3FA9F5" offset="0%"></stop>
            <stop stop-color="#3FA9F5" stop-opacity="0.93" offset="2%"></stop>
            <stop stop-color="#3FA9F5" stop-opacity="0.74" offset="9%"></stop>
            <stop stop-color="#3FA9F5" stop-opacity="0.56" offset="16%"></stop>
            <stop stop-color="#3FA9F5" stop-opacity="0.41" offset="23%"></stop>
            <stop stop-color="#3FA9F5" stop-opacity="0.28" offset="31%"></stop>
            <stop stop-color="#3FA9F5" stop-opacity="0.18" offset="40%"></stop>
            <stop stop-color="#3FA9F5" stop-opacity="0.1" offset="50%"></stop>
            <stop stop-color="#3FA9F5" stop-opacity="0.04" offset="61%"></stop>
            <stop stop-color="#3FA9F5" stop-opacity="0" offset="75%"></stop>
            <stop stop-color="#3FA9F5" stop-opacity="0" offset="100%"></stop>
        </linearGradient>
        <linearGradient x1="50%" y1="0%" x2="50%" y2="100.004959%" id="linearGradient-12">
            <stop stop-color="#17527D" offset="0%"></stop>
            <stop stop-color="#17527D" stop-opacity="0" offset="100%"></stop>
        </linearGradient>
        <linearGradient x1="50%" y1="0%" x2="50%" y2="100.004959%" id="linearGradient-13">
            <stop stop-color="#17527D" offset="0%"></stop>
            <stop stop-color="#17527D" stop-opacity="0" offset="100%"></stop>
        </linearGradient>
        <linearGradient x1="54.2293619%" y1="41.6785716%" x2="45.7706381%" y2="92.603449%" id="linearGradient-14">
            <stop stop-color="#17527D" offset="0%"></stop>
            <stop stop-color="#17527D" stop-opacity="0.366449956" offset="49.6885927%"></stop>
            <stop stop-color="#17527D" stop-opacity="0" offset="100%"></stop>
        </linearGradient>
        
        <linearGradient x1="50%" y1="100%" x2="50%" y2="0%" id="linearGradient-15">
            <stop stop-color="#FFFFFF" stop-opacity="0" offset="0%"></stop>
            <stop stop-color="#FFFFFF" stop-opacity="0.1" offset="7%"></stop>
            <stop stop-color="#86A9FF" stop-opacity="0.41" offset="31.9411058%"></stop>
            <stop stop-color="#3E6392" stop-opacity="0.67" offset="56.6488199%"></stop>
            <stop stop-color="#98C4FF" stop-opacity="0.85" offset="76%"></stop>
            <stop stop-color="#A7E4FF" stop-opacity="0.96" offset="91%"></stop>
            <stop stop-color="#87B3FF" stop-opacity="0.560642483" offset="100%"></stop>
        </linearGradient>
        <linearGradient x1="50%" y1="0%" x2="50%" y2="100.004959%" id="linearGradient-16">
            <stop stop-color="#17527D" offset="0%"></stop>
            <stop stop-color="#17527D" stop-opacity="0" offset="100%"></stop>
        </linearGradient>
        <linearGradient x1="-383394.016%" y1="0%" x2="-383394.016%" y2="100%" id="linearGradient-17">
            <stop stop-color="#3FA9F5" offset="0%"></stop>
            <stop stop-color="#3FA9F5" stop-opacity="0.93" offset="2%"></stop>
            <stop stop-color="#3FA9F5" stop-opacity="0.74" offset="9%"></stop>
            <stop stop-color="#3FA9F5" stop-opacity="0.56" offset="16%"></stop>
            <stop stop-color="#3FA9F5" stop-opacity="0.41" offset="23%"></stop>
            <stop stop-color="#3FA9F5" stop-opacity="0.28" offset="31%"></stop>
            <stop stop-color="#3FA9F5" stop-opacity="0.18" offset="40%"></stop>
            <stop stop-color="#3FA9F5" stop-opacity="0.1" offset="50%"></stop>
            <stop stop-color="#3FA9F5" stop-opacity="0.04" offset="61%"></stop>
            <stop stop-color="#3FA9F5" stop-opacity="0" offset="75%"></stop>
            <stop stop-color="#3FA9F5" stop-opacity="0" offset="100%"></stop>
        </linearGradient>
    </defs>
    <g id="集团版" stroke="none" stroke-width="1" fill="none" fill-rule="evenodd">
        <g id="1-蓝色左标题" transform="translate(0.000000, -112.000000)">
            <g id="左装饰" transform="translate(0.000000, 112.000000)">
                <polygon id="路径" stroke="url(#linearGradient-1)" points="10.54 540.09 10.54 427.28 10 427.85 10 539.53"></polygon>
                <polygon id="路径" fill="url(#linearGradient-2)" fill-rule="nonzero" opacity="0.8" points="0 402.62 0 564.55 2 566.83 8.4 560.42 8.4 555.12 8.4 412.05 8.4 406.6 2.07 400.26"></polygon>
                <polygon id="路径" fill="#589ACA" fill-rule="nonzero" opacity="0.54" points="1.93 566.9 0 568.83 0 564.71"></polygon>
                <polygon id="路径" fill="url(#linearGradient-3)" fill-rule="nonzero" opacity="0.54" points="1.93 400.23 0 398.3 0 402.42"></polygon>
                <polygon id="路径" fill="url(#linearGradient-4)" fill-rule="nonzero" opacity="0.5" points="0 386.74 0 386.44 0 386.05 0 381.84 4.37 386.21 4.37 386.51 4.37 386.91 4.37 391.11"></polygon>
                <polygon id="路径" fill="url(#linearGradient-5)" fill-rule="nonzero" opacity="0.5" points="0 381.18 0 380.88 0 380.49 0 376.29 4.37 380.65 4.37 380.96 4.37 381.35 4.37 385.55"></polygon>
                <polygon id="路径" fill="url(#linearGradient-6)" fill-rule="nonzero" opacity="0.5" points="7.5498 394.13 9.8298 396.41 9.8298 203.51 5.7998 209.52 5.7998 392.36"></polygon>
                <polygon id="路径" fill="url(#linearGradient-7)" fill-rule="nonzero" opacity="0.5" points="1.91992 376.81 4.19992 379.09 4.19992 215.94 0.169922 213.4 0.169922 375.04"></polygon>
                <polygon id="路径" fill="url(#linearGradient-8)" fill-rule="nonzero" points="9.29 406.35 0 397.13 0 396.83 0 396.43 0 387.64 10.54 398.1 10.54 398.4 10.54 398.8 10.54 404.37 10.54 407.58 10.54 423.12 9.29 423.88"></polygon>
                <polyline id="路径" stroke="url(#linearGradient-left-9)" stroke-width="3"  points="8.91998 1.55005 8.91998 196.89 4.97998 202.34 4.97998 366.26"></polyline>
                <polygon id="路径" fill="url(#linearGradient-10)" fill-rule="nonzero" opacity="0.5" points="2.79004 201.65 2.79004 0 7.17004 0 7.17004 195.97"></polygon>
                <polygon id="路径" fill="#3FA9F5" fill-rule="nonzero" points="2.79004 200.65 2.79004 201.65 7.17004 195.94 7.17004 194.94"></polygon>
                <path d="M4.98006,99.41 L4.98006,99.93 L3.31006,101.45 L3.31006,100.97 L4.98006,99.41 Z M4.98006,98.44 L4.98006,98.96 L3.31006,100.48 L3.31006,100 L4.98006,98.44 Z M4.98006,97.47 L4.98006,97.99 L3.31006,99.51 L3.31006,99.03 L4.98006,97.47 Z M4.98006,100.38 L4.98006,100.9 L3.31006,102.42 L3.31006,101.94 L4.98006,100.38 Z M4.98006,101.35 L4.98006,101.87 L3.31006,103.39 L3.31006,102.91 L4.98006,101.35 Z M4.98006,102.32 L4.98006,102.84 L3.31006,104.36 L3.31006,103.88 L4.98006,102.32 Z M4.98006,103.29 L4.98006,103.81 L3.31006,105.33 L3.31006,104.85 L4.98006,103.29 Z M4.98006,104.26 L4.98006,104.78 L3.31006,106.3 L3.31006,105.82 L4.98006,104.26 Z M3.31006,90.28 L3.31006,90.76 L4.98006,89.24 L4.98006,88.72 L3.31006,90.28 Z M3.31006,91.25 L3.31006,91.73 L4.98006,90.21 L4.98006,89.69 L3.31006,91.25 Z M3.31006,92.22 L3.31006,92.7 L4.98006,91.18 L4.98006,90.66 L3.31006,92.22 Z M3.31006,93.19 L3.31006,93.67 L4.98006,92.15 L4.98006,91.63 L3.31006,93.19 Z M3.31006,94.16 L3.31006,94.64 L4.98006,93.12 L4.98006,92.6 L3.31006,94.16 Z M3.31006,95.13 L3.31006,95.61 L4.98006,94.09 L4.98006,93.57 L3.31006,95.13 Z M3.31006,96.1 L3.31006,96.58 L4.98006,95.06 L4.98006,94.54 L3.31006,96.1 Z M3.31006,97.07 L3.31006,97.55 L4.98006,96.03 L4.98006,95.51 L3.31006,97.07 Z M3.31006,98.04 L3.31006,98.52 L4.98006,97 L4.98006,96.48 L3.31006,98.04 Z" id="形状" fill="url(#linearGradient-11)" fill-rule="nonzero"></path>
                <polyline id="路径" stroke="#00FFFF" points="4.97998 206.5 4.97998 202.34 8.91998 196.89 8.91998 191.29"></polyline>
                <line x1="8.91992" y1="72.0601" x2="8.91992" y2="84.4301" id="路径" stroke="#3FA9F5"></line>
                <line x1="8.91992" y1="67.42" x2="8.91992" y2="70.51" id="路径" stroke="#FFFFFF"></line>
                <line x1="8.91992" y1="62.97" x2="8.91992" y2="66.07" id="路径" stroke="#3FA9F5"></line>
                <polygon id="路径" fill="url(#linearGradient-4)" fill-rule="nonzero" opacity="0.5" points="0 581.49 0 581.79 0 582.19 0 586.39 4.37 582.02 4.37 581.72 4.37 581.33 4.37 577.12"></polygon>
                <polygon id="路径" fill="url(#linearGradient-4)" fill-rule="nonzero" opacity="0.5" points="0 587.05 0 587.35 0 587.75 0 591.95 4.37 587.58 4.37 587.28 4.37 586.88 4.37 582.68"></polygon>
                <polygon id="路径" fill="url(#linearGradient-12)" fill-rule="nonzero" opacity="0.5" points="7.5498 574.1 9.8298 571.82 9.8298 764.72 5.7998 758.72 5.7998 575.87"></polygon>
                <polygon id="路径" fill="url(#linearGradient-13)" fill-rule="nonzero" opacity="0.5" points="1.91992 591.43 4.19992 589.15 4.19992 752.3 0.169922 754.83 0.169922 593.2"></polygon>
                <polygon id="路径" fill="url(#linearGradient-14)" fill-rule="nonzero" points="9.29 561.89 0 571.11 0 571.41 0 571.8 0 580.59 10.54 570.13 10.54 569.83 10.54 569.44 10.54 563.86 10.54 560.65 10.54 545.11 9.29 544.35"></polygon>
                <polyline id="路径" stroke="url(#linearGradient-15)" points="8.91998 966.69 8.91998 771.35 4.97998 765.89 4.97998 601.98"></polyline>
                <polygon id="路径" fill="url(#linearGradient-16)" fill-rule="nonzero" opacity="0.5" points="2.79004 766.58 2.79004 968.23 7.17004 968.23 7.17004 772.26"></polygon>
                <polygon id="路径" fill="#00FFFF" fill-rule="nonzero" points="2.79004 767.58 2.79004 766.58 7.17004 772.29 7.17004 773.3"></polygon>
                <path d="M3.31006,867.26 L3.31006,866.78 L4.98006,868.3 L4.98006,868.82 L3.31006,867.26 Z M3.31006,868.23 L3.31006,867.75 L4.98006,869.27 L4.98006,869.79 L3.31006,868.23 Z M3.31006,869.2 L3.31006,868.72 L4.98006,870.24 L4.98006,870.76 L3.31006,869.2 Z M3.31006,866.29 L3.31006,865.81 L4.98006,867.33 L4.98006,867.85 L3.31006,866.29 Z M3.31006,865.32 L3.31006,864.84 L4.98006,866.36 L4.98006,866.88 L3.31006,865.32 Z M3.31006,864.35 L3.31006,863.87 L4.98006,865.39 L4.98006,865.91 L3.31006,864.35 Z M3.31006,863.38 L3.31006,862.9 L4.98006,864.42 L4.98006,864.94 L3.31006,863.38 Z M3.31006,862.41 L3.31006,861.93 L4.98006,863.45 L4.98006,863.97 L3.31006,862.41 Z M4.98006,879.5 L4.98006,878.98 L3.31006,877.46 L3.31006,877.94 L4.98006,879.5 Z M4.98006,878.53 L4.98006,878.01 L3.31006,876.49 L3.31006,876.97 L4.98006,878.53 Z M4.98006,877.56 L4.98006,877.04 L3.31006,875.52 L3.31006,876 L4.98006,877.56 Z M4.98006,876.59 L4.98006,876.07 L3.31006,874.55 L3.31006,875.03 L4.98006,876.59 Z M4.98006,875.62 L4.98006,875.1 L3.31006,873.58 L3.31006,874.06 L4.98006,875.62 Z M4.98006,874.65 L4.98006,874.13 L3.31006,872.61 L3.31006,873.09 L4.98006,874.65 Z M4.98006,873.68 L4.98006,873.16 L3.31006,871.64 L3.31006,872.12 L4.98006,873.68 Z M4.98006,872.71 L4.98006,872.19 L3.31006,870.67 L3.31006,871.15 L4.98006,872.71 Z M4.98006,871.74 L4.98006,871.22 L3.31006,869.7 L3.31006,870.18 L4.98006,871.74 Z" id="形状" fill="url(#linearGradient-17)" fill-rule="nonzero"></path>
                <polyline id="路径" stroke="#5DC6A7" points="4.97998 761.729 4.97998 765.89 8.91998 771.349 8.91998 776.94"></polyline>
                <line x1="8.91992" y1="896.17" x2="8.91992" y2="883.8" id="路径" stroke="#00FFFF"></line>
                <line x1="8.91992" y1="900.81" x2="8.91992" y2="897.72" id="路径" stroke="#FFFFFF"></line>
                <line x1="8.91992" y1="905.26" x2="8.91992" y2="902.17" id="路径" stroke="#3FA9F5"></line>
            </g>
        </g>
    </g>
</svg>