<?xml version="1.0" encoding="UTF-8"?>
<svg width="100px" height="8px" viewBox="0 0 100 8" version="1.1" xmlns="http://www.w3.org/2000/svg" xmlns:xlink="http://www.w3.org/1999/xlink">
    <title>形状结合</title>
    <defs>
        <linearGradient x1="0%" y1="76.0346833%" x2="100%" y2="76.0346833%" id="linearGradient-1">
            <stop stop-color="#FFFFFF" stop-opacity="0" offset="0%"></stop>
            <stop stop-color="#FFFFFF" stop-opacity="0.705009834" offset="100%"></stop>
        </linearGradient>
    </defs>
    <g id="集团版" stroke="none" stroke-width="1" fill="none" fill-rule="evenodd" fill-opacity="0.48" opacity="0.75">
        <g id="2-黑色标题居中" transform="translate(-318.000000, -415.000000)" fill="url(#linearGradient-1)" fill-rule="nonzero">
            <g id="编组-7" transform="translate(32.000000, 112.000000)">
                <g id="编组-5备份" transform="translate(0.000000, 295.000000)">
                    <g id="编组" transform="translate(285.856930, 8.090630)">
                        <path d="M58.692,9.60891731e-06 L58.692,7.81809359 L56.692,7.81809359 L56.692,9.60891731e-06 L58.692,9.60891731e-06 Z M63.846,9.60891731e-06 L63.846,7.81809359 L61.846,7.81809359 L61.846,9.60891731e-06 L63.846,9.60891731e-06 Z M68.999,9.60891731e-06 L68.999,7.81809359 L66.999,7.81809359 L66.999,9.60891731e-06 L68.999,9.60891731e-06 Z M74.153,9.60891731e-06 L74.153,7.81809359 L72.153,7.81809359 L72.153,9.60891731e-06 L74.153,9.60891731e-06 Z M79.307,9.60891731e-06 L79.307,7.81809359 L77.307,7.81809359 L77.307,9.60891731e-06 L79.307,9.60891731e-06 Z M84.461,9.60891731e-06 L84.461,7.81809359 L82.461,7.81809359 L82.461,9.60891731e-06 L84.461,9.60891731e-06 Z M89.615,9.60891731e-06 L89.615,7.81809359 L87.615,7.81809359 L87.615,9.60891731e-06 L89.615,9.60891731e-06 Z M94.769,9.60891731e-06 L94.769,7.81809359 L92.769,7.81809359 L92.769,9.60891731e-06 L94.769,9.60891731e-06 Z M99.922,9.60891731e-06 L99.922,7.81809359 L97.922,7.81809359 L97.922,9.60891731e-06 L99.922,9.60891731e-06 Z M53.538,9.60891731e-06 L53.538,7.81809359 L51.538,7.81809359 L51.538,9.60891731e-06 L53.538,9.60891731e-06 Z M7.153,3.55151886e-13 L7.153,7.81809359 L5.153,7.81809359 L5.153,3.55151886e-13 L7.153,3.55151886e-13 Z M12.307,3.55151886e-13 L12.307,7.81809359 L10.307,7.81809359 L10.307,3.55151886e-13 L12.307,3.55151886e-13 Z M17.461,3.55151886e-13 L17.461,7.81809359 L15.461,7.81809359 L15.461,3.55151886e-13 L17.461,3.55151886e-13 Z M22.615,3.55151886e-13 L22.615,7.81809359 L20.615,7.81809359 L20.615,3.55151886e-13 L22.615,3.55151886e-13 Z M27.769,3.55151886e-13 L27.769,7.81809359 L25.769,7.81809359 L25.769,3.55151886e-13 L27.769,3.55151886e-13 Z M32.923,3.55151886e-13 L32.923,7.81809359 L30.923,7.81809359 L30.923,3.55151886e-13 L32.923,3.55151886e-13 Z M38.076,3.55151886e-13 L38.076,7.81809359 L36.076,7.81809359 L36.076,3.55151886e-13 L38.076,3.55151886e-13 Z M43.23,3.55151886e-13 L43.23,7.81809359 L41.23,7.81809359 L41.23,3.55151886e-13 L43.23,3.55151886e-13 Z M48.384,3.55151886e-13 L48.384,7.81809359 L46.384,7.81809359 L46.384,3.55151886e-13 L48.384,3.55151886e-13 Z M2,3.55151886e-13 L2,7.81809359 L0,7.81809359 L0,3.55151886e-13 L2,3.55151886e-13 Z" id="形状结合"></path>
                    </g>
                </g>
            </g>
        </g>
    </g>
</svg>