<?xml version="1.0" standalone="no"?><!DOCTYPE svg PUBLIC "-//W3C//DTD SVG 1.1//EN" "http://www.w3.org/Graphics/SVG/1.1/DTD/svg11.dtd"><svg t="1764144158908" class="icon" viewBox="0 0 1024 1024" version="1.1" xmlns="http://www.w3.org/2000/svg" p-id="5614" data-darkreader-inline-fill="" xmlns:xlink="http://www.w3.org/1999/xlink" width="200" height="200"><path d="M758.272 579.4816c93.0816 0 168.448 75.4688 168.448 168.448 0 93.0816-75.4688 168.448-168.448 168.448-93.0816 0-168.448-75.4688-168.448-168.448-0.1024-92.9792 75.3664-168.448 168.448-168.448m0-67.3792c-130.2528 0-235.9296 105.5744-235.9296 235.9296 0 130.2528 105.5744 235.9296 235.9296 235.9296 130.2528 0 235.9296-105.5744 235.9296-235.9296-0.1024-130.3552-105.6768-235.9296-235.9296-235.9296z m67.3792-202.24a35.98336 35.98336 0 0 0-33.6896 37.888v59.0848c0 18.6368 15.0528 33.6896 33.6896 33.6896s33.6896-15.0528 33.6896-33.6896v-59.0848c1.024-19.6608-14.0288-36.5568-33.6896-37.888z m0 0M421.2736 309.8624H219.0336c-18.6368 0-33.6896 15.0528-33.6896 33.6896s15.0528 33.6896 33.6896 33.6896h202.24c18.6368 0 33.6896-15.0528 33.6896-33.6896 0-18.5344-15.0528-33.6896-33.6896-33.6896z m67.3792 202.24H219.0336c-18.6368 0-33.6896 15.0528-33.6896 33.6896s15.0528 33.6896 33.6896 33.6896h269.6192c18.6368 0 33.6896-15.0528 33.6896-33.6896s-15.0528-33.6896-33.6896-33.6896z m0 0" fill="#666666" p-id="5615" data-darkreader-inline-fill="" style="--darkreader-inline-fill: var(--darkreader-background-666666, #595f63);"></path><path d="M117.9648 107.7248h404.3776v202.24c0 37.2736 30.208 67.3792 67.3792 67.3792h269.6192V337.92a67.584 67.584 0 0 0-19.7632-47.8208L609.5872 60.1088a67.67616 67.67616 0 0 0-47.8208-19.8656H117.9648c-37.2736 0-67.3792 30.208-67.3792 67.3792V916.48c0 37.2736 30.208 67.3792 67.3792 67.3792h336.9984V916.48H117.9648V107.7248z m471.7568 202.1376V135.5776L763.904 309.8624H589.7216z m0 0" fill="#666666" p-id="5616" data-darkreader-inline-fill="" style="--darkreader-inline-fill: var(--darkreader-background-666666, #595f63);"></path><path d="M421.2736 781.7216c18.6368 0 33.6896-15.0528 33.6896-33.6896s-15.0528-33.6896-33.6896-33.6896H219.0336c-18.6368 0-33.6896 15.0528-33.6896 33.6896s15.0528 33.6896 33.6896 33.6896h202.24z m0 0M421.2736 916.48h67.3792c22.4256 0 33.6896 11.264 33.6896 33.6896s-11.264 33.6896-33.6896 33.6896h-67.3792c-22.4256 0-33.6896-11.264-33.6896-33.6896s11.1616-33.6896 33.6896-33.6896z m0 0M825.6512 849.1008c-8.9088 0-17.5104-3.4816-23.8592-9.8304L667.0336 704.512a33.6896 33.6896 0 0 1 0-47.7184 33.6896 33.6896 0 0 1 47.7184 0L849.5104 791.552a33.792 33.792 0 0 1 7.3728 36.7616 33.93536 33.93536 0 0 1-31.232 20.7872z m0 0" fill="#666666" p-id="5617" data-darkreader-inline-fill="" style="--darkreader-inline-fill: var(--darkreader-background-666666, #595f63);"></path><path d="M690.8928 849.1008c-13.6192 0-26.0096-8.192-31.232-20.7872-5.2224-12.5952-2.3552-27.136 7.3728-36.7616L801.792 656.7936a33.6896 33.6896 0 0 1 47.7184 0 33.6896 33.6896 0 0 1 0 47.7184L714.752 839.2704c-6.3488 6.3488-14.9504 9.8304-23.8592 9.8304z m0 0" fill="#666666" p-id="5618" data-darkreader-inline-fill="" style="--darkreader-inline-fill: var(--darkreader-background-666666, #595f63);"></path></svg>