<?xml version="1.0" encoding="UTF-8"?>
<svg width="30px" height="30px" viewBox="0 0 30 30" version="1.1" xmlns="http://www.w3.org/2000/svg" xmlns:xlink="http://www.w3.org/1999/xlink">
    <title>confirm</title>
    <g id="黑色版本" stroke="none" stroke-width="1" fill="none" fill-rule="evenodd">
        <g id="消息对象默认图标" transform="translate(-789.000000, -104.000000)">
            <g id="confirm" transform="translate(789.000000, 104.000000)">
                <circle id="椭圆形" fill="#0271E3" cx="15" cy="15" r="15"></circle>
                <g id="编组" transform="translate(7.000000, 7.000000)" fill="#FFFFFF" fill-rule="nonzero">
                    <g id="形状">
                        <path d="M14.9399852,14.079986 C14.6935621,14.0802098 14.4747521,13.9224363 14.3971289,13.6885581 L11.9057042,6.23714094 L11.9057042,6.21428383 L10.0885642,0.785720733 C9.9339845,0.315833653 9.49465302,-0.00126912936 9.00000424,3.8185032e-06 L7.54285387,3.8185032e-06 C7.05181729,0.000380046351 6.61590244,0.314376767 6.45999842,0.780006458 L2.14571946,13.6885581 C2.06809625,13.9224363 1.84928624,14.0802098 1.60286315,14.079986 L0.960007017,14.079986 C0.705166792,14.0792242 0.460544513,14.1801219 0.280344456,14.360322 C0.100144399,14.540522 -0.000753340308,14.7851443 4.2354739e-06,15.0399845 C-0.000753340308,15.2948248 0.100144399,15.5394471 0.280344456,15.7196471 C0.460544513,15.8998472 0.705166792,16.0007449 0.960007017,15.9999874 L15.039985,15.9999874 C15.2948252,16.0007449 15.5394475,15.8998472 15.7196476,15.7196471 C15.8998476,15.5394471 16.0007454,15.2948248 15.9999878,15.0399845 C16.0007454,14.7851443 15.8998476,14.540522 15.7196476,14.360322 C15.5394475,14.1801219 15.2948252,14.0792242 15.039985,14.079986 L14.9399852,14.079986 Z M7.81713916,1.42857689 L8.78570907,1.42857689 C8.91604929,1.4316169 9.03041417,1.51624693 9.07142291,1.64000514 C9.10068645,1.72216343 9.09415852,1.81282792 9.05342688,1.88994648 C9.01269525,1.96706504 8.94149265,2.02357037 8.85713753,2.0457188 L7.76856781,2.33143264 C7.66917508,2.35515654 7.56467941,2.32399319 7.4945169,2.24970348 C7.4243544,2.17541377 7.3992082,2.06930925 7.42856834,1.9714332 L7.53999673,1.62857658 C7.57792517,1.5079151 7.69067316,1.42655058 7.81713916,1.42857689 L7.81713916,1.42857689 Z M6.47714126,5.38285652 L9.58285068,4.55142923 C9.87815633,4.46502192 10.1888596,4.62795167 10.2857067,4.9200001 L10.6257062,5.93428425 C10.6760361,6.08391601 10.66222,6.24770261 10.5875355,6.38678888 C10.5128511,6.52587515 10.3839535,6.627867 10.2314211,6.66856885 L6.36856999,7.71428152 C6.16553166,7.7691267 5.94877759,7.70800758 5.80429999,7.55517177 C5.65982239,7.40233596 5.61097715,7.18249052 5.6771425,6.98285408 L6.08285615,5.76857023 C6.13942426,5.58087991 6.28825316,5.43528641 6.47714126,5.38285652 Z M4.55428711,11.1685619 L11.1971339,9.38570752 C11.489634,9.30661764 11.793014,9.46959039 11.8885614,9.75713552 L12.4057034,11.3114189 C12.4551959,11.4602975 12.4412993,11.6229765 12.3672726,11.7613037 C12.293246,11.8996308 12.1656017,12.0014371 12.0142755,12.0428463 L4.48857293,14.0599861 C4.44024301,14.0736394 4.39022171,14.0803731 4.34000173,14.0800018 L4.10857352,14.0800018 C3.9249307,14.0801529 3.75239814,13.9920489 3.6448563,13.8431884 C3.53731446,13.6943278 3.50786965,13.5028525 3.56571723,13.3285586 L4.16000201,11.5399899 C4.22067146,11.3577949 4.36879768,11.2182557 4.55428711,11.1685619 L4.55428711,11.1685619 Z"></path>
                    </g>
                </g>
            </g>
        </g>
    </g>
</svg>