<?xml version="1.0" encoding="UTF-8"?>
<svg width="30px" height="30px" viewBox="0 0 30 30" version="1.1" xmlns="http://www.w3.org/2000/svg" xmlns:xlink="http://www.w3.org/1999/xlink">
    <title>transferOrder</title>
    <g id="黑色版本" stroke="none" stroke-width="1" fill="none" fill-rule="evenodd">
        <g id="消息对象默认图标" transform="translate(-908.000000, -105.000000)">
            <g id="transferOrder" transform="translate(908.000000, 105.000000)">
                <circle id="椭圆形" fill="#3C52BF" cx="15" cy="15" r="15"></circle>
                <g id="编组" transform="translate(8.000000, 7.000000)" fill="#FFFFFF" fill-rule="nonzero">
                    <g id="形状结合">
                        <path d="M2.4128433,1.39205156 L2.4128433,3.42857143 C2.4128433,4.50268528 3.25355525,5.36197637 4.30444518,5.37056928 L4.30444518,5.37056928 L9.23942433,5.37056928 C10.2903143,5.37056928 11.1310262,4.5112782 11.1310262,3.43716434 L11.1310262,3.43716434 L11.1310262,1.39205156 L11.4504968,1.39205156 C12.5013867,1.39205156 13.3420986,2.25134264 13.3420986,3.3254565 L13.3420986,3.3254565 L13.3420986,9.35767991 C12.7199718,8.93662728 11.9801453,8.61009667 11.1394333,8.61009667 C10.9292553,8.61009667 10.6181919,8.61009667 10.2987214,8.7132116 L10.2987214,8.7132116 L3.15266981,8.7132116 C2.84160639,8.7132116 2.6314284,8.92803437 2.6314284,9.24597207 C2.6314284,9.56390977 2.83319927,9.77873255 3.15266981,9.77873255 L3.15266981,9.77873255 L8.50800493,9.77873255 C8.08764896,10.2083781 7.77658554,10.8528464 7.56640755,11.4973147 L7.56640755,11.4973147 L3.15266981,11.4973147 C2.84160639,11.4973147 2.6314284,11.7035446 2.6314284,12.0300752 C2.6314284,12.3480129 2.83319927,12.5628357 3.15266981,12.5628357 L3.15266981,12.5628357 L7.457115,12.5628357 C7.55800043,14.2814178 8.71818292,15.6820623 10.197836,16 L10.197836,16 L1.89160189,16 C0.84071195,16 -9.9475983e-14,15.1407089 -9.9475983e-14,14.0665951 L-9.9475983e-14,14.0665951 L-9.9475983e-14,3.3254565 C-9.9475983e-14,2.25134264 0.84071195,1.39205156 1.89160189,1.39205156 L1.89160189,1.39205156 L2.4128433,1.39205156 Z M11.2403188,9.45220193 C12.0810307,9.45220193 12.9217427,9.88184748 13.4429841,10.5263158 C13.7624546,11.0590763 14.0819252,11.7035446 13.9810397,12.3480129 C13.9810397,13.0955961 13.7708617,13.7486574 13.3505058,14.2814178 C12.8292644,14.9258861 11.9885524,15.3555317 11.1478405,15.3555317 C9.66818742,15.3555317 8.4071195,14.1783029 8.30623406,12.5628357 L8.30623406,12.5628357 L8.30623406,12.4597207 C8.30623406,12.141783 8.30623406,11.8238453 8.4071195,11.4973147 C8.71818292,10.7411386 9.24783145,10.1052632 9.87836541,9.77873255 C10.197836,9.56390977 10.3996068,9.45220193 10.7190774,9.45220193 L10.7190774,9.45220193 Z M12.8124501,11.273899 C12.6022721,11.0590763 12.3920941,11.0590763 12.1819162,11.273899 L12.1819162,11.273899 L10.8199628,12.6659506 L10.6097848,12.4511278 L10.0885434,11.9183673 C9.87836541,11.7035446 9.66818742,11.7035446 9.45800944,11.9183673 C9.24783145,12.1331901 9.24783145,12.3480129 9.45800944,12.5628357 L9.45800944,12.5628357 L10.5088994,13.6369495 C10.7190774,13.8517723 10.9292553,13.8517723 11.1394333,13.6369495 L11.1394333,13.6369495 L12.8208572,11.9183673 C13.0226281,11.7035446 13.0226281,11.4887218 12.8124501,11.273899 Z M6.71728848,7.9225515e-13 C7.55800043,7.9225515e-13 8.19694151,0.644468314 8.29782695,1.39205156 L8.29782695,1.39205156 L10.1894288,1.39205156 L10.1894288,3.43716434 C10.1894288,3.96992481 9.76907286,4.39957035 9.24783145,4.39957035 L9.24783145,4.39957035 L4.30444518,4.39957035 C3.77479665,4.39957035 3.35444068,3.96992481 3.35444068,3.43716434 L3.35444068,3.43716434 L3.35444068,1.39205156 L5.24604257,1.39205156 C5.346928,0.644468314 5.97746196,7.9225515e-13 6.71728848,7.9225515e-13 Z"></path>
                    </g>
                </g>
            </g>
        </g>
    </g>
</svg>