<?xml version="1.0" encoding="UTF-8"?>
<svg width="24px" height="24px" viewBox="0 0 24 24" version="1.1" xmlns="http://www.w3.org/2000/svg" xmlns:xlink="http://www.w3.org/1999/xlink">
    <title>accredit</title>
    <g id="后续新增页面" stroke="none" stroke-width="1" fill="none" fill-rule="evenodd">
        <g id="accredit">
            <circle id="椭圆形" fill="#166AEA" fill-rule="nonzero" cx="7" cy="7" r="7"></circle>
            <circle id="椭圆形备份-2" stroke="#9DC3FF" fill-opacity="0.7" fill="#9ABFF6" cx="13" cy="13" r="10"></circle>
            <g id="编组" transform="translate(7.500000, 8.000000)" fill="#FFFFFF" fill-rule="nonzero">
                <g id="形状" transform="translate(-0.000000, 0.000000)">
                    <g id="编组" transform="translate(-0.000000, 0.000000)">
                        <g transform="translate(-0.000000, 0.000000)" id="形状">
                            <g transform="translate(-0.000000, 0.000000)">
                                <g transform="translate(-0.000000, 0.000000)">
                                    <g transform="translate(-0.000000, 0.000000)">
                                        <g transform="translate(-0.000000, 0.000000)">
                                            <g transform="translate(-0.000000, 0.000000)">
                                                <g transform="translate(-0.000000, 0.000000)">
                                                    <g transform="translate(-0.000000, 0.000000)">
                                                        <g transform="translate(-0.000000, 0.000000)">
                                                            <g transform="translate(-0.000000, 0.000000)">
                                                                <g transform="translate(-0.000000, 0.000000)">
                                                                    <g transform="translate(-0.000000, 0.000000)">
                                                                        <g transform="translate(-0.000000, 0.000000)">
                                                                            <g transform="translate(-0.000000, 0.000000)">
                                                                                <path d="M5.83333333,4.36363637 C5.83333333,4.66488259 5.5721661,4.90909092 5.25,4.90909092 C4.9278339,4.90909092 4.66666667,4.66488259 4.66666667,4.36363637 C4.66666667,4.06239014 4.9278339,3.81818181 5.25,3.81818181 C5.5721661,3.81818181 5.83333333,4.06239014 5.83333333,4.36363637 Z M5.25,12 C2.24,11.3127273 -1.70530257e-13,8.48181817 -1.70530257e-13,5.45454544 L-1.70530257e-13,2.18181818 L5.25,0 L10.5,2.18181818 L10.5,5.45454544 C10.5,8.48181817 8.26000001,11.3127273 5.25,12 Z M3.52258205,4.08699474 C3.37832034,4.87342711 3.86169258,5.64248898 4.66666666,5.90727273 L4.66666666,9.27272727 L5.83333333,9.27272727 L5.83333333,8.18181819 L7,8.18181819 L7,7.09090908 L5.83333333,7.09090908 L5.83333333,5.90727273 C6.63830742,5.64248898 7.12167966,4.87342711 6.97741795,4.08699474 C6.83315625,3.30056235 6.10332747,2.72608398 5.25,2.72722154 C4.39667253,2.72608398 3.66684375,3.30056235 3.52258205,4.08699474 Z"></path>
                                                                            </g>
                                                                        </g>
                                                                    </g>
                                                                </g>
                                                            </g>
                                                        </g>
                                                    </g>
                                                </g>
                                            </g>
                                        </g>
                                    </g>
                                </g>
                            </g>
                        </g>
                    </g>
                </g>
            </g>
        </g>
    </g>
</svg>