<?xml version="1.0" encoding="UTF-8"?>
<svg width="24px" height="24px" viewBox="0 0 24 24" version="1.1" xmlns="http://www.w3.org/2000/svg" xmlns:xlink="http://www.w3.org/1999/xlink">
    <title>Acquisitionmodel</title>
    <g id="后续新增页面" stroke="none" stroke-width="1" fill="none" fill-rule="evenodd">
        <g id="Acquisitionmodel">
            <circle id="椭圆形" fill="#166AEA" fill-rule="nonzero" cx="7" cy="7" r="7"></circle>
            <circle id="椭圆形备份-2" stroke="#9DC3FF" fill-opacity="0.7" fill="#9ABFF6" cx="13" cy="13" r="10"></circle>
            <g id="编组" transform="translate(8.000000, 9.000000)" fill="#FFFFFF" fill-rule="nonzero">
                <g id="形状">
                    <path d="M9.40310608,1.85834501 C9.40310608,1.2230014 8.85323014,1.2230014 8.85323014,1.2230014 L2.1487795,1.2230014 C2.1487795,1.2230014 1.59890357,1.2230014 1.59890357,1.85834501 L1.59890357,2.49368864 L9.42580738,2.49368864 L9.42580738,1.85834501 L9.40310608,1.85834501 L9.40310608,1.85834501 Z M7.73203815,0 L3.26997149,0 C3.26997149,0 2.72009555,0 2.72009555,0.635343619 L8.30461539,0.635343619 C8.28191408,0 7.73203815,0 7.73203815,0 L7.73203815,0 Z M10.5242981,2.49368864 L10.193868,2.12762973 L10.193868,3.13043479 L0.806880426,3.13043479 L0.806880426,2.12762973 L0.476450391,2.49368864 C0.147281538,2.86115007 -0.0948656631,2.95792426 0.0362974044,3.74053296 C0.168721655,4.52314166 0.805619242,8.7769986 0.893902076,9.36465639 C1.00362503,10 1.57494107,10 1.57494107,10 L9.4018449,10 C9.4018449,10 9.97316095,10 10.0828839,9.36465639 C10.1711667,8.77840113 10.8080643,4.52314166 10.9619287,3.74053296 C11.0968753,2.95792426 10.8547281,2.85974754 10.5242981,2.49368864 Z M7.73203815,5.84291726 C7.73203815,5.84291726 7.73203815,6.47826087 7.18216221,6.47826087 L3.81858624,6.47826087 C3.26871031,6.47826087 3.26871031,5.84291726 3.26871031,5.84291726 L3.26871031,4.59607293 L4.06073345,4.59607293 L4.06073345,5.59887799 L6.96271631,5.59887799 L6.96271631,4.59607293 L7.75473945,4.59607293 L7.73203815,5.84291726 Z"></path>
                </g>
            </g>
        </g>
    </g>
</svg>