<?xml version="1.0" encoding="UTF-8"?>
<svg width="24px" height="24px" viewBox="0 0 24 24" version="1.1" xmlns="http://www.w3.org/2000/svg" xmlns:xlink="http://www.w3.org/1999/xlink">
    <title>Administrator</title>
    <g id="后续新增页面" stroke="none" stroke-width="1" fill="none" fill-rule="evenodd">
        <g id="Administrator">
            <circle id="椭圆形" fill="#166AEA" fill-rule="nonzero" cx="7" cy="7" r="7"></circle>
            <circle id="椭圆形备份-2" stroke="#9DC3FF" fill-opacity="0.7" fill="#9ABFF6" cx="13" cy="13" r="10"></circle>
            <g id="编组" transform="translate(8.000000, 7.000000)" fill="#FFFFFF" fill-rule="nonzero">
                <g id="形状">
                    <path d="M9.68693544,9.38309784 C9.72258261,9.50466542 9.7533688,9.65822447 9.779294,9.84537457 C9.80521922,10.0325247 9.81818182,10.2212743 9.81818182,10.4116236 C9.81818182,10.6019728 9.80197857,10.7827246 9.7728127,10.9522794 C9.74202651,11.1218342 9.6966574,11.2498001 9.63508502,11.336177 C9.59133624,11.3969608 9.47953377,11.456145 9.29805729,11.5121301 C9.11820115,11.5681152 8.89135557,11.6209011 8.61914087,11.6688883 C8.34692617,11.7168755 8.04392527,11.7616636 7.7101382,11.804852 C7.37635112,11.8480405 7.04256405,11.8848307 6.70877698,11.9152226 C6.37498989,11.9456145 6.04930444,11.9680085 5.73334096,11.9808051 C5.41737746,11.9936017 5.14030178,12 4.90211391,12 C4.66392605,12 4.39009102,11.9920021 4.07736818,11.9744068 C3.76464533,11.9568115 3.44382086,11.9360171 3.11489476,11.9088243 C2.78596866,11.8832311 2.45704257,11.8528392 2.13297744,11.8176486 C1.80729199,11.782458 1.51077241,11.7440682 1.24341869,11.7008798 C0.97606496,11.6576913 0.747599048,11.6161024 0.558020952,11.5777126 C0.368442855,11.5393228 0.251779412,11.4977339 0.20803062,11.4545455 C0.128634665,11.3937617 0.0670622922,11.2002133 0.0233135008,10.8754999 C-0.0204352908,10.5507865 -0.00261170903,10.1268995 0.0767842459,9.60703812 C0.120533037,9.3127166 0.242057458,9.08557718 0.439737183,8.93041855 C0.637416907,8.77366036 0.865882818,8.6504932 1.12513492,8.55931752 C1.38438702,8.46814183 1.65660172,8.38816315 1.94339935,8.31778193 C2.22857666,8.24900027 2.4781068,8.145028 2.68874912,8.0058651 C2.85564267,7.90189283 2.98526872,7.8011197 3.07762728,7.70674487 C3.16998583,7.61077046 3.23641919,7.51639562 3.275307,7.42042122 C3.31419482,7.32444682 3.33525904,7.22527326 3.33525904,7.12130099 C3.33525904,7.01732872 3.33039807,6.90055985 3.32229644,6.76939483 C3.30447286,6.57904559 3.24128017,6.43028526 3.13109803,6.32631299 C3.02091588,6.2223407 2.90101178,6.11356972 2.76814509,6.00159958 C2.69847109,5.94881365 2.63851904,5.8736337 2.58990927,5.77446014 C2.5412995,5.67528659 2.49593038,5.57291389 2.45218159,5.46894162 C2.40843281,5.3553719 2.36792466,5.23060517 2.33389782,5.09144228 C2.31607424,5.07384697 2.29014903,5.04345508 2.25450187,5.0002666 C2.22857666,4.95707812 2.19779048,4.8978939 2.16214331,4.82431351 C2.12649614,4.75073314 2.08760832,4.64356171 2.04385954,4.5059984 C2.00011075,4.36683551 1.97094488,4.24366836 1.95798228,4.13489736 C1.94501968,4.02612637 1.94664,3.93335111 1.96446358,3.854972 C1.97256521,3.7589976 1.99524977,3.67741936 2.03089694,3.60703812 C2.03089694,3.30311917 2.04872052,2.99920021 2.08436767,2.69528126 C2.12001484,2.44414823 2.17672624,2.17062116 2.2561222,1.87470008 C2.33551815,1.58037857 2.46352388,1.31484937 2.63851904,1.08131165 C2.79731095,0.863769661 2.96744514,0.684617435 3.15216225,0.540655825 C3.33687938,0.396694214 3.5280778,0.286323647 3.72575752,0.207944548 C3.92343724,0.12956545 4.1227373,0.075179952 4.325278,0.0447880565 C4.52781869,0.0143961611 4.72063745,0 4.90535456,0 C5.10789527,0.0175953079 5.27154815,0.0415889096 5.39955387,0.0719808052 C5.5275596,0.102372701 5.62964012,0.13916289 5.70903607,0.182351372 C5.78843203,0.225539856 5.8564857,0.27832578 5.9131971,0.339109571 C5.96990849,0.399893362 6.02986054,0.460677152 6.09143291,0.521460943 L6.34258338,0.521460943 C6.42197933,0.521460943 6.49813464,0.532657958 6.57266962,0.553452413 C6.64720459,0.575846441 6.72173958,0.615835777 6.79627455,0.676619568 C6.87080954,0.737403359 6.95182581,0.823780325 7.04094372,0.93735004 C7.24348442,1.19808051 7.39255438,1.48120501 7.48977392,1.78992269 C7.58699345,2.09864036 7.65666745,2.3913623 7.70041625,2.66808851 C7.74416504,2.98960277 7.77009024,3.30631831 7.7798122,3.61823514 C7.79763579,3.66142362 7.81059839,3.71420954 7.81870001,3.77499334 C7.82680164,3.83577713 7.83490327,3.9093575 7.83814392,3.99573448 C7.84300489,4.08211144 7.83652359,4.19088244 7.81870001,4.32044788 C7.80087644,4.49480138 7.77495122,4.63076513 7.73930405,4.72993868 C7.7036569,4.82911224 7.66476908,4.90589177 7.62102029,4.95707812 C7.5772715,5.01786191 7.52866173,5.06105039 7.47681131,5.08664356 C7.44116415,5.22580645 7.40227633,5.35057318 7.35852755,5.46414289 C7.31477875,5.56811516 7.26778931,5.67048787 7.22079986,5.76966143 C7.17219009,5.86883497 7.11385837,5.9456145 7.04256405,5.99680085 C6.89349409,6.11836843 6.77034935,6.22074114 6.67312981,6.30231938 C6.57591027,6.3854972 6.51109725,6.52625966 6.47545008,6.72460678 C6.44952488,6.84617435 6.43980292,6.96774193 6.44952488,7.08930952 C6.4576265,7.2108771 6.49165334,7.33404426 6.54836474,7.46041056 C6.60507614,7.58677686 6.69743469,7.70514529 6.82544042,7.81871501 C6.95344614,7.93228472 7.13006163,8.03145828 7.36014787,8.11783524 C7.56268856,8.19621434 7.78467317,8.26819514 8.02610169,8.33217809 C8.26753021,8.3977606 8.5008571,8.47134097 8.72446203,8.55291922 C8.94806697,8.63609704 9.14898735,8.74166888 9.32398251,8.87123434 C9.49249637,9.0055985 9.61564112,9.1751533 9.68693544,9.38309784 L9.68693544,9.38309784 Z M5.45302463,8.95441216 C5.47894983,8.90162623 5.48219048,8.84884031 5.45950593,8.79125567 C5.43682136,8.73527059 5.40441486,8.68088509 5.36066607,8.62809917 C5.31691727,8.57531324 5.26344653,8.51932818 5.20187415,8.45854439 L4.59587238,8.45854439 C4.53430001,8.51932818 4.48569024,8.57531324 4.45004307,8.62809917 C4.4143959,8.67128766 4.38685037,8.71927486 4.36416581,8.77206078 C4.34148125,8.8248467 4.3447219,8.87123434 4.37064712,8.91602239 C4.43221949,9.03758998 4.48406991,9.14316182 4.52943902,9.23433751 C4.57318781,9.3255132 4.62179758,9.397494 4.67526833,9.44868035 C4.65744475,9.52705945 4.63151953,9.63743002 4.59587238,9.78139163 C4.56022521,9.92535324 4.52781869,10.072514 4.49703251,10.2244735 C4.46624632,10.376433 4.44032112,10.518795 4.41763655,10.6547587 C4.394952,10.7891229 4.38523005,10.8914956 4.38523005,10.9602773 C4.38523005,11.0034657 4.40467395,11.0562517 4.44518209,11.1170355 C4.48406991,11.1778192 4.53105936,11.2402026 4.58290978,11.3057851 C4.63638051,11.3713676 4.68985127,11.4257531 4.74818299,11.4689416 C4.80489437,11.5121301 4.85512448,11.5345241 4.90049359,11.5345241 C4.94424238,11.5345241 4.99771313,11.5121301 5.0592855,11.4689416 C5.12085787,11.4257531 5.18080993,11.3761664 5.23752131,11.3185817 C5.29423272,11.2625966 5.34284249,11.2018128 5.38335062,11.1362303 C5.42223844,11.0706478 5.44330267,11.0162623 5.44330267,10.9730739 C5.44330267,10.9202879 5.43034006,10.8323114 5.40441486,10.7059451 C5.37848964,10.5795788 5.34932379,10.4388163 5.3185376,10.2836577 C5.28775142,10.1268995 5.2553449,9.97494001 5.21969773,9.82777926 C5.18405058,9.6806185 5.15326439,9.56384964 5.12733917,9.4758731 C5.18080993,9.43268461 5.23104001,9.37030126 5.27964978,9.28712344 C5.32339857,9.20394562 5.38335062,9.09357505 5.45302463,8.95441216 L5.45302463,8.95441216 Z"></path>
                </g>
            </g>
        </g>
    </g>
</svg>