<?xml version="1.0" encoding="UTF-8"?>
<svg width="24px" height="24px" viewBox="0 0 24 24" version="1.1" xmlns="http://www.w3.org/2000/svg" xmlns:xlink="http://www.w3.org/1999/xlink">
    <title>airconditioner</title>
    <g id="后续新增页面" stroke="none" stroke-width="1" fill="none" fill-rule="evenodd">
        <g id="airconditioner">
            <circle id="椭圆形" fill="#166AEA" fill-rule="nonzero" cx="7" cy="7" r="7"></circle>
            <circle id="椭圆形备份-2" stroke="#9DC3FF" fill-opacity="0.7" fill="#9ABFF6" cx="13" cy="13" r="10"></circle>
            <g id="编组" transform="translate(7.000000, 11.000000)" fill="#FFFFFF" fill-rule="nonzero">
                <path d="M11.9906129,3.075 C11.9530646,2.4375 11.8028711,1.65 11.5024842,0.787500008 C11.3522907,0.337500012 10.9017104,0 10.4135817,0 L1.51461968,0 C1.02649096,0 0.613458968,0.300000005 0.463265526,0.75 C0.200426987,1.5 0.050233533,2.25 0.0126851628,3.0375 C-0.0248631942,3.8625 0.0126851628,4.64999999 0.237975345,5.4375 C0.313072072,5.775 0.613458968,6 0.951394233,6 L11.0519039,6 C11.3898391,6 11.690226,5.775 11.7653227,5.4 C11.9530646,4.5375 12.0281612,3.7875 11.9906129,3.075 L11.9906129,3.075 Z M8.61126026,4.5 L1.85255495,4.5 C1.62726477,4.5 1.47707132,4.35 1.47707132,4.12499999 C1.47707132,3.89999999 1.62726478,3.75 1.85255495,3.75 L8.61126026,3.75 C8.83655044,3.75 8.98674389,3.9 8.98674389,4.12499999 C8.98674389,4.35 8.83655044,4.5 8.61126026,4.5 Z M10.3009366,4.6875 C10.0005497,4.6875 9.73771114,4.425 9.73771114,4.12499999 C9.73771114,3.82499999 10.0005497,3.5625 10.3009366,3.5625 C10.6013235,3.5625 10.864162,3.825 10.864162,4.12499999 C10.864162,4.42499999 10.6013235,4.6875 10.3009366,4.6875 Z" id="形状"></path>
            </g>
        </g>
    </g>
</svg>