<?xml version="1.0" encoding="UTF-8"?>
<svg width="24px" height="24px" viewBox="0 0 24 24" version="1.1" xmlns="http://www.w3.org/2000/svg" xmlns:xlink="http://www.w3.org/1999/xlink">
    <title>aivideo</title>
    <g id="后续新增页面" stroke="none" stroke-width="1" fill="none" fill-rule="evenodd">
        <g id="aivideo">
            <circle id="椭圆形" fill="#166AEA" fill-rule="nonzero" cx="7" cy="7" r="7"></circle>
            <circle id="椭圆形备份-2" stroke="#9DC3FF" fill-opacity="0.7" fill="#9ABFF6" cx="13" cy="13" r="10"></circle>
            <g id="编组" transform="translate(6.073481, 6.448158)" fill="#FFFFFF" fill-rule="nonzero">
                <path d="M11.6020702,12.4367161 L10.8096607,12.4367161 L10.4583094,11.5176739 L8.88844163,11.5176739 L8.55951696,12.4367161 L7.76710753,12.4367161 L9.26221967,8.64196123 L10.106958,8.64196123 L11.6020702,12.4367161 Z M9.68085106,9.22748005 L9.66589994,9.22748005 C9.66589994,9.24971494 9.65094882,9.30159635 9.62852214,9.37571266 C9.60609546,9.47206385 9.58366878,9.53876853 9.57619321,9.57582668 C9.56124209,9.59806157 9.39677976,10.0649943 9.07533065,10.9692132 L10.3162737,10.9692132 C9.97987349,10.050171 9.8079356,9.58323831 9.80046003,9.56100342 C9.74813111,9.44982896 9.71075331,9.34606613 9.68085106,9.22748005 Z M12.0281771,12.4367161 L12.0281771,8.64196123 L12.7682576,8.64196123 L12.7682576,12.4367161 L12.0281771,12.4367161 Z M6.50373778,12.0142531 C3.46866015,12.0142531 1.00172513,9.53876853 1.00172513,6.5 C1.00172513,3.46123147 3.46866015,0.993158495 6.50373778,0.993158495 C9.53881541,0.993158495 12.0057504,3.46123147 12.0057504,6.5 C12.013226,6.77423033 12.2449684,6.98916762 12.5215641,6.97434436 C12.7832087,6.96693273 12.9925244,6.75940707 13,6.5 C13,2.92018244 10.0845313,0 6.49626222,0 C2.9079931,0 0,2.92018244 0,6.5 C0,10.0872292 2.91546866,13 6.50373778,13 C6.78033353,13 7.00460035,12.7776511 7.00460035,12.5034208 C7.00460035,12.2291904 6.78033353,12.0142531 6.50373778,12.0142531 Z M5.70385279,3.31299886 C5.47211041,3.18700114 5.24784359,3.11288483 5.03105233,3.11288483 C4.54514089,3.11288483 4.04427832,3.4686431 4.04427832,4.24686431 L4.04427832,8.28620296 C4.04427832,9.07924743 4.53766532,9.42018244 5.03105233,9.42018244 C5.24784359,9.42018244 5.47211041,9.3608894 5.70385279,9.22006842 L9.28464635,7.2041049 C9.68832662,6.97434436 9.93502013,6.64082098 9.93502013,6.27023945 C9.93502013,5.89965792 9.69580219,5.55872292 9.29212191,5.32896237 L5.70385279,3.31299886 Z" id="形状"></path>
            </g>
        </g>
    </g>
</svg>