<?xml version="1.0" encoding="UTF-8"?>
<svg width="60px" height="60px" viewBox="0 0 60 60" version="1.1" xmlns="http://www.w3.org/2000/svg" xmlns:xlink="http://www.w3.org/1999/xlink">
    <title>编组 5</title>
    <g id="后续新增页面" stroke="none" stroke-width="1" fill="none" fill-rule="evenodd">
        <g id="碳排放" transform="translate(-323.000000, -247.000000)" fill="#FFFFFF">
            <g id="编组-5" transform="translate(323.000000, 247.000000)">
                <rect id="矩形" fill-opacity="0.2" x="0" y="0" width="60" height="60" rx="10.9090909"></rect>
                <g id="编组" transform="translate(7.000000, 15.000000)" fill-rule="nonzero">
                    <path d="M44.9910343,16.6258978 C45.1849029,12.9722985 42.2115,9.75605454 38.3251114,9.55644105 C37.0379143,9.4891556 35.7958028,9.87043976 34.7362886,10.3907805 C34.7430514,10.2584524 34.7723572,10.1485529 34.7813743,10.0162249 C35.0541429,4.85767464 30.9535972,0.295721923 25.45314,0.0131230828 C22.568326,-0.131897337 19.754043,0.930201166 17.6916343,2.94228248 C23.2552114,3.82820742 27.6330343,7.98196179 28.7421429,13.1920976 C29.2380857,13.1494835 29.7069772,13.1292978 30.1758686,13.1539691 C35.5591029,13.4320823 39.8016686,17.5566797 40.0721829,22.5896304 C42.8156486,21.7754766 44.8422514,19.4384291 44.9910343,16.6258978 Z M18.7962343,21.4637208 C18.76242,23.39257 19.5852343,24.6037079 20.9445686,24.6261363 C22.3264457,24.6508076 23.1920914,23.4688268 23.2259057,21.5399776 C23.25972,19.6335568 22.4369057,18.4897044 21.0527743,18.4672759 C19.6686429,18.4426046 18.8300486,19.5573 18.7962343,21.4637208 Z" id="形状"></path>
                    <path d="M30.2885829,15.0491756 C28.9517914,15.0491756 27.7029172,15.5538164 26.6321314,16.1930281 C26.6321314,16.0360287 26.6546743,15.9194006 26.6546743,15.7825869 C26.6546743,9.98931072 22.1754086,5.09093083 16.4698114,5.09093083 C11.7448285,5.09093083 7.64428284,8.50005969 6.44049429,12.9655699 C2.74121142,13.8828947 0,17.2942664 0,21.3672783 C0,25.7184033 2.9193,29.4034024 7.01984571,30 L31.0009371,30 C34.6551343,29.6321729 37.5541457,26.4271432 37.5541457,22.580659 C37.5541457,18.4829759 34.2989571,15.0491757 30.2885829,15.0491756 Z M12.9035314,26.8398272 C10.3854943,26.8398272 8.24617713,25.0545203 8.24617713,21.6207201 C8.24617713,18.2317769 10.4531228,16.2849849 12.97116,16.2849849 C14.2628657,16.2849849 15.3111086,16.9040109 15.9806314,17.6127508 L14.7317571,19.1715302 C14.2403228,18.7117463 13.7286,18.3685906 13.0162457,18.3685906 C11.7448286,18.3685906 10.6762971,19.5348715 10.6762971,21.5287634 C10.6762971,23.5428408 11.5892828,24.7337931 12.97116,24.733793 C13.7511429,24.733793 14.3981229,24.321109 14.86476,23.7940397 L16.1136343,25.3281478 C15.3111086,26.3374293 14.1974914,26.8398272 12.9035314,26.8398272 Z M21.1046229,26.8398272 C18.4084972,26.8398272 16.5599829,24.8481783 16.5599829,21.5063349 C16.5599829,18.1644914 18.4084972,16.2849849 21.1046229,16.2849849 C23.8030029,16.2849849 25.6515171,18.1869199 25.6515171,21.5063349 C25.6515171,24.8481783 23.8255457,26.8398272 21.1046229,26.8398272 Z M31.5802886,28.5802772 L27.6352886,28.5802772 L27.6352886,27.7795805 C29.0622514,26.4518146 30.0203229,25.3752475 30.0203229,24.527451 C30.0203229,24.0003818 29.7317743,23.7043258 29.2854257,23.7043258 C28.8841628,23.7043258 28.59336,23.9779533 28.3273543,24.2762521 L27.5902029,23.5204123 C28.1492657,22.9013863 28.6835314,22.6053304 29.4838029,22.6053304 C30.5996743,22.6053304 31.3571143,23.3364988 31.3571143,24.4579227 C31.3571143,25.4672043 30.5117572,26.5886283 29.6416029,27.4812818 C29.9324057,27.4364248 30.3111257,27.4139963 30.5771314,27.4139963 L31.6253743,27.4139963 L31.6253743,28.5802772 L31.5802886,28.5802772 L31.5802886,28.5802772 Z" id="形状"></path>
                </g>
            </g>
        </g>
    </g>
</svg>