<?xml version="1.0" encoding="UTF-8"?>
<svg width="24px" height="24px" viewBox="0 0 24 24" version="1.1" xmlns="http://www.w3.org/2000/svg" xmlns:xlink="http://www.w3.org/1999/xlink">
    <title>钻石</title>
    <g id="首页" stroke="none" stroke-width="1" fill="none" fill-rule="evenodd">
        <g id="能源首页" transform="translate(-264.000000, -763.000000)" fill="#0271E3" fill-rule="nonzero">
            <g id="编组-43" transform="translate(254.000000, 757.000000)">
                <g id="钻石" transform="translate(10.000000, 6.000000)">
                    <circle id="椭圆形" fill-opacity="0.15" cx="12" cy="12" r="12"></circle>
                    <path d="M17.4778283,10.5720315 C17.4164425,10.4000879 17.2507526,10.284937 17.064735,10.2849405 L14.7095785,10.2849405 L16.581626,6.61960256 C16.6492538,6.48671096 16.6418043,6.32900931 16.561937,6.20279815 C16.4820698,6.07658699 16.3411691,5.99985658 16.1895375,6 L9.18795729,6 C8.99991702,6 8.83291047,6.11766319 8.77311367,6.29223313 L7.02271861,11.4341614 C6.97794406,11.5648756 7.00013731,11.7087011 7.08235286,11.8206267 C7.1645684,11.9325524 7.29676176,11.9989041 7.43756224,11.9989166 L9.28422902,11.9989166 L7.88391298,17.4639294 C7.83641041,17.6432718 7.91200284,17.8321956 8.07128107,17.9322077 C8.23055929,18.0322198 8.43744105,18.0206637 8.584071,17.9035642 L17.3360463,11.0476598 C17.4810409,10.9338703 17.5368355,10.7428241 17.4752027,10.5711745" id="路径"></path>
                </g>
            </g>
        </g>
    </g>
</svg>