<?xml version="1.0" encoding="UTF-8"?>
<svg width="24px" height="24px" viewBox="0 0 24 24" version="1.1" xmlns="http://www.w3.org/2000/svg" xmlns:xlink="http://www.w3.org/1999/xlink">
    <title>assets</title>
    <g id="后续新增页面" stroke="none" stroke-width="1" fill="none" fill-rule="evenodd">
        <g id="assets">
            <circle id="椭圆形" fill="#166AEA" fill-rule="nonzero" cx="7" cy="7" r="7"></circle>
            <circle id="椭圆形备份-2" stroke="#9DC3FF" fill-opacity="0.7" fill="#9ABFF6" cx="13" cy="13" r="10"></circle>
            <g id="编组" transform="translate(7.000000, 8.000000)" fill="#FFFFFF" fill-rule="nonzero">
                <path d="M8.97460937,6.8743818 C9.04296875,7.05242334 9.08203125,7.24035609 9.08203125,7.42828882 C9.08203125,8.85262116 7.05078125,10 4.54101562,10 C2.03125,10 -1.11022302e-15,8.85262116 -1.11022302e-15,7.42828882 C-1.11022302e-15,7.23046489 0.0390625,7.05242334 0.107421875,6.8743818 C0.546875,8.02176064 2.36328125,8.89218595 4.54101562,8.89218595 C6.71875,8.89218595 8.53515625,8.03165182 8.97460937,6.8743818 Z M12.4316406,7.62611276 C12.4609375,7.68545994 12.4707031,7.75469831 12.4707031,7.8239367 C12.4707031,8.33827894 11.7382812,8.7537092 10.8300781,8.7537092 C9.921875,8.7537092 9.18945312,8.33827894 9.18945312,7.8239367 C9.18945312,7.75469831 9.19921875,7.69535114 9.22851562,7.62611276 C9.39453125,8.04154302 10.0488281,8.35806132 10.8300781,8.35806132 C11.6113281,8.35806132 12.265625,8.04154302 12.4316406,7.62611276 Z M8.97460937,5.3115727 C9.04296875,5.48961424 9.08203125,5.67754699 9.08203125,5.86547972 C9.08203125,7.27992087 7.05078125,8.4371909 4.54101562,8.4371909 C2.03125,8.4371909 -1.11022302e-15,7.28981206 -1.11022302e-15,5.86547972 C-1.11022302e-15,5.66765579 0.0390625,5.48961424 0.107421875,5.3115727 C0.546875,6.45895154 2.36328125,7.32937685 4.54101562,7.32937685 C6.71875,7.32937685 8.53515625,6.45895154 8.97460937,5.3115727 Z M12.4316406,7.06231454 C12.4609375,7.12166172 12.4707031,7.1909001 12.4707031,7.26013847 C12.4707031,7.77448071 11.7382812,8.18991097 10.8300781,8.18991097 C9.921875,8.18991097 9.18945312,7.77448071 9.18945312,7.26013847 C9.18945312,7.1909001 9.19921875,7.13155291 9.22851562,7.06231454 C9.39453125,7.47774481 10.0488281,7.7942631 10.8300781,7.7942631 C11.6113281,7.7942631 12.265625,7.47774481 12.4316406,7.06231454 Z M12.4316406,6.49851632 C12.4609375,6.5578635 12.4707031,6.62710187 12.4707031,6.69634026 C12.4707031,7.21068249 11.7382812,7.62611276 10.8300781,7.62611276 C9.921875,7.62611276 9.18945312,7.21068249 9.18945312,6.69634026 C9.18945312,6.62710187 9.19921875,6.5677547 9.22851562,6.49851632 C9.39453125,6.91394659 10.0488281,7.23046489 10.8300781,7.23046489 C11.6113281,7.23046489 12.265625,6.91394659 12.4316406,6.49851632 Z M10.0390625,5.26798822 C10.5466736,5.10190036 11.1720764,5.10190036 11.6796875,5.26798822 C12.1872987,5.43407609 12.5,5.74101912 12.5,6.07319486 C12.5,6.40537059 12.1872987,6.71231362 11.6796875,6.87840149 C11.1720764,7.04448935 10.5466736,7.04448935 10.0390625,6.87840149 C9.53145134,6.71231362 9.21875,6.40537059 9.21875,6.07319486 C9.21875,5.74101912 9.53145134,5.43407609 10.0390625,5.26798822 Z M8.97460937,3.7388724 C9.04296875,3.91691395 9.08203125,4.10484669 9.08203125,4.29277942 C9.08203125,5.71711177 7.05078125,6.8644906 4.54101562,6.8644906 C2.03125,6.8644906 -1.11022302e-15,5.71711177 -1.11022302e-15,4.29277942 C-1.11022302e-15,4.10484669 0.0390625,3.91691395 0.107421875,3.7388724 C0.556640625,4.89614244 2.37304687,5.76656775 4.54101562,5.76656775 C6.71875,5.76656775 8.53515625,4.89614244 8.97460937,3.7388724 Z M4.63867187,-2.55351296e-14 C7.14660555,-2.55351296e-14 9.1796875,1.15139431 9.1796875,2.57171117 C9.1796875,3.99202804 7.14660555,5.14342235 4.63867187,5.14342235 C2.1307382,5.14342235 0.09765625,3.99202804 0.09765625,2.57171117 C0.09765625,1.15139431 2.1307382,-2.55351296e-14 4.63867187,-2.55351296e-14 Z" id="形状结合"></path>
            </g>
        </g>
    </g>
</svg>