<?xml version="1.0" encoding="UTF-8"?>
<svg width="44px" height="44px" viewBox="0 0 44 44" version="1.1" xmlns="http://www.w3.org/2000/svg" xmlns:xlink="http://www.w3.org/1999/xlink">
    <title>编组 5备份 4</title>
    <g id="页面调整" stroke="none" stroke-width="1" fill="none" fill-rule="evenodd">
        <g id="工单效率-负荷分析" transform="translate(-1468.000000, -281.000000)">
            <g id="编组-28备份-2" transform="translate(1458.000000, 266.000000)">
                <g id="编组-5备份-4" transform="translate(10.000000, 15.000000)">
                    <rect id="矩形" fill="#0271E3" x="0" y="0" width="44" height="44" rx="8"></rect>
                    <g id="编组-25备份-2" transform="translate(6.000000, 6.000000)">
                        <rect id="矩形" x="0" y="0" width="32" height="32"></rect>
                        <g id="编组" transform="translate(6.000000, 7.000000)" fill="#FFFFFF" fill-rule="nonzero">
                            <g>
                                <path d="M14.4871584,14.9497664 L14.4871584,17.4000005 C14.4871584,17.7313625 14.2170679,18 13.8838833,18 L0.603275111,18 C0.270090557,18 0,17.7313625 0,17.4000005 L0,14.949804 C0,14.1572428 0.485906706,13.4417325 1.22483014,13.1460363 L4.95828746,11.615069 L4.96105772,11.6139438 C4.98541731,11.6040115 5.00254248,11.5818306 5.00590948,11.5558509 L5.11112268,10.7181356 C3.77288164,9.96142773 2.92633281,8.53725159 2.92593706,6.9834634 L2.92593706,4.18950992 L2.92663433,4.17510858 C2.99532538,2.75400773 3.88638676,1.49576576 5.20832664,0.953371589 L5.22176332,0.947877329 L7.74305452,0.052144061 L7.7499142,0.0498938518 C8.20955059,-0.101151439 8.71351107,0.100261034 8.94042709,0.525494314 L8.94389463,0.53201992 L9.31929261,1.27937064 C10.5824917,1.46752564 11.5612402,2.56041473 11.5612402,3.86686743 L11.5612402,6.9834634 C11.561146,8.53674529 10.7152944,9.96079017 9.37769413,10.7179106 L9.48296387,11.5559635 C9.48635418,11.5819013 9.50346912,11.6040353 9.52779679,11.6139438 L9.53062358,11.615069 L13.2624037,13.1460363 C14.0012894,13.4417513 14.4871584,14.1572615 14.4871584,14.9497477 L14.4871584,14.9497664 Z" id="形状"></path>
                                <path d="M16.2963053,15.5997769 L16.2963053,14.9497664 C16.2963053,13.422437 15.3615794,12.0458715 13.937517,11.4759123 L12.086119,10.7163354 C12.9037968,9.66537521 13.3703117,8.35760989 13.3703871,6.98359466 L13.3703871,3.86688618 C13.3703871,3.02581424 13.130449,2.23368436 12.7125361,1.55884662 L13.6048601,1.24184841 L13.6103252,1.24002949 C13.9780343,1.11921201 14.3812103,1.28034574 14.562728,1.62050236 L14.5654983,1.62573409 L14.8658166,2.22359592 C15.8763383,2.37411616 16.659322,3.24841619 16.659322,4.29356334 L16.659322,6.78677636 C16.6592654,8.02936063 15.982588,9.16858528 14.9125341,9.77426658 L14.9967537,10.4446789 C14.9994667,10.4654251 15.0131573,10.483128 15.0326162,10.491052 L15.0348777,10.491952 L18.0202339,11.7167034 C18.6113161,11.9532754 19,12.5256724 19,13.15965 L19,15.1197885 C19,15.3848819 18.7839389,15.5997769 18.5173912,15.5997769 L16.2963053,15.5997769 Z" id="路径" opacity="0.769463"></path>
                            </g>
                        </g>
                    </g>
                </g>
            </g>
        </g>
    </g>
</svg>