<?xml version="1.0" encoding="UTF-8"?>
<svg width="16px" height="14px" viewBox="0 0 16 14" version="1.1" xmlns="http://www.w3.org/2000/svg" xmlns:xlink="http://www.w3.org/1999/xlink">
    <title>形状结合</title>
    <g id="首页" stroke="none" stroke-width="1" fill="none" fill-rule="evenodd">
        <g id="编组-43" transform="translate(-7.000000, -4.000000)" fill="#FFFFFF" fill-rule="nonzero">
            <g id="编组" transform="translate(15.000000, 11.000000) rotate(-270.000000) translate(-15.000000, -11.000000) translate(8.000000, 3.000000)">
                <path d="M13.4161184,0 C13.7385873,0 14,0.275766652 14,0.615942056 C14,0.956117461 13.7385873,1.23188411 13.4161184,1.23188411 L7.58271035,1.23188411 L7.58271035,13.8973252 L10.0917811,11.2602411 C10.2378289,11.1063216 10.4506235,11.046288 10.6500072,11.1027543 C10.8493909,11.1592206 11.0050727,11.3236082 11.0584087,11.533994 C11.1117447,11.7443797 11.0546319,11.968801 10.9085842,12.1227205 L7.40841283,15.8134782 C7.30269419,15.9324797 7.15499038,16 7.00038791,16 C6.84578545,16 6.69808163,15.9324797 6.592363,15.8134782 L3.09217657,12.1227205 C2.98370749,12.0152828 2.92016304,11.8667727 2.91553489,11.7098902 C2.91090675,11.5530077 2.96557441,11.4006168 3.06750074,11.2862719 L3.09217657,11.2602411 C3.19779418,11.1409237 3.34623172,11.0741533 3.50096978,11.0763572 C3.65515589,11.0747134 3.80291387,11.1414289 3.90822641,11.2602411 L6.41649876,13.8956884 L6.41649876,1.23188411 L0.584642385,1.23188411 C0.262229637,1.23188411 0.000753230417,0.955239781 0.000753230417,0.615950002 C0.000753230417,0.276660223 0.262997932,0 0.584642385,0 L13.4161184,0 Z M4.08407558,4.92264178 C4.40654449,4.92264178 4.6679572,5.19840843 4.6679572,5.53858384 C4.6679572,5.87875924 4.40654449,6.15452589 4.08407558,6.15452589 L4.08407558,6.15452589 L0.58465745,6.15452589 C0.261760056,6.15452589 -8.8423096e-14,5.87839282 -8.8423096e-14,5.53776541 C-8.8423096e-14,5.19928611 0.262244702,4.92264178 0.58465745,4.92264178 L0.58465745,4.92264178 Z M13.4161184,4.92264178 C13.7385873,4.92264178 14,5.19840843 14,5.53858384 C14,5.87875924 13.7385873,6.15452589 13.4161184,6.15452589 L13.4161184,6.15452589 L9.91670025,6.15452589 C9.60591773,6.1376195 9.36215234,5.86686678 9.36215234,5.53858384 C9.36215234,5.21030089 9.60591773,4.93954817 9.91670025,4.92264178 L9.91670025,4.92264178 Z" id="形状结合"></path>
            </g>
        </g>
    </g>
</svg>