<?xml version="1.0" encoding="UTF-8"?>
<svg width="24px" height="24px" viewBox="0 0 24 24" version="1.1" xmlns="http://www.w3.org/2000/svg" xmlns:xlink="http://www.w3.org/1999/xlink">
    <title>brand</title>
    <g id="后续新增页面" stroke="none" stroke-width="1" fill="none" fill-rule="evenodd">
        <g id="brand">
            <circle id="椭圆形" fill="#166AEA" fill-rule="nonzero" cx="7" cy="7" r="7"></circle>
            <circle id="椭圆形备份-2" stroke="#9DC3FF" fill-opacity="0.7" fill="#9ABFF6" cx="13" cy="13" r="10"></circle>
            <g id="编组" transform="translate(7.000000, 9.000000)" fill="#FFFFFF" fill-rule="nonzero">
                <g id="形状">
                    <path d="M9.22264355,3.4337118 L3.31590132,3.4337118 L5.70603107,6.75152934e-09 L6.83251382,6.75152934e-09 L9.22264355,3.43406114 L9.22264355,3.4337118 Z M10.0702836,3.4337118 L7.68050116,0 L8.85177931,0 C9.04835775,0 9.23573974,0.0837555762 9.36744729,0.230567692 L12.2409506,3.43406114 L10.0706309,3.43406114 L10.0702836,3.4337118 Z M7.15094315,9.85327511 L10.4338556,4.13240175 L12.5,4.13240175 C12.4756924,4.26340611 12.4145762,4.38847161 12.3159569,4.4908297 L7.15094315,9.85327511 Z M9.63205268,4.13240175 L6.27864822,9.97554586 L2.92524377,4.13240175 L9.63205268,4.13240175 Z M5.4903881,10 L0.18404312,4.4908297 C0.0888621839,4.39225655 0.0248229717,4.2675388 0,4.13240175 L2.12344085,4.13240175 L5.4903881,10 Z M2.46791399,3.4337118 L0.259396616,3.4337118 L3.13255271,0.230567692 C3.26426026,0.0837555762 3.45164225,2.22044605e-16 3.64822069,2.22044605e-16 L4.85839099,2.22044605e-16 L2.46826125,3.43406114 L2.46791399,3.4337118 Z"></path>
                </g>
            </g>
        </g>
    </g>
</svg>