<?xml version="1.0" encoding="UTF-8"?>
<svg width="24px" height="24px" viewBox="0 0 24 24" version="1.1" xmlns="http://www.w3.org/2000/svg" xmlns:xlink="http://www.w3.org/1999/xlink">
    <title>breakdown</title>
    <g id="后续新增页面" stroke="none" stroke-width="1" fill="none" fill-rule="evenodd">
        <g id="breakdown">
            <circle id="椭圆形" fill="#166AEA" fill-rule="nonzero" cx="7" cy="7" r="7"></circle>
            <circle id="椭圆形备份-2" stroke="#9DC3FF" fill-opacity="0.7" fill="#9ABFF6" cx="13" cy="13" r="10"></circle>
            <g id="编组" transform="translate(6.999998, 6.999998)" fill="#FFFFFF" fill-rule="nonzero">
                <path d="M11.2049865,10.5599872 C11.0201693,10.560155 10.8560618,10.4418249 10.7978445,10.2664163 L8.92927689,4.67785624 L8.92927689,4.66071343 L7.56642254,0.589293107 C7.45048784,0.236877969 7.12098939,-0.000948999802 6.75000299,2.84675122e-06 L5.65714075,2.84675122e-06 C5.28886349,0.000287881375 4.96192752,0.235785305 4.84499957,0.585007402 L1.60929194,10.2664163 C1.55107457,10.4418249 1.38696713,10.560155 1.20214991,10.5599872 L0.72000805,10.5599872 C0.528877974,10.5594158 0.345411355,10.635089 0.21026138,10.770239 C0.0751114034,10.905389 -0.000561863643,11.0888556 3.14130946e-06,11.2799857 C-0.000561863643,11.4711158 0.0751114034,11.6545824 0.21026138,11.7897324 C0.345411355,11.9248824 0.528877974,12.0005556 0.72000805,12.0000028 L11.2799863,12.0000028 C11.4711164,12.0005556 11.654583,11.9248824 11.789733,11.7897324 C11.924883,11.6545824 12.0005562,11.4711158 12.0000031,11.2799857 C12.0005562,11.0888556 11.924883,10.905389 11.789733,10.770239 C11.654583,10.635089 11.4711164,10.5594158 11.2799863,10.5599872 L11.2049865,10.5599872 Z M5.86285462,1.07143498 L6.5892817,1.07143498 C6.6870368,1.073715 6.77281042,1.13718748 6.80356696,1.2300061 C6.8255146,1.29162478 6.82061867,1.35962311 6.79006995,1.41746201 C6.75952125,1.4753009 6.70611931,1.51767988 6.64285302,1.53429119 L5.82642612,1.74857646 C5.75188161,1.76636938 5.67350989,1.74299689 5.62088804,1.68727962 C5.56826619,1.63156236 5.54940655,1.55198401 5.57142665,1.47857702 L5.65499789,1.22143468 C5.68344421,1.13093862 5.76800517,1.06991525 5.86285462,1.07143498 L5.86285462,1.07143498 Z M4.85785669,4.03714325 L7.18713761,3.41357309 C7.40861673,3.34876764 7.64164404,3.47096489 7.71427938,3.6900011 L7.96927886,4.45071385 C8.00702625,4.5629376 7.99666418,4.6857775 7.94065088,4.79009214 C7.88463756,4.8944068 7.7879644,4.97090065 7.67356518,5.00142701 L4.77642829,5.78571113 C4.62414961,5.826845 4.46158414,5.78100568 4.35322599,5.66637889 C4.24486785,5.55175208 4.20823394,5.38686808 4.25785792,5.23714082 L4.562143,4.32642839 C4.60456907,4.18566071 4.71619069,4.07646565 4.85785669,4.03714325 Z M3.41571678,8.37642016 L8.39784941,7.03928001 C8.61722436,6.97996263 8.84475926,7.10219213 8.91641978,7.31785088 L9.30427612,8.48356281 C9.34139546,8.59522172 9.33097298,8.71723091 9.27545303,8.82097624 C9.21993306,8.92472156 9.1241999,9.0010762 9.01070529,9.03213312 L3.36643117,10.5449872 C3.33018375,10.5552272 3.29266779,10.5602774 3.25500284,10.5600099 L3.08143176,10.5600099 C2.94369971,10.5601123 2.81430036,10.4940344 2.73364402,10.382389 C2.65298768,10.2707436 2.63090407,10.1271372 2.67428975,9.99641687 L3.12000312,8.65499102 C3.16550518,8.51834484 3.27659979,8.41369049 3.41571678,8.37642016 L3.41571678,8.37642016 Z" id="形状"></path>
            </g>
        </g>
    </g>
</svg>