<?xml version="1.0" encoding="UTF-8"?>
<svg width="24px" height="24px" viewBox="0 0 24 24" version="1.1" xmlns="http://www.w3.org/2000/svg" xmlns:xlink="http://www.w3.org/1999/xlink">
    <title>broadcast</title>
    <g id="后续新增页面" stroke="none" stroke-width="1" fill="none" fill-rule="evenodd">
        <g id="broadcast">
            <circle id="椭圆形" fill="#166AEA" fill-rule="nonzero" cx="7" cy="7" r="7"></circle>
            <circle id="椭圆形备份-2" stroke="#9DC3FF" fill-opacity="0.7" fill="#9ABFF6" cx="13" cy="13" r="10"></circle>
            <g id="编组" transform="translate(8.000000, 7.000000)" fill="#FFFFFF" fill-rule="nonzero">
                <path d="M-6.66133815e-16,7.21333334 C-6.66133815e-16,7.31941993 0.0414842559,7.4211615 0.115326705,7.49617605 C0.189169154,7.5711906 0.289321007,7.61333334 0.39375,7.61333334 L0.7546875,7.61333334 C0.97214962,7.61333334 1.1484375,7.79241943 1.1484375,8.01333333 L1.1484375,11.6 C1.1484375,11.8209139 1.32472538,12 1.5421875,12 L1.929375,12 C2.03380399,12 2.13395585,11.9578573 2.2077983,11.8828427 C2.28164075,11.8078282 2.323125,11.7060866 2.323125,11.6 L2.323125,3.91333333 C2.323125,3.69241944 2.14683712,3.51333333 1.929375,3.51333333 L0.39375,3.51333333 C0.17628788,3.51333333 -6.66133815e-16,3.69241944 -6.66133815e-16,3.91333333 L-6.66133815e-16,7.21333334 Z M2.795625,3.48666666 C2.7838122,3.61972998 2.7838122,3.75360335 2.795625,3.88666667 L2.795625,7.21999999 C2.7838122,7.35306332 2.7838122,7.48693668 2.795625,7.62 C6.208125,7.62 9.305625,10.82 9.305625,10.82 C9.4565625,10.98 9.58125,10.9266667 9.58125,10.7066667 L9.58125,0.400000001 C9.58125,0.18 9.4565625,0.126666667 9.305625,0.286666667 C9.305625,0.286666667 6.2146875,3.48666666 2.795625,3.48666666 Z M10.2571875,0 C10.1259375,0 10.014375,0.18 10.014375,0.400000001 L10.014375,10.7 C10.014375,10.92 10.119375,11.1 10.2571875,11.1 C10.395,11.1 10.5,10.92 10.5,10.7 L10.5,0.400000001 C10.5,0.18 10.3884375,0 10.2571875,0 Z" id="形状"></path>
            </g>
        </g>
    </g>
</svg>