<?xml version="1.0" encoding="UTF-8"?>
<svg width="24px" height="24px" viewBox="0 0 24 24" version="1.1" xmlns="http://www.w3.org/2000/svg" xmlns:xlink="http://www.w3.org/1999/xlink">
    <title>Brokenline</title>
    <g id="后续新增页面" stroke="none" stroke-width="1" fill="none" fill-rule="evenodd">
        <g id="Brokenline">
            <circle id="椭圆形" fill="#166AEA" fill-rule="nonzero" cx="7" cy="7" r="7"></circle>
            <circle id="椭圆形备份-2" stroke="#9DC3FF" fill-opacity="0.7" fill="#9ABFF6" cx="13" cy="13" r="10"></circle>
            <path d="M16.9538877,8.54677219 L9.06103047,8.54677219 C8.48960189,8.54677219 8.00745903,9.02891507 8.00745903,9.60034357 L8.00745903,17.4932008 C8.00745903,18.0646293 8.48960189,18.5467722 9.06103047,18.5467722 L16.9538877,18.5467722 C17.5431733,18.5467722 18.007459,18.0646293 18.007459,17.4932008 L18.007459,9.60034357 C18.007459,9.02891507 17.5253162,8.54677219 16.9538877,8.54677219 Z M15.632459,14.4217722 C15.4360304,14.4217722 15.2753162,14.2610579 15.2753162,14.0646293 L15.2753162,12.8324864 L13.132459,14.9932008 C13.0610304,15.0646293 12.9896019,15.1003436 12.8824591,15.1003436 C12.7931733,15.1003436 12.7038877,15.0646293 12.632459,14.9932008 L11.7396019,14.1003436 L10.4896019,15.3324864 C10.4181733,15.4039151 10.3288877,15.4396293 10.2396019,15.4396293 C10.1503162,15.4396293 10.0610304,15.4039151 9.9896019,15.3324864 C9.84674478,15.1896293 9.84674478,14.9753436 9.9896019,14.8324864 L11.4717448,13.3503436 C11.6146019,13.2074864 11.8288877,13.2074864 11.9717448,13.3503436 L12.8646019,14.2432008 L14.7753162,12.3324864 L13.5253162,12.3324864 C13.3288877,12.3324864 13.1681733,12.1717722 13.1681733,11.9753436 C13.1681733,11.7789151 13.3288877,11.6182008 13.5253162,11.6182008 L15.7217448,11.6182008 C15.7396019,11.6182008 15.7396019,11.6182008 15.757459,11.6360579 C15.7753162,11.6360579 15.7753162,11.6539151 15.7931733,11.6539151 C15.8110304,11.6539151 15.8110304,11.6717722 15.8288877,11.6717722 C15.8467448,11.6896293 15.8646019,11.6896293 15.8646019,11.7074864 L15.8824591,11.7253436 C15.9003162,11.7432008 15.9181733,11.7610579 15.9181733,11.7789151 C15.9181733,11.7967722 15.9360304,11.7967722 15.9360304,11.8146293 C15.9360304,11.8324864 15.9538877,11.8324864 15.9538877,11.8503436 C15.9538877,11.8682008 15.9538877,11.8682008 15.9717448,11.8860579 C15.9717448,11.9039151 15.9717448,11.9039151 15.9896019,11.9217722 L15.9896019,14.0646293 C15.9896019,14.2610579 15.8288877,14.4217722 15.632459,14.4217722 Z" id="形状" fill="#FFFFFF" fill-rule="nonzero"></path>
        </g>
    </g>
</svg>