<?xml version="1.0" encoding="UTF-8"?>
<svg width="24px" height="24px" viewBox="0 0 24 24" version="1.1" xmlns="http://www.w3.org/2000/svg" xmlns:xlink="http://www.w3.org/1999/xlink">
    <title>calendar</title>
    <g id="后续新增页面" stroke="none" stroke-width="1" fill="none" fill-rule="evenodd">
        <g id="calendar">
            <circle id="椭圆形" fill="#166AEA" fill-rule="nonzero" cx="7" cy="7" r="7"></circle>
            <circle id="椭圆形备份-2" stroke="#9DC3FF" fill-opacity="0.7" fill="#9ABFF6" cx="13" cy="13" r="10"></circle>
            <path d="M17.5316533,17.9550488 L8.73165328,17.9550488 C8.12412196,17.9550488 7.63165328,17.4576057 7.63165328,16.8439377 L7.63165328,10.7328265 L18.6316533,10.7328265 L18.6316533,16.8439377 C18.6316533,17.4576057 18.1391846,17.9550488 17.5316533,17.9550488 Z M14.7816533,12.3994932 C14.7816533,12.0927194 14.5354123,11.8439377 14.2316533,11.8439377 C14.1770376,11.8439377 12.0862689,11.8439377 12.0316533,11.8439377 C11.7279472,11.8439377 11.4816533,12.0927194 11.4816533,12.3994932 C11.4816533,12.7063205 11.7279472,12.9550488 12.0316533,12.9550488 C12.0862689,12.9550488 12.2626002,12.9550488 12.3066533,12.9550488 L13.5441533,12.9550488 L12.0316533,16.0106043 C12.0316533,16.1640448 12.1548002,16.2883822 12.3066533,16.2883822 L12.8566533,16.2883822 C13.0085593,16.2883822 13.1316533,16.1640448 13.1316533,16.0106043 L14.7816533,12.677271 C14.7816533,12.632773 14.7816533,12.4546605 14.7816533,12.3994932 Z M7.63165328,9.62171541 C7.63165328,9.00804742 8.12412196,8.51060433 8.73165328,8.51060433 L9.88714365,8.51060433 C10.0012654,8.18854275 10.2985437,7.95504878 10.6566533,7.95504878 C11.0147629,7.95504878 11.3120279,8.18854275 11.4261629,8.51060433 L14.8371568,8.51060433 C14.9512785,8.18854275 15.2485568,7.95504878 15.6066665,7.95504878 C15.9647761,7.95504878 16.2620412,8.18854275 16.3761761,8.51060433 L17.5316533,8.51060433 C18.1391846,8.51060433 18.6316533,9.00804742 18.6316533,9.62171541 L18.6316533,10.177271 L7.63165328,10.177271 L7.63165328,9.62171541 Z M15.3316533,9.62171541 L15.8816533,9.62171541 L15.8816533,8.51060433 L15.3316533,8.51060433 L15.3316533,9.62171541 Z M10.3816533,9.62171541 L10.9316533,9.62171541 L10.9316533,8.51060433 L10.3816533,8.51060433 L10.3816533,9.62171541 Z" id="形状" fill="#FFFFFF" fill-rule="nonzero"></path>
        </g>
    </g>
</svg>