<?xml version="1.0" encoding="UTF-8"?>
<svg width="24px" height="24px" viewBox="0 0 24 24" version="1.1" xmlns="http://www.w3.org/2000/svg" xmlns:xlink="http://www.w3.org/1999/xlink">
    <title>钻石</title>
    <g id="首页" stroke="none" stroke-width="1" fill="none" fill-rule="evenodd">
        <g id="能源首页" transform="translate(-1386.000000, -187.000000)" fill="#0271E3" fill-rule="nonzero">
            <g id="编组-43" transform="translate(1377.000000, 181.000000)">
                <g id="钻石" transform="translate(9.000000, 6.000000)">
                    <circle id="椭圆形" fill-opacity="0.15" cx="12" cy="12" r="12"></circle>
                    <g id="编组" transform="translate(5.000000, 7.000000)">
                        <path d="M8.09393724,4.85393258 C7.98847877,4.77808989 7.8830203,4.72752809 7.75119722,4.72752809 C7.64573876,4.72752809 7.56664491,4.75280899 7.48755106,4.80337079 C7.40845721,4.85393258 7.32936336,4.90449438 7.27663413,4.98033708 C7.22390489,5.05617978 7.17117566,5.15730337 7.14481105,5.28370787 C7.11844643,5.41011236 7.09208181,5.56179775 7.09208181,5.71348315 C7.09208181,5.86516854 7.11844643,6.01685393 7.14481105,6.14325843 C7.17117566,6.26966292 7.22390489,6.37078652 7.27663413,6.47191011 C7.32936336,6.54775281 7.40845721,6.62359551 7.48755106,6.6741573 C7.56664491,6.7247191 7.64573876,6.75 7.75119722,6.75 C7.8830203,6.75 7.98847877,6.7247191 8.09393724,6.6488764 C8.1993957,6.57303371 8.27848955,6.47191011 8.33121878,6.32022472 C8.38394802,6.16853933 8.41031263,5.99157303 8.41031263,5.76404494 C8.41031263,5.56179775 8.38394802,5.38483146 8.33121878,5.23314607 C8.25212493,5.03089888 8.17303109,4.92977528 8.09393724,4.85393258 Z" id="路径"></path>
                        <path d="M11.0731389,3.00842697 C10.7303989,3.00842697 10.3876589,3.08426966 10.0712835,3.18539326 C9.91309577,1.41573034 8.43667725,0 6.64388333,0 C4.90381865,0 3.48012937,1.31460674 3.24284782,3.00842697 C3.13738935,3.00842697 3.0582955,2.98314607 2.95283704,2.98314607 C1.31823082,2.98314607 0,4.32303371 0,5.99157303 C0,7.66011236 1.2918662,9 2.9001078,9 L3.08466012,9 L3.0582955,9 L11.0467743,9 C12.6813805,9 13.9996113,7.66011236 13.9996113,5.99157303 C14.0259759,4.37359551 12.7077451,3.00842697 11.0731389,3.00842697 Z M6.24841409,6.54775281 C6.22204947,6.6488764 6.14295562,6.75 6.06386177,6.8511236 C5.98476792,6.95224719 5.87930946,7.02808989 5.77385099,7.10393258 C5.66839253,7.17977528 5.51020483,7.20505618 5.35201713,7.20505618 C5.22019405,7.20505618 5.11473558,7.17977528 5.00927712,7.15449438 C4.90381865,7.12921348 4.8247248,7.07865169 4.74563095,7.02808989 C4.6665371,6.97752809 4.58744325,6.90168539 4.53471402,6.8005618 C4.48198479,6.6994382 4.42925556,6.62359551 4.37652632,6.49719101 C4.32379709,6.39606742 4.29743247,6.26966292 4.27106786,6.14325843 C4.24470324,6.01685393 4.24470324,5.89044944 4.24470324,5.73876404 C4.24470324,5.51123596 4.27106786,5.30898876 4.32379709,5.13202247 C4.37652632,4.95505618 4.45562017,4.80337079 4.56107864,4.67696629 C4.6665371,4.5505618 4.77199557,4.4494382 4.90381865,4.37359551 C5.03564173,4.29775281 5.19382943,4.27247191 5.32565251,4.27247191 C5.51020483,4.27247191 5.66839253,4.32303371 5.82658023,4.3988764 C5.98476792,4.5 6.09022639,4.6011236 6.16932024,4.72752809 C6.24841409,4.85393258 6.2747787,4.98033708 6.2747787,5.10674157 C6.2747787,5.18258427 6.24841409,5.23314607 6.22204947,5.28370787 C6.19568485,5.33426966 6.14295562,5.35955056 6.09022639,5.35955056 C6.03749716,5.35955056 5.98476792,5.33426966 5.95840331,5.30898876 C5.93203869,5.28370787 5.90567407,5.20786517 5.85294484,5.13202247 C5.80021561,5.00561798 5.72112176,4.87921348 5.64202791,4.82865169 C5.56293406,4.75280899 5.4574756,4.72752809 5.32565251,4.72752809 C5.1411002,4.72752809 4.9829125,4.80337079 4.87745403,5.00561798 C4.77199557,5.18258427 4.71926634,5.43539326 4.71926634,5.76404494 C4.71926634,5.99157303 4.74563095,6.16853933 4.79836019,6.32022472 C4.85108942,6.47191011 4.93018327,6.57303371 5.00927712,6.6488764 C5.08837097,6.7247191 5.22019405,6.75 5.32565251,6.75 C5.4574756,6.75 5.56293406,6.6994382 5.66839253,6.62359551 C5.74748638,6.54775281 5.82658023,6.42134831 5.87930946,6.26966292 C5.90567407,6.19382022 5.93203869,6.14325843 5.95840331,6.09269663 C5.98476792,6.04213483 6.03749716,6.01685393 6.09022639,6.01685393 C6.14295562,6.01685393 6.19568485,6.04213483 6.22204947,6.09269663 C6.2747787,6.14325843 6.2747787,6.19382022 6.2747787,6.26966292 C6.30114332,6.34550562 6.2747787,6.44662921 6.24841409,6.54775281 L6.24841409,6.54775281 Z M8.80578188,6.32022472 C8.75305265,6.49719101 8.6739588,6.6488764 8.59486495,6.7752809 C8.48940648,6.90168539 8.38394802,7.00280899 8.22576032,7.07865169 C8.09393724,7.15449438 7.93574954,7.17977528 7.75119722,7.17977528 C7.56664491,7.17977528 7.40845721,7.15449438 7.27663413,7.07865169 C7.14481105,7.00280899 7.01298796,6.90168539 6.9075295,6.7752809 C6.80207103,6.6488764 6.7493418,6.49719101 6.69661257,6.32022472 C6.64388333,6.14325843 6.61751872,5.94101124 6.61751872,5.73876404 C6.61751872,5.51123596 6.64388333,5.33426966 6.69661257,5.13202247 C6.7493418,4.95505618 6.82843565,4.80337079 6.9075295,4.67696629 C7.01298796,4.5505618 7.11844643,4.4494382 7.25026951,4.37359551 C7.38209259,4.29775281 7.54028029,4.27247191 7.72483261,4.27247191 C7.96211415,4.27247191 8.17303109,4.32303371 8.33121878,4.4494382 C8.5157711,4.5758427 8.62122956,4.72752809 8.72668803,4.95505618 C8.80578188,5.18258427 8.85851111,5.43539326 8.85851111,5.71348315 C8.85851111,5.96629213 8.8321465,6.14325843 8.80578188,6.32022472 L8.80578188,6.32022472 Z M10.0449189,7.10393258 C10.0185542,7.12921348 9.99218962,7.15449438 9.93946038,7.15449438 L9.25398036,7.15449438 C9.20125113,7.15449438 9.17488651,7.12921348 9.14852189,7.10393258 C9.12215728,7.07865169 9.12215728,7.02808989 9.12215728,7.00280899 C9.12215728,6.97752809 9.12215728,6.92696629 9.14852189,6.90168539 C9.17488651,6.8511236 9.17488651,6.8258427 9.20125113,6.8005618 C9.28034497,6.6994382 9.35943882,6.59831461 9.41216806,6.52247191 C9.49126191,6.44662921 9.51762652,6.39606742 9.54399114,6.37078652 C9.59672037,6.32022472 9.6494496,6.29494382 9.67581422,6.24438202 C9.70217884,6.19382022 9.72854345,6.14325843 9.75490807,6.11797753 C9.78127269,6.06741573 9.78127269,6.01685393 9.78127269,5.99157303 C9.78127269,5.94101124 9.78127269,5.89044944 9.75490807,5.86516854 C9.72854345,5.81460674 9.70217884,5.78932584 9.67581422,5.76404494 C9.6494496,5.73876404 9.59672037,5.73876404 9.57035575,5.73876404 C9.49126191,5.73876404 9.43853267,5.78932584 9.38580344,5.86516854 C9.38580344,5.86516854 9.35943882,5.91573034 9.35943882,5.96629213 C9.35943882,6.01685393 9.33307421,6.06741573 9.30670959,6.09269663 C9.28034497,6.11797753 9.25398036,6.14325843 9.22761574,6.14325843 C9.20125113,6.14325843 9.17488651,6.14325843 9.14852189,6.09269663 C9.12215728,6.06741573 9.12215728,6.04213483 9.12215728,5.99157303 C9.12215728,5.94101124 9.12215728,5.89044944 9.14852189,5.83988764 L9.22761574,5.68820225 C9.25398036,5.63764045 9.30670959,5.61235955 9.35943882,5.58707865 C9.41216806,5.56179775 9.49126191,5.53651685 9.57035575,5.53651685 C9.67581422,5.53651685 9.75490807,5.56179775 9.8076373,5.58707865 C9.86036654,5.61235955 9.88673115,5.63764045 9.91309577,5.68820225 L9.99218962,5.83988764 C10.0185542,5.89044944 10.0185542,5.94101124 10.0185542,6.01685393 C10.0185542,6.11797753 9.99218962,6.19382022 9.965825,6.26966292 C9.93946038,6.34550562 9.88673115,6.39606742 9.86036654,6.44662921 L9.6494496,6.6488764 C9.54399114,6.75 9.49126191,6.8258427 9.46489729,6.87640449 C9.43853267,6.90168539 9.43853267,6.92696629 9.41216806,6.95224719 L9.91309577,6.95224719 C9.965825,6.95224719 9.99218962,6.95224719 10.0185542,6.97752809 C10.0449189,7.00280899 10.0449189,7.02808989 10.0449189,7.07865169 C10.0712835,7.05337079 10.0712835,7.07865169 10.0449189,7.10393258 L10.0449189,7.10393258 Z" id="形状"></path>
                    </g>
                </g>
            </g>
        </g>
    </g>
</svg>