<?xml version="1.0" encoding="UTF-8"?>
<svg width="24px" height="24px" viewBox="0 0 24 24" version="1.1" xmlns="http://www.w3.org/2000/svg" xmlns:xlink="http://www.w3.org/1999/xlink">
    <title>Classifiedmanagement</title>
    <g id="后续新增页面" stroke="none" stroke-width="1" fill="none" fill-rule="evenodd">
        <g id="Classifiedmanagement">
            <circle id="椭圆形" fill="#166AEA" fill-rule="nonzero" cx="7" cy="7" r="7"></circle>
            <circle id="椭圆形备份-2" stroke="#9DC3FF" fill-opacity="0.7" fill="#9ABFF6" cx="13" cy="13" r="10"></circle>
            <g id="编组" transform="translate(8.000000, 8.000000)" fill="#FFFFFF" fill-rule="nonzero">
                <g id="形状">
                    <path d="M1.53846309,0 L0.769241613,0 C0.344397772,0 0,0.344418603 0,0.769243161 L0,1.53846619 C0,1.96327061 0.344417909,2.30768921 0.769241613,2.30768921 L1.53846309,2.30768921 C1.96326665,2.30768921 2.30768456,1.96327061 2.30768456,1.53846619 L2.30768456,0.769243161 C2.30768456,0.344398465 1.96326665,0 1.53846309,0 Z M9.23075839,7.69231079 L3.84616779,7.69231079 C3.42132395,7.69231079 3.07692618,8.03636694 3.07692618,8.46151368 L3.07692618,9.23075684 C3.07692618,9.655964 3.42134409,10 3.84616779,10 L9.23075839,10 C9.65596469,10 10,9.655964 10,9.23075684 L10,8.46151368 C10,8.03636694 9.65596469,7.69231079 9.23075839,7.69231079 L9.23075839,7.69231079 Z M1.53846309,7.69231079 L0.769241613,7.69231079 C0.344397772,7.69231079 0,8.03636694 0,8.46151368 L0,9.23075684 C0,9.655964 0.344417909,10 0.769241613,10 L1.53846309,10 C1.96326665,10 2.30768456,9.655964 2.30768456,9.23075684 L2.30768456,8.46151368 C2.30768456,8.03636694 1.96326665,7.69231079 1.53846309,7.69231079 Z M9.23075839,3.84617554 L3.84616779,3.84617554 C3.42132395,3.84617554 3.07692618,4.19059414 3.07692618,4.61539855 L3.07692618,5.38460145 C3.07692618,5.8098086 3.42134409,6.1538446 3.84616779,6.1538446 L9.23075839,6.1538446 C9.65596469,6.1538446 10,5.8098086 10,5.38460145 L10,4.61539855 C10,4.190574 9.65596469,3.84617554 9.23075839,3.84617554 L9.23075839,3.84617554 Z M1.53846309,3.84617554 L0.769241613,3.84617554 C0.344397772,3.84617554 0,4.19059414 0,4.61539855 L0,5.38460145 C0,5.8098086 0.344417909,6.1538446 0.769241613,6.1538446 L1.53846309,6.1538446 C1.96326665,6.1538446 2.30768456,5.8098086 2.30768456,5.38460145 L2.30768456,4.61539855 C2.30768456,4.190574 1.96326665,3.84617554 1.53846309,3.84617554 L1.53846309,3.84617554 Z M9.23075839,0 L3.84616779,0 C3.42132395,0 3.07692618,0.344418603 3.07692618,0.769243161 L3.07692618,1.53846619 C3.07692618,1.96327061 3.42134409,2.30768921 3.84616779,2.30768921 L9.23075839,2.30768921 C9.65596469,2.30768921 10,1.96327061 10,1.53846619 L10,0.769243161 C10,0.344398465 9.65596469,0 9.23075839,0 L9.23075839,0 Z"></path>
                </g>
            </g>
        </g>
    </g>
</svg>