<?xml version="1.0" encoding="UTF-8"?>
<svg width="24px" height="24px" viewBox="0 0 24 24" version="1.1" xmlns="http://www.w3.org/2000/svg" xmlns:xlink="http://www.w3.org/1999/xlink">
    <title>cold</title>
    <g id="后续新增页面" stroke="none" stroke-width="1" fill="none" fill-rule="evenodd">
        <g id="cold">
            <circle id="椭圆形" fill="#166AEA" fill-rule="nonzero" cx="7" cy="7" r="7"></circle>
            <circle id="椭圆形备份-2" stroke="#9DC3FF" fill-opacity="0.7" fill="#9ABFF6" cx="13" cy="13" r="10"></circle>
            <g id="编组" transform="translate(7.000000, 7.000000)" fill="#FFFFFF" fill-rule="nonzero">
                <path d="M5.88646329,0 C6.13624668,0 6.34060182,0.199991002 6.34060182,0.444440097 L6.3405,1.887 L7.56679261,0.688889193 C7.74844563,0.511103764 8.0322882,0.511103764 8.21395321,0.688889193 C8.39560621,0.866662886 8.39560621,1.14444381 8.21395321,1.32221751 L6.3405,3.144 L6.3405,5.2245 L8.4105,4.056 L9.09952813,1.55555208 C9.16764651,1.32222924 9.4174299,1.17777565 9.65585622,1.24443932 C9.89427054,1.31110298 10.0418764,1.55555208 9.97375798,1.78888665 L9.5295,3.423 L10.5754903,2.83333497 C10.7912145,2.71111041 11.0750451,2.7888886 11.1999488,3 C11.3248285,3.2111114 11.245353,3.48889233 11.0296408,3.61111688 L9.978,4.2045 L11.6654324,4.64443893 C11.9038587,4.71110259 12.0514645,4.95555168 11.9833341,5.18889799 C11.9265728,5.38888901 11.7449198,5.51111355 11.5405527,5.51111355 C11.5064935,5.51111355 11.4610772,5.51111355 11.4270061,5.5 L8.874,4.8285 L6.8025,6 L8.8695,7.167 L11.4043039,6.5 C11.6427303,6.43333731 11.8925136,6.57777917 11.960632,6.81111374 C12.0287504,7.04443658 11.8811566,7.28888566 11.6427303,7.35556107 L9.9705,7.7895 L11.0296288,8.38889487 C11.245353,8.51110767 11.3248285,8.78888861 11.1999368,9 C11.1091163,9.14444772 10.9615225,9.22222591 10.8025596,9.22222591 C10.7230841,9.22222591 10.6436087,9.19999688 10.5754903,9.16666503 L9.5025,8.5605 L9.95104386,10.2111016 C10.0191622,10.4444362 9.87156841,10.6888853 9.63314209,10.755549 C9.61043997,10.7666635 9.57638077,10.777778 9.53096452,10.777778 C9.32659738,10.777778 9.14494438,10.6444507 9.08818306,10.4444479 L8.3955,7.935 L6.3405,6.774 L6.3405,9.0885 L8.22529828,10.9333344 C8.40696328,11.1111198 8.40696328,11.388889 8.22529828,11.5666744 C8.04364527,11.7444481 7.7598027,11.7444481 7.57814968,11.5666744 L6.3405,10.3635 L6.34060182,11.5555599 C6.34060182,11.800009 6.13624668,12 5.88646329,12 C5.63667991,12 5.43232477,11.800009 5.43232477,11.5555599 L5.4315,10.3665 L4.20613396,11.5666744 C4.11530146,11.6555554 3.99040977,11.7000047 3.87687514,11.7000047 C3.7633405,11.7000047 3.64980588,11.6555554 3.55897338,11.5666744 C3.37732036,11.388889 3.37732036,11.1111198 3.55897338,10.9333344 L5.4315,9.099 L5.4315,6.774 L3.591,7.8135 L2.90046772,10.3222234 C2.8437064,10.5111116 2.66205339,10.6444507 2.46903132,10.6444507 C2.43497214,10.6444507 2.38955587,10.6444507 2.35549669,10.6333361 C2.11708236,10.5666725 1.96947655,10.3222234 2.03759493,10.0888888 L2.4855,8.4375 L1.19743626,9.1666533 C1.12931788,9.19998513 1.04984244,9.22222591 0.970366998,9.22222591 C0.811416115,9.22222591 0.663822295,9.14444772 0.572989792,9 C0.4480981,8.78888861 0.527573542,8.51110767 0.743285743,8.38888312 L2.016,7.668 L0.34592053,7.23333653 C0.107494208,7.16667286 -0.0401116056,6.92222376 0.0280187671,6.68888919 C0.0961371472,6.45556637 0.34592053,6.31111276 0.584334861,6.37777642 L3.117,7.0455 L4.9695,5.9985 L3.117,4.953 L0.584334861,5.62222357 C0.538930603,5.64444088 0.493514352,5.64444088 0.459455161,5.64444088 C0.255088029,5.64444088 0.0734230254,5.51111355 0.0166617061,5.31111081 C-0.0514566739,5.07778797 0.0961371472,4.83332714 0.334563469,4.76666347 L2.013,4.329 L0.743297736,3.61110513 C0.527573542,3.48889233 0.4480981,3.2111114 0.572989792,3 C0.697881484,2.7888886 0.981712066,2.71111041 1.19743626,2.83333497 L2.472,3.552 L2.02624986,1.9111112 C1.95813148,1.67777663 2.1057253,1.43332753 2.34413962,1.36665213 C2.58256596,1.29998846 2.83234933,1.44444205 2.90047971,1.67777663 L3.591,4.185 L5.4315,5.2245 L5.4315,3.144 L3.55897338,1.31109125 C3.37732036,1.13331755 3.37732036,0.855536625 3.55897338,0.677762933 C3.74063838,0.499989242 4.02448095,0.499989242 4.20613396,0.677762933 L5.4315,1.884 L5.43232477,0.444440097 C5.43232477,0.199991002 5.63667991,0 5.88646329,0 Z" id="形状结合"></path>
            </g>
        </g>
    </g>
</svg>