<?xml version="1.0" encoding="UTF-8"?>
<svg width="24px" height="24px" viewBox="0 0 24 24" version="1.1" xmlns="http://www.w3.org/2000/svg" xmlns:xlink="http://www.w3.org/1999/xlink">
    <title>columnar</title>
    <g id="后续新增页面" stroke="none" stroke-width="1" fill="none" fill-rule="evenodd">
        <g id="columnar">
            <circle id="椭圆形" fill="#166AEA" fill-rule="nonzero" cx="7" cy="7" r="7"></circle>
            <circle id="椭圆形备份-2" stroke="#9DC3FF" fill-opacity="0.7" fill="#9ABFF6" cx="13" cy="13" r="10"></circle>
            <path d="M9.47226495,17.6057095 L18.6165506,17.6057095 C18.692982,17.6064271 18.7553073,17.6671787 18.7579792,17.7435666 L18.7579792,18.1821381 C18.7579792,18.2585666 18.6936935,18.3199952 18.6165506,18.3199952 L8.89940783,18.3199952 C8.82146133,18.3196045 8.75836995,18.2565131 8.7579792,18.1785666 L8.7579792,8.46142385 C8.75869683,8.38499247 8.81944833,8.3226671 8.89583633,8.31999522 L9.33440783,8.31999522 C9.41083633,8.31999522 9.47226495,8.38428097 9.47226495,8.46142385 L9.47226495,17.6057095 Z M10.1865506,12.2507095 C10.1865506,12.0521381 10.3394078,11.8914238 10.547265,11.8914238 L11.2544078,11.8914238 C11.4536935,11.8914238 11.6151221,12.0578523 11.6151221,12.2507095 L11.6151221,16.5321381 C11.6162923,16.6280293 11.5786177,16.720315 11.5106728,16.7879907 C11.4427281,16.8556665 11.3502936,16.8929746 11.2544078,16.8914702 L10.547265,16.8914702 C10.3492458,16.8898813 10.188879,16.7301496 10.1865506,16.5321381 L10.1865506,12.2507095 Z M12.6901221,9.03428097 L13.397265,9.03428097 C13.5965506,9.03428097 13.7579792,9.1985666 13.7579792,9.3921381 L13.7579792,16.534281 C13.7589598,16.6299856 13.7211775,16.7220156 13.6532318,16.789423 C13.5852863,16.8568303 13.4929588,16.8938797 13.397265,16.8922518 L12.6901221,16.8922518 C12.4918996,16.8917525 12.3309743,16.7317833 12.3294078,16.5335666 L12.3294078,9.39142385 C12.3294078,9.19428097 12.482265,9.03428097 12.6901221,9.03428097 Z M14.8329792,13.3199952 L15.5401221,13.3199952 C15.7394078,13.3199952 15.9008606,13.4735666 15.9008606,13.6757095 L15.9008606,16.5357095 C15.9016331,16.631165 15.8637208,16.7228705 15.7957518,16.7898973 C15.7277828,16.8569241 15.6355571,16.8935527 15.5401221,16.8914238 L14.8329792,16.8914238 C14.7376597,16.8931545 14.6456651,16.8563966 14.5777841,16.7894565 C14.5099031,16.7225165 14.4718648,16.6310438 14.4722527,16.5357095 L14.4722527,13.6757095 C14.4722527,13.479281 14.6251221,13.3199952 14.8329792,13.3199952 Z M16.6151221,11.534281 C16.6151221,11.3371381 16.7679792,11.1771381 16.9758363,11.1771381 L17.6829792,11.1771381 C17.882265,11.1771381 18.0436935,11.3414238 18.0436935,11.534281 L18.0436935,16.534281 C18.0436935,16.7314238 17.8908363,16.8914238 17.6829792,16.8914238 L16.9758363,16.8914238 C16.7783233,16.8906635 16.6178476,16.7317766 16.6151221,16.534281 L16.6151221,11.534281 Z" id="形状" fill="#FFFFFF" fill-rule="nonzero"></path>
        </g>
    </g>
</svg>