<?xml version="1.0" encoding="UTF-8"?>
<svg width="28px" height="28px" viewBox="0 0 28 28" version="1.1" xmlns="http://www.w3.org/2000/svg" xmlns:xlink="http://www.w3.org/1999/xlink">
    <title>完成率</title>
    <g id="页面调整" stroke="none" stroke-width="1" fill="none" fill-rule="evenodd">
        <g id="工单效率-负荷分析备份" transform="translate(-1390.000000, -492.000000)" fill="#F6BB06" fill-rule="nonzero">
            <g id="完成率" transform="translate(1390.000000, 492.000000)">
                <circle id="椭圆形" fill-opacity="0.15" cx="14" cy="14" r="14"></circle>
                <g id="编组" transform="translate(8.000000, 8.000000)">
                    <path d="M6,0 C2.71232877,0 0,2.71232877 0,6 C0,9.28767123 2.71232877,12 6,12 C9.28767123,12 12,9.28767123 12,6 C12,2.71232877 9.28767123,0 6,0 Z M7.97260274,8.05479452 C7.97260274,8.38356164 7.64383562,8.71232877 7.31506849,8.71232877 C6.98630137,8.71232877 6.65753425,8.38356164 6.65753425,8.05479452 C6.65753425,7.7260274 6.98630137,7.39726027 7.31506849,7.39726027 C7.64383562,7.39726027 7.97260274,7.64383562 7.97260274,8.05479452 Z M5.17808219,3.61643836 C5.17808219,3.94520548 4.84931507,4.2739726 4.52054795,4.2739726 C4.19178082,4.2739726 3.8630137,4.02739726 3.8630137,3.61643836 C3.8630137,3.20547945 4.19178082,2.95890411 4.52054795,2.95890411 C4.84931507,2.95890411 5.17808219,3.28767123 5.17808219,3.61643836 Z M8.1369863,2.95890411 C8.30136986,3.12328767 8.30136986,3.36986301 8.21917808,3.53424658 L3.8630137,8.87671233 C3.69863014,9.04109589 3.45205479,9.04109589 3.28767123,8.95890411 C3.12328767,8.79452055 3.12328767,8.54794521 3.20547945,8.38356164 L7.56164384,3.04109589 C7.7260274,2.79452055 7.97260274,2.79452055 8.1369863,2.95890411 Z" id="形状"></path>
                </g>
            </g>
        </g>
    </g>
</svg>