<?xml version="1.0" encoding="UTF-8"?>
<svg width="24px" height="24px" viewBox="0 0 24 24" version="1.1" xmlns="http://www.w3.org/2000/svg" xmlns:xlink="http://www.w3.org/1999/xlink">
    <title>computerroom</title>
    <g id="后续新增页面" stroke="none" stroke-width="1" fill="none" fill-rule="evenodd">
        <g id="computerroom">
            <circle id="椭圆形" fill="#166AEA" fill-rule="nonzero" cx="7" cy="7" r="7"></circle>
            <circle id="椭圆形备份-2" stroke="#9DC3FF" fill-opacity="0.7" fill="#9ABFF6" cx="13" cy="13" r="10"></circle>
            <g id="编组" transform="translate(6.632823, 8.000000)" fill="#FFFFFF" fill-rule="nonzero">
                <path d="M7.97727273,0 L5.02272727,0 C4.69772727,0 4.43181818,0.264705883 4.43181818,0.588235299 L4.43181818,9.4117647 C4.43181818,9.73529411 4.69772728,10 5.02272727,10 L7.97727273,10 C8.30227273,10 8.56818182,9.73529411 8.56818182,9.4117647 L8.56818182,0.588235299 C8.56818182,0.264705883 8.30227272,0 7.97727273,0 Z M6.5,8.8235294 C6.175,8.8235294 5.9090909,8.55882353 5.9090909,8.23529413 C5.9090909,7.91176471 6.175,7.64705882 6.5,7.64705882 C6.825,7.64705882 7.0909091,7.9117647 7.0909091,8.23529413 C7.0909091,8.55882354 6.825,8.8235294 6.5,8.8235294 Z M7.23863637,5 L5.76136363,5 C5.525,5 5.31818182,4.79411765 5.31818182,4.55882353 C5.31818182,4.32352941 5.525,4.11764706 5.76136363,4.11764706 L7.23863637,4.11764706 C7.475,4.11764706 7.68181818,4.32352941 7.68181818,4.55882353 C7.68181818,4.79411765 7.475,5 7.23863637,5 Z M7.23863637,3.52941176 L5.76136363,3.52941176 C5.525,3.52941176 5.31818182,3.32352941 5.31818182,3.08823529 C5.31818182,2.85294117 5.525,2.64705882 5.76136363,2.64705882 L7.23863637,2.64705882 C7.475,2.64705882 7.68181818,2.85294117 7.68181818,3.08823529 C7.68181818,3.32352941 7.475,3.52941176 7.23863637,3.52941176 Z M7.23863637,2.05882354 L5.76136363,2.05882354 C5.525,2.05882354 5.31818182,1.85294119 5.31818182,1.61764707 C5.31818182,1.38235295 5.525,1.1764706 5.76136363,1.1764706 L7.23863637,1.1764706 C7.475,1.1764706 7.68181818,1.38235295 7.68181818,1.61764707 C7.68181818,1.85294119 7.475,2.05882354 7.23863637,2.05882354 Z M3.04318182,0.970588235 C2.9840909,0.9117647 2.89545454,0.88235294 2.80681817,0.88235294 L0.531818182,1.11764706 C0.236363641,1.14705882 -1.67199588e-13,1.4117647 -1.67199588e-13,1.70588236 L-1.67199588e-13,9.17647057 C-1.67199588e-13,9.47058822 0.236363641,9.7352941 0.531818182,9.76470587 L2.80681817,10 C2.89545454,10 2.9840909,9.97058824 3.04318182,9.9117647 L3.45681818,9.5 C3.5159091,9.44117646 3.54545455,9.38235294 3.54545455,9.29411765 L3.54545455,1.58823529 C3.54545455,1.5 3.5159091,1.44117646 3.45681818,1.38235294 L3.04318182,0.970588235 Z M2.2159091,5.64705881 C2.18636365,5.70588235 2.15681818,5.73529411 2.12727273,5.79411765 C2.09772728,5.82352941 2.03863637,5.85294117 2.00909092,5.88235294 L1.09318181,5.88235294 C1.0340909,5.88235294 1.00454545,5.85294118 0.945454537,5.85294118 C0.886363624,5.82352943 0.856818173,5.79411765 0.827272723,5.76470589 C0.797727273,5.73529412 0.768181809,5.67647059 0.738636359,5.61764706 C0.70909091,5.55882353 0.70909091,5.5 0.70909091,5.44117647 C0.70909091,5.38235294 0.70909091,5.32352941 0.738636359,5.26470589 C0.768181809,5.20588235 0.797727273,5.17647059 0.827272723,5.11764705 C0.856818173,5.0882353 0.915909086,5.05882352 0.945454537,5.02941176 C1.00454545,5 1.0340909,5 1.09318181,5 L1.86136363,5 C1.92045455,5 1.97954545,5 2.00909092,5.02941176 C2.06818182,5.05882352 2.09772727,5.0882353 2.12727273,5.11764705 C2.15681818,5.14705881 2.18636365,5.20588235 2.2159091,5.26470589 C2.24545454,5.32352941 2.24545454,5.38235294 2.24545454,5.44117647 C2.24545454,5.52941176 2.24545454,5.5882353 2.2159091,5.64705881 Z M2.2159091,4.14705883 C2.18636365,4.20588235 2.15681818,4.23529411 2.12727273,4.29411765 C2.09772728,4.32352941 2.03863637,4.35294119 2.00909092,4.38235294 C1.97954545,4.4117647 1.92045454,4.4117647 1.86136363,4.4117647 L1.09318181,4.4117647 C1.0340909,4.4117647 1.00454545,4.4117647 0.945454537,4.38235294 C0.886363624,4.35294119 0.856818173,4.32352941 0.827272723,4.29411765 C0.797727273,4.26470589 0.768181809,4.20588235 0.73863636,4.14705883 C0.70909091,4.08823529 0.70909091,4.02941176 0.70909091,3.97058823 C0.70909091,3.9117647 0.70909091,3.85294117 0.73863636,3.79411764 C0.768181809,3.73529411 0.797727273,3.70588235 0.827272723,3.64705883 C0.856818173,3.61764708 0.915909086,3.5882353 0.945454537,3.55882354 C1.00454545,3.55882354 1.0340909,3.52941176 1.09318181,3.52941176 L1.86136363,3.52941176 C1.92045455,3.52941176 1.97954545,3.52941176 2.00909092,3.55882354 C2.06818182,3.5882353 2.09772727,3.61764708 2.12727273,3.64705883 C2.15681818,3.67647059 2.18636365,3.73529412 2.2159091,3.79411764 C2.24545454,3.85294117 2.24545454,3.9117647 2.24545454,3.97058823 C2.24545454,4.02941176 2.24545454,4.08823529 2.2159091,4.14705883 Z M2.2159091,2.64705883 C2.18636365,2.70588235 2.15681818,2.73529411 2.12727273,2.79411765 C2.09772728,2.82352941 2.03863637,2.88235294 2.00909092,2.88235294 C1.97954545,2.9117647 1.92045454,2.94117648 1.86136363,2.94117648 L1.09318181,2.94117648 C1.0340909,2.94117648 1.00454545,2.94117648 0.945454537,2.9117647 C0.886363624,2.88235293 0.856818173,2.85294117 0.827272723,2.82352941 C0.797727273,2.79411765 0.768181809,2.73529411 0.738636359,2.6764706 C0.70909091,2.61764706 0.70909091,2.55882354 0.70909091,2.50000001 C0.70909091,2.44117648 0.70909091,2.38235295 0.738636359,2.32352943 C0.768181809,2.26470589 0.797727273,2.23529413 0.827272723,2.17647059 C0.856818173,2.14705883 0.915909086,2.11764706 0.945454537,2.0882353 C1.00454545,2.05882354 1.0340909,2.05882354 1.09318181,2.05882354 L1.86136363,2.05882354 C1.92045455,2.05882354 1.97954545,2.05882354 2.00909092,2.0882353 C2.06818182,2.11764706 2.09772727,2.14705883 2.12727273,2.17647059 C2.15681818,2.20588235 2.18636365,2.26470589 2.2159091,2.32352943 C2.24545454,2.38235295 2.24545454,2.44117648 2.24545454,2.50000001 C2.24545454,2.52941176 2.24545454,2.5882353 2.2159091,2.64705883 Z M12.4681818,1.11764706 L10.1931818,0.88235294 C10.1045455,0.88235294 10.0159091,0.9117647 9.95681818,0.970588235 L9.54318182,1.38235294 C9.4840909,1.44117647 9.45454545,1.5 9.45454545,1.58823529 L9.45454545,9.29411765 C9.45454545,9.38235294 9.4840909,9.44117648 9.54318182,9.5 L9.95681818,9.9117647 C10.0159091,9.97058824 10.1045455,10 10.1931818,10 L12.4681818,9.76470587 C12.7636364,9.73529411 13,9.47058824 13,9.17647058 L13,1.70588236 C13,1.41176471 12.7636364,1.14705884 12.4681818,1.11764706 Z M12.2613636,5.5882353 C12.2318182,5.64705884 12.2022727,5.67647059 12.1727273,5.73529411 C12.1431818,5.76470588 12.0840909,5.82352941 12.0545455,5.82352941 C11.9954545,5.85294116 11.9659091,5.85294116 11.9068182,5.85294118 L11.1386364,5.88235294 C11.0795455,5.88235294 11.0204545,5.88235294 10.9909091,5.85294118 C10.9318182,5.82352943 10.9022727,5.79411765 10.8727273,5.76470589 C10.8431818,5.73529412 10.8136364,5.67647059 10.7840909,5.61764706 C10.7545455,5.55882353 10.7545455,5.5 10.7545455,5.44117647 C10.7545455,5.38235294 10.7545455,5.32352941 10.7840909,5.26470589 C10.8136364,5.20588235 10.8431818,5.17647059 10.8727273,5.11764705 C10.9022727,5.0882353 10.9613636,5.02941176 10.9909091,5.02941176 C11.05,5 11.0795455,5 11.1386364,5 L11.9068182,5 C11.9659091,5 11.9954545,5 12.0545455,5.02941176 C12.1136364,5.05882352 12.1431818,5.0882353 12.1727273,5.11764705 C12.2022727,5.14705881 12.2318182,5.20588235 12.2613636,5.26470589 C12.2909091,5.32352941 12.2909091,5.38235294 12.2909091,5.44117647 C12.2909091,5.47058823 12.2613636,5.52941176 12.2613636,5.5882353 Z M12.2613636,4.14705883 C12.2318182,4.20588235 12.2022727,4.23529411 12.1727273,4.29411765 C12.1431818,4.32352941 12.0840909,4.35294119 12.0545455,4.38235294 C11.9954545,4.4117647 11.9659091,4.4117647 11.9068182,4.4117647 L11.1386364,4.4117647 C11.0795455,4.4117647 11.0204545,4.4117647 10.9909091,4.38235294 C10.9318182,4.35294119 10.9022727,4.32352941 10.8727273,4.29411765 C10.8431818,4.26470589 10.8136364,4.20588235 10.7840909,4.14705883 C10.7545455,4.08823529 10.7545455,4.02941176 10.7545455,3.97058823 C10.7545455,3.9117647 10.7545455,3.85294117 10.7840909,3.79411764 C10.8136364,3.73529411 10.8431818,3.70588235 10.8727273,3.64705883 C10.9022727,3.61764708 10.9613636,3.5882353 10.9909091,3.55882354 C11.05,3.52941176 11.0795455,3.52941176 11.1386364,3.52941176 L11.9068182,3.52941176 C11.9659091,3.52941176 11.9954545,3.52941176 12.0545455,3.55882354 C12.1136364,3.58823531 12.1431818,3.61764708 12.1727273,3.64705883 C12.2022727,3.67647059 12.2318182,3.73529412 12.2613636,3.79411764 C12.2909091,3.85294117 12.2909091,3.9117647 12.2909091,3.97058823 C12.2909091,4.02941176 12.2613636,4.08823529 12.2613636,4.14705883 Z M12.2613636,2.6764706 C12.2318182,2.73529413 12.2022727,2.76470589 12.1727273,2.82352941 C12.1431818,2.85294117 12.0840909,2.88235294 12.0545455,2.9117647 C11.9954545,2.94117648 11.9659091,2.94117648 11.9068182,2.94117648 L11.1386364,2.94117648 C11.0795455,2.94117648 11.0204545,2.94117648 10.9909091,2.9117647 C10.9318182,2.88235294 10.9022727,2.85294117 10.8727273,2.82352941 C10.8431818,2.79411765 10.8136364,2.73529411 10.7840909,2.6764706 C10.7545455,2.61764706 10.7545455,2.55882354 10.7545455,2.50000001 C10.7545455,2.44117648 10.7545455,2.38235295 10.7840909,2.32352943 C10.8136364,2.26470589 10.8431818,2.23529413 10.8727273,2.17647059 C10.9022727,2.14705883 10.9613636,2.11764706 10.9909091,2.0882353 C11.05,2.05882354 11.0795455,2.05882354 11.1386364,2.05882354 L11.9068182,2.0882353 C11.9659091,2.0882353 11.9954545,2.11764706 12.0545455,2.11764706 C12.1136364,2.14705881 12.1431818,2.17647059 12.1727273,2.20588235 C12.2022727,2.23529411 12.2318182,2.29411765 12.2613636,2.35294118 C12.2909091,2.41176471 12.2909091,2.47058824 12.2909091,2.52941176 C12.2909091,2.5882353 12.2613636,2.64705883 12.2613636,2.6764706 Z" id="形状"></path>
            </g>
        </g>
    </g>
</svg>