<?xml version="1.0" encoding="UTF-8"?>
<svg width="24px" height="24px" viewBox="0 0 24 24" version="1.1" xmlns="http://www.w3.org/2000/svg" xmlns:xlink="http://www.w3.org/1999/xlink">
    <title>curve</title>
    <g id="后续新增页面" stroke="none" stroke-width="1" fill="none" fill-rule="evenodd">
        <g id="curve">
            <circle id="椭圆形" fill="#166AEA" fill-rule="nonzero" cx="7" cy="7" r="7"></circle>
            <circle id="椭圆形备份-2" stroke="#9DC3FF" fill-opacity="0.7" fill="#9ABFF6" cx="13" cy="13" r="10"></circle>
            <path d="M16.8824375,8.43685835 C17.7108646,8.43685835 18.3824375,9.10843122 18.3824375,9.93685835 L18.3824375,16.9368583 C18.3824375,17.7652855 17.7108646,18.4368583 16.8824375,18.4368583 L9.8824375,18.4368583 C9.05401038,18.4368583 8.3824375,17.7652855 8.3824375,16.9368583 L8.3824375,9.93685835 C8.3824375,9.10843122 9.05401038,8.43685835 9.8824375,8.43685835 L16.8824375,8.43685835 Z M14.1734687,9.93685835 C13.6813312,9.93685835 13.282375,10.3447165 13.282375,10.847835 L13.282375,16.0259776 C13.282375,16.1056402 13.2192051,16.1702195 13.1412813,16.1702195 C13.0633574,16.1702195 13.0001875,16.1056402 13.0001875,16.0259776 L13,12.2005466 C13,11.6974281 12.6010437,11.28957 12.1089062,11.28957 C11.6167687,11.28957 11.2178125,11.6974281 11.2178125,12.2005466 L11.2178125,13.1006931 C11.2177091,13.2194287 11.1235815,13.3156565 11.0074375,13.3157622 L10.2574375,13.3157622 C10.0503307,13.3157622 9.8824375,13.4874016 9.8824375,13.6991295 C9.8824375,13.9108575 10.0503307,14.0824968 10.2574375,14.0824968 L11.007625,14.0824968 C11.5377685,14.0818631 11.9673801,13.6426656 11.968,13.1006931 L11.968,12.2005466 C11.968,12.120884 12.0311699,12.0563046 12.1090938,12.0563046 C12.1870176,12.0563046 12.2501875,12.120884 12.2501875,12.2005466 L12.2501875,16.0259776 C12.2507043,16.5288241 12.649316,16.9363301 13.1411875,16.9368583 C13.6330895,16.9363303 14.031755,16.5288552 14.032375,16.0259776 L14.032375,10.847835 C14.032375,10.7681723 14.0955449,10.703593 14.1734687,10.703593 C14.2513926,10.703593 14.3145625,10.7681723 14.3145625,10.847835 L14.3145625,14.9828351 C14.3150792,15.4856816 14.713691,15.8931876 15.2055625,15.8937158 C15.697434,15.8931876 16.0960457,15.4856816 16.0965625,14.9828351 L16.0965625,14.3144341 C16.1048225,14.1830587 16.212108,14.0812076 16.340875,14.0824968 L17.0074375,14.0824968 C17.2145442,14.0824968 17.3824375,13.9108575 17.3824375,13.6991295 C17.3824375,13.4874016 17.2145442,13.3157622 17.0074375,13.3157622 L16.340875,13.3157622 C15.7968105,13.3115067 15.3520256,13.7582416 15.3465625,14.3144341 L15.3465625,14.9828351 C15.3465625,15.0624447 15.2834346,15.1269812 15.2055625,15.1269812 C15.1276904,15.1269812 15.0645625,15.0624447 15.0645625,14.9828351 L15.0645625,10.847835 C15.0645625,10.3447165 14.6656062,9.93685835 14.1734687,9.93685835 Z" id="形状结合" fill="#FFFFFF" fill-rule="nonzero"></path>
        </g>
    </g>
</svg>