<?xml version="1.0" encoding="UTF-8"?>
<svg width="24px" height="24px" viewBox="0 0 24 24" version="1.1" xmlns="http://www.w3.org/2000/svg" xmlns:xlink="http://www.w3.org/1999/xlink">
    <title>defaultAreaLogo</title>
    <g id="黑色版本" stroke="none" stroke-width="1" fill="none" fill-rule="evenodd">
        <g id="平台默认图片尺寸" transform="translate(-91.000000, -718.000000)">
            <g id="defaultAreaLogo" transform="translate(91.000000, 718.000000)">
                <rect id="矩形" x="0" y="0" width="24" height="24"></rect>
                <path d="M8.23993736,16.553082 C9.1740931,17.5098891 10.1098632,18.4656319 11.0429427,19.4235033 C11.2616837,19.6956985 11.5783603,19.8923282 11.9273235,19.9479379 C12.348124,20.0219069 12.7987896,19.8931264 13.114121,19.6076275 C14.0988589,18.5843015 15.1000091,17.5758758 16.0877066,16.5549446 C17.0985428,16.694102 18.1010383,16.9045676 19.0766284,17.202306 C19.8948218,17.4566741 20.701446,17.7714412 21.4284301,18.2261641 C21.8355089,18.4847893 22.2226777,18.7910421 22.5033011,19.1850998 C22.7171991,19.4852328 22.8552238,19.8502883 22.8304709,20.2214634 C22.8084084,20.6493126 22.5837483,21.0401774 22.2974747,21.3512195 C21.7886935,21.8977384 21.1209012,22.2683814 20.4444993,22.574102 C19.1161793,23.1538803 17.6912689,23.4851441 16.2607084,23.7041242 C15.2331909,23.8541907 14.1962565,23.9547672 13.1577077,23.9749889 L13.2569887,24 L11.6577313,24 C11.4357617,23.9811086 11.2127158,23.9874945 10.9904772,23.9749889 C9.28117663,23.9042129 7.57160703,23.6974723 5.91504107,23.2669623 C5.04061533,23.0344124 4.17641364,22.7441242 3.37382532,22.3255876 C2.90863081,22.0794679 2.45957955,21.7897118 2.09232075,21.4118847 C1.83349073,21.1442129 1.6174403,20.8225277 1.53484072,20.4569401 C1.4581603,20.1227494 1.5108949,19.7664745 1.66506289,19.4610199 C1.87815373,19.0321064 2.23895523,18.695255 2.62370255,18.4156098 C3.26647275,17.9560976 3.99803078,17.6349446 4.74142718,17.3712639 C5.87414484,16.9766741 7.05313982,16.7247007 8.23993736,16.553082 Z M12.2170947,0 C12.8760081,0.00984478125 13.5349216,0.0907317187 14.1720416,0.259955648 C15.1748062,0.522305977 16.1221456,0.988203984 16.9411462,1.61773835 C18.2708114,2.63334811 19.2542041,4.08452327 19.6903407,5.6897561 C20.0180486,6.88496674 20.0481826,8.15813747 19.7807429,9.36771619 C19.5749165,10.302439 19.1877477,11.1964523 18.6504467,11.9914856 C18.4260556,12.314235 18.1930548,12.6351219 17.905705,12.9062528 C16.0903972,14.7129047 14.268632,16.5129047 12.4487503,18.3147672 C12.2994253,18.4720177 12.0214924,18.4682927 11.8759341,18.3078492 C10.079191,16.528071 8.28083356,14.7501552 6.486781,12.9677162 C6.37162586,12.8509091 6.24866813,12.7407539 6.14696569,12.6119734 C5.42374833,11.7443016 4.89424991,10.718847 4.6130884,9.62926828 C4.31847419,8.49472282 4.29156878,7.29419067 4.53021975,6.14740577 C4.81864571,4.74997784 5.51495768,3.43929047 6.50884343,2.4063858 C7.27349512,1.60815963 8.21195574,0.973835906 9.24297095,0.561951211 C10.1491451,0.197161852 11.1255423,0.0122394609 12.1030158,0 L12.2170947,0 Z M11.7034705,4.22394677 C10.8177444,4.34208424 9.99174844,4.83139687 9.46574772,5.54554324 C9.05032823,6.1005765 8.81974889,6.78758316 8.81759644,7.47831485 C8.80952483,8.14722837 9.01481308,8.81640797 9.39713894,9.36824834 C9.81955383,9.98447895 10.4577501,10.4535698 11.1782769,10.6709534 C11.8821224,10.8875388 12.6588815,10.8641242 13.348198,10.605765 C14.198678,10.2925942 14.9044068,9.62022173 15.2539081,8.79219513 C15.6513009,7.87450111 15.5937234,6.77933482 15.1016234,5.90767184 C14.7443196,5.26430154 14.1645081,4.74385809 13.4805726,4.45756097 C12.9244379,4.22101995 12.3026539,4.14332595 11.7034705,4.22394677 Z" id="形状结合" fill="#0271E3" fill-rule="nonzero"></path>
            </g>
        </g>
    </g>
</svg>