<?xml version="1.0" encoding="UTF-8"?>
<svg width="120px" height="120px" viewBox="0 0 120 120" version="1.1" xmlns="http://www.w3.org/2000/svg" xmlns:xlink="http://www.w3.org/1999/xlink">
    <title>defaultBrandLogo</title>
    <defs>
        <rect id="path-1" x="0" y="0" width="120" height="120" rx="2"></rect>
    </defs>
    <g id="黑色版本" stroke="none" stroke-width="1" fill="none" fill-rule="evenodd">
        <g id="平台默认logo" transform="translate(-338.000000, -91.000000)">
            <g id="defaultBrandLogo" transform="translate(338.000000, 91.000000)">
                <mask id="mask-2" fill="white">
                    <use xlink:href="#path-1"></use>
                </mask>
                <use id="矩形" fill="#037DE7" xlink:href="#path-1"></use>
                <path d="M86.6232713,37.1323384 L90.3730148,45.397664 C91.0035026,46.2451828 91.1694205,47.3429213 90.820993,48.3276574 L77.6222276,85.8525584 C76.2285176,89.8237891 71.7819191,91.9466217 67.6920439,90.5905918 L53.2405987,85.779914 L53.2488946,85.4651213 L84.3833802,54.7203701 C85.4369586,53.6791328 86.0508547,52.298888 86.10063,50.8379272 L86.6232713,37.1323384 Z M77.9457674,29.0042302 C81.0650231,28.8831561 83.6201581,31.3772826 83.4957197,34.4041353 L83.4957197,34.4041353 L82.8901195,48.9330279 C83.0726291,49.9661936 82.7324975,51.0155025 81.9692754,51.7580904 L81.9692754,51.7580904 L53.1493439,79.7988532 C50.0964553,82.7692045 45.1438074,82.7692045 42.0909188,79.7988532 L42.0909188,79.7988532 L31.2896664,69.2896208 C28.2367779,66.3192694 28.2367779,61.50052 31.2896664,58.5301687 L31.2896664,58.5301687 L60.1178938,30.4813342 C60.881116,29.746818 61.959582,29.4078105 63.0214563,29.5853859 L63.0214563,29.5853859 Z M78.1614606,35.9538838 C76.1123751,32.6929546 71.3588285,32.6929546 69.309743,35.9538838 C68.3474195,37.4874891 68.3474195,39.5134625 69.309743,41.0470678 C71.3588285,44.3079971 76.1123751,44.3079971 78.1614606,41.0470678 C79.1237842,39.5134625 79.1237842,37.4874891 78.1614606,35.9538838 Z" id="形状结合" fill="#FFFFFF" fill-rule="nonzero" mask="url(#mask-2)"></path>
            </g>
        </g>
    </g>
</svg>