<?xml version="1.0" encoding="utf-8"?>
<!-- Generator: Adobe Illustrator 24.0.0, SVG Export Plug-In . SVG Version: 6.00 Build 0)  -->
<svg version="1.1" id="图层_1" xmlns="http://www.w3.org/2000/svg" xmlns:xlink="http://www.w3.org/1999/xlink" x="0px" y="0px"
	 viewBox="0 0 16 16" style="enable-background:new 0 0 16 16;" xml:space="preserve">
<style type="text/css">
	.st0{fill:none;}
	.st1{fill:#0271E3;}
</style>
<title>ConferenceSystem</title>
<g id="黑色版本">
	<g id="系统默认图标" transform="translate(-545.000000, -391.000000)">
		<g id="ConferenceSystem" transform="translate(545.000000, 391.000000)">
			<rect id="矩形" y="0" class="st0" width="16" height="16"/>
			<g id="编组" transform="translate(3.000000, 3.000000)">
				<g id="形状结合" transform="translate(0.000000, 0.000000)">
					<g transform="translate(0.000000, 0.000000)">
						<g transform="translate(0.000000, 0.000000)">
							<path class="st1" d="M9.4,7.2c0.3,0,0.6,0.3,0.6,0.6l0,0v1.5c0,0.2-0.1,0.3-0.2,0.5C9.7,9.9,9.5,10,9.4,10l0,0H0.6
								C0.3,10,0,9.7,0,9.4l0,0V7.9c0-0.2,0.1-0.3,0.2-0.5s0.3-0.2,0.4-0.2l0,0H9.4z M5,2.4c1.3,0,2.3,2,2.3,4.4l0,0H2.7
								C2.7,4.4,3.8,2.4,5,2.4z M2.6,2.4c0.3,0,0.7,0.1,1,0.4c-0.7,0.8-1.2,2.3-1.3,4l0,0h-2C0.4,4.4,1.4,2.4,2.6,2.4z M7.4,2.4
								c1.3,0,2.3,2,2.3,4.4l0,0h-2c-0.1-1.7-0.6-3.1-1.2-4C6.7,2.6,7.1,2.4,7.4,2.4z M4.6,0.1C5-0.1,5.5,0,5.8,0.4s0.4,0.8,0.2,1.3
								C5.9,2.1,5.5,2.4,5,2.4c-0.6,0-1.1-0.5-1.1-1.2C3.9,0.7,4.1,0.3,4.6,0.1z M2.1,0.2c0.4-0.2,0.8-0.2,1.2,0s0.6,0.6,0.6,1.1
								c0,0.7-0.5,1.2-1.1,1.2C2,2.4,1.5,1.9,1.5,1.2C1.5,0.8,1.7,0.4,2.1,0.2z M6.8,0.2c0.4-0.2,0.8-0.2,1.2,0
								c0.4,0.2,0.6,0.6,0.6,1.1c0,0.7-0.5,1.2-1.1,1.2c-0.3,0-0.6-0.1-0.8-0.3C6.4,1.8,6.3,1.5,6.3,1.2C6.3,0.8,6.5,0.4,6.8,0.2z"
								/>
						</g>
					</g>
				</g>
			</g>
		</g>
	</g>
</g>
</svg>
