<?xml version="1.0" encoding="UTF-8"?>
<svg width="44px" height="44px" viewBox="0 0 44 44" version="1.1" xmlns="http://www.w3.org/2000/svg" xmlns:xlink="http://www.w3.org/1999/xlink">
    <title>defaultFace</title>
    <defs>
        <linearGradient x1="50%" y1="0%" x2="50%" y2="100%" id="linearGradient-1">
            <stop stop-color="#6BB5FF" offset="0%"></stop>
            <stop stop-color="#07529D" offset="100%"></stop>
        </linearGradient>
        <circle id="path-2" cx="20" cy="20" r="20"></circle>
        <polygon id="path-4" points="0 -2.2742457e-15 30.2439024 -2.2742457e-15 30.2439024 13.6585366 0 13.6585366"></polygon>
    </defs>
    <g id="黑色版本" stroke="none" stroke-width="1" fill="none" fill-rule="evenodd">
        <g id="平台默认图片尺寸" transform="translate(-334.000000, -824.000000)">
            <g id="defaultFace" transform="translate(336.000000, 826.000000)">
                <mask id="mask-3" fill="white">
                    <use xlink:href="#path-2"></use>
                </mask>
                <circle stroke="#FFFFFF" stroke-width="2" cx="20" cy="20" r="21"></circle>
                <g id="touxiang" opacity="0.858691988" mask="url(#mask-3)">
                    <g transform="translate(4.878049, 6.829268)">
                        <g id="编组" stroke-width="1" fill="none" transform="translate(0.000000, 19.512195)">
                            <mask id="mask-5" fill="white">
                                <use xlink:href="#path-4"></use>
                            </mask>
                            <g id="Clip-2" opacity="0.907416934"></g>
                            <polygon id="Fill-1" fill="#EFCDAC" mask="url(#mask-5)" points="20.4715206 4.03546308 20.4715206 -2.2742457e-15 9.76673735 -2.2742457e-15 9.76673735 4.03546308 15.119129 8.65021579"></polygon>
                            <path d="M28.4477331,5.99730211 L21.2501306,4.37145827 C21.1454625,4.34581253 21.0440256,4.30752396 20.9492557,4.25627249 L15.119129,7.51732227 L9.51813514,4.09623668 C9.36761587,4.23062675 9.18756538,4.32676827 8.98800464,4.37145827 L1.79036128,5.99730211 C0.740162151,6.2340751 -0.00245411854,7.13331633 -0.00245411854,8.17010835 L-0.00245411854,12.5417267 C-0.00245411854,13.1593449 0.51777811,13.6585366 1.16231144,13.6585366 L29.0793414,13.6585366 C29.7205208,13.6585366 30.2439024,13.1593449 30.2439024,12.5417267 L30.2439024,8.17010835 C30.2407121,7.13331633 29.4980958,6.2340751 28.4477331,5.99714207 L28.4477331,5.99730211 Z" id="Fill-3" fill="#A7D5FF" mask="url(#mask-5)"></path>
                        </g>
                        <path d="M9.75609756,19.5121951 L9.75609756,23.8270911 C16.5146039,26.2143595 20.4878049,20.2393274 20.4878049,20.2393274 L20.4878049,19.5121951 L9.75609756,19.5121951 Z" id="Fill-4" fill="#E0B594"></path>
                        <path d="M7.80487805,5.85365854 L8.2945546,16.5409652 C8.34130744,17.5383137 8.83406446,18.4647199 9.64196448,19.0651467 L11.9686105,20.795162 C12.5612681,21.2310253 13.2692285,21.4665311 13.9959447,21.4634146 L16.2478018,21.4634146 C16.9746739,21.4634146 17.6826344,21.2310253 18.275136,20.795162 L20.601938,19.0651467 C21.409838,18.4647199 21.902595,17.5383137 21.9493478,16.5409652 L22.4390244,5.85365854 L7.80487805,5.85365854 Z" id="Fill-5" fill="#FADEBD"></path>
                        <path d="M13.7236763,8.08414385 C16.091815,8.08414385 19.6423095,7.52564482 20.4878049,5.85365854 L7.80487805,5.85365854 L8.32020247,16.5409652 C8.3697116,17.5383137 8.8882981,18.4647199 9.73705559,19.0651467 L12.1845575,20.795162 C12.8053831,21.2310253 13.5518602,21.4665311 14.3148129,21.4634146 L15.4972925,21.4634146 C14.3148129,21.4634146 11.9466329,19.2330192 11.9466329,16.4473439 L11.9466329,9.75617048 C11.9466329,9.19767146 12.537976,8.08414385 13.7236763,8.08414385 Z" id="Fill-6" fill="#EFCDAC"></path>
                        <polygon id="Fill-8" fill="#5B5D6E" points="16.5853659 33.1707317 13.6585366 33.1707317 14.0256665 28.2926829 16.2217537 28.2926829"></polygon>
                        <path d="M16.5818524,26.3414634 L13.6585366,26.3414634 L13.6585366,27.5656916 C13.6585366,27.9669366 13.9497284,28.2926829 14.3131183,28.2926829 L15.9307841,28.2926829 C16.2939598,28.2926829 16.5853659,27.9669366 16.5853659,27.5656916 L16.5853659,26.3414634 L16.5818524,26.3414634 Z" id="Fill-9" fill="#515262"></path>
                        <path d="M10.407838,21.6240212 L15.6097361,26.6861596 C15.6097361,26.6861596 14.1523012,27.4824659 12.3553961,29.0852476 C12.0478427,29.3631546 11.5898363,29.3185745 11.3302981,28.992569 C11.2854065,28.9376055 11.250206,28.8759056 11.2245766,28.8105586 L8.7804878,22.9968655 L9.55249501,21.7406417 C9.72549382,21.4592592 10.0746551,21.3838292 10.3372769,21.565668 C10.3629464,21.5827878 10.3852921,21.603383 10.407838,21.6240212 Z M20.8116742,21.6240212 L15.6097361,26.6861596 C15.6097361,26.6861596 17.067211,27.4824659 18.8641161,29.0852476 C19.1716695,29.3631546 19.629836,29.3185745 19.8892141,28.9890507 C19.9308219,28.9342587 19.9693062,28.8723872 19.9949356,28.8072119 L22.4390244,22.9933472 L21.6670172,21.737295 C21.4940184,21.4559125 21.1448571,21.3803108 20.8822353,21.5621496 C20.8565658,21.5827878 20.8341801,21.603383 20.8116742,21.6240212 Z" id="Fill-10" fill="#92CFF4"></path>
                        <path d="M18.5365854,2.31004537 L19.0923958,6.13890679 C21.627967,6.63283127 21.9917725,10.5178354 22.0432054,11.627231 C22.0534148,11.8280525 22.1187891,12.0222471 22.2285185,12.1935154 L23.1960498,13.6585366 C23.1960498,13.6585366 22.8666044,11.2387594 24.3799083,9.61230723 C24.3799083,9.60909672 24.9013586,-0.00123308661 18.5365854,2.31004537 Z" id="Fill-11" fill="#4F393E"></path>
                        <g id="编组" stroke-width="1" fill="none" transform="translate(5.853659, 0.000000)">
                            <path d="M18.500522,13.4597531 L17.852212,16.0606915 C17.7753307,16.3683207 17.5012739,16.5853659 17.1836788,16.5853659 C16.8362087,16.5853659 16.5420541,16.3262479 16.4986412,15.9797045 L16.1676755,13.3204149 C16.0773818,12.6078102 16.6323479,11.9795535 17.347553,11.9795535 C18.1228008,11.9795535 18.6877113,12.7082746 18.500522,13.4597531 Z" id="Fill-12" fill="#EFCDAC"></path>
                            <path d="M2.4114772,1.49173538 L3.29381565,2.07144042 C-0.690140698,4.91533985 0.0552737972,9.79002911 0.0552737972,9.79002911 C1.24497037,10.9430007 1.24497037,13.8192949 1.24497037,13.8192949 L2.43483408,12.6662019 C2.43483408,12.6662019 1.97354619,9.33970082 4.21956697,8.06034899 C6.30501444,6.87166212 8.12647487,7.48380245 9.98813086,7.48380245 C14.9745527,7.48380245 16.3714946,5.66681834 16.130948,3.45453661 C16.0072276,2.31124296 14.1958369,-0.0759707071 9.58024205,0.00185781174 C7.72205408,0.0342526167 4.22282607,0.578404352 2.4114772,1.49173538 Z" id="Fill-14" fill="#5A4146"></path>
                        </g>
                        <path d="M7.8444725,6.84685398 C7.8444725,6.84685398 7.23342096,4.44351034 9.02865696,1.95121951 C5.18819134,4.782588 5.90698236,9.64204267 5.90698236,9.64204267 C7.05621681,10.7877778 7.05621681,13.6585366 7.05621681,13.6585366 L8.20549083,12.5128015 C8.20549083,12.5128015 7.76218359,9.19751259 9.92769988,7.92343998 C11.9381378,6.74156621 13.6953365,7.35057242 15.4903746,7.35057242 C16.272416,7.35057242 16.953051,7.29784622 17.5609756,7.2089402 C13.8567478,7.33081553 11.6753199,4.52583072 7.8444725,6.84685398 Z" id="Fill-15" fill="#473237"></path>
                        <path d="M6.85887042,13.2750071 L7.3906725,16.0296795 C7.45374152,16.3554917 7.678562,16.5853659 7.93896164,16.5853659 C8.22417756,16.5853659 8.46545084,16.3109322 8.50106427,15.9439056 L8.77260381,13.127433 C8.84650425,12.3727083 8.39141329,11.7073171 7.80466576,11.7073171 C7.16855987,11.7073171 6.7052768,12.4791108 6.85887042,13.2750071 Z" id="Fill-16" fill="#EFCDAC"></path>
                        <path d="M22.8750879,31.2195122 L19.0792979,31.2195122 C18.7798662,31.2195122 18.5365854,31.6592438 18.5365854,32.1950074 L18.5365854,33.1707317 L23.4146341,33.1707317 L23.4146341,32.1950074 C23.4178005,31.6592438 23.1745586,31.2195122 22.8750879,31.2195122 Z" id="Fill-17" fill="#92CFF4"></path>
                    </g>
                </g>
            </g>
        </g>
    </g>
</svg>