<?xml version="1.0" encoding="UTF-8"?>
<svg width="24px" height="24px" viewBox="0 0 24 24" version="1.1" xmlns="http://www.w3.org/2000/svg" xmlns:xlink="http://www.w3.org/1999/xlink">
    <title>Devicemodel</title>
    <g id="后续新增页面" stroke="none" stroke-width="1" fill="none" fill-rule="evenodd">
        <g id="Devicemodel">
            <circle id="椭圆形" fill="#166AEA" fill-rule="nonzero" cx="7" cy="7" r="7"></circle>
            <circle id="椭圆形备份-2" stroke="#9DC3FF" fill-opacity="0.7" fill="#9ABFF6" cx="13" cy="13" r="10"></circle>
            <g id="编组" transform="translate(6.999973, 7.000000)" fill="#FFFFFF" fill-rule="nonzero">
                <g id="形状">
                    <path d="M1.15810268,4.39704519 L1.14781716,4.39297256 C1.00581736,4.32757566 0.850462303,4.29254382 0.692682863,4.29034193 C0.509976717,4.28680859 0.33275361,4.34974583 0.197263611,4.46628015 C0.0695102054,4.58146433 -0.00193259374,4.74204414 3.97841002e-05,4.90938383 L3.97841002e-05,9.27933092 C3.97841002e-05,9.46097084 0.0789801208,9.66215946 0.223834539,9.84542844 C0.365260451,10.0246248 0.559828219,10.1769417 0.772395648,10.271427 L4.19061707,11.8923393 L4.20004546,11.896412 C4.3586139,11.9656469 4.51203959,11.9998572 4.65860827,11.9998572 C4.85060465,11.9998572 5.02717276,11.937953 5.15317039,11.8247335 C5.28114403,11.709356 5.35260636,11.548437 5.35030954,11.3808153 L5.35030954,7.0116827 C5.35030954,6.82922823 5.27059675,6.62803962 5.12659946,6.44477064 C4.98242866,6.26294054 4.79426063,6.11681403 4.57803835,6.01877207 L1.15810268,4.39785972 L1.15810268,4.39704519 Z M11.3081975,4.29034193 C11.1599145,4.29034193 11.007346,4.32455213 10.8530632,4.39297256 L7.42284199,6.01795754 C7.2066197,6.1159995 7.01845167,6.26212601 6.87428088,6.44395611 C6.72942645,6.62722509 6.6505708,6.82922823 6.6505708,7.01086817 L6.6505708,11.3808153 C6.6505708,11.5534954 6.72085519,11.7106994 6.84770995,11.8247335 C6.98311371,11.9407775 7.15997616,12.0034042 7.34227207,11.9998572 C7.50255476,11.9974136 7.6576947,11.9615743 7.79997774,11.896412 L11.2147707,10.271427 C11.4309748,10.1733578 11.6191365,10.0272362 11.7633318,9.84542844 C11.9073291,9.66215946 11.9861847,9.46097084 11.9861847,9.27851639 L11.9999675,4.90938383 C12.0017476,4.74208311 11.9303385,4.58157912 11.8027596,4.46628015 C11.6675785,4.34979722 11.4906392,4.28685188 11.3081975,4.29034193 L11.3081975,4.29034193 Z M10.588211,3.04411283 C10.8907767,2.90564294 11.0622021,2.68409109 11.0605131,2.43647433 C11.0587736,2.19211569 10.8873482,1.9746365 10.5890681,1.84349736 L6.7885682,0.141132135 C6.55395479,0.0443712627 6.30030521,-0.00367083147 6.04458219,0.000218649738 C5.75487335,0.000218649738 5.47630716,0.0547920804 5.25859697,0.154979124 L1.41695495,1.92820836 C1.11524634,2.06667825 0.942963869,2.28741557 0.945479109,2.53503233 C0.947249502,2.77939097 1.11781772,2.99605563 1.41609783,3.1280093 L5.21745489,4.83037452 C5.36316644,4.89553683 5.54059168,4.93952139 5.73001668,4.95907008 L5.71630266,4.97128802 L5.9614409,4.97128802 C6.25029262,4.97128802 6.52971593,4.91671458 6.74742612,4.81652754 L10.588211,3.04329831 L10.588211,3.04411283 Z"></path>
                </g>
            </g>
        </g>
    </g>
</svg>