<?xml version="1.0" encoding="UTF-8"?>
<svg width="24px" height="24px" viewBox="0 0 24 24" version="1.1" xmlns="http://www.w3.org/2000/svg" xmlns:xlink="http://www.w3.org/1999/xlink">
    <title>Drainwater</title>
    <g id="后续新增页面" stroke="none" stroke-width="1" fill="none" fill-rule="evenodd">
        <g id="Drainwater">
            <circle id="椭圆形" fill="#166AEA" fill-rule="nonzero" cx="7" cy="7" r="7"></circle>
            <circle id="椭圆形备份-2" stroke="#9DC3FF" fill-opacity="0.7" fill="#9ABFF6" cx="13" cy="13" r="10"></circle>
            <g id="编组" transform="translate(8.000000, 8.000000)" fill="#FFFFFF" fill-rule="nonzero">
                <path d="M8.1260525,11.0299445 C8.25817236,11.0299445 8.38484399,11.0803701 8.47882615,11.1719324 C8.57280833,11.2634948 8.62456661,11.3869049 8.62456661,11.515623 C8.62456661,11.644341 8.57280833,11.7677511 8.48018822,11.8593135 C8.38620604,11.9508758 8.25953442,12.0013014 8.12741455,11.9999745 L2.98563645,11.9999745 C2.8535166,12.0013014 2.72684497,11.9495488 2.63286281,11.8593135 C2.53888063,11.7677511 2.48712233,11.644341 2.48712233,11.515623 C2.48712233,11.2449169 2.6532937,11.0299445 2.98563645,11.0299445 L8.1260525,11.0299445 Z M3.86825161,0.4299449 C4.20059436,0.4299449 4.47709262,0.537431124 4.8080733,0.590510742 L4.8080733,0.590510742 L4.87750569,0.623260865 C5.04910351,0.711160712 5.48256563,0.978257345 5.5272412,1.45172753 C5.58172362,0.859889799 6.07887568,0.4299449 6.68771669,0.4299449 L6.68771669,0.4299449 L6.74356117,0.4299449 L8.89970282,0.484351508 C9.0175512,0.482916266 9.13100322,0.527894205 9.21433878,0.609088608 C9.29742446,0.690035024 9.34373453,0.80017523 9.34242968,0.914296407 L9.34242968,0.914296407 L9.34242968,3.98229828 C9.34242968,4.19727074 9.17620108,4.41357017 8.89970282,4.41357017 L8.89970282,4.41357017 L8.18189697,4.41357017 C7.95988113,4.41357017 7.73922734,4.57413602 7.73922734,4.84218809 L7.73922734,4.84218809 L7.73922734,10.1156481 C7.73922734,10.3306205 7.57305596,10.545593 7.2965577,10.545593 L7.2965577,10.545593 L3.75928677,10.545593 C3.53727093,10.545593 3.31661713,10.3850271 3.31661713,10.1156481 L3.31661713,10.1156481 L3.31661713,4.84218809 C3.31661713,4.62588864 3.15044576,4.41091619 2.8739475,4.41091619 L2.8739475,4.41091619 L2.04581476,4.41091619 C1.82379892,4.41091619 1.60314512,4.24902336 1.60314512,3.98097129 L1.60314512,3.98097129 L1.60314512,0.912969416 C1.60314512,0.784251344 1.65490342,0.660841235 1.74888558,0.570605885 C1.84150569,0.480370536 1.96817731,0.4299449 2.10029718,0.4299449 L2.10029718,0.4299449 L3.86825161,0.4299449 Z M0.607478951,0 C0.939821694,0 1.21631996,0.269379057 1.21631996,0.591837732 L1.21631996,4.35916356 C1.21359584,4.68560321 0.942545815,4.94834732 0.607478951,4.9510013 C0.273774146,4.94834732 0.00272412085,4.68427622 0,4.35916356 L0,0.590510742 C0,0.268052067 0.276498266,0 0.607478951,0 Z M10.3925211,0 C10.7235017,0 11,0.269379057 11,0.591837732 L11,4.35916356 C10.9972759,4.68427622 10.7262259,4.94834732 10.3925211,4.9510013 C10.0574542,4.94834732 9.78776621,4.68560321 9.78368004,4.35916356 L9.78368004,0.590510742 C9.78368004,0.268052067 10.0601783,0 10.3925211,0 Z" id="形状结合"></path>
            </g>
        </g>
    </g>
</svg>