<?xml version="1.0" encoding="UTF-8"?>
<svg width="24px" height="24px" viewBox="0 0 24 24" version="1.1" xmlns="http://www.w3.org/2000/svg" xmlns:xlink="http://www.w3.org/1999/xlink">
    <title>Drivinginformation</title>
    <g id="后续新增页面" stroke="none" stroke-width="1" fill="none" fill-rule="evenodd">
        <g id="Drivinginformation">
            <circle id="椭圆形" fill="#166AEA" fill-rule="nonzero" cx="7" cy="7" r="7"></circle>
            <circle id="椭圆形备份-2" stroke="#9DC3FF" fill-opacity="0.7" fill="#9ABFF6" cx="13" cy="13" r="10"></circle>
            <g id="编组" transform="translate(7.000000, 8.248946)" fill="#FFFFFF" fill-rule="nonzero">
                <g id="形状结合">
                    <path d="M9.8523765,0 C10.1688979,0 10.4114778,0.0370464998 10.578819,0.108584568 C10.7474575,0.180122636 10.8901515,0.318088911 11.0133873,0.523760859 C11.0613844,0.608073582 12.3196866,5.78564129 12.3534143,5.82652019 C12.4273557,5.92105264 12.4727584,6.03857946 12.4857306,6.14971896 C12.4961083,6.21742462 12.5,6.31323454 12.5,6.4333163 C12.5,6.43835519 12.5,6.45149259 12.4998728,6.47181309 L12.498943,6.67261042 C12.497842,6.89956755 12.4960069,7.26033328 12.4940495,7.64048441 L12.4916811,8.09864768 C12.4893322,8.55146978 12.4871595,8.96629909 12.4862199,9.14541238 L12.4857306,9.23863056 C12.4935139,9.43536025 12.4104919,9.6257026 12.2561229,9.777721 C12.1017538,9.92462954 11.8812267,10 11.5906496,10 L11.5906496,10 L0.83930054,10 C0.568181819,10 0.363221254,9.9297394 0.224418846,9.79049566 C0.0843192196,9.64997445 0.0103777501,9.46985181 0,9.25012775 L0,9.25012775 L0.00114383716,9.0519282 C0.00500201805,8.3880827 0.017478316,6.2808945 0.0207555003,6.21742462 C0.0233499378,6.14971896 0.0363221254,6.08329075 0.0557804068,6.01814001 C0.098588626,5.8814512 1.77848692,0.500766479 1.77848692,0.500766479 C1.90042549,0.304036791 2.05090286,0.171180379 2.2260274,0.103474706 C2.40374636,0.0344915687 2.61389581,0.00127746551 2.85647571,0.00127746551 L2.85647571,0.00127746551 L9.84978206,0.00127746551 L9.8523765,0 Z M11.2261312,6.41926418 L1.41396845,6.43076138 C1.25570776,6.43076138 1.1337692,6.46780788 1.0507472,6.53934594 C0.963833541,6.6147164 0.919728102,6.71563618 0.924916977,6.81783341 L0.924916977,6.81783341 L0.924916977,8.97802759 C0.924916977,9.06872765 0.956050229,9.14409811 1.01572229,9.20541645 C1.07669157,9.26545734 1.17138854,9.2961165 1.30240764,9.2961165 L1.30240764,9.2961165 L11.1859174,9.3076137 C11.3701225,9.3076137 11.492061,9.27184466 11.5491386,9.20030659 C11.6075135,9.1185488 11.6373495,9.02657129 11.6334579,8.93203884 L11.6334579,8.93203884 L11.6178912,6.76034748 C11.6178912,6.53295861 11.4868721,6.41926418 11.2261312,6.41926418 L11.2261312,6.41926418 Z M8.02459526,7.16019417 L8.02459526,8.56540624 L6.26686385,8.56540624 L6.26686385,7.16019417 L8.02459526,7.16019417 Z M10.7059464,7.16019417 L10.7072437,8.56540624 L8.9326484,8.56540624 L8.9326484,7.16019417 L10.7059464,7.16019417 Z M5.45983162,0.932410099 L5.33286634,0.936382217 C4.68425695,0.977261114 4.09142797,1.26341339 3.80863429,1.69136434 C3.52454337,2.0183955 3.47006019,2.42718446 3.69318181,2.76954523 C3.69318181,2.76954523 3.69318181,2.78998468 3.72172062,2.78998468 C3.94613947,3.03653551 4.31195516,3.2000511 4.7361457,3.20132856 L4.7361457,3.20132856 L4.79192611,3.20132856 C4.89310917,3.20132856 4.9916978,3.18983138 5.09288086,3.17705672 C5.09288086,3.17833419 5.09158365,3.18088911 5.09158365,3.18344405 C5.09158365,3.46831885 5.29524699,3.7187021 5.59879617,3.8668881 C5.22260274,4.12365866 4.74003736,4.27439959 4.21466376,4.3076137 C4.10310295,4.3076137 3.99024491,4.32805314 3.9059257,4.36893204 C3.8786841,4.38937149 3.85014529,4.38937149 3.85014529,4.40981094 C3.76582607,4.47112928 3.73728725,4.55288708 3.76582607,4.61420541 C3.82160647,4.8185999 3.99024491,5.02427185 4.24449979,5.12646909 L4.43202597,5.22078873 C4.75203664,5.36379439 5.10823129,5.43583226 5.48334371,5.43693616 L5.48334371,5.43693616 L5.56766292,5.43693616 C6.2707555,5.43944814 6.77926525,5.21589167 7.00498132,4.82754216 C7.10486716,4.5222279 7.00757576,4.184977 6.69754047,3.92692898 C7.06724782,3.80045989 7.32669157,3.53474706 7.3422582,3.22049055 C7.79369032,3.33546244 8.18026152,3.56029637 8.44489415,3.84900358 C8.50067455,3.93076137 8.61353259,4.01251916 8.72639061,4.03295861 C8.75492944,4.03295861 8.78346825,4.05339806 8.83924865,4.05339806 C8.86778746,4.05339806 8.89502906,4.05339806 8.92356787,4.03295861 C9.09220631,3.99207971 9.23360315,3.88988247 9.29068077,3.78768524 C9.57477169,3.33801737 9.51769406,2.84747061 9.15317559,2.45784364 C8.92486509,2.11037302 8.44748859,1.88426162 7.88319842,1.84210526 C7.37079701,1.8408278 6.95309257,2.07843639 6.7546181,2.47445069 C6.59635741,2.41057741 6.416044,2.37097599 6.22146119,2.37097599 C6.0152034,2.36969851 5.82321502,2.41440981 5.65717102,2.48467041 C5.54950186,2.13464486 5.60787671,1.76034748 5.84007887,1.42692898 C5.86732046,1.36561062 5.92439809,1.26469085 5.89585927,1.16121615 C5.89585927,1.12033725 5.84007887,1.07945836 5.81154006,1.03857946 C5.67273765,0.958099131 5.50280199,0.91594277 5.33286634,0.936382217 L5.45983162,0.932410099 Z M6.21756953,2.78104241 C6.52760481,2.78104241 6.78056248,2.96627491 6.78056248,3.19110884 C6.78056248,3.41722024 6.5263076,3.5998978 6.21627231,3.5998978 C5.90493981,3.5998978 5.65198215,3.41594277 5.6532744,3.18983137 C5.6532744,2.96371997 5.90753425,2.78104241 6.21756953,2.78104241 Z" id="形状"></path>
                </g>
            </g>
        </g>
    </g>
</svg>