<?xml version="1.0" encoding="UTF-8"?>
<svg width="24px" height="24px" viewBox="0 0 24 24" version="1.1" xmlns="http://www.w3.org/2000/svg" xmlns:xlink="http://www.w3.org/1999/xlink">
    <title>Driverconfiguration</title>
    <g id="后续新增页面" stroke="none" stroke-width="1" fill="none" fill-rule="evenodd">
        <g id="Driverconfiguration">
            <circle id="椭圆形" fill="#166AEA" fill-rule="nonzero" cx="7" cy="7" r="7"></circle>
            <circle id="椭圆形备份-2" stroke="#9DC3FF" fill-opacity="0.7" fill="#9ABFF6" cx="13" cy="13" r="10"></circle>
            <g id="编组" transform="translate(7.684361, 8.598438)" fill="#FFFFFF" fill-rule="nonzero">
                <g id="形状结合" transform="translate(0.000000, 0.000000)">
                    <path d="M9.30936073,0.0944583703 C9.45776256,0.15741187 9.58333333,0.278822192 9.69178082,0.459813506 C9.73401826,0.534008703 10.8413242,5.09026828 10.8710046,5.12624172 C10.9360731,5.20943027 10.9760274,5.31285388 10.9874429,5.41065664 C10.9965753,5.47023762 11,5.55455034 11,5.66022229 C11,5.66465652 11,5.67621743 10.999888,5.69409947 L10.9990699,5.87080112 C10.9981009,6.07052339 10.9964861,6.38799723 10.9947636,6.72253023 L10.9926793,7.1257139 C10.9906123,7.52419735 10.9887003,7.88924715 10.9878735,8.04686684 L10.9874429,8.12889885 C10.9942922,8.30202097 10.9212329,8.46952224 10.7853881,8.60329843 C10.6495434,8.73257794 10.4554795,8.79890395 10.1997717,8.79890395 L0.738584475,8.79890395 C0.5,8.79890395 0.319634703,8.73707462 0.197488585,8.61454013 C0.0742009133,8.49088147 0.00913242009,8.33237355 0,8.13901637 L0.0010065767,7.96460077 C0.00440177589,7.38041673 0.0153809181,5.52609111 0.0182648402,5.47023762 C0.0205479452,5.41065664 0.0319634703,5.35219981 0.0490867579,5.29486716 C0.0867579909,5.17458101 1.56506849,0.439578452 1.56506849,0.439578452 C1.67237443,0.266456327 1.80479452,0.149542684 1.95890411,0.0899616916 C2.1152968,0.0292565307 2.30022832,2.81198744e-05 2.51369863,2.81198744e-05 L8.66780821,2.81198744e-05 C8.94863014,-0.00109604978 9.16210045,0.03150487 9.30936073,0.0944583703 Z M1.24429224,5.65797396 C1.10502283,5.65797396 0.997716895,5.69057488 0.924657534,5.75352838 C0.848173516,5.81985438 0.80936073,5.90866378 0.81392694,5.99859735 L0.81392694,7.89956823 C0.81392694,7.97938428 0.841324201,8.04571029 0.893835616,8.09967043 C0.947488585,8.15250641 1.03082192,8.17948647 1.14611872,8.17948647 L9.8436073,8.18960401 C10.0057078,8.18960401 10.1130137,8.15812725 10.163242,8.09517375 C10.2146119,8.02322689 10.2408676,7.94228668 10.2374429,7.85909813 L10.2237443,5.94800973 C10.2237443,5.74790753 10.1084475,5.64785642 9.87899543,5.64785642 L1.24429224,5.65797396 Z M7.06164383,6.29987482 L7.06164383,7.53646144 L5.51484019,7.53646144 L5.51484019,6.29987482 L7.06164383,6.29987482 Z M9.42123288,6.29987482 L9.42237443,7.53646144 L7.86073059,7.53646144 L7.86073059,6.29987482 L9.42123288,6.29987482 Z M4.80465183,0.819424837 L4.69292238,0.822920302 C4.12214612,0.85889373 3.60045662,1.11070773 3.35159817,1.48730457 C3.10159817,1.77509199 3.05365296,2.13482628 3.24999999,2.43610375 C3.24999999,2.43610375 3.24999999,2.45409046 3.27511415,2.45409046 C3.47260274,2.6710552 3.79452054,2.81494892 4.16780822,2.81607309 L4.21689498,2.81607309 C4.30593607,2.81607309 4.39269406,2.80595556 4.48173516,2.79471387 C4.48059361,3.05102454 4.65981735,3.2713618 4.92694063,3.40176548 C4.59589041,3.62772357 4.17123288,3.76037559 3.70890411,3.78960401 C3.6107306,3.78960401 3.51141552,3.80759071 3.43721462,3.84356414 C3.41324201,3.86155086 3.38812785,3.86155086 3.38812785,3.87953758 C3.31392695,3.93349771 3.28881278,4.00544458 3.31392695,4.05940471 C3.3630137,4.23927186 3.51141552,4.42026318 3.73515981,4.51019675 L3.90018286,4.59319803 C4.18179224,4.71904301 4.49524353,4.78243634 4.82534247,4.7834262 L4.89954337,4.7834262 C5.51826484,4.78561831 5.96575342,4.58888862 6.16438357,4.24714105 C6.2522831,3.9784645 6.16666667,3.68168371 5.89383562,3.45460145 C6.21917809,3.34330865 6.44748859,3.10948137 6.46118722,2.83293563 C6.85844749,2.9341109 7.19863014,3.13196476 7.43150685,3.3860271 C7.4805936,3.45797396 7.57990868,3.52992081 7.67922374,3.54790753 C7.70433791,3.54790753 7.72945206,3.56589425 7.77853881,3.56589425 C7.80365297,3.56589425 7.82762557,3.56589425 7.85273973,3.54790753 C8.00114155,3.5119341 8.12557077,3.42200053 8.17579908,3.33206696 C8.42579908,2.93635924 8.37557078,2.50467809 8.05479452,2.16180635 C7.85388128,1.85603221 7.43378996,1.65705418 6.93721461,1.61995658 C6.48630137,1.61883241 6.11872147,1.82792797 5.94406393,2.17642056 C5.80479452,2.12021207 5.64611872,2.08536282 5.47488585,2.08536282 C5.29337899,2.08423864 5.12442922,2.12358459 4.9783105,2.18541391 C4.88356164,1.87739143 4.93493151,1.54800973 5.13926941,1.25460145 C5.16324201,1.2006413 5.21347032,1.1118319 5.18835616,1.02077416 C5.18835616,0.984800731 5.13926941,0.948827303 5.11415526,0.912853874 C4.99200913,0.842031186 4.84246575,0.804933588 4.69292238,0.822920302 L4.80465183,0.819424837 Z M5.47146118,2.44622127 C5.74429224,2.44622127 5.96689498,2.60922587 5.96689498,2.80707973 C5.96689498,3.00605776 5.74315069,3.16681401 5.47031964,3.16681401 C5.19634704,3.16681401 4.97374429,3.00493359 4.97488147,2.80595556 C4.97488147,2.60697753 5.19863014,2.44622127 5.47146118,2.44622127 Z" id="形状"></path>
                </g>
            </g>
        </g>
    </g>
</svg>