<?xml version="1.0" encoding="UTF-8"?>
<svg width="24px" height="24px" viewBox="0 0 24 24" version="1.1" xmlns="http://www.w3.org/2000/svg" xmlns:xlink="http://www.w3.org/1999/xlink">
    <title>edition</title>
    <g id="后续新增页面" stroke="none" stroke-width="1" fill="none" fill-rule="evenodd">
        <g id="edition">
            <circle id="椭圆形" fill="#166AEA" fill-rule="nonzero" cx="7" cy="7" r="7"></circle>
            <circle id="椭圆形备份-2" stroke="#9DC3FF" fill-opacity="0.7" fill="#9ABFF6" cx="13" cy="13" r="10"></circle>
            <path d="M13,7 C9.68629255,7 7,9.6863206 7,12.9999794 C7,16.3138162 9.68634745,19 13,19 C16.3138587,19 19,16.3138162 19,12.9999794 C19,9.6863206 16.3138587,7 13,7 Z M12.9999957,9.62499865 C13.414168,9.62499865 13.750018,9.96079045 13.750018,10.374967 C13.750018,10.7892257 13.414168,11.1249628 12.9999957,11.1249628 C12.5858458,11.1249628 12.2499957,10.7892257 12.2499957,10.374967 C12.2499957,9.96080425 12.5858458,9.62499865 12.9999957,9.62499865 Z M13.750018,16.3749055 L13.0025889,16.3749055 C13.0017236,16.3749055 13.0008583,16.3749859 13.0000069,16.3749859 C12.9991279,16.3749859 12.9982627,16.3749055 12.9974112,16.3749055 L12.2499957,16.3749055 C12.042874,16.3749055 11.8750176,16.2070575 11.8750176,15.9999487 C11.8750176,15.7928536 12.042874,15.6249097 12.2499957,15.6249097 L12.6250425,15.6249097 L12.6250425,12.6249859 L12.2499957,12.6249859 C12.042874,12.6249859 11.8750176,12.4570651 11.8750176,12.2500249 C11.8750176,12.042916 12.042874,11.8749859 12.2499957,11.8749859 L13.0000069,11.8749859 C13.2071149,11.8749859 13.3749987,12.042916 13.3749987,12.2500249 C13.3749987,12.2539687 13.3748064,12.2578305 13.3746966,12.2617195 C13.3748202,12.2656087 13.3749987,12.2694841 13.3749987,12.2734006 L13.3749987,15.6249233 L13.7500318,15.6249233 C13.9570847,15.6249233 14.1250176,15.7928673 14.1250176,15.9999624 C14.1250176,16.2070575 13.9570711,16.3749055 13.750018,16.3749055 Z" id="形状" fill="#FFFFFF" fill-rule="nonzero"></path>
        </g>
    </g>
</svg>