<?xml version="1.0" encoding="UTF-8"?>
<svg width="24px" height="24px" viewBox="0 0 24 24" version="1.1" xmlns="http://www.w3.org/2000/svg" xmlns:xlink="http://www.w3.org/1999/xlink">
    <title>elevator</title>
    <g id="后续新增页面" stroke="none" stroke-width="1" fill="none" fill-rule="evenodd">
        <g id="elevator">
            <circle id="椭圆形" fill="#166AEA" fill-rule="nonzero" cx="7" cy="7" r="7"></circle>
            <circle id="椭圆形备份-2" stroke="#9DC3FF" fill-opacity="0.7" fill="#9ABFF6" cx="13" cy="13" r="10"></circle>
            <g id="编组" transform="translate(8.000000, 8.000000)" fill="#FFFFFF" fill-rule="nonzero">
                <path d="M3.95833334,0 L0.416666671,0 C0.187500001,0 0,0.187500001 0,0.416666671 L0,9.58333333 C0,9.8125 0.187500001,10 0.416666671,10 L3.95833334,10 L3.95833334,0 Z M2.70833334,4.4375 L2.70833334,6.875 L1.875,6.875 L1.875,4.41666666 L1.60416666,4.6875 L1.02083333,4.10416668 L2,3.125 C2.16666666,2.95833334 2.4375,2.95833334 2.58333332,3.125 L3.5625,4.10416668 L2.97916666,4.6875 L2.70833334,4.4375 Z M9.58333332,0 L6.04166666,0 L6.04166666,10 L9.58333332,10 C9.8125,10 10,9.8125 10,9.58333333 L10,0.416666671 C10,0.187500001 9.8125,0 9.58333332,0 Z M7.8125,7 C7.72916666,7.08333334 7.625,7.125 7.52083334,7.125 C7.41666667,7.125 7.3125,7.08333334 7.22916666,7 L6.25,6.02083334 L6.83333334,5.4375 L7.08333334,5.6875 L7.08333334,3.125 L7.91666666,3.125 L7.91666666,5.70833334 L8.20833334,5.41666668 L8.79166666,6 L7.8125,7 L7.8125,7 Z M5.20833333,0 L4.79166668,0 L4.79166668,10 L5.20833333,10 L5.20833333,0 Z" id="形状"></path>
            </g>
        </g>
    </g>
</svg>