<?xml version="1.0" encoding="UTF-8"?>
<svg width="32px" height="32px" viewBox="0 0 32 32" version="1.1" xmlns="http://www.w3.org/2000/svg" xmlns:xlink="http://www.w3.org/1999/xlink">
    <title>29-空间筛选备份</title>
    <g id="后续新增页面" stroke="none" stroke-width="1" fill="none" fill-rule="evenodd">
        <g id="能耗月指标分析" transform="translate(-892.000000, -305.000000)" fill="#FA8B16" fill-rule="nonzero">
            <g id="编组-9" transform="translate(875.000000, 281.000000)">
                <g id="29-空间筛选备份" transform="translate(17.000000, 24.000000)">
                    <circle id="椭圆形" fill-opacity="0.152753497" cx="16" cy="16" r="16"></circle>
                    <g id="编组" transform="translate(8.000000, 8.000000)">
                        <path d="M15.4997996,3.64248497 C15.7776887,3.64248497 16,3.41803607 16,3.14228457 L16,0.500200401 C16,0.223947348 15.7760527,0 15.4997996,0 L12.8577154,0 C12.5814624,0 12.357515,0.223947348 12.357515,0.500200401 L12.357515,1.32211089 L10.7350701,1.32211089 C10.684422,1.31431518 10.6328792,1.31431518 10.5822311,1.32211089 L3.64248497,1.32211089 L3.64248497,0.500200401 C3.64248497,0.367539006 3.58978544,0.240311077 3.49597966,0.146505305 C3.40217389,0.0526995338 3.27494596,0 3.14228457,0 L0.500200401,0 C0.223947348,0 0,0.223947348 0,0.500200401 L0,3.14228457 C0,3.41910488 0.224448898,3.64248497 0.500200401,3.64248497 L1.32104208,3.64248497 L1.32104208,12.357515 L0.500200401,12.357515 C0.223947348,12.357515 0,12.5814624 0,12.8577154 L0,15.4997996 C0,15.7766199 0.224448898,16 0.500200401,16 L3.14228457,16 C3.41910488,16 3.64248497,15.7755511 3.64248497,15.4997996 L3.64248497,14.6789579 L12.357515,14.6789579 L12.357515,15.4997996 C12.357515,15.7766199 12.5819639,16 12.8577154,16 L15.4997996,16 C15.7776887,16 16,15.7755511 16,15.4997996 L16,12.8577154 C16,12.5814624 15.7760527,12.357515 15.4997996,12.357515 L14.6789579,12.357515 L14.6789579,5.34509018 L14.6789579,3.64248497 L15.4997996,3.64248497 L15.4997996,3.64248497 Z M13.3579158,0.999331992 L15.000668,0.999331992 L15.000668,2.64101536 L13.3579158,2.64101536 L13.3579158,1.0004008 L13.3579158,0.999331992 Z M2.32144289,7.15671343 C2.35150129,7.13764113 2.3794472,7.11542772 2.40480962,7.09044757 L7.17167668,2.32144289 L9.44395458,2.32144289 L2.32144289,9.44502337 L2.32144289,7.15778224 L2.32144289,7.15671343 Z M1.0004008,1.0004008 L2.64315298,1.0004008 L2.64315298,2.64208417 L1.0004008,2.64208417 L1.0004008,1.0004008 Z M3.14228457,3.64248497 C3.41910488,3.64248497 3.64248497,3.41803607 3.64248497,3.14228457 L3.64248497,2.32144289 L5.75871743,2.32144289 L2.32144289,5.75871743 L2.32144289,3.64248497 L3.14228457,3.64248497 Z M2.32144289,10.8590514 L10.8590514,2.32144289 L12.357515,2.32144289 L12.357515,2.93386774 L2.93386774,12.357515 L2.32144289,12.357515 L2.32144289,10.8590514 Z M1.0004008,15.000668 L1.0004008,13.3589846 L2.64315298,13.3589846 L2.64315298,15.000668 L1.0004008,15.000668 Z M13.6785571,8.77274549 L8.89031396,13.5577822 C8.85531201,13.5931059 8.82577319,13.6334516 8.80267202,13.6774883 L6.52611891,13.6774883 L13.6785571,6.52611891 L13.6785571,8.77060789 L13.6785571,8.77274549 Z M15.000668,15.000668 L13.3579158,15.000668 L13.3579158,13.3589846 L15.000668,13.3589846 L15.000668,15.000668 Z M12.8577154,12.3585838 C12.5814624,12.3585838 12.357515,12.5825312 12.357515,12.8587842 L12.357515,13.6796259 L10.1857047,13.6796259 L13.6785571,10.1867735 L13.6785571,12.3585838 L12.8577154,12.3585838 L12.8577154,12.3585838 Z M13.6785571,5.11422846 L5.11315965,13.6796259 L3.64248497,13.6796259 L3.64248497,13.0639947 L13.0639947,3.64355378 L13.6785571,3.64355378 L13.6785571,5.11422846 Z" id="形状"></path>
                    </g>
                </g>
            </g>
        </g>
    </g>
</svg>