<?xml version="1.0" encoding="UTF-8"?>
<svg width="24px" height="24px" viewBox="0 0 24 24" version="1.1" xmlns="http://www.w3.org/2000/svg" xmlns:xlink="http://www.w3.org/1999/xlink">
    <title>Enterprisemanagement</title>
    <g id="后续新增页面" stroke="none" stroke-width="1" fill="none" fill-rule="evenodd">
        <g id="Enterprisemanagement">
            <circle id="椭圆形" fill="#166AEA" fill-rule="nonzero" cx="7" cy="7" r="7"></circle>
            <circle id="椭圆形备份-2" stroke="#9DC3FF" fill-opacity="0.7" fill="#9ABFF6" cx="13" cy="13" r="10"></circle>
            <g id="编组" transform="translate(7.000000, 7.000000)" fill="#FFFFFF" fill-rule="nonzero">
                <path d="M11.7511118,10.6969567 L11.0917859,10.6969567 L11.0917859,3.20102872 C11.0917859,2.9815688 10.9612943,2.78954136 10.7621229,2.69352765 L7.472361,0.978996999 C7.28692557,0.896699529 7.08088621,0.896699529 6.89545078,0.978996999 C6.68941141,1.06129447 6.55891981,1.26018003 6.56578779,2.34376339 L6.56578779,11.554222 L5.90646183,11.554222 L5.90646183,1.43163309 C5.90646183,0.320617231 5.90646183,0.156022288 5.65921458,0.0668666952 C5.44630723,-0.0222888984 5.21279596,-0.0222888984 4.99988862,0.0668666952 L1.2362362,2.04886413 C1.03706481,2.14487784 0.90657321,2.35062152 0.90657321,2.57008145 L0.90657321,10.7038148 L0.247247239,10.7038148 C0.0824157463,10.7038148 0,10.7929704 0,10.8752679 L0,11.8285469 C0,11.9108444 0.0824157463,12 0.247247239,12 L11.7511118,12 C11.8266596,12 11.9846231,11.9108444 11.9983591,11.8285469 L11.9983591,10.882126 C12.018963,10.7792542 11.8403956,10.6969567 11.7511118,10.6969567 Z M4.02463561,9.48992714 C4.02463561,9.58594084 3.94908784,9.66138019 3.85293615,9.66138019 L2.925759,9.66138019 C2.82960729,9.66138019 2.75405952,9.58594084 2.75405952,9.48992714 L2.75405952,8.6875268 C2.75405952,8.59151307 2.82960729,8.51607372 2.925759,8.51607372 L3.87354007,8.51607372 C3.96969178,8.51607372 4.04523955,8.59151307 4.04523955,8.6875268 L4.02463561,9.48992714 L4.02463561,9.48992714 Z M4.02463561,7.06900986 C4.02463561,7.16502357 3.94908784,7.24046292 3.85293615,7.24046292 L2.925759,7.24046292 C2.82960729,7.24046292 2.75405952,7.16502357 2.75405952,7.06900986 L2.75405952,6.25289327 C2.75405952,6.15687956 2.82960729,6.08144021 2.925759,6.08144021 L3.87354007,6.08144021 C3.96969178,6.08144021 4.04523955,6.15687956 4.04523955,6.25289327 L4.02463561,7.06900986 L4.02463561,7.06900986 Z M4.02463561,4.65495071 C4.02463561,4.75096443 3.94908784,4.82640377 3.85293615,4.82640377 L2.925759,4.82640377 C2.82960729,4.82640377 2.75405952,4.75096443 2.75405952,4.65495071 L2.75405952,3.83197599 C2.75405952,3.73596228 2.82960729,3.66052293 2.925759,3.66052293 L3.87354007,3.66052293 C3.96969178,3.66052293 4.04523955,3.73596228 4.04523955,3.83197599 L4.02463561,4.65495071 L4.02463561,4.65495071 Z M9.44347093,9.48306901 C9.44347093,9.57908272 9.36792316,9.65452207 9.27177147,9.65452207 L8.32399038,9.65452207 C8.22783868,9.65452207 8.15229091,9.57908272 8.15229091,9.48306901 L8.15229091,8.67381054 C8.15229091,8.57779683 8.22783868,8.50235748 8.32399038,8.50235748 L9.27177147,8.50235748 C9.36792316,8.50235748 9.44347093,8.57779683 9.44347093,8.67381054 L9.44347093,9.48306901 Z M9.44347093,7.06215174 C9.44347093,7.15816545 9.36792316,7.2336048 9.27177147,7.2336048 L8.32399038,7.2336048 C8.22783868,7.2336048 8.15229091,7.15816545 8.15229091,7.06215174 L8.15229091,6.25289326 C8.15229091,6.15687955 8.22783868,6.0814402 8.32399038,6.0814402 L9.27177147,6.0814402 C9.36792316,6.0814402 9.44347093,6.15687955 9.44347093,6.25289326 L9.44347093,7.06215174 L9.44347093,7.06215174 Z M9.44347093,4.64809258 C9.44347093,4.74410629 9.36792316,4.81954564 9.27177147,4.81954564 L8.32399038,4.81954564 C8.22783868,4.81954564 8.15229091,4.74410629 8.15229091,4.64809258 L8.15229091,3.83197599 C8.15229091,3.73596228 8.22783868,3.66052293 8.32399038,3.66052293 L9.27177147,3.66052293 C9.36792316,3.66052293 9.44347093,3.73596228 9.44347093,3.83197599 L9.44347093,4.64809258 Z" id="形状"></path>
            </g>
        </g>
    </g>
</svg>