<?xml version="1.0" encoding="UTF-8"?>
<svg width="24px" height="24px" viewBox="0 0 24 24" version="1.1" xmlns="http://www.w3.org/2000/svg" xmlns:xlink="http://www.w3.org/1999/xlink">
    <title>Entranceguard</title>
    <g id="后续新增页面" stroke="none" stroke-width="1" fill="none" fill-rule="evenodd">
        <g id="Entranceguard">
            <circle id="椭圆形" fill="#166AEA" fill-rule="nonzero" cx="7" cy="7" r="7"></circle>
            <circle id="椭圆形备份-2" stroke="#9DC3FF" fill-opacity="0.7" fill="#9ABFF6" cx="13" cy="13" r="10"></circle>
            <g id="编组" transform="translate(8.000000, 7.000000)" fill="#FFFFFF" fill-rule="nonzero">
                <path d="M7.57894737,0 C8.27368421,0 8.84210526,0.568421053 8.84210526,1.26315789 L8.84210526,1.26315789 L8.84210526,3.4736842 L6.31578946,3.4736842 C5.43157895,3.4736842 4.73684211,4.16842105 4.73684211,5.05263157 L4.73684211,5.05263157 L4.73684211,8.21052631 C4.7368421,9.09473685 5.43157895,9.78947369 6.31578946,9.78947369 L6.31578946,9.78947369 L8.84210526,9.78947369 L8.84210526,10.7368421 C8.84210526,11.4315789 8.27368421,12 7.57894737,12 L7.57894737,12 L1.26315789,12 C0.568421053,12 1.53943525e-12,11.4315789 1.53943525e-12,10.7368421 L1.53943525e-12,10.7368421 L1.53943525e-12,1.26315789 C1.53943525e-12,0.568421053 0.568421053,0 1.26315789,0 L1.26315789,0 L7.57894737,0 Z M12,6.31578946 L12,8.21052631 C12,8.55789474 11.7157895,8.84210526 11.3684211,8.84210526 L11.3684211,8.84210526 L6.31578946,8.84210526 C5.96842105,8.84210526 5.68421053,8.55789474 5.68421053,8.21052631 L5.68421053,8.21052631 L5.68421053,6.31578946 L12,6.31578946 Z M11.3684211,4.42105263 C11.7157895,4.42105263 12,4.70526315 12,5.05263158 L12,5.05263158 L12,5.68421054 L5.68421053,5.68421054 L5.68421053,5.05263158 C5.68421053,4.70526315 5.96842104,4.42105263 6.31578946,4.42105263 L6.31578946,4.42105263 L11.3684211,4.42105263 Z M6.31578946,1.57894736 C4.38947368,1.57894736 2.84210526,3.1263158 2.84210526,5.05263158 C2.84210526,5.30526317 3.06315789,5.5263158 3.31578948,5.5263158 C3.56842105,5.5263158 3.78947368,5.30526317 3.78947368,5.05263158 C3.78947367,3.66315789 4.92631578,2.52631578 6.31578946,2.52631578 C6.56842105,2.52631578 6.78947368,2.30526315 6.78947368,2.05263158 C6.78947368,1.79999999 6.56842105,1.57894736 6.31578946,1.57894736 Z" id="形状结合"></path>
            </g>
        </g>
    </g>
</svg>