<?xml version="1.0" encoding="UTF-8"?>
<svg width="24px" height="24px" viewBox="0 0 24 24" version="1.1" xmlns="http://www.w3.org/2000/svg" xmlns:xlink="http://www.w3.org/1999/xlink">
    <title>equipment</title>
    <g id="后续新增页面" stroke="none" stroke-width="1" fill="none" fill-rule="evenodd">
        <g id="equipment">
            <circle id="椭圆形" fill="#166AEA" fill-rule="nonzero" cx="7" cy="7" r="7"></circle>
            <circle id="椭圆形备份-2" stroke="#9DC3FF" fill-opacity="0.7" fill="#9ABFF6" cx="13" cy="13" r="10"></circle>
            <g id="编组" transform="translate(8.000000, 8.000000)" fill="#FFFFFF" fill-rule="nonzero">
                <g id="形状">
                    <path d="M9.62962963,0 C9.83417824,0 10,0.172199519 10,0.384615385 L10,4.23076922 C10,4.4431851 9.83417824,4.61538461 9.62962963,4.61538461 L2.59259259,4.61538461 C2.38804399,4.61538461 2.22222223,4.4431851 2.22222223,4.23076922 L2.22125,2.69125 L0.740740741,2.69230769 L0.740740741,7.30769231 L2.22125,7.3075 L2.22222223,5.76923077 C2.22222223,5.5568149 2.38804399,5.38461539 2.59259259,5.38461539 L9.62962963,5.38461539 C9.83417824,5.38461539 10,5.5568149 10,5.76923077 L10,9.61538461 C10,9.82780047 9.83417824,10 9.62962963,10 L2.59259259,10 C2.38804399,10 2.22222223,9.82780047 2.22222223,9.61538461 L2.22125,8.07625 L0.185185185,8.07692307 C0.0829050926,8.07692307 0,7.99082932 0,7.88461539 L0,2.11538461 C0,2.00917067 0.0829050926,1.92307692 0.185185185,1.92307692 L2.22125,1.9225 L2.22222223,0.384615385 C2.22222223,0.172199519 2.38804399,0 2.59259259,0 L9.62962963,0 Z M9.25925926,6.15384615 L7.77777778,6.15384615 L7.77777778,6.92307692 L8.51851851,6.92307692 L8.51851851,8.46153846 L7.77777778,8.46153846 L7.77777778,9.23076922 L9.25925926,9.23076922 L9.25925926,6.15384615 Z M4.44444445,6.15384615 L2.96296296,6.15384615 L2.96296296,9.23076922 L4.44444445,9.23076922 L4.44444445,8.46153846 L3.7037037,8.46153846 L3.7037037,6.92307692 L4.44444445,6.92307692 L4.44444445,6.15384615 Z M9.25925926,0.769230769 L7.77777778,0.769230769 L7.77777778,1.53846154 L8.51851851,1.53846154 L8.51851851,3.07692307 L7.77777778,3.07692307 L7.77777778,3.84615385 L9.25925926,3.84615385 L9.25925926,0.769230769 Z M4.44444445,0.769230769 L2.96296296,0.769230769 L2.96296296,3.84615385 L4.44444445,3.84615385 L4.44444445,3.07692307 L3.7037037,3.07692307 L3.7037037,1.53846154 L4.44444445,1.53846154 L4.44444445,0.769230769 Z"></path>
                </g>
            </g>
        </g>
    </g>
</svg>