<?xml version="1.0" encoding="UTF-8"?>
<svg width="16px" height="17px" viewBox="0 0 16 17" version="1.1" xmlns="http://www.w3.org/2000/svg" xmlns:xlink="http://www.w3.org/1999/xlink">
    <title>icon/任务 2</title>
    <g id="黑色版本" stroke="none" stroke-width="1" fill="none" fill-rule="evenodd">
        <g id="系统默认图标" transform="translate(-807.000000, -641.000000)">
            <g id="编组" transform="translate(807.000000, 641.502276)">
                <rect id="矩形" x="0" y="0" width="16" height="16"></rect>
                <path d="M13.0778443,2 C13.3224152,2 13.5569691,2.1013126 13.7299068,2.28165018 C13.9028446,2.46198777 14,2.70657803 14,2.96161389 L14,12.1812433 C14,12.4362791 13.9028446,12.6808694 13.7299068,12.861207 C13.5569691,13.0415445 13.3224152,13.1428571 13.0778443,13.1428571 L2.92215568,13.1428571 C2.41286316,13.1428571 2,12.7123279 2,12.1812433 L2,2.96161389 C2,2.4305292 2.41286316,2 2.92215568,2 L13.0778443,2 Z M13.401,9.752 L2.598,9.752 L2.59880239,12.1812433 C2.59880239,12.3674678 2.74357259,12.5184325 2.92215568,12.5184325 L13.0778443,12.5184325 C13.2564274,12.5184325 13.4011976,12.3674678 13.4011976,12.1812433 L13.401,9.752 Z M4.25149701,10.8793179 C4.4510978,10.8793179 4.5508982,10.9833887 4.5508982,11.1915302 C4.5508982,11.3996718 4.4510978,11.5037425 4.25149701,11.5037425 L3.38922155,11.5037425 C3.18962076,11.5037425 3.08982036,11.3996718 3.08982036,11.1915302 C3.08982036,10.9833887 3.18962076,10.8793179 3.38922155,10.8793179 L4.25149701,10.8793179 Z M13.401,6.255 L2.598,6.255 L2.598,9.127 L13.401,9.127 L13.401,6.255 Z M4.25149701,7.379418 C4.4510978,7.379418 4.5508982,7.48348877 4.5508982,7.6916303 C4.5508982,7.89977184 4.4510978,8.00384261 4.25149701,8.00384262 L3.38922155,8.00384262 C3.18962076,8.00384262 3.08982036,7.89977185 3.08982036,7.6916303 C3.08982036,7.48348877 3.18962076,7.379418 3.38922155,7.379418 L4.25149701,7.379418 Z M13.0778443,2.6244246 L2.92215568,2.6244246 C2.74357259,2.6244246 2.59880239,2.77538939 2.59880239,2.96161389 L2.598,5.631 L13.401,5.631 L13.4011976,2.96161389 C13.4011976,2.77538939 13.2564274,2.6244246 13.0778443,2.6244246 Z M4.25149701,3.83580835 C4.4510978,3.83580835 4.5508982,3.93987912 4.5508982,4.14802065 C4.5508982,4.35616218 4.4510978,4.46023296 4.25149701,4.46023296 L3.38922155,4.46023296 C3.18962076,4.46023296 3.08982036,4.35616219 3.08982036,4.14802065 C3.08982036,3.93987912 3.18962076,3.83580835 3.38922155,3.83580835 L4.25149701,3.83580835 Z" id="形状结合" stroke="#FFFFFF" stroke-width="0.3" fill="#FFFFFF" fill-rule="nonzero"></path>
            </g>
        </g>
    </g>
</svg>