<?xml version="1.0" encoding="UTF-8"?>
<svg width="24px" height="24px" viewBox="0 0 24 24" version="1.1" xmlns="http://www.w3.org/2000/svg" xmlns:xlink="http://www.w3.org/1999/xlink">
    <title>Equipmentmanagement</title>
    <g id="后续新增页面" stroke="none" stroke-width="1" fill="none" fill-rule="evenodd">
        <g id="Equipmentmanagement">
            <circle id="椭圆形" fill="#166AEA" fill-rule="nonzero" cx="7" cy="7" r="7"></circle>
            <circle id="椭圆形备份-2" stroke="#9DC3FF" fill-opacity="0.7" fill="#9ABFF6" cx="13" cy="13" r="10"></circle>
            <g id="编组" transform="translate(8.221004, 8.248946)" fill="#FFFFFF" fill-rule="nonzero">
                <g id="形状">
                    <path d="M7.19298245,0 L4.7368421,0 C4.43859649,0 4.21052631,0.22413793 4.21052631,0.517241377 L4.21052631,8.44827586 L3.50877193,8.44827586 L3.50877193,0.517241377 C3.50877193,0.241379306 3.28070175,0 2.98245614,0 L0.526315788,0 C0.228070175,0 0,0.22413793 0,0.517241377 L0,9.48275862 C0,9.75862069 0.228070175,10 0.526315788,10 L2.98245614,10 C3.28070175,10 3.50877193,9.77586208 3.50877193,9.48275862 L3.50877193,9.13793104 L4.21052631,9.13793104 L4.21052631,9.48275862 C4.21052631,9.75862069 4.43859649,10 4.7368421,10 L7.19298245,10 C7.49122806,10 7.71929824,9.77586208 7.71929824,9.48275862 L7.71929824,0.517241377 C7.71929824,0.22413793 7.49122806,0 7.19298245,0 Z M1.57894738,9.13793104 L0.877192983,9.13793104 L0.877192983,8.44827586 L1.57894738,8.44827586 L1.57894738,9.13793104 Z M2.63157895,1.55172414 L0.877192981,1.55172414 L0.877192981,0.862068965 L2.63157895,0.862068965 L2.63157895,1.55172414 Z M5.78947369,9.13793104 L5.0877193,9.13793104 L5.0877193,8.44827586 L5.78947369,8.44827586 L5.78947369,9.13793104 Z M6.84210526,1.55172414 L5.0877193,1.55172414 L5.0877193,0.862068965 L6.84210526,0.862068965 L6.84210526,1.55172414 Z M9.49122808,10 C9.21052631,10 8.98245614,9.77586208 8.98245614,9.5 L8.98245614,0.5 C8.98245614,0.22413793 9.21052631,0 9.49122808,0 C9.77192983,0 10,0.22413793 10,0.5 L10,9.5 C10,9.77586208 9.77192983,10 9.49122808,10 Z"></path>
                </g>
            </g>
        </g>
    </g>
</svg>