<?xml version="1.0" encoding="UTF-8"?>
<svg width="24px" height="24px" viewBox="0 0 24 24" version="1.1" xmlns="http://www.w3.org/2000/svg" xmlns:xlink="http://www.w3.org/1999/xlink">
    <title>extend</title>
    <g id="后续新增页面" stroke="none" stroke-width="1" fill="none" fill-rule="evenodd">
        <g id="extend">
            <circle id="椭圆形" fill="#166AEA" fill-rule="nonzero" cx="7" cy="7" r="7"></circle>
            <circle id="椭圆形备份-2" stroke="#9DC3FF" fill-opacity="0.7" fill="#9ABFF6" cx="13" cy="13" r="10"></circle>
            <path d="M18.6787571,12.7841727 L17.8175671,12.7841727 L17.8175671,10.4532374 C17.8175671,9.8489209 17.3008531,9.3309352 16.69802,9.3309352 L14.3728067,9.3309352 L14.3728067,8.4676259 C14.3728067,7.69064749 13.7699737,7 12.9087836,7 C12.1337125,7 11.4447604,7.60431655 11.4447604,8.4676259 L11.4447604,9.3309352 L9.11954713,9.3309352 C8.51671406,9.3309352 8,9.8489209 8,10.4532374 L8,12.6115108 L8.8611901,12.6115108 C9.72238025,12.6115108 10.4113322,13.3021583 10.4113322,14.1654676 C10.4113322,15.028777 9.72238025,15.7194244 8.8611901,15.7194244 L8,15.7194244 L8,17.8776979 C8,18.4820144 8.51671406,19 9.11954713,19 L11.2725224,19 L11.2725224,18.1366906 C11.2725224,17.2733814 11.9614745,16.5827338 12.8226646,16.5827338 C13.6838546,16.5827338 14.3728067,17.2733814 14.3728067,18.1366906 L14.3728067,19 L16.5257819,19 C17.128615,19 17.6453291,18.4820144 17.6453291,17.8776979 L17.6453291,15.6330935 L18.5065192,15.6330935 C19.2815902,15.6330935 19.9705423,15.028777 19.9705423,14.1654676 C20.1427804,13.3884892 19.5399473,12.7841727 18.6787571,12.7841727 L18.6787571,12.7841727 Z" id="路径" fill="#FFFFFF" fill-rule="nonzero"></path>
        </g>
    </g>
</svg>