<?xml version="1.0" encoding="UTF-8"?>
<svg width="24px" height="24px" viewBox="0 0 24 24" version="1.1" xmlns="http://www.w3.org/2000/svg" xmlns:xlink="http://www.w3.org/1999/xlink">
    <title>Facerecognition</title>
    <g id="后续新增页面" stroke="none" stroke-width="1" fill="none" fill-rule="evenodd">
        <g id="Facerecognition">
            <circle id="椭圆形" fill="#166AEA" fill-rule="nonzero" cx="7" cy="7" r="7"></circle>
            <circle id="椭圆形备份-2" stroke="#9DC3FF" fill-opacity="0.7" fill="#9ABFF6" cx="13" cy="13" r="10"></circle>
            <g id="编组" transform="translate(7.999989, 6.999992)" fill="#FFFFFF" fill-rule="nonzero">
                <path d="M10.5000068,11.5478552 C10.5000068,11.5478552 10.4201127,9.96879028 9.17277634,9.39270306 C8.68137856,9.15877569 8.17599934,8.95755432 7.65973362,8.79027122 C6.65129869,8.38838118 6.41057552,8.13783835 6.41057552,8.13783835 L6.46444546,7.66175322 C7.05511871,7.41607737 7.47129975,6.86003853 7.55277445,6.20769085 C7.89889534,6.30769292 8.0045533,5.85822124 8.03057742,5.58079615 C8.05660154,5.30337105 8.24293429,4.45362225 7.81822054,4.52781734 C7.91491694,4.08359943 7.95956502,3.62898442 7.95120383,3.17375704 C7.84424466,2.2207803 7.10177633,1.24414716 5.19030421,1.1678015 C4.76241561,1.19109996 4.34080276,1.28428216 3.94114613,1.44388249 C3.80816284,1.49388352 2.9061666,1.3944191 2.77292308,1.64442429 C2.69302901,1.76996452 2.9053859,2.19551097 2.7989472,2.29605068 C2.34768884,2.64713322 2.48067213,2.72213477 2.42758291,3.17348821 C2.40664396,3.62766405 2.44224103,4.08273756 2.53350111,4.52754853 C2.1077464,4.45200932 2.29459962,5.30417751 2.32062375,5.58052732 C2.34664787,5.85687712 2.45360703,6.28215475 2.79920745,6.20742204 C2.98423898,7.36040291 4.10041379,7.66148441 4.10041379,7.66148441 L4.15246204,8.16257006 C4.15246204,8.16257006 3.91356056,8.43865104 2.90512565,8.81500293 C2.38979385,8.97524749 1.88434488,9.16762973 1.39156242,9.39109013 C0.0903560758,9.99352195 0.0122837076,11.5475864 0.0122837076,11.5475864 C0.0174787904,11.6731624 0.0708870566,11.7914276 0.160698118,11.8762295 C0.250509179,11.9610314 0.369323577,12.0053833 0.4908674,11.9994775 L10.0198617,11.9994775 C10.1413513,12.0051657 10.2600479,11.9607392 10.3498118,11.8759818 C10.4395757,11.7912244 10.4930453,11.6730871 10.4984454,11.5475864 L10.5000068,11.5478552 Z M0.109613934,6.16199098 C0.0385534902,6.23532606 -0.000935336632,6.33512347 1.68282161e-05,6.43887844 L1.68282161e-05,7.60556926 C1.68282161e-05,8.03198489 0.333625825,8.37824509 0.746424321,8.38033657 L1.86910515,8.38033657 C1.96937056,8.38106855 2.06570515,8.34008195 2.13637293,8.26660447 C2.28236838,8.11239724 2.28236838,7.8659615 2.13637293,7.71175427 C2.06572184,7.63825102 1.96937627,7.59725972 1.86910515,7.59804224 L0.747725531,7.59804224 L0.747725531,6.43188904 C0.751908797,6.27384787 0.660887413,6.12965546 0.519199924,6.06986803 C0.377512435,6.01008057 0.214789605,6.04720129 0.110654907,6.16306627 L0.109613934,6.16199098 Z M10.4854524,7.59804224 L10.4854524,6.43188904 C10.4861521,6.32802918 10.4467146,6.22816786 10.3758717,6.15446394 C10.26795,6.04235676 10.1050766,6.00887646 9.96382806,6.06976412 C9.82257957,6.13065178 9.73105877,6.27379321 9.73229508,6.43188904 L9.73229508,7.59804224 L8.60883352,7.59804224 C8.50856812,7.59729017 8.41223352,7.63827679 8.34156574,7.71175427 C8.19557029,7.8659615 8.19557029,8.11239724 8.34156574,8.26660447 C8.41223352,8.34008195 8.50856812,8.38106857 8.60883352,8.38033657 L9.73229508,8.38033657 C9.93263487,8.37988957 10.1245896,8.29719706 10.2658605,8.15046096 C10.4071313,8.00372486 10.4861246,7.80498747 10.4854524,7.59804224 L10.4854524,7.59804224 Z M0.109613934,2.21889854 C0.177810868,2.29263911 0.271192246,2.33594994 0.369855209,2.33960922 C0.470263315,2.34010873 0.566675038,2.29900223 0.637503734,2.22548424 C0.708332432,2.15196626 0.747661292,2.05217826 0.746684559,1.94846284 L0.746684559,0.782309649 L1.86936539,0.782309649 C2.07848859,0.782309649 2.24801643,0.607191588 2.24801643,0.391172513 C2.24801643,0.175153438 2.07848859,3.53784422e-05 1.86936539,3.53784422e-05 L0.747725531,3.53784422e-05 C0.334622262,0.00210808892 0.000918685548,0.348858847 0.00135357429,0.77558907 L0.00135357429,1.94174226 C9.75793948e-05,2.0453672 0.0390899762,2.14519127 0.109613934,2.21889854 Z M10.4854422,0.782309649 C10.4861246,0.575364404 10.4071313,0.376627021 10.2658605,0.229890921 C10.1245896,0.083154821 9.93263487,0.00046231503 9.73229508,1.14513264e-05 L8.60883352,1.14513264e-05 C8.50845195,-0.000789240243 8.41202899,0.0404289314 8.34156574,0.114285049 C8.2328499,0.225960184 8.20011721,0.394364299 8.25867715,0.540732449 C8.31723711,0.687100599 8.45551389,0.782499455 8.60883352,0.782309649 L9.73229508,0.782309649 L9.73229508,1.94846284 C9.73229508,2.16329418 9.90089081,2.33744938 10.1088642,2.33744938 C10.3168376,2.33744938 10.4854422,2.16329418 10.4854422,1.94846284 L10.4854422,0.782309649 Z" id="形状"></path>
            </g>
        </g>
    </g>
</svg>