<?xml version="1.0" encoding="UTF-8"?>
<svg width="24px" height="24px" viewBox="0 0 24 24" version="1.1" xmlns="http://www.w3.org/2000/svg" xmlns:xlink="http://www.w3.org/1999/xlink">
    <title>Faultcenter</title>
    <g id="后续新增页面" stroke="none" stroke-width="1" fill="none" fill-rule="evenodd">
        <g id="Faultcenter">
            <circle id="椭圆形" fill="#166AEA" fill-rule="nonzero" cx="7" cy="7" r="7"></circle>
            <circle id="椭圆形备份-2" stroke="#9DC3FF" fill-opacity="0.7" fill="#9ABFF6" cx="13" cy="13" r="10"></circle>
            <g id="编组" transform="translate(7.000000, 7.000000)" fill="#FFFFFF" fill-rule="nonzero">
                <path d="M12.2433417,9.55689297 L7.0539766,0.504277381 C6.8734519,0.192021659 6.54205592,0 6.18368155,0 C5.82530721,0 5.49391122,0.192021659 5.31338651,0.504277381 L0.131039079,9.55689297 C-0.0463279048,9.86108658 -0.0434517674,10.2390186 0.138523991,10.5404301 C0.320499751,10.8418417 0.652081074,11.017881 1.00143734,10.998558 L11.3735627,10.998558 C11.7229189,11.017881 12.0545003,10.8418417 12.236476,10.5404301 C12.4184518,10.2390185 12.4213279,9.86108658 12.2439609,9.55689297 L12.2433417,9.55689297 L12.2433417,9.55689297 Z M6.22300118,9.70845087 C5.80419159,9.70799006 5.46504898,9.36517633 5.46550405,8.94275407 C5.46596094,8.5203318 5.80584282,8.17826373 6.2246524,8.17872271 C6.4955747,8.17902115 6.74575986,8.32507815 6.88096556,8.56187638 C7.01617126,8.79867462 7.01585655,9.09023882 6.88013995,9.32673955 C6.74442336,9.56324028 6.49392348,9.70874747 6.22300118,9.70845087 L6.22300118,9.70845087 Z M6.99329434,6.70853756 C6.99283872,7.13109449 6.65309025,7.47340073 6.2341469,7.47340073 C6.03585782,7.472204 5.84644058,7.3903375 5.70881443,7.24635102 C5.57118829,7.10236453 5.49700382,6.90844707 5.50307017,6.70853756 L5.50307017,3.49752793 C5.49700382,3.29761843 5.57118829,3.10370097 5.70881443,2.95971449 C5.84644058,2.815728 6.03585782,2.7338615 6.2341469,2.73266477 C6.65309025,2.73266477 6.99283872,3.07497101 6.99329434,3.49752793 L6.99329434,6.70853756 Z" id="形状"></path>
            </g>
        </g>
    </g>
</svg>