<?xml version="1.0" encoding="UTF-8"?>
<svg width="24px" height="24px" viewBox="0 0 24 24" version="1.1" xmlns="http://www.w3.org/2000/svg" xmlns:xlink="http://www.w3.org/1999/xlink">
    <title>Faultinformation</title>
    <g id="后续新增页面" stroke="none" stroke-width="1" fill="none" fill-rule="evenodd">
        <g id="Faultinformation">
            <circle id="椭圆形" fill="#166AEA" fill-rule="nonzero" cx="7" cy="7" r="7"></circle>
            <circle id="椭圆形备份-2" stroke="#9DC3FF" fill-opacity="0.7" fill="#9ABFF6" cx="13" cy="13" r="10"></circle>
            <g id="编组" transform="translate(7.000000, 7.000000)" fill="#FFFFFF" fill-rule="nonzero">
                <g id="形状结合" transform="translate(0.000000, 0.000000)">
                    <path d="M11.2482334,5.88299589 C11.6634226,5.88299589 12,6.22056227 12,6.63697149 L12,11.2460244 C12,11.6624336 11.6634226,12 11.2482334,12 L7.87280135,12 C7.45761211,12 7.12103473,11.6624336 7.12103473,11.2460244 L7.12103473,6.63697149 C7.12103473,6.22056227 7.45761211,5.88299589 7.87280135,5.88299589 L11.2482334,5.88299589 Z M9.33573915,9.28568781 L8.39152031,9.28568781 C8.26696353,9.28568781 8.16599033,9.38695773 8.16599033,9.51188049 L8.16599033,9.81347073 C8.16599033,9.87346075 8.18975145,9.93099375 8.23204652,9.97341312 C8.27434159,10.0158325 8.33170603,10.0396634 8.39152031,10.0396634 L9.33573915,10.0396634 C9.39555342,10.0396634 9.45291786,10.0158325 9.49521294,9.97341312 C9.53750802,9.93099376 9.56126915,9.87346075 9.56126915,9.81347073 L9.56126915,9.51188049 C9.56126915,9.45189046 9.53750801,9.39435747 9.49521294,9.35193811 C9.45291786,9.30951876 9.39555342,9.28568781 9.33573915,9.28568781 Z M5.22583113,0 C5.74222492,0 6.22248789,0.265784571 6.49782022,0.703937431 L9.14403867,4.91715313 L6.95113549,4.91715313 C6.53594627,4.91715313 6.19936889,5.25471951 6.19936889,5.67112873 L6.19936889,8.94036699 L6.20012064,8.94187499 L1.50383467,8.94187499 C0.956095512,8.94198477 0.451632718,8.64334187 0.187048872,8.16233529 C-0.0775349748,7.68132872 -0.0603732827,7.09407086 0.23184558,6.62943174 L3.95384204,0.703937431 C4.22917437,0.265784571 4.70943733,0 5.22583113,0 Z M10.7295144,7.7777366 L8.39152031,7.7777366 C8.26696353,7.7777366 8.16599033,7.8790065 8.16599033,8.00392926 L8.16599033,8.30551952 C8.16599033,8.43044229 8.26696353,8.53171219 8.39152031,8.53171219 L10.7295144,8.53171219 C10.8540712,8.53171219 10.9550444,8.43044229 10.9550444,8.30551952 L10.9550444,8.00392926 C10.9550444,7.8790065 10.8540712,7.7777366 10.7295144,7.7777366 Z M5.24612883,6.11295844 L5.20478166,6.11295844 C4.90979835,6.12391408 4.67630037,6.36693078 4.67630037,6.66298365 C4.67630037,6.95903652 4.90979835,7.20205321 5.20478166,7.21300885 L5.24612883,7.21300885 C5.54111213,7.20205321 5.77461011,6.95903652 5.77461011,6.66298365 C5.77461011,6.36693078 5.54111213,6.12391408 5.24612883,6.11295844 Z M5.22507936,2.08069689 C4.91170459,2.08111224 4.65715795,2.33640684 4.65674381,2.65145642 L4.65674381,5.17576677 C4.65674381,5.49078036 4.91136459,5.74614932 5.22545525,5.74614932 C5.5395459,5.74614932 5.79416668,5.49078036 5.79416668,5.17576677 L5.79416668,2.65145642 C5.79416668,2.33623464 5.53937762,2.08069689 5.22507936,2.08069689 Z" id="形状"></path>
                </g>
            </g>
        </g>
    </g>
</svg>