<?xml version="1.0" encoding="UTF-8"?>
<svg width="44px" height="44px" viewBox="0 0 44 44" version="1.1" xmlns="http://www.w3.org/2000/svg" xmlns:xlink="http://www.w3.org/1999/xlink">
    <title>编组 5备份</title>
    <g id="页面调整" stroke="none" stroke-width="1" fill="none" fill-rule="evenodd">
        <g id="工单效率-负荷分析" transform="translate(-650.000000, -283.000000)">
            <g id="编组-20" transform="translate(650.000000, 282.000000)">
                <g id="编组-5备份" transform="translate(0.000000, 1.000000)">
                    <rect id="矩形" fill="#F6BB06" x="0" y="0" width="44" height="44" rx="8"></rect>
                    <g id="编组-25备份-2" transform="translate(6.000000, 6.000000)">
                        <rect id="矩形" x="0" y="0" width="32" height="32"></rect>
                        <g id="编组-11" transform="translate(6.000000, 5.000000)" fill="#FFFFFF">
                            <path d="M3.17075096,1.86329114 C3.60735109,1.94092827 3.76611477,2.21265824 3.78596023,2.60084389 C3.82565115,3.28016879 3.78596023,3.95949366 3.80580569,4.63881856 C3.84549664,6.42447257 4.87746061,7.47257384 6.70324303,7.49198312 C8.84655279,7.53080168 10.9700171,7.49198312 13.1133269,7.5113924 C14.7605002,7.53080168 16.1695279,6.40506329 16.0504552,4.63881856 C16.0107643,3.99831223 16.0306097,3.33839663 16.0703006,2.67848101 C16.1099915,2.09620253 16.2886007,1.94092827 16.8839645,1.88270042 C18.3525286,1.72742616 20.0195474,2.67848101 19.9997019,4.61940928 C19.9867705,8.0341629 19.9822652,11.4489165 19.9861863,14.86904 C18.9398407,13.6839768 17.4136963,12.9375 15.7142857,12.9375 C15.5272181,12.9375 15.3422499,12.9465452 15.1597897,12.9642246 C15.1893688,12.7629266 15.1918405,12.4869257 15.1971004,12.1113924 C15.1971004,11.6649789 15.0581821,11.5485232 14.6017365,11.5485232 C11.8630629,11.5873418 9.12438926,11.5679325 6.38571563,11.5679325 C4.83776969,11.5679325 4.87746061,11.5679325 4.85761515,13.043038 C4.85761515,13.4506329 4.97668791,13.5476793 5.37359712,13.5476793 C6.5345566,13.5185654 7.69551606,13.5222046 8.85647553,13.5258439 L10.017435,13.52827 L13.1901401,13.5274533 C11.9088594,14.1632858 10.898645,15.2680985 10.3808433,16.6191617 C9.6816274,16.6192538 8.98129228,16.618013 8.28095717,16.6167722 L6.22695195,16.614346 L5.9229056,16.6148906 C4.70421782,16.6219711 4.73712483,16.721097 4.7186969,18.1088608 C4.7186969,18.535865 4.87746061,18.5940928 5.25452436,18.5940928 C6.40059974,18.5649789 7.54667511,18.5686181 8.69275049,18.5722574 L9.83882586,18.5746835 L10.0010819,18.574474 C10.0003617,18.6120621 10,18.6497386 10,18.6875 C10,20.3831228 10.7293912,21.9073224 11.8896797,22.9597392 C9.04535019,22.9747142 6.11703683,22.9940021 3.44407395,22.9988543 L2.23801429,23 L2.33724159,22.9805907 C1.84110508,22.9805907 1.52357768,22.9029536 1.16635939,22.6506329 C0.406939727,22.161519 -0.0240154768,21.5202363 0.00257450005,20.6478825 L0.0153226359,20.457384 L0.0153226359,4.3864979 C-0.18313197,2.75611814 1.58311407,1.61097047 3.17075096,1.86329114 Z M9.95789863,1.12883036e-12 C11.1287808,1.12883036e-12 11.9225993,0.621097054 12.299663,1.6886076 C12.3988903,1.94092827 12.5179631,2.0185654 12.7957996,2.0185654 C13.4308543,1.99915611 14.0460636,2.03797468 14.6811184,1.99915611 C15.1772549,1.97974683 15.4154004,2.11561181 15.3757095,2.65907173 C15.3360186,3.41603376 15.3757095,4.17299579 15.355864,4.9299578 C15.3360186,6.09451475 14.7605002,6.67679324 13.589618,6.69620253 C12.3790449,6.73502109 11.1287808,6.71561181 9.87851678,6.71561181 L6.28648833,6.71561181 C4.93699699,6.69620253 4.38132407,6.17215188 4.38132407,4.85232067 C4.38132407,4.15358649 4.40116953,3.4548523 4.36147861,2.75611814 C4.34163315,2.30970465 4.5202423,2.13502109 4.93699699,2.07679324 C5.61174267,1.96033755 6.26664287,2.0185654 6.94138855,2.0185654 C7.27876138,2.0185654 7.45737055,1.94092827 7.59628877,1.61097047 C8.03288891,0.621097054 8.80686189,1.12883036e-12 9.95789863,1.12883036e-12 Z" id="形状结合" fill-rule="nonzero"></path>
                            <path d="M15.7142857,14.375 C18.0812204,14.375 20,16.305772 20,18.6875 C20,21.069228 18.0812204,23 15.7142857,23 C13.3473511,23 11.4285714,21.069228 11.4285714,18.6875 C11.4285714,16.305772 13.3473511,14.375 15.7142857,14.375 Z M17.2533879,17.0280009 L16.3533879,17.0280009 L16.4383879,17.1386884 L15.9433879,18.4115946 L16.7183879,18.4115946 L16.9183879,17.8883446 L17.1883879,17.8883446 L17.0933879,18.5826571 L16.8483879,18.9096884 L16.6933879,18.5876884 L15.9433879,18.5876884 L16.3883879,19.5335634 L15.5583879,20.6454696 L16.3933879,20.6454696 L16.7083879,20.2178134 L16.9133879,20.6454696 L17.7083879,20.6454696 L17.1833879,19.5788446 L17.7283879,18.8442821 L17.8583879,17.8883446 L18.0133879,17.8883446 L18.0783879,17.4103759 L17.1033879,17.4103759 L17.2533879,17.0280009 Z M15.4583879,17.0430946 L14.4633879,17.0430946 L14.6333879,17.2292509 L14.5783879,17.5965321 L13.9733879,17.5965321 L13.8983879,18.1147509 L14.5083879,18.1147509 L14.4233879,18.7034071 L13.8733879,18.7034071 L13.6183879,20.5096259 L15.5233879,20.5096259 L15.7783879,18.7034071 L15.2233879,18.7034071 L15.3083879,18.1147509 L15.9533879,18.1147509 L16.0283879,17.5965321 L15.3783879,17.5965321 L15.4583879,17.0430946 Z M15.0783879,19.1511884 L14.9533879,20.0618446 L14.3433879,20.0618446 L14.4683879,19.1511884 L15.0783879,19.1511884 Z" id="形状结合"></path>
                        </g>
                    </g>
                </g>
            </g>
        </g>
    </g>
</svg>