<?xml version="1.0" encoding="UTF-8"?>
<svg width="24px" height="24px" viewBox="0 0 24 24" version="1.1" xmlns="http://www.w3.org/2000/svg" xmlns:xlink="http://www.w3.org/1999/xlink">
    <title>Firefighting</title>
    <g id="后续新增页面" stroke="none" stroke-width="1" fill="none" fill-rule="evenodd">
        <g id="Firefighting">
            <circle id="椭圆形" fill="#166AEA" fill-rule="nonzero" cx="7" cy="7" r="7"></circle>
            <circle id="椭圆形备份-2" stroke="#9DC3FF" fill-opacity="0.7" fill="#9ABFF6" cx="13" cy="13" r="10"></circle>
            <g id="编组" transform="translate(10.000000, 7.000000)" fill="#FFFFFF" fill-rule="nonzero">
                <path d="M1.82394366,2.69387755 L5.24178404,2.69387755 C5.38967135,2.69387755 5.50469484,2.57142857 5.50469484,2.41399417 C5.50469484,2.27405248 5.40610329,2.15160349 5.27464789,2.13411079 C5.24178404,1.2244898 4.58450705,0.454810502 3.71361502,0.36734694 L3.71361502,0.209912542 C3.71361502,0.0874635623 3.63145539,0 3.51643193,0 C3.40140846,0 3.31924882,0.0874635623 3.31924882,0.209912542 L3.31924882,0.36734694 C2.46478873,0.472303205 1.7910798,1.2244898 1.77464789,2.15160349 C1.64319248,2.1690962 1.54460094,2.29154519 1.54460094,2.43148688 C1.56103287,2.57142858 1.67605634,2.69387755 1.82394366,2.69387755 L1.82394366,2.69387755 Z M5.25821596,3.14868805 L5.25821596,2.81632652 L1.75821596,2.81632652 L1.75821596,3.16618076 L1.59389672,3.16618076 L1.59389672,5.33527697 L1.75821596,5.33527697 L1.75821596,10.5655977 L5.25821596,10.5655977 L5.25821596,5.33527697 L5.42253521,5.33527697 L5.42253521,3.16618076 L5.25821596,3.16618076 L5.25821596,3.14868805 Z M1.57746479,11.1603499 L5.47183098,11.1603499 L5.47183098,10.7055394 L1.57746479,10.7055394 L1.57746479,11.1603499 Z M0.723004693,3.30612245 L0.723004693,3.25364431 C0.723004693,3.2361516 0.706572764,3.16618076 0.657276991,3.16618076 C0.279342722,3.16618076 -2.77555756e-17,3.62099125 -2.77555756e-17,4.21574344 C-2.77555756e-17,4.81049562 0.295774651,5.26530613 0.673708919,5.26530613 C0.723004693,5.26530613 0.739436621,5.212828 0.739436621,5.17784256 C0.739436621,5.16034985 0.739436621,5.14285715 0.723004693,5.12536444 L0.723004693,3.30612245 Z M1.49530516,5.24781341 L1.49530516,3.2361516 C1.49530516,3.06122449 1.34741784,2.92128281 1.1830986,2.92128281 C1.00234741,2.92128281 0.870892013,3.0612245 0.870892013,3.2361516 L0.870892013,5.2303207 C0.870892013,5.4052478 1.01877933,5.5451895 1.1830986,5.5451895 C1.34741784,5.56268222 1.49530516,5.42274053 1.49530516,5.24781341 Z M5.58685445,11.2653061 L1.46244132,11.2653061 C1.28169014,11.2653061 1.11737089,11.4227405 1.11737089,11.6326531 C1.11737089,11.8250729 1.26525821,12 1.46244132,12 L5.57042254,12 C5.75117371,12 5.91549295,11.8425656 5.91549295,11.6326531 C5.91549295,11.4227405 5.76760563,11.2653061 5.58685445,11.2653061 Z M5.81690141,2.92128281 C5.63615023,2.92128281 5.50469484,3.0612245 5.50469484,3.2361516 L5.50469484,5.2303207 C5.50469484,5.4052478 5.65258216,5.5451895 5.81690141,5.5451895 C5.99765258,5.5451895 6.12910799,5.4052478 6.12910799,5.2303207 L6.12910799,3.2361516 C6.14553991,3.06122449 5.99765258,2.92128281 5.81690141,2.92128281 Z M6.35915494,3.18367346 C6.30985916,3.18367346 6.26056338,3.18367346 6.26056338,3.28862975 L6.26056338,5.19533528 C6.26056338,5.30029154 6.32629108,5.30029154 6.35915494,5.30029154 C6.70422536,5.30029154 7,4.82798834 7,4.25072887 C7,3.65597669 6.70422535,3.18367346 6.35915494,3.18367346 L6.35915494,3.18367346 Z" id="形状"></path>
            </g>
        </g>
    </g>
</svg>