<?xml version="1.0" encoding="UTF-8"?>
<svg width="24px" height="24px" viewBox="0 0 24 24" version="1.1" xmlns="http://www.w3.org/2000/svg" xmlns:xlink="http://www.w3.org/1999/xlink">
    <title>Giveanalarm</title>
    <g id="后续新增页面" stroke="none" stroke-width="1" fill="none" fill-rule="evenodd">
        <g id="Giveanalarm">
            <circle id="椭圆形" fill="#166AEA" fill-rule="nonzero" cx="7" cy="7" r="7"></circle>
            <circle id="椭圆形备份-2" stroke="#9DC3FF" fill-opacity="0.7" fill="#9ABFF6" cx="13" cy="13" r="10"></circle>
            <path d="M18.52,19 L7.48,19 C7.216,19 7,18.784 7,18.52 C7,18.256 7.216,18.04 7.48,18.04 L18.52,18.04 C18.784,18.04 19,18.256 19,18.52 C19,18.784 18.784,19 18.52,19 Z M13,8.752 C13.264,8.752 13.48,8.554 13.48,8.314 L13.48,7.438 C13.48,7.198 13.264,7 13,7 C12.736,7 12.52,7.198 12.52,7.438 L12.52,8.314 C12.52,8.554 12.736,8.752 13,8.752 Z M15.868,9.472 C16.054,9.658 16.348,9.67 16.516,9.502 L17.134,8.884 C17.302,8.716 17.29,8.422 17.104,8.236 C16.918,8.05 16.624,8.038 16.456,8.206 L15.838,8.824 C15.664,8.992 15.682,9.286 15.868,9.472 Z M10.132,9.472 C10.318,9.286 10.33,8.992 10.162,8.824 L9.544,8.206 C9.376,8.038 9.082,8.05 8.896,8.236 C8.71,8.422 8.698,8.716 8.866,8.884 L9.484,9.502 C9.658,9.676 9.946,9.658 10.132,9.472 Z M16.798,11.77 C16.588,11.278 16.294,10.834 15.916,10.456 C15.538,10.078 15.094,9.778 14.602,9.574 C14.092,9.358 13.552,9.25 12.994,9.25 C12.436,9.25 11.896,9.358 11.386,9.574 C10.894,9.784 10.45,10.078 10.072,10.456 C9.694,10.834 9.394,11.278 9.19,11.77 C8.974,12.28 8.866,12.82 8.866,13.378 L8.866,17.152 C8.878,17.35 9.04,17.506 9.238,17.506 L16.738,17.506 C16.942,17.506 17.11,17.344 17.116,17.14 L17.116,13.378 C17.128,12.82 17.014,12.28 16.798,11.77 L16.798,11.77 Z M11.578,16.606 L10.678,16.606 L10.678,12.994 C10.678,12.772 10.882,12.592 11.128,12.592 C11.374,12.592 11.578,12.772 11.578,12.994 L11.578,16.606 L11.578,16.606 Z" id="形状" fill="#FFFFFF" fill-rule="nonzero"></path>
        </g>
    </g>
</svg>