<?xml version="1.0" encoding="UTF-8"?>
<svg width="24px" height="24px" viewBox="0 0 24 24" version="1.1" xmlns="http://www.w3.org/2000/svg" xmlns:xlink="http://www.w3.org/1999/xlink">
    <title>Guardagainsttheft</title>
    <g id="后续新增页面" stroke="none" stroke-width="1" fill="none" fill-rule="evenodd">
        <g id="Guardagainsttheft">
            <circle id="椭圆形" fill="#166AEA" fill-rule="nonzero" cx="7" cy="7" r="7"></circle>
            <circle id="椭圆形备份-2" stroke="#9DC3FF" fill-opacity="0.7" fill="#9ABFF6" cx="13" cy="13" r="10"></circle>
            <g id="编组" transform="translate(8.000000, 8.000000)" fill="#FFFFFF" fill-rule="nonzero">
                <path d="M9.625,0.927826087 C9.625,0.927826087 9.625,6.53352173 9.625,6.53352173 C9.625,6.86973913 9.54463125,7.20404348 9.384375,7.53643479 C9.2236375,7.86978261 9.01381251,8.19165218 8.7539375,8.50443479 C8.4940625,8.81673913 8.19713125,9.11278261 7.863625,9.3916087 C7.5296375,9.67091304 7.19131875,9.9196087 6.8481875,10.1376956 C6.504575,10.3562609 6.17106875,10.538 5.8471875,10.6824348 C5.52330625,10.8268696 5.23936875,10.9258696 4.995375,10.979913 C4.995375,10.979913 4.879875,11 4.879875,11 C4.879875,11 4.774,10.979913 4.774,10.979913 C4.52375,10.9258696 4.23355625,10.8268696 3.9029375,10.6824348 C3.57231875,10.538 3.2291875,10.3562609 2.8730625,10.1376956 C2.5169375,9.9196087 2.16755,9.67091304 1.8239375,9.3916087 C1.48080625,9.11278261 1.17425,8.81673913 0.904749995,8.50443479 C0.635249993,8.19165218 0.417243753,7.86978261 0.250731249,7.53643479 C0.0832562515,7.20404348 0,6.86973913 0,6.53352173 C0,6.53352173 0,0.927826087 0,0.927826087 C0,0.927826087 0.394625,0.867086956 0.394625,0.867086956 C0.394625,0.867086956 4.822125,0 4.822125,0 C4.822125,0 9.33625,0.867086956 9.33625,0.867086956 C9.33625,0.867086956 9.625,0.927826087 9.625,0.927826087 C9.625,0.927826087 9.625,0.927826087 9.625,0.927826087 Z M4.82356875,0.811608692 C4.82356875,0.811608692 4.77015,0.800608692 4.77015,0.800608692 C4.77015,0.800608692 0.9702,1.47734782 0.9702,1.47734782 C0.9702,1.47734782 0.9702,5.01408696 0.9702,5.01408696 C0.9702,5.01408696 4.82356875,5.01408696 4.82356875,5.01408696 C4.82356875,5.01408696 4.82356875,0.811608692 4.82356875,0.811608692 C4.82356875,0.811608692 4.82356875,0.811608692 4.82356875,0.811608692 Z M8.6548,5.01408696 C8.6548,5.01408696 4.82356875,5.01408696 4.82356875,5.01408696 C4.82356875,5.01408696 4.82356875,10.0482609 4.82356875,10.0482609 C5.06996875,9.98895652 5.338025,9.89856522 5.6277375,9.7766087 C5.91696875,9.65465218 6.20283125,9.51069565 6.48484375,9.34426087 C6.7673375,9.17782609 7.0387625,8.99321739 7.30008125,8.78995652 C7.5614,8.58669565 7.79191875,8.36813044 7.9935625,8.13521739 C8.194725,7.90278261 8.35498125,7.66078261 8.4748125,7.40921739 C8.59512501,7.15813044 8.6548,6.90273913 8.6548,6.644 C8.6548,6.644 8.6548,5.01408696 8.6548,5.01408696 C8.6548,5.01408696 8.6548,5.01408696 8.6548,5.01408696 Z" id="形状"></path>
            </g>
        </g>
    </g>
</svg>