<?xml version="1.0" encoding="UTF-8"?>
<svg width="24px" height="24px" viewBox="0 0 24 24" version="1.1" xmlns="http://www.w3.org/2000/svg" xmlns:xlink="http://www.w3.org/1999/xlink">
    <title>Historicalpatrol</title>
    <g id="后续新增页面" stroke="none" stroke-width="1" fill="none" fill-rule="evenodd">
        <g id="Historicalpatrol">
            <circle id="椭圆形" fill="#166AEA" fill-rule="nonzero" cx="7" cy="7" r="7"></circle>
            <circle id="椭圆形备份-2" stroke="#9DC3FF" fill-opacity="0.7" fill="#9ABFF6" cx="13" cy="13" r="10"></circle>
            <g id="编组" transform="translate(8.000000, 7.000000)" fill="#FFFFFF" fill-rule="nonzero">
                <path d="M10.3794661,11.0951343 L9.12224328,9.80569975 C9.89638836,8.61120294 9.6545254,7.01511051 8.5626046,6.11255442 C7.4706838,5.20999833 5.88350485,5.29424767 4.89008388,6.30749619 C3.89666292,7.32074472 3.8197939,8.93375583 4.71221923,10.0397891 C5.60464455,11.1458224 7.17638692,11.3854925 8.34902176,10.5943539 L9.60919576,11.8807897 C9.76683627,12.0397368 10.0211421,12.0397368 10.1787826,11.8807897 L10.3824173,11.6738805 C10.5391942,11.5126807 10.5391942,11.2533354 10.3824173,11.0921356 L10.3794661,11.0951343 Z M8.31360703,8.99605482 C8.12204931,9.40167474 7.77882415,9.71262955 7.36036065,9.85967608 C7.19503633,9.92914791 7.01671398,9.96088174 6.83799343,9.95263533 C6.09728854,9.96170085 5.44046794,9.47059914 5.22866845,8.74935055 C5.01686895,8.02810195 5.30144626,7.25158999 5.92593249,6.84676087 C6.55041873,6.44193175 7.36339261,6.50694574 7.91786026,7.00605646 C8.47232791,7.50516718 8.63384572,8.31735361 8.31360703,8.99605482 L8.31360703,8.99605482 Z M3.29652078,8.79814162 L1.95371241,8.79814162 C1.73665263,8.77958442 1.56977508,8.59515727 1.56977508,8.3738277 C1.56977508,8.15249812 1.73665263,7.96807098 1.95371241,7.94951379 L3.26700852,7.94951379 C3.29904768,7.55867997 3.3937521,7.17579654 3.54737511,6.81601087 L1.95371241,6.81601087 C1.72336815,6.80626545 1.54402816,6.60930286 1.5523455,6.37520419 C1.56126228,6.15332461 1.73541553,5.97506973 1.95371241,5.96438434 L4.06974232,5.96438434 C4.47982512,5.45089497 5.01941613,5.06016333 5.6309415,4.83388014 L1.95371241,4.83388014 C1.72226409,4.83388014 1.53463815,4.64323704 1.53463815,4.40806687 C1.53463815,4.17289669 1.72226409,3.98225361 1.95371241,3.98225361 L8.35197298,3.98225361 C8.5834213,3.98225361 8.77104724,4.17289669 8.77104724,4.40806687 C8.77104724,4.64323704 8.5834213,4.83388014 8.35197298,4.83388014 L8.0391429,4.83388014 C9.17291652,5.25224503 10.0242966,6.22094419 10.3056854,7.41274917 L10.3056854,1.28943453 C10.3056854,0.580797943 9.74291599,0.00494397603 9.04551138,0 L1.26017401,0 C0.562769406,0.00494397603 0,0.580797943 0,1.28943453 L0,10.4953973 C0,11.2035406 0.563245441,11.7785318 1.26017401,11.7818331 L5.84047864,11.7818331 C4.48405008,11.3798483 3.48520165,10.2077146 3.2876671,8.78614689 L3.29652078,8.79814162 Z M1.95371241,1.98812811 L8.35197298,1.98812811 C8.56903279,2.00668527 8.73591039,2.19111243 8.73591039,2.41244203 C8.73591039,2.63377165 8.56903279,2.81819881 8.35197298,2.83675596 L1.95371241,2.83675596 C1.7366526,2.81819881 1.569775,2.63377165 1.569775,2.41244203 C1.569775,2.19111243 1.7366526,2.00668527 1.95371241,1.98812811 L1.95371241,1.98812811 Z" id="形状"></path>
            </g>
        </g>
    </g>
</svg>