<?xml version="1.0" encoding="UTF-8"?>
<svg width="44px" height="44px" viewBox="0 0 44 44" version="1.1" xmlns="http://www.w3.org/2000/svg" xmlns:xlink="http://www.w3.org/1999/xlink">
    <title>编组 5备份 2</title>
    <g id="页面调整" stroke="none" stroke-width="1" fill="none" fill-rule="evenodd">
        <g id="工单效率-负荷分析" transform="translate(-803.000000, -283.000000)">
            <g id="编组-21" transform="translate(803.000000, 282.000000)">
                <g id="编组-5备份-2" transform="translate(0.000000, 1.000000)">
                    <rect id="矩形" fill="#4CC09E" x="0" y="0" width="44" height="44" rx="8"></rect>
                    <g id="编组-25备份-4" transform="translate(6.000000, 6.000000)">
                        <rect id="矩形" x="0" y="0" width="32" height="32"></rect>
                        <g id="编组-11" transform="translate(6.000000, 5.000000)">
                            <path d="M3.17075096,1.86329114 C3.60735109,1.94092827 3.76611477,2.21265824 3.78596023,2.60084389 C3.82565115,3.28016879 3.78596023,3.95949366 3.80580569,4.63881856 C3.84549664,6.42447257 4.87746061,7.47257384 6.70324303,7.49198312 C8.84655279,7.53080168 10.9700171,7.49198312 13.1133269,7.5113924 C14.7605002,7.53080168 16.1695279,6.40506329 16.0504552,4.63881856 C16.0107643,3.99831223 16.0306097,3.33839663 16.0703006,2.67848101 C16.1099915,2.09620253 16.2886007,1.94092827 16.8839645,1.88270042 C18.3525286,1.72742616 20.0195474,2.67848101 19.9997019,4.61940928 C19.9867705,8.0341629 19.9822652,11.4489165 19.9861863,14.86904 C18.9398407,13.6839768 17.4136963,12.9375 15.7142857,12.9375 C15.5272181,12.9375 15.3422499,12.9465452 15.1597897,12.9642246 C15.1893688,12.7629266 15.1918405,12.4869257 15.1971004,12.1113924 C15.1971004,11.6649789 15.0581821,11.5485232 14.6017365,11.5485232 C11.8630629,11.5873418 9.12438926,11.5679325 6.38571563,11.5679325 C4.83776969,11.5679325 4.87746061,11.5679325 4.85761515,13.043038 C4.85761515,13.4506329 4.97668791,13.5476793 5.37359712,13.5476793 C6.5345566,13.5185654 7.69551606,13.5222046 8.85647553,13.5258439 L10.017435,13.52827 L13.1901401,13.5274533 C11.9088594,14.1632858 10.898645,15.2680985 10.3808433,16.6191617 C9.6816274,16.6192538 8.98129228,16.618013 8.28095717,16.6167722 L6.22695195,16.614346 L5.9229056,16.6148906 C4.70421782,16.6219711 4.73712483,16.721097 4.7186969,18.1088608 C4.7186969,18.535865 4.87746061,18.5940928 5.25452436,18.5940928 C6.40059974,18.5649789 7.54667511,18.5686181 8.69275049,18.5722574 L9.83882586,18.5746835 L10.0010819,18.574474 C10.0003617,18.6120621 10,18.6497386 10,18.6875 C10,20.3831228 10.7293912,21.9073224 11.8896797,22.9597392 C9.04535019,22.9747142 6.11703683,22.9940021 3.44407395,22.9988543 L2.23801429,23 L2.33724159,22.9805907 C1.84110508,22.9805907 1.52357768,22.9029536 1.16635939,22.6506329 C0.406939727,22.161519 -0.0240154768,21.5202363 0.00257450005,20.6478825 L0.0153226359,20.457384 L0.0153226359,4.3864979 C-0.18313197,2.75611814 1.58311407,1.61097047 3.17075096,1.86329114 Z M9.95789863,1.58641988e-12 C11.1287808,1.58641988e-12 11.9225993,0.621097054 12.299663,1.6886076 C12.3988903,1.94092827 12.5179631,2.0185654 12.7957996,2.0185654 C13.4308543,1.99915611 14.0460636,2.03797468 14.6811184,1.99915611 C15.1772549,1.97974683 15.4154004,2.11561181 15.3757095,2.65907173 C15.3360186,3.41603376 15.3757095,4.17299579 15.355864,4.9299578 C15.3360186,6.09451475 14.7605002,6.67679324 13.589618,6.69620253 C12.3790449,6.73502109 11.1287808,6.71561181 9.87851678,6.71561181 L6.28648833,6.71561181 C4.93699699,6.69620253 4.38132407,6.17215188 4.38132407,4.85232067 C4.38132407,4.15358649 4.40116953,3.4548523 4.36147861,2.75611814 C4.34163315,2.30970465 4.5202423,2.13502109 4.93699699,2.07679324 C5.61174267,1.96033755 6.26664287,2.0185654 6.94138855,2.0185654 C7.27876138,2.0185654 7.45737055,1.94092827 7.59628877,1.61097047 C8.03288891,0.621097054 8.80686189,1.58641988e-12 9.95789863,1.58641988e-12 Z" id="形状结合" fill="#FFFFFF" fill-rule="nonzero"></path>
                            <path d="M15.7142857,14.375 C18.0812204,14.375 20,16.305772 20,18.6875 C20,21.069228 18.0812204,23 15.7142857,23 C13.3473511,23 11.4285714,21.069228 11.4285714,18.6875 C11.4285714,16.305772 13.3473511,14.375 15.7142857,14.375 Z M14.8314286,17.9408988 L13.7814286,17.9408988 L13.7114286,18.4188675 L13.9064286,18.4188675 L13.6664286,20.139555 L13.4114286,20.6175238 L14.2664286,20.6175238 L14.3464286,20.4716175 L14.8364286,20.6175238 L17.4964286,20.6175238 L17.5614286,20.139555 L15.2364286,20.139555 L14.5514286,19.9332738 L14.8314286,17.9408988 Z M15.9814286,17.1660863 L15.3114286,17.1660863 L14.8614286,18.489305 L14.9914286,19.9936488 L15.6564286,19.9936488 L15.5514286,18.489305 L15.9814286,17.1660863 Z M16.8764286,17.1660863 L16.2014286,17.1660863 L15.7514286,18.489305 L15.8814286,19.9936488 L16.5514286,19.9936488 L16.4414286,18.489305 L16.8764286,17.1660863 Z M17.7814286,17.1660863 L17.1114286,17.1660863 L16.6614286,18.489305 L16.7914286,19.9936488 L17.4564286,19.9936488 L17.3514286,18.489305 L17.7814286,17.1660863 Z M14.6514286,17.1761488 L13.8914286,17.1761488 L14.0964286,17.7497113 L14.8564286,17.7497113 L14.6514286,17.1761488 Z" id="形状结合" fill="#FFFFFF"></path>
                            <g id="编组" transform="translate(13.046514, 16.890589)"></g>
                        </g>
                    </g>
                </g>
            </g>
        </g>
    </g>
</svg>