<?xml version="1.0" encoding="UTF-8"?>
<svg width="28px" height="28px" viewBox="0 0 28 28" version="1.1" xmlns="http://www.w3.org/2000/svg" xmlns:xlink="http://www.w3.org/1999/xlink">
    <title>巡逻</title>
    <g id="页面调整" stroke="none" stroke-width="1" fill="none" fill-rule="evenodd">
        <g id="工单效率-负荷分析备份" transform="translate(-1390.000000, -204.000000)" fill="#3C52BF" fill-rule="nonzero">
            <g id="巡逻" transform="translate(1390.000000, 204.000000)">
                <circle id="椭圆形" fill-opacity="0.15" cx="14" cy="14" r="14"></circle>
                <g id="编组" transform="translate(8.166667, 7.000000)">
                    <path d="M6.6213,14 C6.7956,13.44 6.9111,12.657 6.9111,11.76 C6.9111,11.313 6.2727,11.257 6.2727,11.257 C6.2727,11.257 5.63325,11.257 5.63325,11.761 C5.63325,12.657 5.74875,13.441 5.92305,14 C4.64625,14 0.11655,13.832 1.49213975e-15,12.657 C1.49213975e-15,12.377 0.6384,10.528 4.1811,9.912 C4.5297,9.744 4.8195,9.632 4.8195,9.465 L4.8195,8.68 C4.8195,8.68 3.1353,7.336 3.1353,5.04 C3.1353,4.648 3.19305,4.256 3.3096,3.92 L9.4059,3.92 C9.4647,4.256 9.5214,4.592 9.5214,5.04 C9.5214,7.28 7.77945,8.68 7.77945,8.68 L7.77945,9.465 C7.77945,9.633 8.12805,9.745 8.4189,9.912 C11.9616,10.528 12.6,12.32 12.6,12.657 C12.4278,13.832 7.8981,14 6.6213,14 Z M6.2727,9.968 C6.10302509,9.96976515 5.9410194,10.0355816 5.82225,10.151 C5.6404498,10.3266754 5.58597801,10.5885904 5.68373817,10.817002 C5.78149833,11.0454135 6.01270319,11.1964263 6.27165,11.201 C6.44119749,11.1996085 6.60322375,11.1341433 6.7221,11.019 C6.84197106,10.9032505 6.90976672,10.7475716 6.9111,10.585 C6.90965632,10.4224498 6.84187717,10.2668088 6.7221,10.151 C6.6033306,10.0355816 6.44132491,9.96976515 6.27165,9.968 L6.2727,9.968 L6.2727,9.968 Z M10.39605,2.185 C10.20705,2.542 10.01385,2.896 9.8154,3.248 L9.6999,3.248 L9.6999,3.697 L2.9631,3.697 L2.9631,3.192 C2.9631,3.192 2.6145,2.577 2.38245,2.128 C2.26695,1.905 2.20815,1.681 2.14935,1.512 C2.15225585,1.33705222 2.26718895,1.18158715 2.43915,1.12 C3.0198,0.897 4.29765,0.336 4.8195,0.112 C4.9644,0.043 5.12295,0.005 5.28465,1.42108547e-15 L7.43295,1.42108547e-15 C7.6083,1.42108547e-15 7.84035,0.056 7.95585,0.112 C8.47875,0.336 9.75555,0.84 10.3362,1.12 C10.5105,1.231 10.62705,1.344 10.5693,1.512 C10.5693,1.681 10.51155,1.905 10.39605,2.185 L10.39605,2.185 Z M7.14315,0.785 C7.14315,0.785 6.9699,0.841 6.7956,0.841 C6.6213,0.841 6.3882,0.671 6.3882,0.671 C6.3882,0.671 6.21495,0.841 5.9829,0.841 C5.8086,0.841 5.6343,0.785 5.6343,0.785 L5.3445,1.177 C5.3445,1.177 5.5188,1.288 5.5188,1.401 C5.5188,1.681 5.4033,1.625 5.4033,2.018 C5.40225,2.52 6.3882,2.745 6.3882,2.745 C6.3882,2.745 7.3752,2.52 7.3752,2.016 C7.3752,1.624 7.2597,1.736 7.2597,1.401 C7.2597,1.288 7.43505,1.176 7.43505,1.176 L7.14315,0.785 L7.14315,0.785 Z M6.7368,2.185 L6.3882,2.016 L6.0396,2.185 L6.0984,1.792 L5.86635,1.513 L6.21495,1.457 L6.3882,1.12 L6.5625,1.457 L6.9111,1.513 L6.6801,1.793 L6.7368,2.185 Z" id="形状"></path>
                </g>
            </g>
        </g>
    </g>
</svg>