<?xml version="1.0" encoding="UTF-8"?>
<svg width="24px" height="24px" viewBox="0 0 24 24" version="1.1" xmlns="http://www.w3.org/2000/svg" xmlns:xlink="http://www.w3.org/1999/xlink">
    <title>installer</title>
    <g id="后续新增页面" stroke="none" stroke-width="1" fill="none" fill-rule="evenodd">
        <g id="installer">
            <circle id="椭圆形" fill="#166AEA" fill-rule="nonzero" cx="7" cy="7" r="7"></circle>
            <circle id="椭圆形备份-2" stroke="#9DC3FF" fill-opacity="0.7" fill="#9ABFF6" cx="13" cy="13" r="10"></circle>
            <path d="M9.97456016,15.4034454 C10.0107078,15.3682067 10.3234627,17.0734556 10.52798,18.1146972 L10.5988486,18.4693413 C10.6524252,18.731113 10.6907336,18.8986886 10.7020298,18.8986886 L10.7020298,18.8986886 L10.7539918,18.8986886 L9.97456016,19 C9.97456028,19 8,18.3414759 8,17.6322962 L8,17.6322962 L8,17.2777062 C8,16.6191822 8.93531799,15.9100024 9.97456016,15.4034454 Z M15.4305819,11.0977112 C15.4305819,12.5160707 14.9629228,13.1745947 14.2874155,13.8331188 C14.1834912,14.137053 14.1834912,14.3903315 14.2354533,14.5422986 C14.1315291,14.5929543 14.079567,14.5929543 13.9756428,14.5929543 L13.9756428,14.5929543 L13.8717186,14.5929543 L13.4560216,14.5422986 C13.3520974,14.5422986 13.3001353,14.5929543 13.2481732,14.64361 L13.2481732,14.64361 L12.9364005,15.150167 C12.8844385,15.2008227 12.8844385,15.3021341 12.9364005,15.3527897 L12.9364005,15.3527897 L13.1442489,15.7073796 C13.2481732,15.8086911 13.3520974,16.0113138 13.3520974,16.1126253 C13.4560216,16.3659038 13.3520974,16.669838 13.1962111,16.8724607 L13.1962111,16.8724607 L12.9364005,17.1763949 C12.8844385,17.2270505 12.8844385,17.328362 12.9364005,17.3790177 L12.9364005,17.3790177 L13.2481732,17.8855746 C13.3001353,17.9362304 13.3520974,17.9868861 13.4560216,17.9868861 L13.4560216,17.9868861 L13.8717186,17.9362304 L13.9756428,17.9362304 C14.3393775,17.9362304 14.7031123,18.1388531 14.8589986,18.493443 L14.8589986,18.493443 L14.9109608,18.5947544 L14.9109608,18.8986886 C14.547226,18.848033 13.5599458,18.7467215 12.9364005,18.7467215 C12.260893,18.7467215 11.3255751,18.848033 10.9618404,18.8986886 C10.9618404,18.7885676 10.8636133,18.0847502 10.7568447,17.324311 L10.6924761,16.8655496 C10.5752186,16.0277841 10.4693299,15.2514784 10.4941813,15.2514784 C10.805954,15.0995112 10.9618404,14.9981999 11.273613,14.8968885 C11.3775372,14.8462328 11.8971583,14.5422986 11.5853857,13.8331188 C10.9098782,13.1745947 10.4422192,12.5160707 10.4422192,11.0977112 L10.4422192,11.0977112 L15.4305819,11.0977112 Z M15.2227334,14.0357416 C15.2227334,14.0357416 15.6384303,13.9850859 15.7943167,14.0357416 C15.7943167,14.0357416 15.8462787,14.0357416 15.8982409,14.137053 C15.950203,14.1877088 16.0021651,14.4409872 16.0021651,14.4409872 C16.1060893,14.6942657 16.417862,14.8968885 16.7296346,14.8968885 L16.7296346,14.8968885 L16.8335589,14.8968885 L17.1453315,14.8462328 C17.1972937,14.8462328 17.2492557,14.8968885 17.3012179,14.9475442 L17.3012179,14.9475442 L17.5610284,15.3527897 C17.6129905,15.4541012 17.6129905,15.5047569 17.5610284,15.5554126 L17.5610284,15.5554126 L17.3531799,15.8086911 C17.2492557,15.9100024 17.1972937,16.1126253 17.1972937,16.2645923 C17.1972937,16.4165594 17.2492557,16.5685265 17.3531799,16.7711493 L17.3531799,16.7711493 L17.5610284,17.0244278 C17.6129905,17.0750835 17.6129905,17.1763949 17.5610284,17.2270505 L17.5610284,17.2270505 L17.3012179,17.6322962 C17.3012179,17.7336076 17.1972937,17.7336076 17.1453315,17.7336076 L17.1453315,17.7336076 L16.8335589,17.6829519 L16.7296346,17.6829519 C16.417862,17.6829519 16.1060893,17.8349189 16.0021651,18.1388531 L16.0021651,18.1388531 L15.8462787,18.4427873 C15.8462787,18.493443 15.7423545,18.5440988 15.6903924,18.5440988 L15.6903924,18.5440988 L15.2227334,18.5440988 C15.1707714,18.5440988 15.1188092,18.493443 15.066847,18.4427873 L15.066847,18.4427873 L14.9109608,18.1388531 C14.8070365,17.8855746 14.4952639,17.6829519 14.1834912,17.6829519 L14.1834912,17.6829519 L14.079567,17.6829519 L13.7677944,17.7336076 C13.7158322,17.7336076 13.66387,17.6829519 13.611908,17.6322962 L13.611908,17.6322962 L13.3520974,17.2270505 C13.3001353,17.1257392 13.3001353,17.0750835 13.3520974,17.0244278 L13.3520974,17.0244278 L13.5599458,16.7711493 C13.7158322,16.6191822 13.7677944,16.3659038 13.7158322,16.1126253 L13.7158322,16.1126253 L13.5599458,15.8086911 L13.3520974,15.5554126 C13.3001353,15.5047569 13.3001353,15.4034454 13.3520974,15.3527897 L13.3520974,15.3527897 L13.611908,14.9475442 C13.611908,14.8462328 13.7158322,14.8462328 13.7677944,14.8462328 L13.7677944,14.8462328 L14.079567,14.8968885 L14.1834912,14.8968885 C14.4952639,14.8968885 14.8070365,14.7449214 14.9109608,14.4409872 L14.9109608,14.4409872 L15.066847,14.137053 C15.1188092,14.0863973 15.1707714,14.0357416 15.2227334,14.0357416 Z M15.482544,15.4541012 C15.066847,15.4541012 14.7550744,15.8086911 14.7550744,16.2139366 C14.7550744,16.6191822 15.066847,16.973772 15.482544,16.973772 C15.8982409,16.973772 16.2100135,16.669838 16.2100135,16.2139366 C16.2100135,15.8086911 15.8982409,15.4541012 15.482544,15.4541012 Z M12.4167794,7.09591104 C12.7285521,6.99459964 13.0922869,6.94394394 13.4040596,7.09591104 C13.4040595,7.09591104 15.7423545,7.9064022 15.7423545,9.57804028 C15.7423545,9.83131876 16.0541272,9.73000732 16.3139378,10.6418099 L16.3139378,10.6418099 L9.402977,10.6418099 C9.6108254,9.78066304 10.0784845,9.83131876 10.0784845,9.57804028 C10.0784845,7.80509081 12.4167794,7.09591104 12.4167794,7.09591104 Z" id="形状结合" fill="#FFFFFF" fill-rule="nonzero"></path>
        </g>
    </g>
</svg>