<?xml version="1.0" encoding="UTF-8"?>
<svg width="24px" height="24px" viewBox="0 0 24 24" version="1.1" xmlns="http://www.w3.org/2000/svg" xmlns:xlink="http://www.w3.org/1999/xlink">
    <title>Instrumentpanel</title>
    <g id="后续新增页面" stroke="none" stroke-width="1" fill="none" fill-rule="evenodd">
        <g id="Instrumentpanel">
            <circle id="椭圆形" fill="#166AEA" fill-rule="nonzero" cx="7" cy="7" r="7"></circle>
            <circle id="椭圆形备份-2" stroke="#9DC3FF" fill-opacity="0.7" fill="#9ABFF6" cx="13" cy="13" r="10"></circle>
            <path d="M18.3759898,17 C19.6260882,14.669926 18.9531733,11.8505358 16.7581765,10.2216582 C14.5631796,8.5927806 11.4368204,8.5927806 9.24182354,10.2216582 C7.04682673,11.8505358 6.37391185,14.669926 7.62401022,17 L18.3766564,17 L18.3759898,17 Z M17.0667401,12.9271985 C17.4187176,12.8225467 17.4507156,12.8841066 17.1367356,13.0663238 L13.2223191,15.3366521 C12.869675,15.5410309 12.4437022,15.4277607 12.2670468,15.0787162 C12.0923913,14.7321341 12.2757129,14.3541565 12.6670213,14.2378083 L17.0667401,12.9271985 L17.0667401,12.9271985 Z M8.00398594,14.8454043 C7.81979941,14.8444209 7.67023833,14.7076751 7.66734078,14.5376049 C7.66734078,14.3676996 7.80999833,14.2298055 8.00398594,14.2298055 L8.66394376,14.2298055 C8.84993187,14.2298055 9.00058892,14.3726244 9.00058892,14.5376049 C9.00058892,14.7075102 8.85793137,14.8454043 8.66394376,14.8454043 L8.00398594,14.8454043 L8.00398594,14.8454043 Z M8.50662049,12.4968949 C8.34792623,12.4109395 8.29257602,12.2237054 8.38196179,12.0752098 C8.42585402,12.0035127 8.49930517,11.9512763 8.58558083,11.9304016 C8.67185648,11.9095268 8.76360833,11.9217918 8.83993252,11.964402 L9.41189597,12.2691234 C9.57255237,12.3546916 9.62521567,12.5479897 9.53655466,12.6908086 C9.49266243,12.7625056 9.41921128,12.8147421 9.33293562,12.8356168 C9.24665997,12.8564915 9.15490812,12.8442266 9.07858394,12.8016163 L8.50662049,12.4968949 L8.50662049,12.4968949 Z M10.2131781,10.6956529 C10.1222159,10.5478306 10.17581,10.3599803 10.333837,10.2727366 C10.4106207,10.2308733 10.5024823,10.2194879 10.588502,10.2411732 C10.6745217,10.2628585 10.7473764,10.3157684 10.7904745,10.3878535 L11.1211201,10.9160373 C11.2120823,11.0638596 11.1584882,11.25171 11.0004611,11.3389537 C10.9236775,11.3808169 10.8318158,11.3922023 10.7457961,11.370517 C10.6597765,11.3488317 10.5869218,11.2959218 10.5438236,11.2238367 L10.2131781,10.6956529 L10.2131781,10.6956529 Z M12.6670213,9.92369206 C12.6670213,9.75194 12.8216781,9.61281468 13.0003333,9.61281468 C13.1843216,9.61281468 13.3336453,9.74455282 13.3336453,9.92369206 L13.3336453,10.5331349 C13.3325804,10.7032232 13.1845001,10.8413365 13.0003333,10.8440122 C12.9110735,10.8448618 12.825249,10.8122804 12.7624442,10.7537029 C12.6996395,10.6951255 12.6652132,10.6155499 12.6670213,10.5331349 L12.6670213,9.92369206 Z M15.2101921,10.3878535 C15.3032721,10.2413062 15.5060255,10.1901926 15.6668296,10.2727366 C15.8268193,10.3576892 15.884149,10.540522 15.7868219,10.6956529 L15.456843,11.2238367 C15.363763,11.370384 15.1610096,11.4214976 15.0002055,11.3389537 C14.9225657,11.298421 14.8659995,11.2305921 14.8433945,11.1509202 C14.8207896,11.0712483 14.8340711,10.9865194 14.8802132,10.9160373 L15.2101921,10.3878535 L15.2101921,10.3878535 Z M17.1607341,11.9637864 C17.320809,11.8797867 17.5242298,11.9292786 17.6187048,12.0752098 C17.710699,12.2229535 17.6620354,12.4076331 17.4940461,12.4968949 L16.9220827,12.8022319 C16.7620078,12.8862317 16.558587,12.8367398 16.464112,12.6908086 C16.4187787,12.6199022 16.4064496,12.5350719 16.4299324,12.4556364 C16.4534151,12.3762009 16.5107106,12.3089227 16.5887707,12.2691234 L17.1607341,11.9637864 L17.1607341,11.9637864 Z M17.9966807,14.2298055 C18.1826688,14.2298055 18.3333258,14.3726244 18.3333258,14.5376049 C18.3333258,14.7075102 18.1906683,14.8454043 17.9966807,14.8454043 L17.3367229,14.8454043 C17.1525363,14.8444209 17.0029753,14.7076751 17.0000777,14.5376049 C17.0000777,14.3676996 17.1427353,14.2298055 17.3367229,14.2298055 L17.9966807,14.2298055 L17.9966807,14.2298055 Z" id="形状" fill="#FFFFFF" fill-rule="nonzero"></path>
        </g>
    </g>
</svg>