<?xml version="1.0" encoding="UTF-8"?>
<svg width="24px" height="24px" viewBox="0 0 24 24" version="1.1" xmlns="http://www.w3.org/2000/svg" xmlns:xlink="http://www.w3.org/1999/xlink">
    <title>intro</title>
    <g id="后续新增页面" stroke="none" stroke-width="1" fill="none" fill-rule="evenodd">
        <g id="intro">
            <circle id="椭圆形" fill="#166AEA" fill-rule="nonzero" cx="7" cy="7" r="7"></circle>
            <circle id="椭圆形备份-2" stroke="#9DC3FF" fill-opacity="0.7" fill="#9ABFF6" cx="13" cy="13" r="10"></circle>
            <g id="编组" transform="translate(9.000000, 8.000000)" fill="#FFFFFF" fill-rule="nonzero">
                <g id="形状结合">
                    <path d="M5.97726,0 L5.97726,1.52843645 C5.97726,2.26023622 6.61494375,2.8556018 7.39908,2.8556018 L7.39908,2.8556018 L9,2.8556018 L9,9.19265466 C9,9.63860518 8.61260625,10 8.134875,10 L8.134875,10 L0.865350001,10 C0.387405001,10 0,9.63860518 0,9.19265466 L0,9.19265466 L0,0.807896514 C0,0.361923506 0.387382499,0 0.865350001,0 L0.865350001,0 L5.97726,0 Z M7.57240875,7.66025872 L1.427265,7.66025872 L1.427265,8.20147356 L7.57240875,8.20147356 L7.57240875,7.66025872 Z M7.57240875,5.92829021 L1.427265,5.92829021 L1.427265,6.46951631 L7.57240875,6.46951631 L7.57240875,5.92829021 Z M7.57240875,4.19631046 L1.427265,4.19631046 L1.427265,4.7375478 L7.57240875,4.7375478 L7.57240875,4.19631046 Z M6.53731875,2.77999845e-13 L9,2.33970754 L7.40143125,2.33970754 C6.92420625,2.33970754 6.53731875,1.97771654 6.53731875,1.53100112 L6.53731875,1.53100112 L6.53731875,2.77999845e-13 Z" id="形状"></path>
                </g>
            </g>
        </g>
    </g>
</svg>