<?xml version="1.0" encoding="UTF-8"?>
<svg width="24px" height="24px" viewBox="0 0 24 24" version="1.1" xmlns="http://www.w3.org/2000/svg" xmlns:xlink="http://www.w3.org/1999/xlink">
    <title>item</title>
    <g id="后续新增页面" stroke="none" stroke-width="1" fill="none" fill-rule="evenodd">
        <g id="item">
            <circle id="椭圆形" fill="#166AEA" fill-rule="nonzero" cx="7" cy="7" r="7"></circle>
            <circle id="椭圆形备份-2" stroke="#9DC3FF" fill-opacity="0.7" fill="#9ABFF6" cx="13" cy="13" r="10"></circle>
            <g id="编组" transform="translate(8.000000, 8.000000)" fill="#FFFFFF" fill-rule="nonzero">
                <g id="形状结合">
                    <path d="M3.68421053,0 C3.8601466,0 4.02446074,0.0927390525 4.12210526,0.247222233 L5.01842105,1.66666668 L9.47368421,1.66666668 C9.7643604,1.66666668 10,1.91539737 10,2.22222224 L10,9.44444444 C10,9.7512693 9.7643604,10 9.47368421,10 L0.526315781,10 C0.2356396,10 0,9.7512693 0,9.44444444 L0,0.555555566 C0,0.248730708 0.2356396,0 0.526315781,0 L3.68421053,0 Z M8,6.05555556 L4,6.05555556 L4,6.94444444 L8,6.94444444 L8,6.05555556 Z M2.92105264,6.05555556 L2.07894737,6.05555556 L2.07894737,6.94444444 L2.92105264,6.94444444 L2.92105264,6.05555556 Z M8,4.05555556 L4,4.05555556 L4,4.94444444 L8,4.94444444 L8,4.05555556 Z M2.92105264,4.05555556 L2.07894737,4.05555556 L2.07894737,4.94444444 L2.92105264,4.94444444 L2.92105264,4.05555556 Z" id="形状"></path>
                </g>
            </g>
        </g>
    </g>
</svg>