<?xml version="1.0" encoding="UTF-8"?>
<svg width="15px" height="16px" viewBox="0 0 15 16" version="1.1" xmlns="http://www.w3.org/2000/svg" xmlns:xlink="http://www.w3.org/1999/xlink">
    <title>编组 10</title>
    <g id="黑色版本" stroke="none" stroke-width="1" fill="none" fill-rule="evenodd">
        <g id="平台默认图片尺寸" transform="translate(-740.000000, -941.000000)">
            <g id="编组-10" transform="translate(740.000000, 942.000000)">
                <rect id="矩形" x="0" y="0" width="14" height="14"></rect>
                <g id="编组" transform="translate(1.000000, -0.000000)" fill="#FFFFFF" fill-rule="nonzero" stroke="#FFFFFF" stroke-width="0.2">
                    <path d="M4.19632353,1.56582204 C4.34129902,1.84631703 4.23933824,2.19776075 3.96691176,2.34790807 C3.70882353,2.48980554 3.46188725,2.65645256 3.22928922,2.84124926 C2.5872549,3.35109016 2.05514706,4.01602829 1.69031863,4.76181497 C1.30955882,5.543901 1.11678922,6.38868592 1.11678922,7.27142015 C1.11678922,8.76134355 1.67757353,10.1621685 2.6939951,11.2148497 C3.71041667,12.2675309 5.0629902,12.8483206 6.50159314,12.8483206 C7.94019608,12.8483206 9.29276961,12.2675309 10.3091912,11.2148497 C11.3256127,10.1621685 11.8863971,8.76134355 11.8863971,7.27142015 C11.8863971,6.38703595 11.6920343,5.54060106 11.3096814,4.75686506 C10.9448529,4.0094284 10.411152,3.34449028 9.76593137,2.83464938 C9.54129902,2.65645256 9.30232843,2.49640542 9.05379902,2.3578079 C8.78296569,2.20601061 8.6810049,1.85621685 8.82757353,1.57572186 C8.97414216,1.29522687 9.31188725,1.18962876 9.58272059,1.34142605 C9.88223039,1.50807307 10.1705882,1.70276959 10.4414216,1.91561579 C11.2188725,2.5310548 11.8640931,3.33294048 12.303799,4.2338244 C12.7658088,5.18090748 13,6.20058928 13,7.26812021 C13,8.17725398 12.8279412,9.05833824 12.4886029,9.88827342 C12.1604167,10.6901591 11.6920343,11.4095463 11.096201,12.0282852 C10.4987745,12.6470242 9.80416667,13.1321155 9.02990196,13.4703595 C8.22855392,13.8218032 7.37781863,14 6.5,14 C5.62218137,14 4.77144608,13.8218032 3.97009804,13.4703595 C3.19583333,13.1304655 2.50122549,12.6453742 1.90379902,12.0282852 C1.30637255,11.4095463 0.837990196,10.6901591 0.511397059,9.88827342 C0.172058824,9.05833824 -1.77635684e-15,8.17725398 -1.77635684e-15,7.26812021 C-1.77635684e-15,6.20223925 0.234191176,5.18420742 0.694607843,4.23877431 C1.13272059,3.33789039 1.7747549,2.53765468 2.55061275,1.92221567 C2.8310049,1.69946965 3.13051471,1.49982322 3.44117647,1.32822628 C3.7120098,1.17807896 4.05134804,1.28367708 4.19632353,1.56582204 Z M6.5,-5.57776048e-13 C6.80747549,-5.57776048e-13 7.05759804,0.259045374 7.05759804,0.577489688 L7.05759804,7.23842074 C7.05759804,7.55686506 6.80747549,7.81591043 6.5,7.81591043 C6.19252451,7.81591043 5.94240196,7.55686506 5.94240196,7.23842074 L5.94240196,0.577489688 C5.94240196,0.259045374 6.19252451,-5.57776048e-13 6.5,-5.57776048e-13 Z" id="形状结合"></path>
                </g>
            </g>
        </g>
    </g>
</svg>