<?xml version="1.0" encoding="UTF-8"?>
<svg width="24px" height="24px" viewBox="0 0 24 24" version="1.1" xmlns="http://www.w3.org/2000/svg" xmlns:xlink="http://www.w3.org/1999/xlink">
    <title>Maintenanceprovider</title>
    <g id="后续新增页面" stroke="none" stroke-width="1" fill="none" fill-rule="evenodd">
        <g id="Maintenanceprovider">
            <circle id="椭圆形" fill="#166AEA" fill-rule="nonzero" cx="7" cy="7" r="7"></circle>
            <circle id="椭圆形备份-2" stroke="#9DC3FF" fill-opacity="0.7" fill="#9ABFF6" cx="13" cy="13" r="10"></circle>
            <path d="M15.9292748,12.5354923 L15.9464969,12.6030979 L15.8202012,13.2220646 C15.7269147,13.5916416 16.5478364,13.9236602 16.6770024,13.5180267 L16.8147795,12.7773701 L16.8549644,12.7172762 C16.9425103,12.7743654 17.0257507,12.8329569 17.0975095,12.8960554 C17.2395921,13.1499519 17.3099158,13.4218766 17.3156565,13.710327 C17.2510735,14.3863828 16.6325119,14.4359602 16.4244112,14.6538004 L16.2435787,14.8686359 L15.3207594,17.0365213 C15.2619171,17.3399951 15.3308056,17.6029057 15.4571013,17.8477882 C15.5159435,18.0235627 15.4886752,18.2353935 15.3523333,18.4968017 C15.0365942,19.0000877 14.8040954,19.2119184 14.6534017,19.1398058 L14.6361796,19.0737026 L14.7667807,18.4081633 C14.8701135,18.068633 14.0377104,17.7681638 13.9056741,18.1587738 L13.767897,18.8994304 L13.727712,18.9595243 C13.485167,18.9384915 13.3344733,18.5989613 13.2684551,17.9634688 C13.2713255,17.3249717 14.0290994,17.2603708 14.2989128,16.8742679 L15.244695,14.7033778 L15.2863152,14.4539884 C15.2949261,13.8966179 14.8844654,13.7328623 15.2403894,13.1619707 L15.7096926,12.5865721 C15.7914976,12.5204689 15.8632566,12.5054455 15.9292748,12.5354923 Z M11.3207141,18.7245565 L11.0213881,18.7014788 C9.78160713,18.6084456 8.90140149,18.4284333 8.31565653,18.176802 C8.41181344,14.9602789 9.02750473,15.2637529 11.3410114,14.305256 C11.9409157,15.3328608 13.5153057,15.4936118 14.2156725,14.305256 L14.7911788,14.4930493 L13.9114147,16.5692917 C12.9584567,17.1041269 12.5235979,17.6464738 12.9799844,18.7732334 C12.3772097,18.7765719 11.8254636,18.7597308 11.3207141,18.7245565 Z M16.5449661,15.3178374 C16.7573724,15.4891048 16.9310289,15.7039403 17.0027877,16.0269448 L17.2525087,18.1467551 L15.8245068,18.5298532 C15.9278397,18.2804639 15.955108,18.0070369 15.9077472,17.7095723 C15.7556182,17.352014 15.7312203,17.1747371 15.7914978,17.0575541 L16.5449661,15.3178374 Z M12.7876706,6.15352616 C13.033086,6.15352616 13.2340108,6.26770446 13.2340108,6.40742266 C13.2340108,6.45249303 13.2124832,6.49606107 13.1751686,6.53361972 C14.3778476,6.66432383 15.4513605,7.54319629 15.2791392,9.33399285 L15.2504356,9.85680928 C16.1359404,10.0716448 15.8560807,11.5379345 15.1528436,11.9405633 C14.0448863,15.311828 11.015226,14.4104203 10.4268031,11.9405633 C9.71331468,11.5714155 9.5543712,10.1107671 10.2214801,9.87645891 L10.3277758,9.85079987 L10.7141565,10.1689012 L10.6813016,10.140557 C10.5056993,9.99188149 10.3278117,9.83896896 10.3263407,9.83126945 C10.2689335,9.52929785 10.2545818,9.27840603 10.2545818,9.27840603 C9.99194422,7.70394732 11.144392,6.73042707 12.4145243,6.54714084 C12.3671635,6.50807984 12.339895,6.45850241 12.339895,6.40742266 C12.339895,6.26770446 12.5408199,6.15352616 12.7876706,6.15352616 Z" id="形状结合" fill="#FFFFFF" fill-rule="nonzero"></path>
        </g>
    </g>
</svg>