<?xml version="1.0" encoding="UTF-8"?>
<svg width="24px" height="24px" viewBox="0 0 24 24" version="1.1" xmlns="http://www.w3.org/2000/svg" xmlns:xlink="http://www.w3.org/1999/xlink">
    <title>manage</title>
    <g id="后续新增页面" stroke="none" stroke-width="1" fill="none" fill-rule="evenodd">
        <g id="manage">
            <circle id="椭圆形" fill="#166AEA" fill-rule="nonzero" cx="7" cy="7" r="7"></circle>
            <circle id="椭圆形备份-2" stroke="#9DC3FF" fill-opacity="0.7" fill="#9ABFF6" cx="13" cy="13" r="10"></circle>
            <g id="编组" transform="translate(6.999993, 6.000000)" fill="#FFFFFF" fill-rule="nonzero">
                <g id="路径" transform="translate(0.000000, 0.000000)">
                    <path d="M11.4700323,8.57104587 L10.7126783,8.57104587 L10.7126783,6.87933921 C10.7126783,6.41187633 10.3139301,6.03147672 9.82553049,6.03147672 L6.41342334,6.03147672 L6.41342334,4.28619265 L7.62706302,4.28619265 C7.92144089,4.28619265 8.16229551,4.04509432 8.16229551,3.75041858 L8.16229551,0.535774081 C8.16229551,0.241098338 7.92144089,0 7.62706302,0 L4.41566807,0 C4.1212902,0 3.88043558,0.241098338 3.88043558,0.535774081 L3.88043558,3.75041858 C3.88043558,4.04509432 4.1212902,4.28619265 4.41566807,4.28619265 L5.58381299,4.28619265 L5.58381299,6.03147672 L2.19177705,6.03147672 C1.70203932,6.03147672 1.3046292,6.41187633 1.3046292,6.87933921 L1.3046292,8.57104587 L0.535232493,8.57104587 C0.240854622,8.57104587 8.56203997e-13,8.81214422 8.56203997e-13,9.10681996 L8.56203997e-13,11.4642259 C8.56203997e-13,11.7589017 0.240854622,12 0.535232493,12 L2.89025546,12 C3.18463334,12 3.42548796,11.7589017 3.42548796,11.4642259 L3.42548796,9.10681996 C3.42548796,8.81214422 3.18463334,8.57104587 2.89025546,8.57104587 L2.13290148,8.57104587 L2.13290148,6.88469696 C2.13825381,6.87666035 2.15832503,6.86192655 2.19043898,6.86192655 L5.5824749,6.86192655 L5.5824749,8.57104587 L4.82913516,8.57104587 C4.5347573,8.57104587 4.29390267,8.81214422 4.29390267,9.10681996 L4.29390267,11.4642259 C4.29390267,11.7589017 4.5347573,12 4.82913516,12 L7.18415813,12 C7.47853601,12 7.71939063,11.7589017 7.71939063,11.4642259 L7.71939063,9.10681996 C7.71939063,8.81214422 7.47853601,8.57104587 7.18415813,8.57104587 L6.41074718,8.57104587 L6.41074718,6.86192655 L9.82151624,6.86192655 C9.85363019,6.86192655 9.87370142,6.87666035 9.87905373,6.88469696 L9.87905373,8.57104587 L9.10965702,8.57104587 C8.81527916,8.57104587 8.57442453,8.81214422 8.57442453,9.10681996 L8.57442453,11.4642259 C8.57442453,11.7589017 8.81527916,12 9.10965702,12 L11.46468,12 C11.7590579,12 12.0000847,11.7589017 12.0000847,11.4642259 L12.0000847,9.10681996 C12.0052648,8.81214422 11.7644102,8.57104587 11.4700323,8.57104587 Z"></path>
                </g>
            </g>
        </g>
    </g>
</svg>