<svg width="119" height="267" viewBox="0 0 119 267" fill="none" xmlns="http://www.w3.org/2000/svg">
<mask id="mask0_384_333" style="mask-type:alpha" maskUnits="userSpaceOnUse" x="0" y="0" width="119" height="267">
<rect width="119" height="267" fill="#D9D9D9"/>
</mask>
<g mask="url(#mask0_384_333)">
<path d="M-148.203 133.38C-148.203 207.043 -88.4864 266.76 -14.8228 266.76C58.8408 266.76 118.557 207.043 118.557 133.38C118.557 59.7162 58.8408 -2.61028e-06 -14.8228 -5.83022e-06C-88.4864 -9.05016e-06 -148.203 59.7162 -148.203 133.38Z" fill="url(#paint0_linear_384_333)"/>
<path opacity="0.9" d="M-69.3157 218.789C-53.4417 229.049 -34.5285 235.007 -14.2244 235.007C41.8971 235.007 87.3987 189.505 87.3987 133.384C87.3987 77.2621 41.8971 31.752 -14.233 31.7519C-34.537 31.7519 -53.4503 37.7101 -69.3243 47.9694L-69.3243 218.789L-69.3157 218.789Z" fill="url(#paint1_linear_384_333)"/>
<g opacity="0.1">
<path d="M57.97 148C55.23 148 53 150.22 53 152.97C53 155.72 55.22 157.94 57.97 157.94C60.72 157.94 62.94 155.72 62.94 152.97C62.94 150.22 60.72 148 57.97 148Z" fill="#3FA9F5"/>
<g opacity="0.27">
<path d="M57.97 148C55.23 148 53 150.22 53 152.97C53 155.72 55.22 157.94 57.97 157.94C60.72 157.94 62.94 155.72 62.94 152.97C62.94 150.22 60.72 148 57.97 148Z" fill="#A9FFF7"/>
</g>
</g>
<path d="M57.99 157.59C60.5416 157.59 62.61 155.521 62.61 152.97C62.61 150.418 60.5416 148.35 57.99 148.35C55.4384 148.35 53.37 150.418 53.37 152.97C53.37 155.521 55.4384 157.59 57.99 157.59Z" fill="url(#paint2_linear_384_333)"/>
<path d="M57.99 148.71C60.34 148.71 62.25 150.62 62.25 152.97C62.25 155.32 60.34 157.23 57.99 157.23C55.64 157.23 53.73 155.32 53.73 152.97C53.73 150.62 55.64 148.71 57.99 148.71ZM57.99 148.21C55.36 148.21 53.23 150.34 53.23 152.97C53.23 155.6 55.36 157.73 57.99 157.73C60.62 157.73 62.75 155.6 62.75 152.97C62.75 150.34 60.62 148.21 57.99 148.21Z" fill="url(#paint3_linear_384_333)"/>
<g opacity="0.27">
<path d="M57.99 148.71C60.34 148.71 62.25 150.62 62.25 152.97C62.25 155.32 60.34 157.23 57.99 157.23C55.64 157.23 53.73 155.32 53.73 152.97C53.73 150.62 55.64 148.71 57.99 148.71ZM57.99 148.21C55.36 148.21 53.23 150.34 53.23 152.97C53.23 155.6 55.36 157.73 57.99 157.73C60.62 157.73 62.75 155.6 62.75 152.97C62.75 150.34 60.62 148.21 57.99 148.21Z" fill="#A9FFF7"/>
</g>
<path d="M54.75 153.28C54.8218 153.28 54.88 153.221 54.88 153.15C54.88 153.078 54.8218 153.02 54.75 153.02C54.6782 153.02 54.62 153.078 54.62 153.15C54.62 153.221 54.6782 153.28 54.75 153.28Z" fill="#8DE4FF"/>
<g opacity="0.8">
<path d="M57.77 151.34C57.8528 151.34 57.92 151.273 57.92 151.19C57.92 151.107 57.8528 151.04 57.77 151.04C57.6871 151.04 57.62 151.107 57.62 151.19C57.62 151.273 57.6871 151.34 57.77 151.34Z" fill="white"/>
</g>
<g opacity="0.55">
<path d="M59.17 155.38C59.2694 155.38 59.35 155.299 59.35 155.2C59.35 155.1 59.2694 155.02 59.17 155.02C59.0706 155.02 58.99 155.1 58.99 155.2C58.99 155.299 59.0706 155.38 59.17 155.38Z" fill="white"/>
</g>
<g opacity="0.55">
<path d="M55.7399 154.82C55.9056 154.82 56.0399 154.685 56.0399 154.52C56.0399 154.354 55.9056 154.22 55.7399 154.22C55.5743 154.22 55.4399 154.354 55.4399 154.52C55.4399 154.685 55.5743 154.82 55.7399 154.82Z" fill="white"/>
</g>
<g opacity="0.3">
<path d="M60.74 153.84C60.8118 153.84 60.87 153.782 60.87 153.71C60.87 153.638 60.8118 153.58 60.74 153.58C60.6682 153.58 60.61 153.638 60.61 153.71C60.61 153.782 60.6682 153.84 60.74 153.84Z" fill="#8DE4FF"/>
</g>
<g opacity="0.7">
<path d="M60.74 151.19C60.8118 151.19 60.87 151.131 60.87 151.06C60.87 150.988 60.8118 150.93 60.74 150.93C60.6682 150.93 60.61 150.988 60.61 151.06C60.61 151.131 60.6682 151.19 60.74 151.19Z" fill="#8DE4FF"/>
</g>
<g opacity="0.5">
<path d="M55.93 150.03C55.9742 150.03 56.01 149.994 56.01 149.95C56.01 149.906 55.9742 149.87 55.93 149.87C55.8858 149.87 55.85 149.906 55.85 149.95C55.85 149.994 55.8858 150.03 55.93 150.03Z" fill="#8DE4FF"/>
</g>
<g opacity="0.5">
<path d="M57.37 156.59C57.4142 156.59 57.45 156.554 57.45 156.51C57.45 156.466 57.4142 156.43 57.37 156.43C57.3259 156.43 57.29 156.466 57.29 156.51C57.29 156.554 57.3259 156.59 57.37 156.59Z" fill="#8DE4FF"/>
</g>
<g opacity="0.5">
<path d="M57.53 153.79C57.5741 153.79 57.61 153.754 57.61 153.71C57.61 153.666 57.5741 153.63 57.53 153.63C57.4858 153.63 57.45 153.666 57.45 153.71C57.45 153.754 57.4858 153.79 57.53 153.79Z" fill="#8DE4FF"/>
</g>
<path opacity="0.5" d="M55.5201 152.96C55.4801 153.43 55.5201 153.89 55.6301 154.32L55.2601 154.36C55.0101 153.8 54.8901 153.16 54.9401 152.5C55.0001 151.73 55.2901 151.03 55.7301 150.46C55.9201 150.59 56.09 150.73 56.25 150.88C55.84 151.48 55.5801 152.18 55.5201 152.95V152.96ZM56.31 150.79C56.51 150.51 56.74 150.26 57 150.03L56.5 149.71C56.24 149.9 56.0001 150.12 55.8001 150.37C55.9801 150.5 56.15 150.64 56.31 150.79ZM55.64 150.41C55.45 150.29 55.25 150.19 55.03 150.1C54.37 150.79 53.9301 151.7 53.8501 152.73C53.8001 153.35 53.8901 153.95 54.0801 154.51L55.1301 154.38C54.8701 153.81 54.7401 153.17 54.8001 152.5C54.8601 151.71 55.1601 150.99 55.6301 150.41H55.64ZM55.7201 150.31C55.9301 150.07 56.1701 149.85 56.4301 149.66L55.9601 149.36C55.6601 149.54 55.3801 149.75 55.1301 150C55.3401 150.09 55.5301 150.19 55.7201 150.31Z" fill="url(#paint4_linear_384_333)"/>
<g opacity="0.59">
<g opacity="0.1">
<path d="M-7.49 209C-6.11 209 -4.98 210.12 -4.98 211.51C-4.98 212.9 -6.1 214.02 -7.49 214.02C-8.88 214.02 -10 212.9 -10 211.51C-10 210.12 -8.88 209 -7.49 209ZM-7.49 203C-12.19 203 -16 206.81 -16 211.51C-16 216.21 -12.19 220.02 -7.49 220.02C-2.79 220.02 1.02 216.21 1.02 211.51C1.02 206.81 -2.79 203 -7.49 203Z" fill="#3FA9F5"/>
<g opacity="0.27">
<path d="M-7.49 209C-6.11 209 -4.98 210.12 -4.98 211.51C-4.98 212.9 -6.1 214.02 -7.49 214.02C-8.88 214.02 -10 212.9 -10 211.51C-10 210.12 -8.88 209 -7.49 209ZM-7.49 203C-12.19 203 -16 206.81 -16 211.51C-16 216.21 -12.19 220.02 -7.49 220.02C-2.79 220.02 1.02 216.21 1.02 211.51C1.02 206.81 -2.79 203 -7.49 203Z" fill="#A9FFF7"/>
</g>
</g>
<path d="M-7.47002 219.43C-3.09592 219.43 0.449986 215.884 0.449986 211.51C0.449986 207.136 -3.09592 203.59 -7.47002 203.59C-11.8441 203.59 -15.39 207.136 -15.39 211.51C-15.39 215.884 -11.8441 219.43 -7.47002 219.43Z" fill="url(#paint5_linear_384_333)"/>
<path d="M-7.47 203.86C-3.25 203.86 0.180005 207.29 0.180005 211.51C0.180005 215.73 -3.25 219.16 -7.47 219.16C-11.69 219.16 -15.12 215.73 -15.12 211.51C-15.12 207.29 -11.69 203.86 -7.47 203.86ZM-7.47 203.36C-11.97 203.36 -15.62 207.01 -15.62 211.51C-15.62 216.01 -11.97 219.66 -7.47 219.66C-2.97 219.66 0.680004 216.01 0.680004 211.51C0.680004 207.01 -2.97 203.36 -7.47 203.36Z" fill="url(#paint6_linear_384_333)"/>
<g opacity="0.27">
<path d="M-7.47 203.86C-3.25 203.86 0.180005 207.29 0.180005 211.51C0.180005 215.73 -3.25 219.16 -7.47 219.16C-11.69 219.16 -15.12 215.73 -15.12 211.51C-15.12 207.29 -11.69 203.86 -7.47 203.86ZM-7.47 203.36C-11.97 203.36 -15.62 207.01 -15.62 211.51C-15.62 216.01 -11.97 219.66 -7.47 219.66C-2.97 219.66 0.680004 216.01 0.680004 211.51C0.680004 207.01 -2.97 203.36 -7.47 203.36Z" fill="#A9FFF7"/>
</g>
</g>
<g opacity="0.3">
<g opacity="0.1">
<path d="M66.4 208.91C66.9 208.91 67.31 209.32 67.31 209.82C67.31 210.32 66.9 210.73 66.4 210.73C65.9 210.73 65.49 210.32 65.49 209.82C65.49 209.32 65.9 208.91 66.4 208.91ZM66.4 202.91C62.58 202.91 59.49 206 59.49 209.82C59.49 213.64 62.58 216.73 66.4 216.73C70.22 216.73 73.31 213.64 73.31 209.82C73.31 206 70.22 202.91 66.4 202.91Z" fill="#3FA9F5"/>
<g opacity="0.27">
<path d="M66.4 208.91C66.9 208.91 67.31 209.32 67.31 209.82C67.31 210.32 66.9 210.73 66.4 210.73C65.9 210.73 65.49 210.32 65.49 209.82C65.49 209.32 65.9 208.91 66.4 208.91ZM66.4 202.91C62.58 202.91 59.49 206 59.49 209.82C59.49 213.64 62.58 216.73 66.4 216.73C70.22 216.73 73.31 213.64 73.31 209.82C73.31 206 70.22 202.91 66.4 202.91Z" fill="#A9FFF7"/>
</g>
</g>
<g opacity="0.5">
<path d="M66.43 216.251C69.9812 216.251 72.86 213.372 72.86 209.821C72.86 206.269 69.9812 203.391 66.43 203.391C62.8788 203.391 60 206.269 60 209.821C60 213.372 62.8788 216.251 66.43 216.251Z" fill="url(#paint7_linear_384_333)"/>
</g>
<path d="M66.4301 203.7C69.8001 203.7 72.55 206.45 72.55 209.82C72.55 213.19 69.8001 215.94 66.4301 215.94C63.0601 215.94 60.3101 213.19 60.3101 209.82C60.3101 206.45 63.0601 203.7 66.4301 203.7ZM66.4301 203.2C62.7701 203.2 59.8101 206.16 59.8101 209.82C59.8101 213.48 62.7701 216.44 66.4301 216.44C70.0901 216.44 73.05 213.48 73.05 209.82C73.05 206.16 70.0901 203.2 66.4301 203.2Z" fill="url(#paint8_linear_384_333)"/>
<g opacity="0.27">
<path d="M66.4301 203.7C69.8001 203.7 72.55 206.45 72.55 209.82C72.55 213.19 69.8001 215.94 66.4301 215.94C63.0601 215.94 60.3101 213.19 60.3101 209.82C60.3101 206.45 63.0601 203.7 66.4301 203.7ZM66.4301 203.2C62.7701 203.2 59.8101 206.16 59.8101 209.82C59.8101 213.48 62.7701 216.44 66.4301 216.44C70.0901 216.44 73.05 213.48 73.05 209.82C73.05 206.16 70.0901 203.2 66.4301 203.2Z" fill="#A9FFF7"/>
</g>
<path d="M61.93 210.26C62.0294 210.26 62.11 210.18 62.11 210.08C62.11 209.981 62.0294 209.9 61.93 209.9C61.8306 209.9 61.75 209.981 61.75 210.08C61.75 210.18 61.8306 210.26 61.93 210.26Z" fill="#8DE4FF"/>
<g opacity="0.8">
<path d="M66.12 207.541C66.2305 207.541 66.32 207.451 66.32 207.341C66.32 207.23 66.2305 207.141 66.12 207.141C66.0096 207.141 65.92 207.23 65.92 207.341C65.92 207.451 66.0096 207.541 66.12 207.541Z" fill="white"/>
</g>
<g opacity="0.55">
<path d="M68.0699 213.17C68.208 213.17 68.3199 213.058 68.3199 212.92C68.3199 212.782 68.208 212.67 68.0699 212.67C67.9319 212.67 67.8199 212.782 67.8199 212.92C67.8199 213.058 67.9319 213.17 68.0699 213.17Z" fill="white"/>
</g>
<g opacity="0.55">
<path d="M63.3 212.401C63.532 212.401 63.72 212.213 63.72 211.981C63.72 211.749 63.532 211.561 63.3 211.561C63.068 211.561 62.88 211.749 62.88 211.981C62.88 212.213 63.068 212.401 63.3 212.401Z" fill="white"/>
</g>
<g opacity="0.3">
<path d="M70.26 211.03C70.3594 211.03 70.44 210.949 70.44 210.85C70.44 210.751 70.3594 210.67 70.26 210.67C70.1606 210.67 70.08 210.751 70.08 210.85C70.08 210.949 70.1606 211.03 70.26 211.03Z" fill="#8DE4FF"/>
</g>
<g opacity="0.7">
<path d="M70.26 207.35C70.3594 207.35 70.44 207.27 70.44 207.17C70.44 207.071 70.3594 206.99 70.26 206.99C70.1606 206.99 70.08 207.071 70.08 207.17C70.08 207.27 70.1606 207.35 70.26 207.35Z" fill="#8DE4FF"/>
</g>
<g opacity="0.5">
<path d="M63.56 205.75C63.6262 205.75 63.6799 205.696 63.6799 205.63C63.6799 205.564 63.6262 205.51 63.56 205.51C63.4937 205.51 63.4399 205.564 63.4399 205.63C63.4399 205.696 63.4937 205.75 63.56 205.75Z" fill="#8DE4FF"/>
</g>
<g opacity="0.5">
<path d="M65.56 214.87C65.6262 214.87 65.6799 214.816 65.6799 214.75C65.6799 214.684 65.6262 214.63 65.56 214.63C65.4937 214.63 65.4399 214.684 65.4399 214.75C65.4399 214.816 65.4937 214.87 65.56 214.87Z" fill="#8DE4FF"/>
</g>
<g opacity="0.5">
<path d="M65.7999 210.97C65.8662 210.97 65.9199 210.917 65.9199 210.85C65.9199 210.784 65.8662 210.73 65.7999 210.73C65.7337 210.73 65.6799 210.784 65.6799 210.85C65.6799 210.917 65.7337 210.97 65.7999 210.97Z" fill="#8DE4FF"/>
</g>
<path opacity="0.5" d="M62.9899 209.811C62.9399 210.461 62.9899 211.101 63.1399 211.701L62.6299 211.761C62.2799 210.981 62.1099 210.091 62.1799 209.181C62.2599 208.111 62.6599 207.141 63.2799 206.351C63.5399 206.521 63.7799 206.721 63.9999 206.931C63.4399 207.761 63.0699 208.741 62.9899 209.811ZM64.0899 206.791C64.3699 206.401 64.6899 206.051 65.0599 205.741L64.3699 205.301C64.0099 205.561 63.6799 205.871 63.3899 206.211C63.6399 206.381 63.8799 206.581 64.0899 206.791ZM63.1599 206.261C62.8999 206.091 62.6199 205.951 62.3199 205.831C61.3999 206.791 60.7999 208.061 60.6799 209.481C60.6099 210.351 60.7299 211.181 61.0099 211.951L62.4699 211.771C62.1099 210.981 61.9299 210.081 62.0099 209.151C62.0999 208.051 62.5199 207.051 63.1599 206.251V206.261ZM63.2699 206.131C63.5599 205.791 63.8999 205.491 64.2599 205.231L63.5999 204.811C63.1799 205.061 62.7899 205.361 62.4499 205.701C62.7399 205.821 63.0099 205.971 63.2699 206.131Z" fill="url(#paint9_linear_384_333)"/>
</g>
<g opacity="0.7">
<path d="M33.4305 77.7995C33.6459 77.7995 33.8205 77.6249 33.8205 77.4095C33.8205 77.1941 33.6459 77.0195 33.4305 77.0195C33.2151 77.0195 33.0405 77.1941 33.0405 77.4095C33.0405 77.6249 33.2151 77.7995 33.4305 77.7995Z" fill="#3FA9F5"/>
<path d="M15.0006 67.1501C15.216 67.1501 15.3906 66.9755 15.3906 66.7601C15.3906 66.5447 15.216 66.3701 15.0006 66.3701C14.7852 66.3701 14.6106 66.5447 14.6106 66.7601C14.6106 66.9755 14.7852 67.1501 15.0006 67.1501Z" fill="#3FA9F5"/>
<path d="M8.8806 65.2898C9.09599 65.2898 9.2706 65.1152 9.2706 64.8998C9.2706 64.6844 9.09599 64.5098 8.8806 64.5098C8.66521 64.5098 8.4906 64.6844 8.4906 64.8998C8.4906 65.1152 8.66521 65.2898 8.8806 65.2898Z" fill="#3FA9F5"/>
<path d="M3.66063 62.6804C3.87602 62.6804 4.05063 62.5058 4.05063 62.2904C4.05063 62.075 3.87602 61.9004 3.66063 61.9004C3.44524 61.9004 3.27063 62.075 3.27063 62.2904C3.27063 62.5058 3.44524 62.6804 3.66063 62.6804Z" fill="#3FA9F5"/>
<path d="M11.5206 61.9099C11.736 61.9099 11.9106 61.7353 11.9106 61.5199C11.9106 61.3045 11.736 61.1299 11.5206 61.1299C11.3052 61.1299 11.1306 61.3045 11.1306 61.5199C11.1306 61.7353 11.3052 61.9099 11.5206 61.9099Z" fill="#3FA9F5"/>
<path d="M34.5906 83.9304C34.806 83.9304 34.9806 83.7558 34.9806 83.5404C34.9806 83.325 34.806 83.1504 34.5906 83.1504C34.3752 83.1504 34.2006 83.325 34.2006 83.5404C34.2006 83.7558 34.3752 83.9304 34.5906 83.9304Z" fill="#3FA9F5"/>
<path d="M19.3306 72.6501C19.5459 72.6501 19.7206 72.4755 19.7206 72.2601C19.7206 72.0447 19.5459 71.8701 19.3306 71.8701C19.1152 71.8701 18.9406 72.0447 18.9406 72.2601C18.9406 72.4755 19.1152 72.6501 19.3306 72.6501Z" fill="#3FA9F5"/>
<path d="M8.49059 69.0495C8.70598 69.0495 8.88058 68.8749 8.88058 68.6595C8.88058 68.4441 8.70598 68.2695 8.49059 68.2695C8.27519 68.2695 8.10059 68.4441 8.10059 68.6595C8.10059 68.8749 8.27519 69.0495 8.49059 69.0495Z" fill="#3FA9F5"/>
<path d="M24.7106 71.2995C24.9259 71.2995 25.1006 71.1249 25.1006 70.9095C25.1006 70.6941 24.9259 70.5195 24.7106 70.5195C24.4952 70.5195 24.3206 70.6941 24.3206 70.9095C24.3206 71.1249 24.4952 71.2995 24.7106 71.2995Z" fill="#3FA9F5"/>
<path d="M28.9806 77.4099C29.196 77.4099 29.3706 77.2353 29.3706 77.0199C29.3706 76.8045 29.196 76.6299 28.9806 76.6299C28.7652 76.6299 28.5906 76.8045 28.5906 77.0199C28.5906 77.2353 28.7652 77.4099 28.9806 77.4099Z" fill="#3FA9F5"/>
<path d="M21.8506 77.0202C22.066 77.0202 22.2406 76.8456 22.2406 76.6302C22.2406 76.4148 22.066 76.2402 21.8506 76.2402C21.6352 76.2402 21.4606 76.4148 21.4606 76.6302C21.4606 76.8456 21.6352 77.0202 21.8506 77.0202Z" fill="#3FA9F5"/>
<path d="M30.7206 80.2204C30.936 80.2204 31.1106 80.0458 31.1106 79.8304C31.1106 79.615 30.936 79.4404 30.7206 79.4404C30.5052 79.4404 30.3306 79.615 30.3306 79.8304C30.3306 80.0458 30.5052 80.2204 30.7206 80.2204Z" fill="#3FA9F5"/>
<g opacity="0.5">
<path d="M5.17064 70.0495C5.38603 70.0495 5.56064 69.8749 5.56064 69.6595C5.56064 69.4441 5.38603 69.2695 5.17064 69.2695C4.95525 69.2695 4.78064 69.4441 4.78064 69.6595C4.78064 69.8749 4.95525 70.0495 5.17064 70.0495Z" fill="#3FA9F5"/>
<path d="M14.7506 63.6794C14.966 63.6794 15.1406 63.5048 15.1406 63.2894C15.1406 63.074 14.966 62.8994 14.7506 62.8994C14.5352 62.8994 14.3606 63.074 14.3606 63.2894C14.3606 63.5048 14.5352 63.6794 14.7506 63.6794Z" fill="#3FA9F5"/>
<path d="M38.2306 88.4597C38.446 88.4597 38.6206 88.2851 38.6206 88.0697C38.6206 87.8543 38.446 87.6797 38.2306 87.6797C38.0152 87.6797 37.8406 87.8543 37.8406 88.0697C37.8406 88.2851 38.0152 88.4597 38.2306 88.4597Z" fill="#3FA9F5"/>
<path d="M48.0707 99.57C48.2861 99.57 48.4607 99.3954 48.4607 99.18C48.4607 98.9646 48.2861 98.79 48.0707 98.79C47.8553 98.79 47.6807 98.9646 47.6807 99.18C47.6807 99.3954 47.8553 99.57 48.0707 99.57Z" fill="#3FA9F5"/>
<path d="M49.2306 106.969C49.446 106.969 49.6206 106.795 49.6206 106.579C49.6206 106.364 49.446 106.189 49.2306 106.189C49.0152 106.189 48.8406 106.364 48.8406 106.579C48.8406 106.795 49.0152 106.969 49.2306 106.969Z" fill="#3FA9F5"/>
<path d="M53.4306 121.65C53.646 121.65 53.8206 121.476 53.8206 121.26C53.8206 121.045 53.646 120.87 53.4306 120.87C53.2153 120.87 53.0406 121.045 53.0406 121.26C53.0406 121.476 53.2153 121.65 53.4306 121.65Z" fill="#3FA9F5"/>
<path d="M57.6706 133.009C57.886 133.009 58.0606 132.835 58.0606 132.619C58.0606 132.404 57.886 132.229 57.6706 132.229C57.4552 132.229 57.2806 132.404 57.2806 132.619C57.2806 132.835 57.4552 133.009 57.6706 133.009Z" fill="#3FA9F5"/>
<path d="M61.2007 137.45C61.4161 137.45 61.5907 137.275 61.5907 137.06C61.5907 136.845 61.4161 136.67 61.2007 136.67C60.9853 136.67 60.8107 136.845 60.8107 137.06C60.8107 137.275 60.9853 137.45 61.2007 137.45Z" fill="#3FA9F5"/>
<path d="M62.3606 146.41C62.576 146.41 62.7506 146.235 62.7506 146.02C62.7506 145.804 62.576 145.63 62.3606 145.63C62.1452 145.63 61.9706 145.804 61.9706 146.02C61.9706 146.235 62.1452 146.41 62.3606 146.41Z" fill="#3FA9F5"/>
<path d="M55.2806 125.74C55.496 125.74 55.6706 125.565 55.6706 125.35C55.6706 125.135 55.496 124.96 55.2806 124.96C55.0652 124.96 54.8906 125.135 54.8906 125.35C54.8906 125.565 55.0652 125.74 55.2806 125.74Z" fill="#3FA9F5"/>
<path d="M54.8906 132.179C55.106 132.179 55.2806 132.005 55.2806 131.789C55.2806 131.574 55.106 131.399 54.8906 131.399C54.6752 131.399 54.5006 131.574 54.5006 131.789C54.5006 132.005 54.6752 132.179 54.8906 132.179Z" fill="#3FA9F5"/>
<path d="M55.6606 146.8C55.876 146.8 56.0506 146.625 56.0506 146.41C56.0506 146.194 55.876 146.02 55.6606 146.02C55.4452 146.02 55.2706 146.194 55.2706 146.41C55.2706 146.625 55.4452 146.8 55.6606 146.8Z" fill="#3FA9F5"/>
<path d="M55.2806 138.63C55.496 138.63 55.6706 138.455 55.6706 138.24C55.6706 138.024 55.496 137.85 55.2806 137.85C55.0652 137.85 54.8906 138.024 54.8906 138.24C54.8906 138.455 55.0652 138.63 55.2806 138.63Z" fill="#3FA9F5"/>
<path d="M56.4407 152.16C56.656 152.16 56.8307 151.985 56.8307 151.77C56.8307 151.554 56.656 151.38 56.4407 151.38C56.2253 151.38 56.0507 151.554 56.0507 151.77C56.0507 151.985 56.2253 152.16 56.4407 152.16Z" fill="#3FA9F5"/>
<path d="M59.2107 143.36C59.4261 143.36 59.6007 143.185 59.6007 142.97C59.6007 142.755 59.4261 142.58 59.2107 142.58C58.9953 142.58 58.8207 142.755 58.8207 142.97C58.8207 143.185 58.9953 143.36 59.2107 143.36Z" fill="#3FA9F5"/>
<path d="M59.6606 154.429C59.876 154.429 60.0506 154.255 60.0506 154.039C60.0506 153.824 59.876 153.649 59.6606 153.649C59.4452 153.649 59.2706 153.824 59.2706 154.039C59.2706 154.255 59.4452 154.429 59.6606 154.429Z" fill="#3FA9F5"/>
<path d="M60.8207 163.39C61.0361 163.39 61.2107 163.216 61.2107 163C61.2107 162.785 61.0361 162.61 60.8207 162.61C60.6053 162.61 60.4307 162.785 60.4307 163C60.4307 163.216 60.6053 163.39 60.8207 163.39Z" fill="#3FA9F5"/>
<path d="M53.4306 160.719C53.646 160.719 53.8206 160.545 53.8206 160.329C53.8206 160.114 53.646 159.939 53.4306 159.939C53.2153 159.939 53.0406 160.114 53.0406 160.329C53.0406 160.545 53.2153 160.719 53.4306 160.719Z" fill="#3FA9F5"/>
<path d="M53.7306 155.61C53.946 155.61 54.1206 155.435 54.1206 155.22C54.1206 155.005 53.946 154.83 53.7306 154.83C53.5152 154.83 53.3406 155.005 53.3406 155.22C53.3406 155.435 53.5152 155.61 53.7306 155.61Z" fill="#3FA9F5"/>
<path d="M54.9006 169.14C55.116 169.14 55.2906 168.966 55.2906 168.75C55.2906 168.535 55.116 168.36 54.9006 168.36C54.6852 168.36 54.5106 168.535 54.5106 168.75C54.5106 168.966 54.6852 169.14 54.9006 169.14Z" fill="#3FA9F5"/>
<path d="M47.5506 176.41C47.766 176.41 47.9406 176.235 47.9406 176.02C47.9406 175.804 47.766 175.63 47.5506 175.63C47.3353 175.63 47.1606 175.804 47.1606 176.02C47.1606 176.235 47.3353 176.41 47.5506 176.41Z" fill="#3FA9F5"/>
<path d="M51.5106 179.1C51.726 179.1 51.9006 178.926 51.9006 178.71C51.9006 178.495 51.726 178.32 51.5106 178.32C51.2952 178.32 51.1206 178.495 51.1206 178.71C51.1206 178.926 51.2952 179.1 51.5106 179.1Z" fill="#3FA9F5"/>
<path d="M51.1306 169.52C51.346 169.52 51.5206 169.346 51.5206 169.13C51.5206 168.915 51.346 168.74 51.1306 168.74C50.9152 168.74 50.7406 168.915 50.7406 169.13C50.7406 169.346 50.9152 169.52 51.1306 169.52Z" fill="#3FA9F5"/>
<path d="M57.6706 160.33C57.886 160.33 58.0606 160.155 58.0606 159.94C58.0606 159.724 57.886 159.55 57.6706 159.55C57.4552 159.55 57.2806 159.724 57.2806 159.94C57.2806 160.155 57.4552 160.33 57.6706 160.33Z" fill="#3FA9F5"/>
<path d="M56.8207 165.429C57.0361 165.429 57.2107 165.255 57.2107 165.039C57.2107 164.824 57.0361 164.649 56.8207 164.649C56.6053 164.649 56.4307 164.824 56.4307 165.039C56.4307 165.255 56.6053 165.429 56.8207 165.429Z" fill="#3FA9F5"/>
<path d="M54.5006 173.99C54.716 173.99 54.8906 173.815 54.8906 173.6C54.8906 173.385 54.716 173.21 54.5006 173.21C54.2852 173.21 54.1106 173.385 54.1106 173.6C54.1106 173.815 54.2852 173.99 54.5006 173.99Z" fill="#3FA9F5"/>
<path d="M61.9806 127.65C62.196 127.65 62.3706 127.476 62.3706 127.26C62.3706 127.045 62.196 126.87 61.9806 126.87C61.7652 126.87 61.5906 127.045 61.5906 127.26C61.5906 127.476 61.7652 127.65 61.9806 127.65Z" fill="#3FA9F5"/>
<path d="M43.4607 97.0095C43.6761 97.0095 43.8507 96.8349 43.8507 96.6195C43.8507 96.4041 43.6761 96.2295 43.4607 96.2295C43.2453 96.2295 43.0707 96.4041 43.0707 96.6195C43.0707 96.8349 43.2453 97.0095 43.4607 97.0095Z" fill="#3FA9F5"/>
<path d="M55.6606 117.32C55.876 117.32 56.0506 117.145 56.0506 116.93C56.0506 116.715 55.876 116.54 55.6606 116.54C55.4452 116.54 55.2706 116.715 55.2706 116.93C55.2706 117.145 55.4452 117.32 55.6606 117.32Z" fill="#3FA9F5"/>
<path d="M50.7406 116.929C50.956 116.929 51.1306 116.755 51.1306 116.539C51.1306 116.324 50.956 116.149 50.7406 116.149C50.5252 116.149 50.3506 116.324 50.3506 116.539C50.3506 116.755 50.5252 116.929 50.7406 116.929Z" fill="#3FA9F5"/>
<path d="M58.4407 121.65C58.656 121.65 58.8307 121.476 58.8307 121.26C58.8307 121.045 58.656 120.87 58.4407 120.87C58.2253 120.87 58.0507 121.045 58.0507 121.26C58.0507 121.476 58.2253 121.65 58.4407 121.65Z" fill="#3FA9F5"/>
<path d="M54.8906 102C55.106 102 55.2806 101.825 55.2806 101.61C55.2806 101.394 55.106 101.22 54.8906 101.22C54.6752 101.22 54.5006 101.394 54.5006 101.61C54.5006 101.825 54.6752 102 54.8906 102Z" fill="#3FA9F5"/>
<path d="M13.0907 70.0495C13.3061 70.0495 13.4807 69.8749 13.4807 69.6595C13.4807 69.4441 13.3061 69.2695 13.0907 69.2695C12.8753 69.2695 12.7007 69.4441 12.7007 69.6595C12.7007 69.8749 12.8753 70.0495 13.0907 70.0495Z" fill="#3FA9F5"/>
<path d="M18.5807 74.4196C18.7961 74.4196 18.9707 74.245 18.9707 74.0296C18.9707 73.8143 18.7961 73.6396 18.5807 73.6396C18.3653 73.6396 18.1907 73.8143 18.1907 74.0296C18.1907 74.245 18.3653 74.4196 18.5807 74.4196Z" fill="#3FA9F5"/>
<path d="M31.8507 77.6404C32.0661 77.6404 32.2407 77.4657 32.2407 77.2504C32.2407 77.035 32.0661 76.8604 31.8507 76.8604C31.6353 76.8604 31.4607 77.035 31.4607 77.2504C31.4607 77.4657 31.6353 77.6404 31.8507 77.6404Z" fill="#3FA9F5"/>
<path d="M38.6206 81.99C38.836 81.99 39.0106 81.8154 39.0106 81.6C39.0106 81.3846 38.836 81.21 38.6206 81.21C38.4052 81.21 38.2306 81.3846 38.2306 81.6C38.2306 81.8154 38.4052 81.99 38.6206 81.99Z" fill="#3FA9F5"/>
<path d="M44.6206 83.8601C44.836 83.8601 45.0106 83.6855 45.0106 83.4701C45.0106 83.2547 44.836 83.0801 44.6206 83.0801C44.4052 83.0801 44.2306 83.2547 44.2306 83.4701C44.2306 83.6855 44.4052 83.8601 44.6206 83.8601Z" fill="#3FA9F5"/>
<path d="M18.5807 68.1501C18.7961 68.1501 18.9707 67.9755 18.9707 67.7601C18.9707 67.5447 18.7961 67.3701 18.5807 67.3701C18.3653 67.3701 18.1907 67.5447 18.1907 67.7601C18.1907 67.9755 18.3653 68.1501 18.5807 68.1501Z" fill="#3FA9F5"/>
<path d="M26.7406 71.9099C26.956 71.9099 27.1306 71.7353 27.1306 71.5199C27.1306 71.3045 26.956 71.1299 26.7406 71.1299C26.5252 71.1299 26.3506 71.3045 26.3506 71.5199C26.3506 71.7353 26.5252 71.9099 26.7406 71.9099Z" fill="#3FA9F5"/>
<path d="M33.9006 74.03C34.116 74.03 34.2906 73.8554 34.2906 73.64C34.2906 73.4246 34.116 73.25 33.9006 73.25C33.6852 73.25 33.5106 73.4246 33.5106 73.64C33.5106 73.8554 33.6852 74.03 33.9006 74.03Z" fill="#3FA9F5"/>
<path d="M29.5506 68.53C29.766 68.53 29.9406 68.3554 29.9406 68.14C29.9406 67.9246 29.766 67.75 29.5506 67.75C29.3353 67.75 29.1606 67.9246 29.1606 68.14C29.1606 68.3554 29.3353 68.53 29.5506 68.53Z" fill="#3FA9F5"/>
<path d="M33.5106 81.2195C33.726 81.2195 33.9006 81.0448 33.9006 80.8295C33.9006 80.6141 33.726 80.4395 33.5106 80.4395C33.2952 80.4395 33.1206 80.6141 33.1206 80.8295C33.1206 81.0448 33.2952 81.2195 33.5106 81.2195Z" fill="#3FA9F5"/>
<path d="M43.8507 92.4196C44.0661 92.4196 44.2407 92.245 44.2407 92.0296C44.2407 91.8143 44.0661 91.6396 43.8507 91.6396C43.6353 91.6396 43.4607 91.8143 43.4607 92.0296C43.4607 92.245 43.6353 92.4196 43.8507 92.4196Z" fill="#3FA9F5"/>
<path d="M53.0506 109.52C53.266 109.52 53.4406 109.346 53.4406 109.13C53.4406 108.915 53.266 108.74 53.0506 108.74C52.8353 108.74 52.6606 108.915 52.6606 109.13C52.6606 109.346 52.8353 109.52 53.0506 109.52Z" fill="#3FA9F5"/>
<path d="M53.4306 112.719C53.646 112.719 53.8206 112.545 53.8206 112.329C53.8206 112.114 53.646 111.939 53.4306 111.939C53.2153 111.939 53.0406 112.114 53.0406 112.329C53.0406 112.545 53.2153 112.719 53.4306 112.719Z" fill="#3FA9F5"/>
<path d="M56.4407 109.52C56.656 109.52 56.8307 109.346 56.8307 109.13C56.8307 108.915 56.656 108.74 56.4407 108.74C56.2253 108.74 56.0507 108.915 56.0507 109.13C56.0507 109.346 56.2253 109.52 56.4407 109.52Z" fill="#3FA9F5"/>
<path d="M48.4607 93.6999C48.6761 93.6999 48.8507 93.5253 48.8507 93.3099C48.8507 93.0945 48.6761 92.9199 48.4607 92.9199C48.2453 92.9199 48.0707 93.0945 48.0707 93.3099C48.0707 93.5253 48.2453 93.6999 48.4607 93.6999Z" fill="#3FA9F5"/>
<path d="M5.56065 64.4597C5.77604 64.4597 5.95065 64.2851 5.95065 64.0697C5.95065 63.8543 5.77604 63.6797 5.56065 63.6797C5.34526 63.6797 5.17065 63.8543 5.17065 64.0697C5.17065 64.2851 5.34526 64.4597 5.56065 64.4597Z" fill="#3FA9F5"/>
<path d="M4.39061 60.9402C4.606 60.9402 4.78061 60.7655 4.78061 60.5502C4.78061 60.3348 4.606 60.1602 4.39061 60.1602C4.17522 60.1602 4.00061 60.3348 4.00061 60.5502C4.00061 60.7655 4.17522 60.9402 4.39061 60.9402Z" fill="#3FA9F5"/>
<path d="M8.1106 67.0603C8.32599 67.0603 8.5006 66.8857 8.5006 66.6703C8.5006 66.4549 8.32599 66.2803 8.1106 66.2803C7.8952 66.2803 7.72058 66.4549 7.72058 66.6703C7.72058 66.8857 7.8952 67.0603 8.1106 67.0603Z" fill="#3FA9F5"/>
<path d="M23.6806 75.5603C23.896 75.5603 24.0706 75.3857 24.0706 75.1703C24.0706 74.9549 23.896 74.7803 23.6806 74.7803C23.4653 74.7803 23.2906 74.9549 23.2906 75.1703C23.2906 75.3857 23.4653 75.5603 23.6806 75.5603Z" fill="#3FA9F5"/>
</g>
<path d="M5.17064 204.49C5.38603 204.49 5.56064 204.315 5.56064 204.1C5.56064 203.885 5.38603 203.71 5.17064 203.71C4.95525 203.71 4.78064 203.885 4.78064 204.1C4.78064 204.315 4.95525 204.49 5.17064 204.49Z" fill="#3FA9F5"/>
<path d="M14.7506 210.87C14.966 210.87 15.1406 210.695 15.1406 210.48C15.1406 210.264 14.966 210.09 14.7506 210.09C14.5352 210.09 14.3606 210.264 14.3606 210.48C14.3606 210.695 14.5352 210.87 14.7506 210.87Z" fill="#3FA9F5"/>
<path d="M37.8406 185.7C37.8406 185.49 38.0106 185.31 38.2306 185.31C38.4506 185.31 38.6206 185.48 38.6206 185.7C38.6206 185.91 38.4506 186.09 38.2306 186.09C38.0106 186.09 37.8406 185.92 37.8406 185.7Z" fill="#3FA9F5"/>
<path d="M48.0705 174.98C48.2859 174.98 48.4605 174.806 48.4605 174.59C48.4605 174.375 48.2859 174.2 48.0705 174.2C47.8552 174.2 47.6805 174.375 47.6805 174.59C47.6805 174.806 47.8552 174.98 48.0705 174.98Z" fill="#3FA9F5"/>
<path d="M48.8406 167.19C48.8406 166.98 49.0106 166.8 49.2306 166.8C49.4506 166.8 49.6206 166.97 49.6206 167.19C49.6206 167.41 49.4506 167.58 49.2306 167.58C49.0106 167.58 48.8406 167.41 48.8406 167.19Z" fill="#3FA9F5"/>
<path d="M53.4305 152.89C53.6459 152.89 53.8205 152.716 53.8205 152.5C53.8205 152.285 53.6459 152.11 53.4305 152.11C53.2151 152.11 53.0405 152.285 53.0405 152.5C53.0405 152.716 53.2151 152.89 53.4305 152.89Z" fill="#3FA9F5"/>
<path d="M57.2806 141.14C57.2806 140.93 57.4506 140.75 57.6706 140.75C57.8906 140.75 58.0606 140.92 58.0606 141.14C58.0606 141.35 57.8906 141.53 57.6706 141.53C57.4506 141.53 57.2806 141.36 57.2806 141.14Z" fill="#3FA9F5"/>
<path d="M60.8206 136.7C60.8206 136.49 60.9906 136.31 61.2106 136.31C61.4306 136.31 61.6006 136.48 61.6006 136.7C61.6006 136.92 61.4306 137.09 61.2106 137.09C60.9906 137.09 60.8206 136.92 60.8206 136.7Z" fill="#3FA9F5"/>
<path d="M62.3606 128.13C62.576 128.13 62.7506 127.955 62.7506 127.74C62.7506 127.524 62.576 127.35 62.3606 127.35C62.1452 127.35 61.9706 127.524 61.9706 127.74C61.9706 127.955 62.1452 128.13 62.3606 128.13Z" fill="#3FA9F5"/>
<path d="M55.2806 148.81C55.496 148.81 55.6706 148.636 55.6706 148.42C55.6706 148.205 55.496 148.03 55.2806 148.03C55.0652 148.03 54.8906 148.205 54.8906 148.42C54.8906 148.636 55.0652 148.81 55.2806 148.81Z" fill="#3FA9F5"/>
<path d="M54.5006 141.97C54.5006 141.76 54.6706 141.58 54.8906 141.58C55.1106 141.58 55.2806 141.75 55.2806 141.97C55.2806 142.19 55.1106 142.36 54.8906 142.36C54.6706 142.36 54.5006 142.19 54.5006 141.97Z" fill="#3FA9F5"/>
<path d="M55.6606 127.75C55.876 127.75 56.0506 127.575 56.0506 127.36C56.0506 127.144 55.876 126.97 55.6606 126.97C55.4452 126.97 55.2706 127.144 55.2706 127.36C55.2706 127.575 55.4452 127.75 55.6606 127.75Z" fill="#3FA9F5"/>
<path d="M54.8906 135.53C54.8906 135.32 55.0606 135.14 55.2806 135.14C55.5006 135.14 55.6706 135.31 55.6706 135.53C55.6706 135.74 55.5006 135.92 55.2806 135.92C55.0606 135.92 54.8906 135.75 54.8906 135.53Z" fill="#3FA9F5"/>
<path d="M56.4405 122.38C56.6559 122.38 56.8305 122.205 56.8305 121.99C56.8305 121.774 56.6559 121.6 56.4405 121.6C56.2251 121.6 56.0505 121.774 56.0505 121.99C56.0505 122.205 56.2251 122.38 56.4405 122.38Z" fill="#3FA9F5"/>
<path d="M59.2106 131.19C59.4259 131.19 59.6006 131.016 59.6006 130.8C59.6006 130.585 59.4259 130.41 59.2106 130.41C58.9952 130.41 58.8206 130.585 58.8206 130.8C58.8206 131.016 58.9952 131.19 59.2106 131.19Z" fill="#3FA9F5"/>
<path d="M59.6606 120.12C59.876 120.12 60.0506 119.945 60.0506 119.73C60.0506 119.514 59.876 119.34 59.6606 119.34C59.4452 119.34 59.2706 119.514 59.2706 119.73C59.2706 119.945 59.4452 120.12 59.6606 120.12Z" fill="#3FA9F5"/>
<path d="M60.8205 111.16C61.0359 111.16 61.2105 110.985 61.2105 110.77C61.2105 110.554 61.0359 110.38 60.8205 110.38C60.6052 110.38 60.4305 110.554 60.4305 110.77C60.4305 110.985 60.6052 111.16 60.8205 111.16Z" fill="#3FA9F5"/>
<path d="M53.4305 113.83C53.6459 113.83 53.8205 113.655 53.8205 113.44C53.8205 113.224 53.6459 113.05 53.4305 113.05C53.2151 113.05 53.0405 113.224 53.0405 113.44C53.0405 113.655 53.2151 113.83 53.4305 113.83Z" fill="#3FA9F5"/>
<path d="M53.7306 118.94C53.946 118.94 54.1206 118.766 54.1206 118.55C54.1206 118.335 53.946 118.16 53.7306 118.16C53.5152 118.16 53.3406 118.335 53.3406 118.55C53.3406 118.766 53.5152 118.94 53.7306 118.94Z" fill="#3FA9F5"/>
<path d="M54.9006 105.41C55.116 105.41 55.2906 105.235 55.2906 105.02C55.2906 104.804 55.116 104.63 54.9006 104.63C54.6852 104.63 54.5106 104.804 54.5106 105.02C54.5106 105.235 54.6852 105.41 54.9006 105.41Z" fill="#3FA9F5"/>
<path d="M47.5506 98.1296C47.766 98.1296 47.9406 97.955 47.9406 97.7396C47.9406 97.5242 47.766 97.3496 47.5506 97.3496C47.3353 97.3496 47.1606 97.5242 47.1606 97.7396C47.1606 97.955 47.3353 98.1296 47.5506 98.1296Z" fill="#3FA9F5"/>
<path d="M51.5106 95.4499C51.726 95.4499 51.9006 95.2753 51.9006 95.0599C51.9006 94.8445 51.726 94.6699 51.5106 94.6699C51.2952 94.6699 51.1206 94.8445 51.1206 95.0599C51.1206 95.2753 51.2952 95.4499 51.5106 95.4499Z" fill="#3FA9F5"/>
<path d="M51.1306 105.02C51.346 105.02 51.5206 104.846 51.5206 104.63C51.5206 104.415 51.346 104.24 51.1306 104.24C50.9152 104.24 50.7406 104.415 50.7406 104.63C50.7406 104.846 50.9152 105.02 51.1306 105.02Z" fill="#3FA9F5"/>
<path d="M57.6706 114.21C57.886 114.21 58.0606 114.035 58.0606 113.82C58.0606 113.604 57.886 113.43 57.6706 113.43C57.4552 113.43 57.2806 113.604 57.2806 113.82C57.2806 114.035 57.4552 114.21 57.6706 114.21Z" fill="#3FA9F5"/>
<path d="M56.8205 109.11C57.0359 109.11 57.2105 108.935 57.2105 108.72C57.2105 108.505 57.0359 108.33 56.8205 108.33C56.6052 108.33 56.4305 108.505 56.4305 108.72C56.4305 108.935 56.6052 109.11 56.8205 109.11Z" fill="#3FA9F5"/>
<path d="M54.5006 100.55C54.716 100.55 54.8906 100.375 54.8906 100.16C54.8906 99.9441 54.716 99.7695 54.5006 99.7695C54.2852 99.7695 54.1106 99.9441 54.1106 100.16C54.1106 100.375 54.2852 100.55 54.5006 100.55Z" fill="#3FA9F5"/>
<path d="M61.5906 146.51C61.5906 146.3 61.7606 146.12 61.9806 146.12C62.2006 146.12 62.3706 146.29 62.3706 146.51C62.3706 146.72 62.2006 146.9 61.9806 146.9C61.7606 146.9 61.5906 146.73 61.5906 146.51Z" fill="#3FA9F5"/>
<path d="M43.4606 177.53C43.6759 177.53 43.8506 177.355 43.8506 177.14C43.8506 176.925 43.6759 176.75 43.4606 176.75C43.2452 176.75 43.0706 176.925 43.0706 177.14C43.0706 177.355 43.2452 177.53 43.4606 177.53Z" fill="#3FA9F5"/>
<path d="M55.6606 157.23C55.876 157.23 56.0506 157.056 56.0506 156.84C56.0506 156.625 55.876 156.45 55.6606 156.45C55.4452 156.45 55.2706 156.625 55.2706 156.84C55.2706 157.056 55.4452 157.23 55.6606 157.23Z" fill="#3FA9F5"/>
<path d="M50.3506 157.23C50.3506 157.02 50.5206 156.84 50.7406 156.84C50.9606 156.84 51.1306 157.01 51.1306 157.23C51.1306 157.45 50.9606 157.62 50.7406 157.62C50.5206 157.62 50.3506 157.45 50.3506 157.23Z" fill="#3FA9F5"/>
<path d="M58.4405 152.89C58.6559 152.89 58.8305 152.716 58.8305 152.5C58.8305 152.285 58.6559 152.11 58.4405 152.11C58.2251 152.11 58.0505 152.285 58.0505 152.5C58.0505 152.716 58.2251 152.89 58.4405 152.89Z" fill="#3FA9F5"/>
<path d="M54.8906 172.55C55.106 172.55 55.2806 172.375 55.2806 172.16C55.2806 171.944 55.106 171.77 54.8906 171.77C54.6752 171.77 54.5006 171.944 54.5006 172.16C54.5006 172.375 54.6752 172.55 54.8906 172.55Z" fill="#3FA9F5"/>
<path d="M13.0906 204.49C13.306 204.49 13.4806 204.315 13.4806 204.1C13.4806 203.885 13.306 203.71 13.0906 203.71C12.8752 203.71 12.7006 203.885 12.7006 204.1C12.7006 204.315 12.8752 204.49 13.0906 204.49Z" fill="#3FA9F5"/>
<path d="M18.5806 200.13C18.7959 200.13 18.9706 199.955 18.9706 199.74C18.9706 199.524 18.7959 199.35 18.5806 199.35C18.3652 199.35 18.1906 199.524 18.1906 199.74C18.1906 199.955 18.3652 200.13 18.5806 200.13Z" fill="#3FA9F5"/>
<path d="M31.4606 196.52C31.4606 196.31 31.6306 196.13 31.8506 196.13C32.0706 196.13 32.2406 196.3 32.2406 196.52C32.2406 196.74 32.0706 196.91 31.8506 196.91C31.6306 196.91 31.4606 196.74 31.4606 196.52Z" fill="#3FA9F5"/>
<path d="M38.6206 192.56C38.836 192.56 39.0106 192.386 39.0106 192.17C39.0106 191.955 38.836 191.78 38.6206 191.78C38.4052 191.78 38.2306 191.955 38.2306 192.17C38.2306 192.386 38.4052 192.56 38.6206 192.56Z" fill="#3FA9F5"/>
<path d="M44.2306 190.29C44.2306 190.08 44.4006 189.9 44.6206 189.9C44.8406 189.9 45.0106 190.07 45.0106 190.29C45.0106 190.5 44.8406 190.68 44.6206 190.68C44.4006 190.68 44.2306 190.51 44.2306 190.29Z" fill="#3FA9F5"/>
<path d="M18.5806 206.4C18.7959 206.4 18.9706 206.226 18.9706 206.01C18.9706 205.795 18.7959 205.62 18.5806 205.62C18.3652 205.62 18.1906 205.795 18.1906 206.01C18.1906 206.226 18.3652 206.4 18.5806 206.4Z" fill="#3FA9F5"/>
<path d="M26.3506 202.25C26.3506 202.04 26.5206 201.86 26.7406 201.86C26.9606 201.86 27.1306 202.03 27.1306 202.25C27.1306 202.46 26.9606 202.64 26.7406 202.64C26.5206 202.64 26.3506 202.47 26.3506 202.25Z" fill="#3FA9F5"/>
<path d="M33.5106 200.12C33.5106 199.91 33.6806 199.73 33.9006 199.73C34.1206 199.73 34.2906 199.9 34.2906 200.12C34.2906 200.34 34.1206 200.51 33.9006 200.51C33.6806 200.51 33.5106 200.34 33.5106 200.12Z" fill="#3FA9F5"/>
<path d="M29.1606 205.62C29.1606 205.41 29.3306 205.23 29.5506 205.23C29.7706 205.23 29.9406 205.4 29.9406 205.62C29.9406 205.83 29.7706 206.01 29.5506 206.01C29.3306 206.01 29.1606 205.84 29.1606 205.62Z" fill="#3FA9F5"/>
<path d="M33.1306 192.94C33.1306 192.73 33.3006 192.55 33.5206 192.55C33.7406 192.55 33.9106 192.72 33.9106 192.94C33.9106 193.15 33.7406 193.33 33.5206 193.33C33.3006 193.33 33.1306 193.16 33.1306 192.94Z" fill="#3FA9F5"/>
<path d="M43.4606 181.74C43.4606 181.53 43.6306 181.35 43.8506 181.35C44.0706 181.35 44.2406 181.52 44.2406 181.74C44.2406 181.95 44.0706 182.13 43.8506 182.13C43.6306 182.13 43.4606 181.96 43.4606 181.74Z" fill="#3FA9F5"/>
<path d="M52.6606 164.63C52.6606 164.42 52.8306 164.24 53.0506 164.24C53.2706 164.24 53.4406 164.41 53.4406 164.63C53.4406 164.85 53.2706 165.02 53.0506 165.02C52.8306 165.02 52.6606 164.85 52.6606 164.63Z" fill="#3FA9F5"/>
<path d="M53.4305 161.83C53.6459 161.83 53.8205 161.655 53.8205 161.44C53.8205 161.224 53.6459 161.05 53.4305 161.05C53.2151 161.05 53.0405 161.224 53.0405 161.44C53.0405 161.655 53.2151 161.83 53.4305 161.83Z" fill="#3FA9F5"/>
<path d="M56.4405 165.02C56.6559 165.02 56.8305 164.846 56.8305 164.63C56.8305 164.415 56.6559 164.24 56.4405 164.24C56.2251 164.24 56.0505 164.415 56.0505 164.63C56.0505 164.846 56.2251 165.02 56.4405 165.02Z" fill="#3FA9F5"/>
<path d="M48.4606 180.85C48.6759 180.85 48.8506 180.676 48.8506 180.46C48.8506 180.245 48.6759 180.07 48.4606 180.07C48.2452 180.07 48.0706 180.245 48.0706 180.46C48.0706 180.676 48.2452 180.85 48.4606 180.85Z" fill="#3FA9F5"/>
<path d="M5.56065 210.09C5.77604 210.09 5.95065 209.915 5.95065 209.7C5.95065 209.484 5.77604 209.31 5.56065 209.31C5.34526 209.31 5.17065 209.484 5.17065 209.7C5.17065 209.915 5.34526 210.09 5.56065 210.09Z" fill="#3FA9F5"/>
<path d="M4.01062 213.22C4.01062 213.01 4.18062 212.83 4.40062 212.83C4.62062 212.83 4.79062 213 4.79062 213.22C4.79062 213.44 4.62062 213.61 4.40062 213.61C4.18062 213.61 4.01062 213.44 4.01062 213.22Z" fill="#3FA9F5"/>
<path d="M8.1106 207.48C8.32599 207.48 8.5006 207.306 8.5006 207.09C8.5006 206.875 8.32599 206.7 8.1106 206.7C7.8952 206.7 7.72058 206.875 7.72058 207.09C7.72058 207.306 7.8952 207.48 8.1106 207.48Z" fill="#3FA9F5"/>
<path d="M23.6805 198.98C23.8959 198.98 24.0705 198.806 24.0705 198.59C24.0705 198.375 23.8959 198.2 23.6805 198.2C23.4651 198.2 23.2905 198.375 23.2905 198.59C23.2905 198.806 23.4651 198.98 23.6805 198.98Z" fill="#3FA9F5"/>
<path opacity="0.04" d="M-18.57 216.86C24.7457 216.86 59.86 181.746 59.86 138.43C59.86 95.1143 24.7457 60 -18.57 60C-61.8857 60 -97 95.1143 -97 138.43C-97 181.746 -61.8857 216.86 -18.57 216.86Z" stroke="white" stroke-width="3" stroke-miterlimit="10"/>
</g>
<g opacity="0.5">
<g opacity="0.1">
<path d="M30.31 68.8604C32.84 68.8604 34.9 70.9204 34.9 73.4504C34.9 75.9804 32.84 78.0404 30.31 78.0404C27.78 78.0404 25.72 75.9804 25.72 73.4504C25.72 70.9204 27.78 68.8604 30.31 68.8604ZM30.31 62.8604C24.46 62.8604 19.72 67.6004 19.72 73.4504C19.72 79.3004 24.46 84.0404 30.31 84.0404C36.16 84.0404 40.9 79.3004 40.9 73.4504C40.9 67.6004 36.16 62.8604 30.31 62.8604Z" fill="#3FA9F5"/>
<g opacity="0.27">
<path d="M30.31 68.8604C32.84 68.8604 34.9 70.9204 34.9 73.4504C34.9 75.9804 32.84 78.0404 30.31 78.0404C27.78 78.0404 25.72 75.9804 25.72 73.4504C25.72 70.9204 27.78 68.8604 30.31 68.8604ZM30.31 62.8604C24.46 62.8604 19.72 67.6004 19.72 73.4504C19.72 79.3004 24.46 84.0404 30.31 84.0404C36.16 84.0404 40.9 79.3004 40.9 73.4504C40.9 67.6004 36.16 62.8604 30.31 62.8604Z" fill="#A9FFF7"/>
</g>
</g>
<g opacity="0.5">
<path d="M30.34 83.3006C35.78 83.3006 40.19 78.8906 40.19 73.4506C40.19 68.0106 35.78 63.6006 30.34 63.6006C24.9 63.6006 20.49 68.0106 20.49 73.4506C20.49 78.8906 24.9 83.3006 30.34 83.3006Z" fill="url(#paint10_linear_384_333)"/>
</g>
<path d="M30.34 63.8008C35.66 63.8008 39.9899 68.1308 39.9899 73.4508C39.9899 78.7708 35.66 83.1008 30.34 83.1008C25.02 83.1008 20.6899 78.7708 20.6899 73.4508C20.6899 68.1308 25.02 63.8008 30.34 63.8008ZM30.34 63.3008C24.74 63.3008 20.1899 67.8408 20.1899 73.4508C20.1899 79.0608 24.73 83.6008 30.34 83.6008C35.95 83.6008 40.4899 79.0608 40.4899 73.4508C40.4899 67.8408 35.95 63.3008 30.34 63.3008Z" fill="url(#paint11_linear_384_333)"/>
<g opacity="0.27">
<path d="M30.34 63.8008C35.66 63.8008 39.9899 68.1308 39.9899 73.4508C39.9899 78.7708 35.66 83.1008 30.34 83.1008C25.02 83.1008 20.6899 78.7708 20.6899 73.4508C20.6899 68.1308 25.02 63.8008 30.34 63.8008ZM30.34 63.3008C24.74 63.3008 20.1899 67.8408 20.1899 73.4508C20.1899 79.0608 24.73 83.6008 30.34 83.6008C35.95 83.6008 40.4899 79.0608 40.4899 73.4508C40.4899 67.8408 35.95 63.3008 30.34 63.3008Z" fill="#A9FFF7"/>
</g>
<path d="M23.4499 74.1103C23.5991 74.1103 23.7199 73.9894 23.7199 73.8403C23.7199 73.6912 23.5991 73.5703 23.4499 73.5703C23.3008 73.5703 23.1799 73.6912 23.1799 73.8403C23.1799 73.9894 23.3008 74.1103 23.4499 74.1103Z" fill="#8DE4FF"/>
<g opacity="0.8">
<path d="M29.8699 69.9608C30.0411 69.9608 30.1799 69.822 30.1799 69.6508C30.1799 69.4796 30.0411 69.3408 29.8699 69.3408C29.6987 69.3408 29.5599 69.4796 29.5599 69.6508C29.5599 69.822 29.6987 69.9608 29.8699 69.9608Z" fill="white"/>
</g>
<g opacity="0.55">
<path d="M32.87 78.5808C33.0854 78.5808 33.26 78.4062 33.26 78.1908C33.26 77.9754 33.0854 77.8008 32.87 77.8008C32.6546 77.8008 32.48 77.9754 32.48 78.1908C32.48 78.4062 32.6546 78.5808 32.87 78.5808Z" fill="white"/>
</g>
<g opacity="0.55">
<path d="M25.5499 77.3904C25.9034 77.3904 26.1899 77.1038 26.1899 76.7504C26.1899 76.3969 25.9034 76.1104 25.5499 76.1104C25.1964 76.1104 24.9099 76.3969 24.9099 76.7504C24.9099 77.1038 25.1964 77.3904 25.5499 77.3904Z" fill="white"/>
</g>
<g opacity="0.3">
<path d="M36.2199 75.3007C36.3691 75.3007 36.4899 75.1799 36.4899 75.0307C36.4899 74.8816 36.3691 74.7607 36.2199 74.7607C36.0708 74.7607 35.95 74.8816 35.95 75.0307C35.95 75.1799 36.0708 75.3007 36.2199 75.3007Z" fill="#8DE4FF"/>
</g>
<g opacity="0.7">
<path d="M36.2199 69.6504C36.3691 69.6504 36.4899 69.5295 36.4899 69.3804C36.4899 69.2312 36.3691 69.1104 36.2199 69.1104C36.0708 69.1104 35.95 69.2312 35.95 69.3804C35.95 69.5295 36.0708 69.6504 36.2199 69.6504Z" fill="#8DE4FF"/>
</g>
<g opacity="0.5">
<path d="M25.95 67.2008C26.0494 67.2008 26.13 67.1202 26.13 67.0208C26.13 66.9214 26.0494 66.8408 25.95 66.8408C25.8506 66.8408 25.77 66.9214 25.77 67.0208C25.77 67.1202 25.8506 67.2008 25.95 67.2008Z" fill="#8DE4FF"/>
</g>
<g opacity="0.5">
<path d="M29.02 81.1803C29.1194 81.1803 29.2 81.0997 29.2 81.0003C29.2 80.9009 29.1194 80.8203 29.02 80.8203C28.9205 80.8203 28.84 80.9009 28.84 81.0003C28.84 81.0997 28.9205 81.1803 29.02 81.1803Z" fill="#8DE4FF"/>
</g>
<g opacity="0.5">
<path d="M29.3799 75.2106C29.4794 75.2106 29.56 75.13 29.56 75.0306C29.56 74.9312 29.4794 74.8506 29.3799 74.8506C29.2805 74.8506 29.2 74.9312 29.2 75.0306C29.2 75.13 29.2805 75.2106 29.3799 75.2106Z" fill="#8DE4FF"/>
</g>
<path opacity="0.5" d="M25.0799 73.4307C24.9999 74.4307 25.0799 75.4007 25.3099 76.3307L24.5199 76.4207C23.9799 75.2207 23.7199 73.8707 23.8299 72.4607C23.9599 70.8207 24.5699 69.3307 25.5199 68.1207C25.9199 68.3907 26.2899 68.6907 26.6199 69.0107C25.7599 70.2807 25.1999 71.7807 25.0699 73.4207L25.0799 73.4307ZM26.7699 68.8107C27.1999 68.2107 27.6999 67.6707 28.2499 67.2007L27.1899 66.5207C26.6299 66.9207 26.1299 67.3907 25.6899 67.9207C26.0799 68.1907 26.4399 68.4907 26.7699 68.8107ZM25.3299 68.0007C24.9299 67.7507 24.4999 67.5207 24.0399 67.3407C22.6299 68.8107 21.6999 70.7507 21.5299 72.9407C21.4299 74.2707 21.6099 75.5507 22.0299 76.7207L24.2699 76.4507C23.7099 75.2407 23.4499 73.8707 23.5599 72.4407C23.6899 70.7507 24.3399 69.2207 25.3299 67.9907V68.0007ZM25.4999 67.7907C25.9499 67.2707 26.4599 66.8107 27.0199 66.4107L26.0099 65.7607C25.3699 66.1407 24.7699 66.6007 24.2399 67.1207C24.6799 67.3107 25.0999 67.5307 25.4899 67.7907H25.4999Z" fill="url(#paint12_linear_384_333)"/>
</g>
<g opacity="0.2">
<g opacity="0.1">
<path d="M58.93 147.86C56.13 147.86 53.86 150.13 53.86 152.93C53.86 155.73 56.13 158 58.93 158C61.73 158 64 155.73 64 152.93C64 150.13 61.73 147.86 58.93 147.86Z" fill="#3FA9F5"/>
<g opacity="0.27">
<path d="M58.93 147.86C56.13 147.86 53.86 150.13 53.86 152.93C53.86 155.73 56.13 158 58.93 158C61.73 158 64 155.73 64 152.93C64 150.13 61.73 147.86 58.93 147.86Z" fill="#A9FFF7"/>
</g>
</g>
<g opacity="0.5">
<path d="M58.95 157.65C61.5568 157.65 63.67 155.537 63.67 152.93C63.67 150.323 61.5568 148.21 58.95 148.21C56.3432 148.21 54.23 150.323 54.23 152.93C54.23 155.537 56.3432 157.65 58.95 157.65Z" fill="url(#paint13_linear_384_333)"/>
</g>
<path d="M58.95 148.57C61.35 148.57 63.31 150.52 63.31 152.93C63.31 155.34 61.36 157.29 58.95 157.29C56.54 157.29 54.59 155.34 54.59 152.93C54.59 150.52 56.54 148.57 58.95 148.57ZM58.95 148.07C56.27 148.07 54.09 150.24 54.09 152.93C54.09 155.62 56.26 157.79 58.95 157.79C61.64 157.79 63.81 155.62 63.81 152.93C63.81 150.24 61.64 148.07 58.95 148.07Z" fill="url(#paint14_linear_384_333)"/>
<g opacity="0.27">
<path d="M58.95 148.57C61.35 148.57 63.31 150.52 63.31 152.93C63.31 155.34 61.36 157.29 58.95 157.29C56.54 157.29 54.59 155.34 54.59 152.93C54.59 150.52 56.54 148.57 58.95 148.57ZM58.95 148.07C56.27 148.07 54.09 150.24 54.09 152.93C54.09 155.62 56.26 157.79 58.95 157.79C61.64 157.79 63.81 155.62 63.81 152.93C63.81 150.24 61.64 148.07 58.95 148.07Z" fill="#A9FFF7"/>
</g>
<path d="M55.65 153.25C55.7218 153.25 55.78 153.192 55.78 153.12C55.78 153.048 55.7218 152.99 55.65 152.99C55.5782 152.99 55.52 153.048 55.52 153.12C55.52 153.192 55.5782 153.25 55.65 153.25Z" fill="#8DE4FF"/>
<g opacity="0.8">
<path d="M58.7199 151.26C58.8028 151.26 58.8699 151.193 58.8699 151.11C58.8699 151.027 58.8028 150.96 58.7199 150.96C58.6371 150.96 58.5699 151.027 58.5699 151.11C58.5699 151.193 58.6371 151.26 58.7199 151.26Z" fill="white"/>
</g>
<g opacity="0.55">
<path d="M60.16 155.391C60.2649 155.391 60.35 155.306 60.35 155.201C60.35 155.096 60.2649 155.011 60.16 155.011C60.055 155.011 59.97 155.096 59.97 155.201C59.97 155.306 60.055 155.391 60.16 155.391Z" fill="white"/>
</g>
<g opacity="0.55">
<path d="M56.65 154.82C56.8212 154.82 56.96 154.681 56.96 154.51C56.96 154.339 56.8212 154.2 56.65 154.2C56.4788 154.2 56.34 154.339 56.34 154.51C56.34 154.681 56.4788 154.82 56.65 154.82Z" fill="white"/>
</g>
<g opacity="0.3">
<path d="M61.76 153.821C61.8318 153.821 61.89 153.762 61.89 153.691C61.89 153.619 61.8318 153.561 61.76 153.561C61.6882 153.561 61.63 153.619 61.63 153.691C61.63 153.762 61.6882 153.821 61.76 153.821Z" fill="#8DE4FF"/>
</g>
<g opacity="0.7">
<path d="M61.76 151.111C61.8318 151.111 61.89 151.052 61.89 150.981C61.89 150.909 61.8318 150.851 61.76 150.851C61.6882 150.851 61.63 150.909 61.63 150.981C61.63 151.052 61.6882 151.111 61.76 151.111Z" fill="#8DE4FF"/>
</g>
<g opacity="0.5">
<path d="M56.85 149.951C56.8997 149.951 56.94 149.91 56.94 149.861C56.94 149.811 56.8997 149.771 56.85 149.771C56.8003 149.771 56.76 149.811 56.76 149.861C56.76 149.91 56.8003 149.951 56.85 149.951Z" fill="#8DE4FF"/>
</g>
<g opacity="0.5">
<path d="M58.32 156.64C58.3697 156.64 58.41 156.6 58.41 156.55C58.41 156.5 58.3697 156.46 58.32 156.46C58.2703 156.46 58.23 156.5 58.23 156.55C58.23 156.6 58.2703 156.64 58.32 156.64Z" fill="#8DE4FF"/>
</g>
<g opacity="0.5">
<path d="M58.49 153.781C58.5397 153.781 58.58 153.74 58.58 153.691C58.58 153.641 58.5397 153.601 58.49 153.601C58.4403 153.601 58.4 153.641 58.4 153.691C58.4 153.74 58.4403 153.781 58.49 153.781Z" fill="#8DE4FF"/>
</g>
<path opacity="0.5" d="M56.43 152.92C56.39 153.4 56.43 153.86 56.54 154.31L56.16 154.36C55.9 153.78 55.78 153.14 55.83 152.47C55.89 151.68 56.19 150.97 56.64 150.39C56.83 150.52 57.01 150.66 57.17 150.82C56.76 151.43 56.49 152.15 56.43 152.93V152.92ZM57.24 150.71C57.45 150.43 57.68 150.17 57.95 149.94L57.44 149.61C57.17 149.8 56.93 150.03 56.72 150.28C56.91 150.41 57.08 150.55 57.24 150.71ZM56.55 150.32C56.36 150.2 56.15 150.09 55.93 150C55.26 150.7 54.81 151.63 54.73 152.68C54.68 153.31 54.77 153.93 54.97 154.49L56.04 154.36C55.77 153.78 55.65 153.12 55.7 152.44C55.76 151.63 56.07 150.9 56.55 150.31V150.32ZM56.63 150.22C56.84 149.97 57.09 149.75 57.36 149.56L56.88 149.25C56.57 149.43 56.29 149.65 56.03 149.9C56.24 149.99 56.44 150.1 56.63 150.22Z" fill="url(#paint15_linear_384_333)"/>
</g>
<path d="M-52.7699 26.468C-41.3258 22.5274 -29.049 20.3896 -16.2656 20.3896C45.6853 20.3896 95.9001 70.6131 95.9001 132.555C95.9001 194.498 45.6767 244.721 -16.2656 244.721C-29.1692 244.721 -41.5577 242.541 -53.0962 238.54" stroke="url(#paint16_linear_384_333)" stroke-miterlimit="10"/>
<path d="M46.0553 82.0652C57.2762 96.0676 63.9898 113.83 63.9898 133.164C63.9898 152.498 57.2762 170.261 46.0553 184.263L46.0553 203.348L52.8634 209.882C74.2921 191.252 87.8481 163.788 87.8481 133.156C87.8481 102.524 73.9229 74.3299 51.9791 55.6914L46.0553 62.0273L46.0553 82.0652Z" fill="url(#paint17_linear_384_333)"/>
</g>
<defs>
<linearGradient id="paint0_linear_384_333" x1="-141.764" y1="144.261" x2="118.557" y2="133.38" gradientUnits="userSpaceOnUse">
<stop offset="0.25" stop-color="#2F65C3" stop-opacity="0"/>
<stop offset="0.41" stop-color="#2F65C3" stop-opacity="0.01"/>
<stop offset="0.52" stop-color="#2F65C3" stop-opacity="0.01"/>
<stop offset="0.62" stop-color="#2F65C3" stop-opacity="0.0196"/>
<stop offset="0.7" stop-color="#2F65C3" stop-opacity="0.0625"/>
<stop offset="0.78" stop-color="#2F65C3" stop-opacity="0.1521"/>
<stop offset="0.86" stop-color="#2F65C3" stop-opacity="0.3249"/>
<stop offset="0.93" stop-color="#2F65C3" stop-opacity="0.6084"/>
<stop offset="1" stop-color="#2F65C3"/>
</linearGradient>
<linearGradient id="paint1_linear_384_333" x1="-22.0001" y1="133.071" x2="87.3987" y2="133.384" gradientUnits="userSpaceOnUse">
<stop stop-color="#122043" stop-opacity="0"/>
<stop offset="0.186248" stop-color="#112145" stop-opacity="0.42"/>
<stop offset="0.7" stop-color="#0556A0" stop-opacity="0.8464"/>
<stop offset="1" stop-color="#006BC4"/>
</linearGradient>
<linearGradient id="paint2_linear_384_333" x1="54.72" y1="156.24" x2="61.26" y2="149.7" gradientUnits="userSpaceOnUse">
<stop stop-color="#00FFFF"/>
<stop offset="0.04" stop-color="#05E0EA"/>
<stop offset="0.09" stop-color="#0BBCD3"/>
<stop offset="0.14" stop-color="#119BBD"/>
<stop offset="0.2" stop-color="#1580AB"/>
<stop offset="0.28" stop-color="#196A9D"/>
<stop offset="0.36" stop-color="#1C5992"/>
<stop offset="0.46" stop-color="#1E4D8A"/>
<stop offset="0.6" stop-color="#1F4686"/>
<stop offset="1" stop-color="#204585"/>
</linearGradient>
<linearGradient id="paint3_linear_384_333" x1="54.62" y1="149.6" x2="61.35" y2="156.33" gradientUnits="userSpaceOnUse">
<stop stop-color="#D9FCFE"/>
<stop offset="0.02" stop-color="#B5E9FC"/>
<stop offset="0.03" stop-color="#95D7FA"/>
<stop offset="0.05" stop-color="#7AC9F8"/>
<stop offset="0.07" stop-color="#64BDF7"/>
<stop offset="0.09" stop-color="#53B4F6"/>
<stop offset="0.12" stop-color="#47ADF5"/>
<stop offset="0.16" stop-color="#40AAF5"/>
<stop offset="0.27" stop-color="#3FA9F5"/>
<stop offset="0.48" stop-color="#378FD8"/>
<stop offset="0.94" stop-color="#224E8F"/>
<stop offset="1" stop-color="#204585"/>
</linearGradient>
<linearGradient id="paint4_linear_384_333" x1="55.1818" y1="154.579" x2="55.5953" y2="149.325" gradientUnits="userSpaceOnUse">
<stop stop-color="white" stop-opacity="0"/>
<stop offset="0.09" stop-color="white" stop-opacity="0.01"/>
<stop offset="0.22" stop-color="white" stop-opacity="0.0121"/>
<stop offset="0.38" stop-color="white" stop-opacity="0.0625"/>
<stop offset="0.56" stop-color="white" stop-opacity="0.1936"/>
<stop offset="0.77" stop-color="white" stop-opacity="0.4761"/>
<stop offset="0.99" stop-color="white" stop-opacity="0.9604"/>
<stop offset="1" stop-color="white"/>
</linearGradient>
<linearGradient id="paint5_linear_384_333" x1="-13.06" y1="217.11" x2="-1.87002" y2="205.91" gradientUnits="userSpaceOnUse">
<stop stop-color="#00FFFF"/>
<stop offset="0.04" stop-color="#05E0EA"/>
<stop offset="0.09" stop-color="#0BBCD3"/>
<stop offset="0.14" stop-color="#119BBD"/>
<stop offset="0.2" stop-color="#1580AB"/>
<stop offset="0.28" stop-color="#196A9D"/>
<stop offset="0.36" stop-color="#1C5992"/>
<stop offset="0.46" stop-color="#1E4D8A"/>
<stop offset="0.6" stop-color="#1F4686"/>
<stop offset="1" stop-color="#204585"/>
</linearGradient>
<linearGradient id="paint6_linear_384_333" x1="-13.23" y1="205.75" x2="-1.69999" y2="217.27" gradientUnits="userSpaceOnUse">
<stop stop-color="#D9FCFE"/>
<stop offset="0.02" stop-color="#B5E9FC"/>
<stop offset="0.03" stop-color="#95D7FA"/>
<stop offset="0.05" stop-color="#7AC9F8"/>
<stop offset="0.07" stop-color="#64BDF7"/>
<stop offset="0.09" stop-color="#53B4F6"/>
<stop offset="0.12" stop-color="#47ADF5"/>
<stop offset="0.16" stop-color="#40AAF5"/>
<stop offset="0.27" stop-color="#3FA9F5"/>
<stop offset="0.48" stop-color="#378FD8"/>
<stop offset="0.94" stop-color="#224E8F"/>
<stop offset="1" stop-color="#204585"/>
</linearGradient>
<linearGradient id="paint7_linear_384_333" x1="66.43" y1="216.251" x2="66.43" y2="203.391" gradientUnits="userSpaceOnUse">
<stop stop-color="#00FFFF"/>
<stop offset="0.05" stop-color="#02F3F7"/>
<stop offset="0.3" stop-color="#0CB5CE"/>
<stop offset="0.53" stop-color="#1485AF"/>
<stop offset="0.73" stop-color="#1A6298"/>
<stop offset="0.89" stop-color="#1E4C8A"/>
<stop offset="1" stop-color="#204585"/>
</linearGradient>
<linearGradient id="paint8_linear_384_333" x1="61.7501" y1="205.14" x2="71.1101" y2="214.5" gradientUnits="userSpaceOnUse">
<stop stop-color="#D9FCFE"/>
<stop offset="0.02" stop-color="#B5E9FC"/>
<stop offset="0.03" stop-color="#95D7FA"/>
<stop offset="0.05" stop-color="#7AC9F8"/>
<stop offset="0.07" stop-color="#64BDF7"/>
<stop offset="0.09" stop-color="#53B4F6"/>
<stop offset="0.12" stop-color="#47ADF5"/>
<stop offset="0.16" stop-color="#40AAF5"/>
<stop offset="0.27" stop-color="#3FA9F5"/>
<stop offset="0.48" stop-color="#378FD8"/>
<stop offset="0.94" stop-color="#224E8F"/>
<stop offset="1" stop-color="#204585"/>
</linearGradient>
<linearGradient id="paint9_linear_384_333" x1="62.5275" y1="212.065" x2="63.1026" y2="204.757" gradientUnits="userSpaceOnUse">
<stop stop-color="white" stop-opacity="0"/>
<stop offset="0.09" stop-color="white" stop-opacity="0.01"/>
<stop offset="0.22" stop-color="white" stop-opacity="0.0121"/>
<stop offset="0.38" stop-color="white" stop-opacity="0.0625"/>
<stop offset="0.56" stop-color="white" stop-opacity="0.1936"/>
<stop offset="0.77" stop-color="white" stop-opacity="0.4761"/>
<stop offset="0.99" stop-color="white" stop-opacity="0.9604"/>
<stop offset="1" stop-color="white"/>
</linearGradient>
<linearGradient id="paint10_linear_384_333" x1="30.34" y1="83.3006" x2="30.34" y2="63.5906" gradientUnits="userSpaceOnUse">
<stop stop-color="#00FFFF"/>
<stop offset="0.05" stop-color="#02F3F7"/>
<stop offset="0.3" stop-color="#0CB5CE"/>
<stop offset="0.53" stop-color="#1485AF"/>
<stop offset="0.73" stop-color="#1A6298"/>
<stop offset="0.89" stop-color="#1E4C8A"/>
<stop offset="1" stop-color="#204585"/>
</linearGradient>
<linearGradient id="paint11_linear_384_333" x1="23.1699" y1="66.2708" x2="37.5199" y2="80.6208" gradientUnits="userSpaceOnUse">
<stop stop-color="#D9FCFE"/>
<stop offset="0.02" stop-color="#B5E9FC"/>
<stop offset="0.03" stop-color="#95D7FA"/>
<stop offset="0.05" stop-color="#7AC9F8"/>
<stop offset="0.07" stop-color="#64BDF7"/>
<stop offset="0.09" stop-color="#53B4F6"/>
<stop offset="0.12" stop-color="#47ADF5"/>
<stop offset="0.16" stop-color="#40AAF5"/>
<stop offset="0.27" stop-color="#3FA9F5"/>
<stop offset="0.48" stop-color="#378FD8"/>
<stop offset="0.94" stop-color="#224E8F"/>
<stop offset="1" stop-color="#204585"/>
</linearGradient>
<linearGradient id="paint12_linear_384_333" x1="24.3553" y1="76.8932" x2="25.2364" y2="65.6978" gradientUnits="userSpaceOnUse">
<stop stop-color="white" stop-opacity="0"/>
<stop offset="0.09" stop-color="white" stop-opacity="0.01"/>
<stop offset="0.22" stop-color="white" stop-opacity="0.0121"/>
<stop offset="0.38" stop-color="white" stop-opacity="0.0625"/>
<stop offset="0.56" stop-color="white" stop-opacity="0.1936"/>
<stop offset="0.77" stop-color="white" stop-opacity="0.4761"/>
<stop offset="0.99" stop-color="white" stop-opacity="0.9604"/>
<stop offset="1" stop-color="white"/>
</linearGradient>
<linearGradient id="paint13_linear_384_333" x1="58.95" y1="157.65" x2="58.95" y2="148.21" gradientUnits="userSpaceOnUse">
<stop stop-color="#00FFFF"/>
<stop offset="0.05" stop-color="#02F3F7"/>
<stop offset="0.3" stop-color="#0CB5CE"/>
<stop offset="0.53" stop-color="#1485AF"/>
<stop offset="0.73" stop-color="#1A6298"/>
<stop offset="0.89" stop-color="#1E4C8A"/>
<stop offset="1" stop-color="#204585"/>
</linearGradient>
<linearGradient id="paint14_linear_384_333" x1="55.51" y1="149.5" x2="62.38" y2="156.37" gradientUnits="userSpaceOnUse">
<stop stop-color="#D9FCFE"/>
<stop offset="0.02" stop-color="#B5E9FC"/>
<stop offset="0.03" stop-color="#95D7FA"/>
<stop offset="0.05" stop-color="#7AC9F8"/>
<stop offset="0.07" stop-color="#64BDF7"/>
<stop offset="0.09" stop-color="#53B4F6"/>
<stop offset="0.12" stop-color="#47ADF5"/>
<stop offset="0.16" stop-color="#40AAF5"/>
<stop offset="0.27" stop-color="#3FA9F5"/>
<stop offset="0.48" stop-color="#378FD8"/>
<stop offset="0.94" stop-color="#224E8F"/>
<stop offset="1" stop-color="#204585"/>
</linearGradient>
<linearGradient id="paint15_linear_384_333" x1="56.0886" y1="154.572" x2="56.5107" y2="149.208" gradientUnits="userSpaceOnUse">
<stop stop-color="white" stop-opacity="0"/>
<stop offset="0.09" stop-color="white" stop-opacity="0.01"/>
<stop offset="0.22" stop-color="white" stop-opacity="0.0121"/>
<stop offset="0.38" stop-color="white" stop-opacity="0.0625"/>
<stop offset="0.56" stop-color="white" stop-opacity="0.1936"/>
<stop offset="0.77" stop-color="white" stop-opacity="0.4761"/>
<stop offset="0.99" stop-color="white" stop-opacity="0.9604"/>
<stop offset="1" stop-color="white"/>
</linearGradient>
<linearGradient id="paint16_linear_384_333" x1="-53.2335" y1="132.555" x2="96.3294" y2="132.555" gradientUnits="userSpaceOnUse">
<stop stop-color="#0000FF" stop-opacity="0"/>
<stop offset="0.09" stop-color="#0505FE" stop-opacity="0.01"/>
<stop offset="0.22" stop-color="#1316FE" stop-opacity="0.01"/>
<stop offset="0.37" stop-color="#2C31FE" stop-opacity="0.0441"/>
<stop offset="0.53" stop-color="#4E57FD" stop-opacity="0.1369"/>
<stop offset="0.7" stop-color="#7988FC" stop-opacity="0.3249"/>
<stop offset="0.88" stop-color="#ADC3FB" stop-opacity="0.6724"/>
<stop offset="1" stop-color="#D5EFFB"/>
</linearGradient>
<linearGradient id="paint17_linear_384_333" x1="46.0553" y1="132.795" x2="87.8481" y2="132.795" gradientUnits="userSpaceOnUse">
<stop stop-color="#3FA9F5" stop-opacity="0"/>
<stop offset="0.17" stop-color="#3DA7F4" stop-opacity="0.01"/>
<stop offset="0.32" stop-color="#3AA4F1" stop-opacity="0.01"/>
<stop offset="0.45" stop-color="#359FED" stop-opacity="0.0256"/>
<stop offset="0.58" stop-color="#2D97E7" stop-opacity="0.0784"/>
<stop offset="0.71" stop-color="#228DDF" stop-opacity="0.1936"/>
<stop offset="0.83" stop-color="#1681D5" stop-opacity="0.4096"/>
<stop offset="0.94" stop-color="#0872CA" stop-opacity="0.7569"/>
<stop offset="1" stop-color="#006BC4"/>
</linearGradient>
</defs>
</svg>
