<?xml version="1.0" encoding="UTF-8"?>
<svg width="16px" height="16px" viewBox="0 0 16 16" version="1.1" xmlns="http://www.w3.org/2000/svg" xmlns:xlink="http://www.w3.org/1999/xlink">
    <title>开始漫游</title>
    <g id="后续新增页面" stroke="none" stroke-width="1" fill="none" fill-rule="evenodd">
        <g id="编组-44备份-4" transform="translate(0.000000, -4.000000)" fill="#4B4B4B" fill-rule="nonzero">
            <g id="编组" transform="translate(0.000000, 4.000000)">
                <path d="M1.14285714,16 L13.7142857,0 L14.8571429,0 L2.28571429,16 L1.14285714,16 Z M8,4.57142857 C6.78859561,4.56240815 5.66370943,5.19799758 5.04634127,6.2403212 C4.42897312,7.28264482 4.41219478,8.57456639 5.00228571,9.63257143 L3.31371429,11.7817143 C2.02321732,10.6970318 0.905785982,9.4217842 0,8 C0,8 3.11314286,2.28571429 8,2.28571429 C8.82276158,2.29148715 9.63703131,2.45259623 10.4,2.76057143 L8.87657143,4.7 C8.59126123,4.61899181 8.29655594,4.5757658 8,4.57142857 Z M8,11.4285714 C9.89354771,11.4285714 11.4285714,9.89354771 11.4285714,8 C11.4247784,7.42794832 11.2763671,6.86614796 10.9971429,6.36685714 L12.7411429,4.14742857 C14.0430858,5.23245198 15.1458842,6.53616343 16,8 C16,8 12.5668571,13.7142857 8,13.7142857 C7.1816103,13.7056498 6.3732023,13.5335159 5.62228571,13.208 L7.12057143,11.3011429 C7.40690064,11.381799 7.70255359,11.4246389 8,11.4285714 Z" id="形状"></path>
            </g>
        </g>
    </g>
</svg>