<?xml version="1.0" encoding="UTF-8"?>
<svg width="17px" height="17px" viewBox="0 0 17 17" version="1.1" xmlns="http://www.w3.org/2000/svg" xmlns:xlink="http://www.w3.org/1999/xlink">
    <title>预览路径</title>
    <g id="后续新增页面" stroke="none" stroke-width="1" fill="none" fill-rule="evenodd">
        <g id="首页备份" transform="translate(-1085.000000, -975.000000)" fill="#4B4B4B" fill-rule="nonzero">
            <g id="编组-7" transform="translate(1065.000000, 958.000000)">
                <g id="编组-44备份-3" transform="translate(20.000000, 14.000000)">
                    <g id="预览路径" transform="translate(0.000000, 3.345732)">
                        <path d="M5.49154311,0.65426787 C7.43784088,0.65426787 9.03099408,2.2525679 9.08655157,4.26089032 L9.08655157,4.26089032 L9.08694246,12.8419234 C9.11494983,13.4915492 9.45724859,14.088333 10.0046142,14.424547 C10.5975937,14.7887788 11.3361257,14.7887788 11.9291052,14.424547 C12.5220846,14.0603152 12.8743953,13.3902757 12.8471678,12.6785362 L12.8471678,12.6785362 L12.847,5.78526787 L14.556,5.78526787 L14.556006,12.6664332 C14.5023898,14.6014154 13.0167692,16.1544723 11.1654938,16.2558595 L10.9727219,16.2611256 C9.03283398,16.2611256 7.44490289,14.6681389 7.38943791,12.6664332 L7.38943791,12.6664332 L7.38943791,4.25786457 C7.34944131,3.20907487 6.5141772,2.38011713 5.49740533,2.38011713 C4.48063346,2.38011713 3.64536935,3.20907487 3.60537275,4.25786457 L3.60537275,4.25786457 L3.60537275,13.6377001 L4.0215906,13.2050173 C4.35869673,12.8908591 4.87514911,12.9044703 5.19628645,13.2359767 C5.51742379,13.5674832 5.53060929,14.1006111 5.2262775,14.448602 L5.2262775,14.448602 L3.3415727,16.3971871 C3.00865419,16.7399614 2.46980431,16.7399614 2.1368858,16.3971871 L2.1368858,16.3971871 L0.249249883,14.4516277 C-0.0842246053,14.1057147 -0.0829122937,13.5462335 0.252181014,13.2019916 C0.587274321,12.8577496 1.12925561,12.8591043 1.46273011,13.2050173 L1.46273011,13.2050173 L1.89653465,13.6679576 L1.89653465,4.26089032 C1.95209214,2.2525679 3.54524534,0.65426787 5.49154311,0.65426787 Z" id="形状结合"></path>
                        <path d="M13.7701826,1.36424205e-12 C15.1508076,1.36424205e-12 16.2701826,1.119375 16.2701826,2.5 C16.2701826,3.880625 15.1508076,5 13.7701826,5 C12.3895576,5 11.2701826,3.880625 11.2701826,2.5 C11.2701826,1.119375 12.3895576,1.36424205e-12 13.7701826,1.36424205e-12 Z M13.7701826,0.416666665 C12.6195576,0.416666665 11.6868493,1.349375 11.6868493,2.5 C11.6868493,3.650625 12.6195576,4.58333333 13.7701826,4.58333333 C14.9208076,4.58333333 15.853516,3.650625 15.853516,2.5 C15.853516,1.349375 14.9208076,0.416666665 13.7701826,0.416666665 Z M14.4814771,1.78870551 C14.5596173,1.86684566 14.603516,1.97282646 14.603516,2.08333333 L14.603516,2.91666667 C14.603516,3.02717354 14.5596173,3.13315434 14.4814771,3.21129449 C14.403337,3.28943465 14.2973562,3.33333333 14.1868493,3.33333333 L13.353516,3.33333333 C13.2430091,3.33333333 13.1370283,3.28943465 13.0588882,3.21129449 C12.980748,3.13315434 12.9368493,3.02717354 12.9368493,2.91666667 L12.9368493,2.08333333 C12.9368493,1.97282646 12.980748,1.86684566 13.0588882,1.78870551 C13.1370283,1.71056535 13.2430091,1.66666667 13.353516,1.66666667 L14.1868493,1.66666667 C14.2973562,1.66666667 14.403337,1.71056535 14.4814771,1.78870551 Z" id="形状" stroke="#4B4B4B" stroke-width="0.5"></path>
                    </g>
                </g>
            </g>
        </g>
    </g>
</svg>