<?xml version="1.0" encoding="UTF-8"?>
<svg width="16px" height="17px" viewBox="0 0 16 17" version="1.1" xmlns="http://www.w3.org/2000/svg" xmlns:xlink="http://www.w3.org/1999/xlink">
    <title>重制路径</title>
    <g id="后续新增页面" stroke="none" stroke-width="1" fill="none" fill-rule="evenodd">
        <g id="运行监测" transform="translate(-1508.000000, -941.000000)" fill="#FFFFFF" fill-rule="nonzero">
            <g id="编组-42" transform="translate(1508.000000, 939.000000)">
                <g id="重制路径" transform="translate(0.000000, 3.000000)">
                    <path d="M5.50854644,0.598425781 C7.46087049,0.598425781 9.05895653,2.13694681 9.11468604,4.07015474 L9.11468604,4.07015474 L9.11468604,12.1729671 C9.08737427,12.8580864 9.44077581,13.5030653 10.0355913,13.8536743 C10.6304067,14.2042832 11.3712255,14.2042832 11.966041,13.8536743 C12.5608564,13.5030653 12.914258,12.8580864 12.8869462,12.1729671 L12.886,5.53842578 L14.601,5.53842578 L14.6010754,12.1613168 C14.5472932,14.0239275 13.0570727,15.5188976 11.2000653,15.6164927 L11.0066965,15.6215619 C9.06080213,15.6215619 7.46795436,14.0881554 7.41231765,12.1613168 L7.41231765,12.1613168 L7.41231765,4.06724216 C7.37219721,3.05767888 6.53434689,2.2597255 5.51442681,2.2597255 C4.49450674,2.2597255 3.65665642,3.05767888 3.61653598,4.06724216 L3.61653598,4.06724216 L3.61653598,13.0962567 L4.03404256,12.679757 C4.37219246,12.3773488 4.89024392,12.3904509 5.21237559,12.7095585 C5.53450726,13.028666 5.54773358,13.5418541 5.2424595,13.8768296 L5.2424595,13.8768296 L3.35191913,15.7525345 C3.01796981,16.0824885 2.47745151,16.0824885 2.14350219,15.7525345 L2.14350219,15.7525345 L0.25002163,13.8797421 C-0.0844853879,13.5467668 -0.083169013,13.0082112 0.252961836,12.6768444 C0.589092684,12.3454777 1.1327521,12.3467817 1.46725913,12.679757 L1.46725913,12.679757 L1.90240685,13.1253825 L1.90240685,4.07015474 C1.95813635,2.13694681 3.5562224,0.598425781 5.50854644,0.598425781 Z" id="形状结合"></path>
                    <g id="编组" transform="translate(9.105263, 0.000000)" stroke="#FFFFFF" stroke-width="0.4">
                        <path d="M4.00394645,1.02897791 L2.33688595,1.02897791 L2.33688595,0.107430663 C2.33688595,0.0119044244 2.27140404,-0.0274299091 2.19228005,0.0203332102 L0.0613892983,1.28746067 C-0.0204630994,1.33522379 -0.0204630994,1.41389245 0.0613892983,1.46165557 L2.19228005,2.72878303 C2.27140404,2.77654615 2.33688595,2.73721182 2.33688595,2.64168558 L2.33688595,1.72013834 L4.00394645,1.72013834 C4.67513612,1.72013834 5.22354718,2.28205739 5.22354718,2.97602741 C5.22354718,3.66999744 4.67786453,4.23191649 4.00394645,4.23191649 L1.27826161,4.23191649 C1.09272951,4.23191649 0.94266678,4.38644423 0.94266678,4.57749671 C0.94266678,4.76854918 1.09272951,4.92307692 1.27826161,4.92307692 L4.00394645,4.92307692 C5.04620032,4.92307692 5.89473684,4.0492928 5.89473684,2.97602741 C5.89473684,1.90276203 5.04620032,1.02897791 4.00394645,1.02897791 L4.00394645,1.02897791 Z" id="路径"></path>
                    </g>
                </g>
            </g>
        </g>
    </g>
</svg>