<?xml version="1.0" encoding="UTF-8"?>
<svg width="16px" height="16px" viewBox="0 0 16 16" version="1.1" xmlns="http://www.w3.org/2000/svg" xmlns:xlink="http://www.w3.org/1999/xlink">
    <title>编组</title>
    <g id="后续新增页面" stroke="none" stroke-width="1" fill="none" fill-rule="evenodd">
        <g id="首页备份" transform="translate(-1189.000000, -975.000000)" fill="#4B4B4B" fill-rule="nonzero" stroke="#4B4B4B" stroke-width="0.2">
            <g id="编组-7" transform="translate(1065.000000, 958.000000)">
                <g id="编组-44备份-2" transform="translate(125.000000, 14.000000)">
                    <g id="形状结合" transform="translate(0.000000, 4.000000)">
                        <path d="M11.8076063,0 C13.0165548,0 14,0.98344519 14,2.19239374 L14,2.19239374 L14,11.8076063 C14,13.0165548 13.0165548,14 11.8076063,14 L11.8076063,14 L2.19239374,14 C0.98344519,14 0,13.0165548 0,11.8076063 L0,11.8076063 L0,2.19239374 C0,0.98344519 0.98344519,0 2.19239374,0 L2.19239374,0 Z M3.3606264,1.25279642 L2.19239374,1.25279642 C1.67404922,1.25279642 1.25279642,1.67404922 1.25279642,2.19239374 L1.25279642,2.19239374 L1.25279642,11.8076063 C1.25279642,12.3259508 1.67404922,12.7472036 2.19239374,12.7472036 L2.19239374,12.7472036 L11.8076063,12.7472036 C12.3259508,12.7472036 12.7472036,12.3259508 12.7472036,11.8076063 L12.7472036,11.8076063 L12.7472036,2.19239374 C12.7472036,1.67404922 12.3259508,1.25279642 11.8076063,1.25279642 L11.8076063,1.25279642 L10.6409396,1.25279642 L10.6409396,5.33691275 C10.6409396,6.52393736 9.67472036,7.4885906 8.48926174,7.4885906 L8.48926174,7.4885906 L5.51230425,7.4885906 C4.32527964,7.4885906 3.3606264,6.52237136 3.3606264,5.33691275 L3.3606264,5.33691275 L3.3606264,1.25279642 Z M9.38657718,1.25279642 L4.61185682,1.25279642 L4.61185682,5.33691275 C4.61185682,5.83333333 5.01588367,6.23579418 5.51073826,6.23579418 L5.51073826,6.23579418 L8.48769575,6.23579418 C8.98411633,6.23579418 9.38657718,5.83176734 9.38657718,5.33691275 L9.38657718,5.33691275 L9.38657718,1.25279642 Z M7.97561521,2.4163311 C8.32170022,2.4163311 8.60201342,2.6966443 8.60201342,3.04272931 L8.60201342,3.04272931 L8.60201342,4.51163311 C8.60201342,4.85771812 8.32170022,5.13803132 7.97561521,5.13803132 C7.6295302,5.13803132 7.349217,4.85615213 7.349217,4.51163311 L7.349217,4.51163311 L7.349217,3.04272931 C7.349217,2.6966443 7.6295302,2.4163311 7.97561521,2.4163311 Z"></path>
                    </g>
                </g>
            </g>
        </g>
    </g>
</svg>