<?xml version="1.0" encoding="UTF-8"?>
<svg width="17px" height="16px" viewBox="0 0 17 16" version="1.1" xmlns="http://www.w3.org/2000/svg" xmlns:xlink="http://www.w3.org/1999/xlink">
    <title>预览路径</title>
    <g id="后续新增页面" stroke="none" stroke-width="1" fill="none" fill-rule="evenodd">
        <g id="运行监测" transform="translate(-1402.000000, -942.000000)" fill="#FFFFFF" fill-rule="nonzero">
            <g id="编组-43" transform="translate(1402.000000, 939.000000)">
                <g id="预览路径" transform="translate(0.000000, 3.000000)">
                    <path d="M5.49154311,2.68451927e-13 C7.43784088,2.68451927e-13 9.03099408,1.59830003 9.08655157,3.60662245 L9.08655157,3.60662245 L9.08694246,12.1876555 C9.11494983,12.8372813 9.45724859,13.4340651 10.0046142,13.7702791 C10.5975937,14.134511 11.3361257,14.134511 11.9291052,13.7702791 C12.5220846,13.4060473 12.8743953,12.7360078 12.8471678,12.0242684 L12.8471678,12.0242684 L12.847,5.131 L14.556,5.131 L14.556006,12.0121654 C14.5023898,13.9471475 13.0167692,15.5002045 11.1654938,15.6015916 L10.9727219,15.6068577 C9.03283398,15.6068577 7.44490289,14.013871 7.38943791,12.0121654 L7.38943791,12.0121654 L7.38943791,3.6035967 C7.34944131,2.554807 6.5141772,1.72584926 5.49740533,1.72584926 C4.48063346,1.72584926 3.64536935,2.554807 3.60537275,3.6035967 L3.60537275,3.6035967 L3.60537275,12.9834322 L4.0215906,12.5507495 C4.35869673,12.2365912 4.87514911,12.2502024 5.19628645,12.5817089 C5.51742379,12.9132153 5.53060929,13.4463433 5.2262775,13.7943341 L5.2262775,13.7943341 L3.3415727,15.7429193 C3.00865419,16.0856936 2.46980431,16.0856936 2.1368858,15.7429193 L2.1368858,15.7429193 L0.249249883,13.7973598 C-0.0842246053,13.4514468 -0.0829122937,12.8919657 0.252181014,12.5477237 C0.587274321,12.2034818 1.12925561,12.2048365 1.46273011,12.5507495 L1.46273011,12.5507495 L1.89653465,13.0136897 L1.89653465,3.60662245 C1.95209214,1.59830003 3.54524534,2.68340905e-13 5.49154311,2.68451927e-13 Z" id="形状结合"></path>
                    <path d="M13.8518502,0.656913057 C11.9629619,0.656913057 10.7037005,2.57479892 10.7037005,2.57479892 C10.7037005,2.57479892 11.9629619,4.49268479 13.8518502,4.49268479 C15.7407386,4.49268479 17,2.57479892 17,2.57479892 C17,2.57479892 15.7398141,0.656913057 13.8518502,0.656913057 Z M13.8518502,3.83927265 C13.1600897,3.83927265 12.5990757,3.26965396 12.5990757,2.56726597 C12.5990757,1.86487797 13.160082,1.29525929 13.8518502,1.29525929 C14.5436108,1.29525929 15.1046248,1.86487797 15.1046248,2.56726597 C15.1036926,3.27058492 14.5436185,3.83927265 13.8518502,3.83927265 Z M13.2222157,2.57103633 C13.2222157,2.7376923 13.2899118,2.90339406 13.4058203,3.0210897 C13.5217288,3.13878534 13.6849328,3.2075129 13.8490691,3.2075129 C14.0132053,3.2075129 14.1764017,3.13877759 14.2923178,3.0210897 C14.4082263,2.90340181 14.4759224,2.7376923 14.4759224,2.57103633 C14.4759224,2.40438035 14.4082263,2.2386786 14.2923178,2.12098295 C14.1764093,2.00329507 14.0132053,1.93455975 13.8490691,1.93455975 C13.6849328,1.93455975 13.5217364,2.00329507 13.4058203,2.12098295 C13.2899118,2.23961731 13.2222157,2.40438035 13.2222157,2.57103633 L13.2222157,2.57103633 Z" id="形状"></path>
                </g>
            </g>
        </g>
    </g>
</svg>