<?xml version="1.0" encoding="UTF-8"?>
<svg width="15px" height="14px" viewBox="0 0 15 14" version="1.1" xmlns="http://www.w3.org/2000/svg" xmlns:xlink="http://www.w3.org/1999/xlink">
    <title>编组</title>
    <g id="后续新增页面" stroke="none" stroke-width="1" fill="none" fill-rule="evenodd">
        <g id="首页备份" transform="translate(-1295.000000, -976.000000)" fill="#4B4B4B" fill-rule="nonzero">
            <g id="编组-7" transform="translate(1065.000000, 958.000000)">
                <g id="编组-44备份" transform="translate(230.000000, 14.000000)">
                    <g id="编组" transform="translate(0.000000, 4.000000)">
                        <path d="M7.95676773,11.3996475 L9.85935966,13.3027622 L7.26113283,14 L7.95676773,11.3996475 Z M12.6305601,4.22994972e-14 C13.3854408,4.22994972e-14 13.9973063,0.612064761 13.9973063,1.36704641 C13.9973063,1.8725134 13.7231473,2.31388163 13.3154422,2.5504741 L13.3141009,6.09476186 L11.9470863,6.09476186 L11.945506,2.5504741 C11.738798,2.43054154 11.5664265,2.25798899 11.4466967,2.0511409 L2.55071129,2.0511409 C2.43058237,2.25865302 2.25747766,2.43164907 2.04990347,2.55162752 L2.04991092,11.4476547 C2.25748515,11.5676173 2.43058795,11.7405967 2.55071497,11.9481066 L6.02002393,11.9486838 L6.02002393,13.3158812 L2.55071129,13.3160812 C2.31429758,13.7243836 1.87270733,13.9991612 1.36699783,13.9991612 C0.611982928,13.9991612 0,13.3869119 0,12.632249 C0,12.126292 0.274665541,11.6846512 0.682994798,11.448231 L0.682994798,2.55105122 C0.274665541,2.31459984 0,1.87292468 0,1.36704641 L0,1.36704641 L0.00625731292,1.23539341 C0.0724929119,0.542175013 0.656395569,4.22994972e-14 1.36699783,4.22994972e-14 C1.87271856,4.22994972e-14 2.314305,0.274702268 2.55071497,0.683045773 L11.446693,0.683045773 C11.6830741,0.274702268 12.1246483,4.22994972e-14 12.6305601,4.22994972e-14 Z M12.0701404,7.23950616 L13.9965011,9.16619154 L10.0423305,13.1228705 L8.11563437,11.1959167 L12.0701404,7.23950616 Z M13.5183316,6.46546793 L13.5989739,6.53267235 L14.7049178,7.63874739 C14.9315682,7.8657133 14.9318198,8.2337507 14.7049178,8.4606495 L14.1802772,8.98539388 L14.179103,8.98348138 L12.2524907,7.05755093 L12.7771649,6.53267235 C12.9788556,6.33105909 13.2920218,6.30865761 13.5183316,6.46546793 Z" id="形状结合"></path>
                    </g>
                </g>
            </g>
        </g>
    </g>
</svg>