<?xml version="1.0" encoding="UTF-8"?>
<svg width="24px" height="24px" viewBox="0 0 24 24" version="1.1" xmlns="http://www.w3.org/2000/svg" xmlns:xlink="http://www.w3.org/1999/xlink">
    <title>model</title>
    <g id="后续新增页面" stroke="none" stroke-width="1" fill="none" fill-rule="evenodd">
        <g id="model">
            <circle id="椭圆形" fill="#166AEA" fill-rule="nonzero" cx="7" cy="7" r="7"></circle>
            <circle id="椭圆形备份-2" stroke="#9DC3FF" fill-opacity="0.7" fill="#9ABFF6" cx="13" cy="13" r="10"></circle>
            <g id="编组" transform="translate(7.000000, 7.000000)" fill="#FFFFFF" fill-rule="nonzero">
                <g id="形状">
                    <path d="M5.99999999,5.73333333 L7.99999999,4.58000001 L7.99999999,2.28 L5.99999999,1.12666666 L3.99999999,2.28 L5.99999999,3.38666667 L5.99999999,5.73333333 Z M3,10.8733333 L5,9.72 L5,7.41999999 L3,6.26666667 L0.999999996,7.41999999 L3,8.52666668 L3,10.8733333 Z M9,5.13999999 L12,6.85333334 L12,10.28 L8.99333333,12 L6,10.2866667 L3.00666667,12 L0,10.2866667 L0,6.85333334 L2.99333333,5.14666666 L2.99333333,1.71333333 L6,0 L9,1.71333333 L9,5.13999999 Z M8.99999999,10.8733333 L11,9.72 L11,7.41999999 L8.99999999,6.26666667 L6.99999999,7.41999999 L8.99999999,8.52666668 L8.99999999,10.8733333 Z"></path>
                </g>
            </g>
        </g>
    </g>
</svg>