<?xml version="1.0" encoding="UTF-8"?>
<svg width="16px" height="9px" viewBox="0 0 16 9" version="1.1" xmlns="http://www.w3.org/2000/svg" xmlns:xlink="http://www.w3.org/1999/xlink">
    <title>编组</title>
    <g id="登陆" stroke="none" stroke-width="1" fill="none" fill-rule="evenodd">
        <g id="登陆白色" transform="translate(-1506.000000, -595.000000)" fill="#FFFFFF" fill-rule="nonzero">
            <g id="编组" transform="translate(1506.000000, 595.000000)">
                <path d="M7.3300239,5.78072249 C6.71062588,5.73904672 6.10588815,5.63449172 5.52680597,5.47363785 L4.32759275,8.03852575 C4.24531706,8.2133637 4.09659137,8.34829676 3.91431769,8.41347422 C3.73204402,8.47865167 3.53124668,8.46870111 3.3563473,8.38582386 C2.99193397,8.21640783 2.83234147,7.78581948 2.99863578,7.4207007 L4.14947,4.95890549 C3.17119862,4.5 2.29984106,3.84229337 1.59124617,3.02792804 C1.0675074,2.42423099 0.656840096,1.73153482 0.37883866,0.982890552 C0.239576025,0.603717514 0.434844422,0.183729061 0.814982833,0.0448200872 C1.19512124,-0.0940888868 1.61617899,0.100683621 1.75544162,0.479856659 C1.97320583,1.06405251 2.29448992,1.60444013 2.70396358,2.07523449 C3.9163711,3.48489922 5.84713372,4.34034929 7.95528606,4.34034929 C10.0641714,4.34034929 11.994934,3.48416806 13.2073416,2.07523449 C13.6168152,1.60444012 13.9380993,1.06405251 14.1558635,0.479856659 C14.2951261,0.100683631 14.7161839,-0.0940888666 15.0963223,0.0448201049 C15.4764607,0.183729076 15.6717291,0.603717518 15.5324665,0.982890552 C15.254465,1.73153482 14.8437977,2.42423098 14.320059,3.02792804 C14.2164253,3.14839811 14.1088586,3.26544565 13.9975322,3.37888191 L15.7904879,5.16728436 C16.0718248,5.45360518 16.0695359,5.91250345 15.7853568,6.1960179 C15.6494561,6.33345772 15.4642766,6.41125506 15.270746,6.41221546 C15.0772154,6.41317585 14.8912691,6.33722022 14.7540041,6.20113599 L12.8701545,4.32207045 C12.5183071,4.56335124 12.1444692,4.77757933 11.753039,4.96329242 L12.9024071,7.41996954 C13.0691896,7.78528032 12.9095213,8.21639949 12.5446956,8.38582386 C12.3697962,8.4687011 12.1689989,8.47865166 11.9867252,8.41347421 C11.8044516,8.34829676 11.6557259,8.2133637 11.5734502,8.03852575 L10.375703,5.47583132 C9.85887992,5.61891279 9.33019963,5.71532626 8.79605476,5.76390594 L8.79605476,8.00269922 C8.79243431,8.40393221 8.46531015,8.72727273 8.06303933,8.72727273 C7.65548275,8.72727273 7.3300239,8.40264039 7.3300239,8.00343036 L7.3300239,5.78072249 Z" id="路径"></path>
                <path d="M2.29274193,3.09007611 C2.42990978,2.95389563 2.61580124,2.87780885 2.80933163,2.87862544 C3.00286203,2.87945524 3.18809616,2.95712062 3.32409463,3.09446303 C3.60875728,3.37806239 3.61104733,3.8375192 3.32922574,4.12392774 L1.24672893,6.20113599 C1.10943421,6.3374451 0.923330063,6.41354331 0.729619412,6.41259169 C0.535908761,6.4116221 0.350572379,6.33368192 0.214643212,6.1960179 C-0.0695359366,5.91250345 -0.0718248278,5.45360518 0.209512098,5.16728436 L2.29274193,3.08934496 L2.29274193,3.09007611 Z" id="路径"></path>
            </g>
        </g>
    </g>
</svg>