<?xml version="1.0" encoding="UTF-8"?>
<svg width="17px" height="16px" viewBox="0 0 17 16" version="1.1" xmlns="http://www.w3.org/2000/svg" xmlns:xlink="http://www.w3.org/1999/xlink">
    <title>编组</title>
    <g id="后续新增页面" stroke="none" stroke-width="1" fill="none" fill-rule="evenodd">
        <g id="历史回放" transform="translate(-292.000000, -1040.000000)" fill="#FFFFFF" fill-rule="nonzero">
            <g id="编组-5" transform="translate(284.000000, 1032.000000)">
                <g id="编组" transform="translate(8.000000, 8.000000)">
                    <path d="M1.92900329,4.98786962 C1.59697262,5.40129301 1.61898151,5.99679012 1.98061034,6.38471938 L4.40139847,8.98055406 L4.39817303,8.98588119 L9.84783973,14.7618226 C10.1874749,14.9665817 10.6124815,14.9649685 10.950561,14.757637 L12.0671327,14.0736715 L2.49725005,4.279932 L1.92900329,4.98786962 L1.92900329,4.98786962 Z M4.11774941,9.4613276 L3.09699229,11.1956891 L2.12670383,11.1956891 L2.12670383,10.6683032 C2.12670383,10.079465 1.65066672,9.60211606 1.06344678,9.60211606 C0.476037105,9.60211606 0,10.079465 0,10.6684935 L0,14.9336226 C0,15.522651 0.476037105,16 1.06344678,16 C1.65066672,16 2.12670383,15.522651 2.12670383,14.9336226 L2.12670383,13.3021888 L3.7430291,13.3021888 C3.82385485,13.3021888 3.90259355,13.2932469 3.9781068,13.2755532 C4.26768899,13.2127721 4.51789268,13.0314143 4.66816139,12.7753736 L5.65856142,11.0939029 L4.11831861,9.4613276 L4.11774941,9.4613276 L4.11774941,9.4613276 Z M16.6829281,9.691726 L7.1866614,0.306843787 C7.16125814,0.281720493 7.13459806,0.257907951 7.10678431,0.235498287 C6.64915119,-0.133595767 5.97977737,-0.060918484 5.61169767,0.397975773 L3.16510601,3.44756783 L12.9930239,13.5051906 L16.4914887,11.3610205 C16.5652944,11.3157398 16.6334081,11.2615173 16.694312,11.1996845 C17.1062197,10.780173 17.1012867,10.1049591 16.6829281,9.691726 Z" id="形状"></path>
                </g>
            </g>
        </g>
    </g>
</svg>