<?xml version="1.0" encoding="UTF-8"?>
<svg width="24px" height="24px" viewBox="0 0 24 24" version="1.1" xmlns="http://www.w3.org/2000/svg" xmlns:xlink="http://www.w3.org/1999/xlink">
    <title>Operationlog</title>
    <g id="后续新增页面" stroke="none" stroke-width="1" fill="none" fill-rule="evenodd">
        <g id="Operationlog">
            <circle id="椭圆形" fill="#166AEA" fill-rule="nonzero" cx="7" cy="7" r="7"></circle>
            <circle id="椭圆形备份-2" stroke="#9DC3FF" fill-opacity="0.7" fill="#9ABFF6" cx="13" cy="13" r="10"></circle>
            <g id="编组" transform="translate(8.000000, 7.000000)" fill="#FFFFFF" fill-rule="nonzero">
                <path d="M9.00668305,0 L3.58418561,0 C1.61292372,0 6.66133815e-16,1.68369531 6.66133815e-16,3.74145189 L6.66133815e-16,10.4409918 C6.66133815e-16,11.2983624 0.671984564,12 1.49347765,12 L6.93269433,12 C8.8947928,12 10.5,10.324192 10.5,8.27616876 L10.5,1.55900821 C10.5001607,0.701469786 9.82801538,0 9.00668305,0 Z M5.67441128,8.64804844 L2.5617402,8.64804844 C2.34535473,8.64804844 2.17012431,8.4652971 2.17012431,8.2392493 C2.17012431,8.01336931 2.34519397,7.83045017 2.5617402,7.83045017 L5.67441128,7.83045017 C5.89079673,7.83045017 6.06602717,8.01320151 6.06602717,8.2392493 C6.0658664,8.4652971 5.89079673,8.64804844 5.67441128,8.64804844 Z M7.74952533,6.36491532 L2.5617402,6.36491532 C2.34535473,6.36491532 2.17012431,6.18216399 2.17012431,5.95611618 C2.17012431,5.73023621 2.34519397,5.54731704 2.5617402,5.54731704 L7.74952533,5.54731704 C7.96591079,5.54731704 8.14114121,5.73006839 8.14114121,5.95611618 C8.14114121,6.18199617 7.96607156,6.36491532 7.74952533,6.36491532 Z M7.74952533,4.08211784 L2.5617402,4.08211784 C2.34535473,4.08211784 2.17012431,3.89936649 2.17012431,3.67331869 C2.17012431,3.4472709 2.34519397,3.26451955 2.5617402,3.26451955 L7.74952533,3.26451955 C7.96591079,3.26451955 8.14114121,3.4472709 8.14114121,3.67331869 C8.14114121,3.89936649 7.96607156,4.08211784 7.74952533,4.08211784 Z" id="形状"></path>
            </g>
        </g>
    </g>
</svg>