<?xml version="1.0" encoding="UTF-8"?>
<svg width="44px" height="44px" viewBox="0 0 44 44" version="1.1" xmlns="http://www.w3.org/2000/svg" xmlns:xlink="http://www.w3.org/1999/xlink">
    <title>编组 25备份</title>
    <g id="页面调整" stroke="none" stroke-width="1" fill="none" fill-rule="evenodd">
        <g id="部门效率" transform="translate(-572.000000, -286.000000)">
            <g id="编组-10备份-4" transform="translate(554.000000, 267.913348)">
                <g id="编组-25备份" transform="translate(18.612905, 18.728108)">
                    <rect id="矩形" x="0" y="0" width="42.5437832" height="42.5437832"></rect>
                    <g id="编组-11" transform="translate(7.976959, 5.317973)">
                        <path d="M0.0203713406,5.83181923 C-0.243472713,3.6642404 2.10473942,2.14177433 4.21549191,2.47723295 C4.79594883,2.58045098 5.00702408,2.94171414 5.03340848,3.45780433 C5.08617729,4.36096218 5.03340848,5.26412 5.05979289,6.16727785 C5.11256173,8.54129276 6.48455084,9.93473629 8.91191619,9.9605408 C11.761432,10.0121498 14.5845635,9.9605408 17.4340793,9.98634531 C19.623985,10.0121498 21.4972778,8.51548825 21.3389714,6.16727785 C21.2862026,5.31572902 21.312587,4.43837571 21.3653558,3.56102236 C21.4181246,2.78688706 21.6555843,2.58045098 22.4471164,2.50303745 C24.3995625,2.29660138 26.6158526,3.56102236 26.5894682,6.14147334 C26.5630838,13.108691 26.5630838,20.0759087 26.5894682,27.0689308 C26.6158526,29.0300736 25.3230167,30.6041487 23.2386486,30.5009306 C16.95916,30.5009306 9.28129787,30.5783442 2.97542483,30.5783442 L2.97542483,30.5783442 L3.10734686,30.5525397 C2.44773673,30.5525397 2.02558621,30.4493216 1.55066691,30.113863 C0.468906232,29.4171412 -0.111550686,28.4881789 0.0203713406,27.1979534 L0.0203713406,27.1979534 Z M19.2018345,22.0628559 C15.5607865,22.1144649 11.9197385,22.0886604 8.27869043,22.0886604 C6.24709116,22.0886604 6.29985997,22.0886604 6.27347556,24.0756077 C6.27347556,24.6433069 6.48455084,24.7207204 6.98585454,24.7207204 C9.01745381,24.6691114 11.0490531,24.6949159 13.0806523,24.6949159 L13.0806523,24.6949159 L18.4324289,24.694456 C19.9109476,24.6880175 19.989315,24.5914396 19.9931928,23.1427709 L19.9933667,22.8111867 C20.0197511,22.1402695 19.7822914,22.0628559 19.2018345,22.0628559 Z M19.4129098,15.3536834 C17.5923858,15.3794879 15.7718617,15.385939 13.9513377,15.385939 L8.48976567,15.3794879 L8.48976567,15.3794879 L8.13835831,15.3799245 C6.43788751,15.3866913 6.48295178,15.498345 6.45816643,17.3406306 C6.45816643,17.8825253 6.61647286,18.0115479 7.14416097,18.0115479 C9.20214465,17.9599389 11.2601283,17.9857434 13.318112,17.9857434 L13.318112,17.9857434 L18.5953861,17.9852835 C20.20135,17.9783851 20.1797066,17.8680103 20.204442,16.1020141 C20.204442,15.5085104 20.0197511,15.3536834 19.4129098,15.3536834 Z M13.2389588,9.25837185e-12 C14.7956387,9.25837185e-12 15.851015,0.825744325 16.3523187,2.24499236 C16.4842407,2.58045098 16.6425471,2.68366902 17.0119288,2.68366902 C17.8562298,2.65786451 18.6741464,2.70947353 19.5184474,2.65786451 C20.1780576,2.63206 20.4946704,2.81269157 20.4419016,3.53521785 C20.3891328,4.54159374 20.4419016,5.54796963 20.4155172,6.55434549 C20.3891328,8.10261608 19.623985,8.87675138 18.0673051,8.90255589 C16.4578563,8.95416491 14.7956387,8.9283604 13.1334211,8.9283604 L8.35784365,8.9283604 C6.56370405,8.90255589 5.82494067,8.20583411 5.82494067,6.45112746 C5.82494067,5.52216509 5.85132508,4.59320273 5.79855627,3.6642404 C5.77217186,3.07073669 6.00963151,2.83849607 6.56370405,2.76108255 C7.46077386,2.60625549 8.33145924,2.68366902 9.22852905,2.68366902 C9.67706395,2.68366902 9.91452362,2.58045098 10.0992145,2.14177433 C10.6796714,0.825744325 11.7086632,9.25837185e-12 13.2389588,9.25837185e-12 Z" id="形状结合" fill="#FFFFFF" fill-rule="nonzero"></path>
                        <g id="编组" transform="translate(17.292825, 21.340872)"></g>
                        <g id="编组" transform="translate(17.345252, 22.455923)"></g>
                    </g>
                </g>
            </g>
        </g>
    </g>
</svg>