<?xml version="1.0" encoding="UTF-8"?>
<svg width="24px" height="24px" viewBox="0 0 24 24" version="1.1" xmlns="http://www.w3.org/2000/svg" xmlns:xlink="http://www.w3.org/1999/xlink">
    <title>Parkingspace</title>
    <g id="后续新增页面" stroke="none" stroke-width="1" fill="none" fill-rule="evenodd">
        <g id="Parkingspace">
            <circle id="椭圆形" fill="#166AEA" fill-rule="nonzero" cx="7" cy="7" r="7"></circle>
            <circle id="椭圆形备份-2" stroke="#9DC3FF" fill-opacity="0.7" fill="#9ABFF6" cx="13" cy="13" r="10"></circle>
            <g id="编组" transform="translate(7.000000, 7.000000)" fill="#FFFFFF" fill-rule="nonzero">
                <path d="M6,0 C8.14359347,0 10.1243556,1.1435935 11.1961524,3 C12.2679492,4.85640645 12.2679492,7.14359355 11.1961524,9 C10.1243556,10.8564065 8.14359347,12 6,12 C2.68629144,12 0,9.31370847 0,6 C0,2.68629153 2.68629144,0 6,0 Z M6.21224991,3 L4.12499991,3 L4.12499991,9.4425 L5.42549991,9.4425 L5.42549991,7.0125 L6.27374991,7.0125 C6.86249991,7.0125 7.31249991,6.98175 7.62374991,6.92025 C7.8517499,6.87 8.07674991,6.76800002 8.29724991,6.61425 C8.51849991,6.4605 8.70149991,6.249 8.84474991,5.97975 C8.98799993,5.70975 9.05999991,5.3775 9.05999991,4.98225 C9.05999991,4.46925 8.93549991,4.05075 8.68649991,3.7275 C8.45833752,3.41782721 8.13130807,3.1953096 7.75949991,3.09675 C7.53899991,3.0375 7.08749991,3.00525 6.40424991,3.00075 L6.21224991,3 Z M6.98999991,4.134 C7.19180597,4.16678112 7.37643673,4.26729644 7.51349991,4.419 C7.65074992,4.57199999 7.71974991,4.7655 7.71974991,4.9995 C7.71974991,5.19 7.67099991,5.35725 7.57274991,5.5005 C7.47449991,5.64375 7.33874991,5.7495 7.16624991,5.817 C6.99374991,5.8845 6.65024989,5.91825 6.13799991,5.91825 L5.42549991,5.91825 L5.42549991,4.08975 L6.05399991,4.08975 C6.52274991,4.08975 6.83474991,4.10475 6.98999991,4.134 L6.98999991,4.134 Z" id="形状"></path>
            </g>
        </g>
    </g>
</svg>