<?xml version="1.0" encoding="UTF-8"?>
<svg width="24px" height="24px" viewBox="0 0 24 24" version="1.1" xmlns="http://www.w3.org/2000/svg" xmlns:xlink="http://www.w3.org/1999/xlink">
    <title>Passengerflowsystem</title>
    <g id="后续新增页面" stroke="none" stroke-width="1" fill="none" fill-rule="evenodd">
        <g id="Passengerflowsystem">
            <circle id="椭圆形" fill="#166AEA" fill-rule="nonzero" cx="7" cy="7" r="7"></circle>
            <circle id="椭圆形备份-2" stroke="#9DC3FF" fill-opacity="0.7" fill="#9ABFF6" cx="13" cy="13" r="10"></circle>
            <g id="编组" transform="translate(8.000000, 8.000000)" fill="#FFFFFF" fill-rule="nonzero">
                <path d="M8.81572555,0.000624024961 C9.09634509,0.000624024961 9.3292104,0.196860615 9.37749381,0.455222357 L9.38668057,0.55475819 L9.38668057,2.0374415 C9.38668057,2.34383775 9.13142252,2.59157566 8.81572555,2.59157566 C8.55054009,2.59157566 8.32800034,2.41633149 8.26357637,2.17902092 C8.26308946,2.17525249 8.26099175,2.16698401 8.25906625,2.15865791 L8.25202981,2.12334951 L8.25,2.115 L8.25,2.11125 L8.24833569,2.09907869 L8.24833569,2.09907869 L8.24664774,2.08086611 L8.24664774,2.08086611 L8.24875,2.09875 L8.24477054,2.0374415 L8.24477054,2.0374415 L8.24477054,1.91201247 L6.21106475,3.74040561 C6.1231447,3.81960139 6.0154129,3.86723567 5.90363347,3.88265599 L5.79108869,3.88731415 C5.71593785,3.88322871 5.64132347,3.86472929 5.57191645,3.83162256 L5.47229525,3.77098284 L4.93606046,3.36536661 L4.66087044,3.15694227 L1.85624679,5.60811232 C1.74694234,5.70358814 1.61063325,5.75039216 1.47432417,5.75039216 L1.47432417,5.75039216 C1.3124012,5.75070032 1.15803027,5.68396099 1.04996571,5.56692667 C0.865547896,5.36784727 0.857036465,5.07482655 1.01469053,4.86748881 L1.09240155,4.78439937 L4.25322912,2.0224649 L4.34716394,1.9558052 L4.34716394,1.9558052 L4.44970515,1.90998412 C4.52082346,1.88640865 4.5958452,1.87680265 4.67024475,1.88132026 L4.7814547,1.89870862 C4.81777767,1.90804849 4.8533794,1.92093852 4.88769417,1.93739797 L4.98556895,1.9975039 L5.55266617,2.4274571 L5.55266617,2.4274571 L5.79185004,2.60780031 L7.45970737,1.10889236 L7.22823912,1.10889236 L7.12551252,1.09997625 C6.85896947,1.05311531 6.6572841,0.827110417 6.6572841,0.55475819 C6.6572841,0.384538049 6.7362659,0.232422334 6.86049355,0.130832097 L6.93971347,0.0761541572 C6.99604059,0.0440130197 7.05853807,0.0209728882 7.12506095,0.00912240605 L7.22759616,-3.88578059e-15 L8.81572555,0.000624024961 Z M8.0232448,3.19482675 C8.06645436,3.181679 8.10102947,3.17691107 8.13675201,3.17691107 L8.05375,3.18625 C8.08537422,3.17949976 8.11107311,3.17691107 8.13739499,3.17691107 L9.60786135,3.17691107 C9.78835415,3.17691107 9.93955454,3.29863192 9.97907112,3.46210954 L9.989141,3.54695787 L9.989141,6.18034321 L9.9875,6.18375 L9.98849802,8.89173167 L10.679045,8.89173167 C10.9947419,8.89173167 11.25,9.13946957 11.25,9.44586584 C11.25,9.75226209 10.994099,10 10.679045,10 L10.679045,10 L0.570955021,10 C0.255258044,10 0,9.75226209 0,9.44586584 C0,9.13946957 0.255901011,8.89173167 0.570955021,8.89173167 L0.570955021,8.89173167 L1.2312825,8.89173167 L1.2312825,7.32230889 C1.2312825,7.14713357 1.35669821,7.00038769 1.52513822,6.96203529 L1.61256215,6.95226209 L3.08302852,6.95226209 C3.26352132,6.95226209 3.41472171,7.07398294 3.4542383,7.23746055 L3.46430816,7.32230889 L3.46430816,8.89173167 L4.472481,8.89173167 L4.472481,5.41154446 C4.472481,5.23636914 4.5978967,5.08962325 4.76633672,5.05127086 L4.85376065,5.04149766 L6.32422701,5.04149766 C6.50471981,5.04149766 6.6559202,5.16321851 6.69543679,5.32669612 L6.70550666,5.41154446 L6.70550666,8.89173167 L7.75611534,8.89173167 L7.75611534,3.54695787 L7.75868047,3.5038026 L7.75868047,3.5038026 C7.76110947,3.47975131 7.76623597,3.45714329 7.77338472,3.43541009 L7.78307925,3.40845001 C7.78804707,3.39651282 7.79363789,3.38488466 7.79981256,3.37360347 L7.77338472,3.43541009 C7.78373762,3.40384599 7.7983887,3.37400419 7.81668201,3.34659002 C7.8389462,3.3122695 7.86755231,3.2817539 7.90057954,3.25642987 C7.90202764,3.25580925 7.90341054,3.2547597 7.90480104,3.25371926 C7.91149105,3.24836106 7.91307526,3.24723945 7.91466866,3.24612946 C7.91697624,3.24585006 7.91873349,3.24465456 7.92050154,3.24347311 C7.93355476,3.23408624 7.94719651,3.22588571 7.961359,3.21865616 C7.9661062,3.215907 7.9711387,3.21350337 7.97623222,3.2112057 C7.97825464,3.21058169 7.97996995,3.20982102 7.98169201,3.20907239 L7.9975,3.2025 L8.005,3.2 L8.0232448,3.19482675 L8.0232448,3.19482675 Z" id="形状结合"></path>
            </g>
        </g>
    </g>
</svg>