<?xml version="1.0" encoding="UTF-8"?>
<svg width="30px" height="30px" viewBox="0 0 30 30" version="1.1" xmlns="http://www.w3.org/2000/svg" xmlns:xlink="http://www.w3.org/1999/xlink">
    <title>Pdf</title>
    <g id="黑色版本" stroke="none" stroke-width="1" fill="none" fill-rule="evenodd">
        <g id="切换" transform="translate(-681.000000, -350.000000)" fill-rule="nonzero">
            <g id="编组备份-4" transform="translate(579.000000, 239.000000)">
                <g id="Pdf" transform="translate(102.000000, 111.000000)">
                    <rect id="矩形" fill="#FFFFFF" opacity="0.01" x="0" y="0" width="30" height="30"></rect>
                    <path d="M26.421428,27.1428599 C26.421428,27.5217402 26.2708945,27.8851026 26.0029856,28.1530115 C25.7350767,28.4209203 25.3717144,28.5714299 24.992834,28.5714299 L4.99285307,28.5714299 C4.61397272,28.5714299 4.25061034,28.4209203 3.98270148,28.1530114 C3.71479262,27.8851026 3.56428301,27.5217402 3.56428301,27.1428599 L3.56428301,1.42859865 C3.56428301,1.04971831 3.71479262,0.686355919 3.98270148,0.418447058 C4.25061034,0.150538196 4.61397272,4.65556631e-06 4.99285307,4.65556631e-06 L17.26427,4.65556631e-06 C17.6439881,-0.00216680035 18.0089566,0.146904836 18.2785547,0.414313887 L26.0071188,8.14287797 C26.2745278,8.41247604 26.4235995,8.77744452 26.421428,9.15716271 L26.421428,27.1428599 L26.421428,27.1428599 Z" id="路径" fill="#F1F1F1"></path>
                    <path d="M26.4214041,27.1428599 L26.4214041,28.5714299 C26.4214041,28.9503103 26.2708945,29.3136727 26.0029856,29.5815815 C25.7350767,29.8494904 25.3717143,30 24.992834,30 L4.99285307,30 C4.20387561,30 3.56428301,29.3604074 3.56428301,28.5714299 L3.56428301,27.1428599 C3.56428301,27.5217402 3.71479262,27.8851026 3.98270148,28.1530114 C4.25061034,28.4209203 4.61397272,28.5714299 4.99285307,28.5714299 L24.992834,28.5714299 C25.3717144,28.5714299 25.7350767,28.4209203 26.0029856,28.1530115 C26.2708945,27.8851026 26.4214041,27.5217402 26.4214041,27.1428599 L26.4214041,27.1428599 Z" id="路径" fill="#C1C7D0"></path>
                    <path d="M0.707142861,15.7142993 L29.2785442,15.7142993 L29.2785442,22.8571496 C29.2785442,23.23603 29.1280346,23.5993924 28.8601257,23.8673012 C28.5922169,24.1352101 28.2288545,24.2857197 27.8499742,24.2857197 L2.13571292,24.2857197 C1.75683258,24.2857197 1.39347019,24.1352101 1.12556133,23.8673012 C0.857652478,23.5993924 0.707142861,23.23603 0.707142861,22.8571496 L0.707142861,15.7142993 L0.707142861,15.7142993 Z" id="路径" fill="#FF6030"></path>
                    <path d="M3.56428301,15.7142993 L3.56428301,12.8571592 L0.707142861,15.7142993 L3.56428301,15.7142993 Z M26.4214041,15.7142993 L26.4499755,12.8571592 L29.2928299,15.7142993 L26.4214041,15.7142993 Z" id="形状" fill="#E84017"></path>
                    <path d="M7.84999318,17.1428694 L10.3357051,17.1428694 C10.7903915,17.1216036 11.2340836,17.2866984 11.5642754,17.6000118 C11.8812643,17.9171741 12.0520479,18.351896 12.0357035,18.8000107 C12.0503254,19.2478299 11.8798013,19.6818913 11.5642754,20.0000095 C11.2223658,20.3237647 10.763177,20.4940257 10.292848,20.4714376 L8.86427795,20.4714376 L8.86427795,22.7142927 L7.84999318,22.7142927 L7.84999318,17.1428694 Z M8.80713516,19.5428685 L10.0928482,19.5428685 C10.3586148,19.5637663 10.6240586,19.4986574 10.8499903,19.357153 C11.0145076,19.2090396 11.09927,18.9918359 11.0785615,18.7714393 C11.0785615,18.2857254 10.7595142,18.0428685 10.1214196,18.0428685 L8.80713516,18.0428685 L8.80713516,19.5428685 Z M12.7357028,17.2285836 L14.9928435,17.2285836 C15.6478187,17.2009432 16.2794126,17.4746339 16.7071276,17.97144 C17.1589744,18.5369559 17.3877047,19.2485613 17.3499841,19.9714381 C17.3814627,20.7021795 17.1649823,21.4221027 16.7357028,22.0142933 C16.3266236,22.5622464 15.6763731,22.8767118 14.9928435,22.8571496 L12.7357028,22.8571496 L12.7357028,17.2285836 Z M13.6928448,21.885722 L14.9928435,21.885722 C15.4055113,21.9006147 15.7997084,21.7141701 16.0499854,21.3857225 C16.3251525,20.9782962 16.4559179,20.4904405 16.4214136,20.0000095 C16.4690193,19.4907671 16.3265412,18.9819167 16.021414,18.5714394 C15.7440619,18.2555884 15.3416829,18.0779146 14.921415,18.0857256 L13.6928448,18.0857256 L13.6928448,21.885722 Z M22.1356939,18.1285827 L19.1785538,18.1285827 L19.1785538,19.4571529 L22.1356939,19.4571529 L22.1356939,20.3714377 L19.1785538,20.3714377 L19.1785538,22.7714355 L18.2214119,22.7714355 L18.2214119,17.2000122 L22.1356939,17.2000122 L22.1356939,18.1285827 Z" id="形状" fill="#FFFFFF"></path>
                    <path d="M26.4214041,9.15716271 L26.4214041,9.35716251 L18.69284,9.35716251 C17.9038626,9.35716251 17.26427,8.71756991 17.26427,7.92859245 L17.26427,4.65556631e-06 C17.6439881,-0.00216680035 18.0089566,0.146904836 18.2785547,0.414313887 L26.0214045,8.14287797 C26.2835879,8.41479494 26.427408,8.77948168 26.4214041,9.15716271 L26.4214041,9.15716271 Z" id="路径" fill="#C1C7D0"></path>
                </g>
            </g>
        </g>
    </g>
</svg>