<?xml version="1.0" encoding="UTF-8"?>
<svg width="14px" height="14px" viewBox="0 0 14 14" version="1.1" xmlns="http://www.w3.org/2000/svg" xmlns:xlink="http://www.w3.org/1999/xlink">
    <title>编组 12</title>
    <g id="黑色版本" stroke="none" stroke-width="1" fill="none" fill-rule="evenodd">
        <g id="平台默认图片尺寸" transform="translate(-762.000000, -942.000000)">
            <g id="编组-12" transform="translate(762.000000, 942.000000)">
                <rect id="矩形" x="0" y="0" width="14" height="14"></rect>
                <g id="编组" transform="translate(1.000000, 0.000000)" fill="#FFFFFF" fill-rule="nonzero">
                    <path d="M10.5321811,4.66708257 C10.5321811,2.07464401 8.518709,0 6.0004221,0 C3.4821352,0 1.46933599,2.07450538 1.46933599,4.66708257 C1.46933599,6.42994078 2.37547247,7.93327788 3.78521249,8.71045491 C1.81965134,9.50607015 0.394165299,11.2679579 0.00953169682,13.3773988 C-0.0408017416,13.6367813 0.110333155,13.9481512 0.412602948,14 L0.510309035,14 C0.762379971,14 0.963982888,13.8443151 1.01418174,13.5849326 C1.45910781,11.1628741 3.51860676,9.38837067 5.94887743,9.33305607 L6.04967889,9.33305607 C8.46729891,9.33305607 10.5316428,7.20739508 10.5316428,4.6668053 L10.5321811,4.66708257 Z M2.47533185,4.66708257 C2.47533185,2.64456459 4.03634135,1.03669816 6.0004221,1.03669816 C7.96450285,1.03669816 9.52537777,2.64456459 9.52537777,4.66708257 C9.52537777,6.63691997 7.96436827,8.24450914 6.05075554,8.29649654 L5.89962065,8.29649654 C3.98600791,8.19252174 2.47533185,6.5850712 2.47533185,4.66708257 Z M9.47490975,9.3331947 C9.47490975,9.64442596 9.67651267,9.85195968 9.97878246,9.85195968 L12.4961273,9.85195968 C12.7983971,9.85195968 13,9.64442596 13,9.3331947 C13,9.02196344 12.7983971,8.81442972 12.4961273,8.81442972 L9.97878246,8.81442972 C9.72684611,8.81442972 9.47490975,9.02279524 9.47490975,9.3331947 Z M12.4961273,10.8369477 L8.46824098,10.8369477 C8.16597119,10.8369477 7.96436827,11.04462 7.96436827,11.3558513 C7.96436827,11.6670826 8.16597119,11.8746163 8.46824098,11.8746163 L12.4961273,11.8746163 C12.7983971,11.8746163 13,11.6670826 13,11.3558513 C13,11.04462 12.7983971,10.8369477 12.4961273,10.8369477 Z M12.4961273,12.9114531 L8.51857442,12.9114531 C8.21617005,12.9114531 8.01470171,13.1189868 8.01470171,13.4303567 C8.01470171,13.7417266 8.21617005,13.9480126 8.51857442,13.9480126 L12.4961273,13.9480126 C12.7983971,13.9480126 13,13.7403402 13,13.4292476 C13,13.118155 12.7480636,12.910344 12.4961273,12.910344 L12.4961273,12.9114531 L12.4961273,12.9114531 Z" id="形状"></path>
                </g>
            </g>
        </g>
    </g>
</svg>