<?xml version="1.0" encoding="UTF-8"?>
<svg width="24px" height="24px" viewBox="0 0 24 24" version="1.1" xmlns="http://www.w3.org/2000/svg" xmlns:xlink="http://www.w3.org/1999/xlink">
    <title>Personnellocation</title>
    <g id="后续新增页面" stroke="none" stroke-width="1" fill="none" fill-rule="evenodd">
        <g id="Personnellocation">
            <circle id="椭圆形" fill="#166AEA" fill-rule="nonzero" cx="7" cy="7" r="7"></circle>
            <circle id="椭圆形备份-2" stroke="#9DC3FF" fill-opacity="0.7" fill="#9ABFF6" cx="13" cy="13" r="10"></circle>
            <g id="编组" transform="translate(6.741178, 7.029573)" fill="#FFFFFF" fill-rule="nonzero">
                <path d="M2.44318924,7.5529261 C3.08307706,7.91000227 3.8714671,7.91000227 4.51135492,7.5529261 C5.15124274,7.19584994 5.54540417,6.53595155 5.54534965,5.82182964 C5.54540417,5.10770774 5.15124274,4.44780934 4.51135492,4.09073318 C3.8714671,3.73365702 3.08307706,3.73365702 2.44318924,4.09073318 C1.80330143,4.44780934 1.40913999,5.10770774 1.40919451,5.82182964 C1.40913999,6.53595155 1.80330143,7.19584994 2.44318924,7.5529261 Z" id="路径"></path>
                <path d="M6.46339717,11.1098004 C6.60622154,11.109528 6.74174071,11.0487339 6.83413621,10.9434721 C6.9265317,10.8382102 6.96650341,10.6990758 6.9434866,10.5628429 C6.65487534,8.92912859 5.18976822,7.73440505 3.47493145,7.73440505 C1.76009468,7.73440505 0.294987557,8.92912859 0.00637629989,10.5628429 C-0.0167768625,10.6998583 0.0237888664,10.8397672 0.117239135,10.9452026 C0.210689403,11.050638 0.347505722,11.1108607 0.491146998,11.1098004 L6.46339717,11.1098004 Z" id="路径"></path>
                <path d="M8.21106835,2.73577756e-08 C6.04655809,0.000173568325 4.15112468,1.40325566 3.58702167,3.42292015 C3.67657289,3.41208719 3.76672477,3.40654713 3.85697445,3.40633088 C5.07202204,3.40633088 6.1523533,4.35845463 6.1523533,5.53277411 C6.1523533,6.42608136 6.10398026,7.37418347 5.29620248,7.68887696 C5.34041441,7.74970429 7.19055321,8.26849612 7.54736942,10.5769187 C7.55263348,10.6101767 7.55472283,10.643832 7.5536111,10.6774597 C7.70965317,10.8252551 7.84801047,10.9494233 7.95515936,11.04544 C8.09969858,11.1753295 8.32347841,11.1753295 8.46801763,11.04544 C9.46096534,10.1546462 13.0000033,6.82673744 13.0000033,4.62941277 C13.0004135,3.40166777 12.496033,2.22407845 11.5978743,1.35583731 C10.6997157,0.487596177 9.48139444,-0.000133373103 8.21106835,2.73577756e-08 Z M8.17348564,6.00108218 C7.28232745,5.98252346 6.56448219,5.2887402 6.54527982,4.42745342 C6.52607744,3.56616664 7.21233501,2.84314239 8.1018389,2.7875007 C8.57931415,2.75894611 9.04650472,2.92983187 9.38477644,3.2567648 C9.72304816,3.58369774 9.89986064,4.03522819 9.8703157,4.49669858 C9.81274423,5.35638651 9.06464383,6.01964089 8.17348564,6.00108218 Z" id="形状"></path>
            </g>
        </g>
    </g>
</svg>