<?xml version="1.0" encoding="UTF-8"?>
<svg width="24px" height="24px" viewBox="0 0 24 24" version="1.1" xmlns="http://www.w3.org/2000/svg" xmlns:xlink="http://www.w3.org/1999/xlink">
    <title>Piechart</title>
    <g id="后续新增页面" stroke="none" stroke-width="1" fill="none" fill-rule="evenodd">
        <g id="Piechart">
            <circle id="椭圆形" fill="#166AEA" fill-rule="nonzero" cx="7" cy="7" r="7"></circle>
            <circle id="椭圆形备份-2" stroke="#9DC3FF" fill-opacity="0.7" fill="#9ABFF6" cx="13" cy="13" r="10"></circle>
            <path d="M13,7 C13.3313708,7 13.6,7.26862915 13.6,7.6 L13.6,11.8 C13.6,12.1313708 13.8686292,12.4 14.2,12.4 L18.4,12.4 C18.7313709,12.4 19,12.6686292 19,13 C19,16.3138 16.3138,19 13,19 C9.6862,19 7,16.3138 7,13 C7,9.6862 9.6862,7 13,7 Z M15.0553,7.363 C16.7338678,7.97507665 18.0523546,9.30335125 18.652,10.9864 C18.7173065,11.1700808 18.6893044,11.3740397 18.5769109,11.5333234 C18.4645174,11.6926072 18.2817451,11.7874 18.0868,11.7874 L14.8498,11.7874 C14.5184292,11.7874 14.2498,11.5187708 14.2498,11.1874 L14.2498,7.927 C14.2498,7.7311039 14.3454523,7.54754845 14.506,7.4353 C14.6663977,7.32284605 14.8714159,7.2959731 15.0553,7.363 Z" id="形状结合" fill="#FFFFFF" fill-rule="nonzero"></path>
        </g>
    </g>
</svg>