<?xml version="1.0" encoding="UTF-8"?>
<svg width="28px" height="28px" viewBox="0 0 28 28" version="1.1" xmlns="http://www.w3.org/2000/svg" xmlns:xlink="http://www.w3.org/1999/xlink">
    <title>计划</title>
    <g id="页面调整" stroke="none" stroke-width="1" fill="none" fill-rule="evenodd">
        <g id="工单效率-负荷分析备份" transform="translate(-1390.000000, -276.000000)" fill="#0271E3" fill-rule="nonzero">
            <g id="计划" transform="translate(1390.000000, 276.000000)">
                <circle id="椭圆形" fill-opacity="0.15" cx="14" cy="14" r="14"></circle>
                <g id="编组" transform="translate(9.000000, 8.000000)">
                    <path d="M2.37713364,2.41202793 C2.19744139,2.41202793 2.0523886,2.26812243 2.0523886,2.08985144 L2.0523886,0.322176481 C2.0523886,0.143905499 2.19744139,2.28920158e-16 2.37713364,2.28920158e-16 C2.55682588,2.28920158e-16 2.70187867,0.143905499 2.70187867,0.322176481 L2.70187867,2.08985144 C2.70187867,2.26812243 2.55682588,2.41202793 2.37713364,2.41202793 Z M7.69429229,2.41202793 C7.51460005,2.41202793 7.36954726,2.26812243 7.36954726,2.08985144 L7.36954726,0.322176481 C7.36954726,0.143905499 7.51460005,2.28920158e-16 7.69429229,2.28920158e-16 C7.87398454,2.28920158e-16 8.01903732,0.143905499 8.01903732,0.322176481 L8.01903732,2.08985144 C8.01903732,2.26812243 7.87398454,2.41202793 7.69429229,2.41202793 Z" id="形状"></path>
                    <path d="M9.13616024,1.04599965 L8.12945064,1.04599965 L8.12945064,2.38410596 C8.12945064,2.62036871 7.93460362,2.8136746 7.69645726,2.8136746 C7.45831091,2.8136746 7.26346389,2.62036871 7.26346389,2.38410596 L7.26346389,1.04599965 L2.81012701,1.04599965 L2.81012701,2.38410596 C2.81012701,2.62036871 2.61527999,2.8136746 2.37713364,2.8136746 C2.13898728,2.8136746 1.94414026,2.62036871 1.94414026,2.38410596 L1.94414026,1.04599965 L0.865986757,1.04599965 C0.38752908,1.04599965 0,1.43046358 0,1.90513692 L0,11.1408627 C0,11.6155361 0.387529068,12 0.865986757,12 L9.13399528,12 C9.61245295,12 10,11.6155361 10,11.1408627 L10,1.90513692 C10.002147,1.43046358 9.61461791,1.04599965 9.13616024,1.04599965 Z M6.44727137,8.90925362 L3.55487562,8.90925362 C3.37518338,8.90925362 3.23013059,8.76534812 3.23013059,8.58707714 C3.23013059,8.40880615 3.37518338,8.26490066 3.55487562,8.26490066 L6.44727137,8.26490066 C6.62696362,8.26490066 6.7720164,8.40880615 6.7720164,8.58707714 C6.7720164,8.76534812 6.62696362,8.90925362 6.44727137,8.90925362 Z M6.44727137,6.8451763 L3.55487562,6.8451763 C3.37518338,6.8451763 3.23013059,6.7012708 3.23013059,6.52299982 C3.23013059,6.34472884 3.37518338,6.20082334 3.55487562,6.20082334 L6.44727137,6.20082334 C6.62696362,6.20082334 6.7720164,6.34472884 6.7720164,6.52299982 C6.7720164,6.7012708 6.62696362,6.8451763 6.44727137,6.8451763 Z M6.44727137,4.78109898 L3.55487562,4.78109898 C3.37518338,4.78109898 3.23013059,4.63719348 3.23013059,4.4589225 C3.23013059,4.28065152 3.37518338,4.13674602 3.55487562,4.13674602 L6.44727137,4.13674602 C6.62696362,4.13674602 6.7720164,4.28065152 6.7720164,4.4589225 C6.7720164,4.63719348 6.62696362,4.78109898 6.44727137,4.78109898 Z" id="形状"></path>
                </g>
            </g>
        </g>
    </g>
</svg>