<?xml version="1.0" encoding="UTF-8"?>
<svg width="14px" height="14px" viewBox="0 0 14 14" version="1.1" xmlns="http://www.w3.org/2000/svg" xmlns:xlink="http://www.w3.org/1999/xlink">
    <title>编组 9</title>
    <g id="黑色版本" stroke="none" stroke-width="1" fill="none" fill-rule="evenodd">
        <g id="平台默认图片尺寸" transform="translate(-718.000000, -941.000000)">
            <g id="编组-9" transform="translate(718.000000, 941.000000)">
                <rect id="矩形" x="0" y="0" width="14" height="14"></rect>
                <g id="编组" transform="translate(1.000000, -0.000000)" fill="#FFFFFF" fill-rule="nonzero">
                    <path d="M5.99740372,-2.84217094e-13 C7.83903072,-2.84217094e-13 9.33275638,1.46086957 9.33275638,3.25652174 L9.332,4.883 L10.1133708,4.88309179 C11.1536132,4.88309179 12,5.71497585 12,6.73623188 L12,12.1468599 C11.9982691,13.1681159 11.1518823,14 10.1133708,14 L1.88316746,14 C0.844655993,14 0,13.1681159 0,12.1468599 L0,6.73623188 C0,5.71497585 0.844655993,4.88309179 1.88316746,4.88309179 L2.667,4.883 L2.66724362,3.25652174 C2.66724362,1.46086957 4.16096928,-2.84217094e-13 5.99740372,-2.84217094e-13 Z M10.1133708,6.18671498 L1.88316746,6.18671498 C1.58026828,6.18671498 1.33448723,6.43357488 1.33448723,6.73792271 L1.33448723,12.1485507 C1.33448723,12.4512077 1.58026828,12.6997585 1.88316746,12.6997585 L10.1133708,12.6997585 C10.4128083,12.6997585 10.6655128,12.4478261 10.6655128,12.1485507 L10.6655128,6.73792271 C10.6655128,6.44033816 10.4128083,6.18671498 10.1133708,6.18671498 Z M5.99913457,7.48864734 C6.36780614,7.48864734 6.66551277,7.7794686 6.66551277,8.13961353 L6.66551277,10.7434783 C6.66551277,11.1036232 6.36780614,11.3944444 5.99913457,11.3944444 C5.630463,11.3944444 5.33275638,11.1036232 5.33275638,10.7434783 L5.33275638,8.13961353 C5.33275638,7.7794686 5.630463,7.48864734 5.99913457,7.48864734 Z M6.00086543,1.30193237 C4.89658157,1.30193237 4.00173085,2.17777778 4.00173085,3.25483092 L4.00173085,4.88309179 L8,4.88309179 L8,3.25483092 C8,2.17777778 7.10341843,1.30193237 6.00086543,1.30193237 Z" id="形状结合"></path>
                </g>
            </g>
        </g>
    </g>
</svg>