<?xml version="1.0" encoding="UTF-8"?>
<svg width="24px" height="24px" viewBox="0 0 24 24" version="1.1" xmlns="http://www.w3.org/2000/svg" xmlns:xlink="http://www.w3.org/1999/xlink">
    <title>Securityoverview</title>
    <g id="后续新增页面" stroke="none" stroke-width="1" fill="none" fill-rule="evenodd">
        <g id="Securityoverview">
            <circle id="椭圆形" fill="#166AEA" fill-rule="nonzero" cx="7" cy="7" r="7"></circle>
            <circle id="椭圆形备份-2" stroke="#9DC3FF" fill-opacity="0.7" fill="#9ABFF6" cx="13" cy="13" r="10"></circle>
            <g id="编组" transform="translate(8.000000, 8.000000)" fill="#FFFFFF" fill-rule="nonzero">
                <path d="M9.510875,0 L7.44241666,0 C6.62056271,0.000504976938 5.95430271,0.666354854 5.95329166,1.48820834 L5.95329166,5.04304166 L9.510875,5.04304166 C10.3325503,5.04253714 10.9987364,4.37696612 11,3.55529166 L11,1.48820834 C10.998989,0.666354854 10.3327289,0.000504976938 9.510875,0 L9.510875,0 Z M9.510875,5.95695834 L5.95375,5.95695834 L5.95375,9.51179166 C5.95476062,10.3334664 6.62074168,10.9992424 7.44241666,11 L9.510875,11 C10.3327289,10.999495 10.998989,10.3336451 11,9.51179166 L11,7.44470834 C10.9987364,6.62303388 10.3325503,5.95746286 9.510875,5.95695834 L9.510875,5.95695834 Z M3.55758334,0 L1.489125,0 C0.667271051,0.000504976938 0.00101104252,0.666354854 2.78661354e-16,1.48820834 L2.78661354e-16,3.55529166 C0.00126357035,4.37696612 0.667449721,5.04253714 1.489125,5.04304166 L5.04670834,5.04304166 L5.04670834,1.48820834 C5.04569729,0.666354854 4.37943729,0.000504976938 3.55758334,0 Z M-1.65427856e-16,7.44470834 L-1.65427856e-16,9.51179166 C0.00101104252,10.3336451 0.667271051,10.999495 1.489125,11 L3.55758334,11 C4.37943729,10.999495 5.04569729,10.3336451 5.04670834,9.51179166 L5.04670834,5.95695834 L1.489125,5.95695834 C0.667449721,5.95746286 0.00126357035,6.62303388 -1.65427856e-16,7.44470834 Z" id="形状"></path>
            </g>
        </g>
    </g>
</svg>