<?xml version="1.0" encoding="UTF-8"?>
<svg width="24px" height="24px" viewBox="0 0 24 24" version="1.1" xmlns="http://www.w3.org/2000/svg" xmlns:xlink="http://www.w3.org/1999/xlink">
    <title>sell</title>
    <g id="后续新增页面" stroke="none" stroke-width="1" fill="none" fill-rule="evenodd">
        <g id="sell">
            <circle id="椭圆形" fill="#166AEA" fill-rule="nonzero" cx="7" cy="7" r="7"></circle>
            <circle id="椭圆形备份-2" stroke="#9DC3FF" fill-opacity="0.7" fill="#9ABFF6" cx="13" cy="13" r="10"></circle>
            <path d="M17.8755881,16.2681399 C17.9170588,16.3874857 17.9481618,16.5405486 17.968897,16.7273286 C17.9896324,16.9141086 18,17.1010159 18,17.2880503 C18,17.4750849 17.9855119,17.6520678 17.9565356,17.8189993 C17.9275594,17.9859307 17.883962,18.1131651 17.8257436,18.2007023 C17.784273,18.2564309 17.6658425,18.3161039 17.4704521,18.3797211 C17.2750618,18.4433382 17.036207,18.5049196 16.7538878,18.5644653 C16.4715686,18.6240109 16.1537601,18.6797397 15.8004624,18.7316512 C15.4471646,18.7835628 15.0961265,18.82924 14.747348,18.8686827 C14.3985695,18.9081252 14.0600258,18.9399339 13.7317168,18.9641083 C13.4034076,18.9882829 13.1188289,19.0002429 12.8779803,19.0000029 C12.512454,19.0000029 12.0804685,18.9741599 11.5820235,18.9225028 C11.0835786,18.8708455 10.5976281,18.8092642 10.1241719,18.7377585 C9.65071575,18.6662527 9.235345,18.5927113 8.8780597,18.5171341 C8.5207744,18.4415569 8.30478161,18.375904 8.23008134,18.3201754 C8.13863331,18.2565582 8.0700473,18.0617625 8.02432329,17.735788 C7.97859928,17.4098136 7.9973408,16.9923577 8.08054788,16.4834205 C8.13052528,16.1892546 8.25520296,15.9665945 8.45458093,15.8154401 C8.65395888,15.6642857 8.88869319,15.5449399 9.15878386,15.4574027 C9.4288745,15.3698655 9.70720613,15.290344 9.99377875,15.2188383 C10.2803514,15.1473325 10.5317005,15.0438911 10.7478261,14.9085137 C10.9222154,14.8051995 11.0572608,14.7058294 11.1529623,14.6104037 C11.2486636,14.5149779 11.3151229,14.4195522 11.3523401,14.3241264 C11.3895574,14.2287006 11.4082989,14.1293307 11.4085648,14.0260163 C11.4088306,13.9227021 11.4047101,13.8113721 11.3962033,13.6920262 C11.3794555,13.5011747 11.3151229,13.3540918 11.2032055,13.2507775 C11.091288,13.1474632 10.9646165,13.0400775 10.823191,12.9286201 C10.7567318,12.8728915 10.6985134,12.7954059 10.648536,12.696163 C10.5985585,12.5969202 10.5528345,12.4955145 10.5113639,12.3919457 C10.4698933,12.2725999 10.4282898,12.1493098 10.3865534,12.0220755 C10.328335,12.0060439 10.2701166,11.9781796 10.2118983,11.9384825 C10.1619209,11.8987854 10.1079559,11.8430567 10.0500034,11.7712966 C9.99205075,11.6995365 9.94220638,11.5960949 9.90046988,11.460972 C9.85873338,11.3258491 9.84424525,11.2045948 9.8570055,11.0972091 C9.86976563,10.9898232 9.89262763,10.8964332 9.9255915,10.8170391 C9.95882113,10.7295018 10.0086656,10.6460361 10.075125,10.5666419 C10.066884,10.2643331 10.0834989,9.9621515 10.1249695,9.66009722 C10.1581991,9.40562846 10.2184113,9.13525551 10.3056059,8.84897825 C10.3928005,8.56270098 10.519472,8.30428803 10.6856203,8.0737394 C10.8435276,7.85896784 11.0200435,7.68198487 11.2151681,7.5427905 C11.4102926,7.40359614 11.6075439,7.29430183 11.8069219,7.21490761 C12.0062999,7.13551338 12.2078045,7.07978473 12.4114359,7.04772168 C12.6150673,7.01565863 12.8123185,6.99975433 13.0031896,7.00000287 C13.2440383,7.00000287 13.4745191,7.02787313 13.6946324,7.08360176 C13.9147456,7.13933041 14.1203708,7.21096334 14.3115078,7.29850057 C14.5026448,7.3860378 14.6729136,7.4834993 14.8223141,7.59088508 C14.9717146,7.69827086 15.092139,7.80756517 15.183587,7.91876798 C15.3912059,8.17323666 15.5469865,8.45353392 15.6509289,8.75965974 C15.7548713,9.06578557 15.8275778,9.35409858 15.8690484,9.62459882 C15.9190258,9.94268462 15.9397611,10.2607705 15.9312544,10.5788563 C15.9894726,10.610665 16.0351968,10.6583778 16.0684264,10.721995 C16.101656,10.7777236 16.1286385,10.8493565 16.1493738,10.9368937 C16.1701091,11.024431 16.1722358,11.1318168 16.1557539,11.2590511 C16.1307653,11.4259825 16.0912884,11.5591969 16.0373234,11.6586942 C15.9833584,11.7581915 15.9231463,11.8356772 15.856687,11.8911514 C15.7819866,11.9547685 15.703033,11.9985371 15.619826,12.0224572 C15.5865963,12.1496915 15.5492461,12.2729815 15.5077755,12.3923274 C15.4663049,12.4956417 15.4185871,12.5970474 15.3646221,12.6965447 C15.3106573,12.796042 15.250445,12.8735277 15.1839858,12.9290019 C15.1092855,12.992619 15.0387056,13.0463119 14.9722464,13.0900805 C14.905787,13.1338492 14.8475686,13.1795262 14.7975913,13.227112 C14.7476139,13.2746976 14.7060103,13.3323347 14.6727806,13.4000233 C14.639551,13.4677121 14.6145623,13.5492693 14.5978145,13.6446951 C14.5728259,13.7640408 14.564452,13.8852952 14.5726929,14.008458 C14.5809339,14.1316209 14.6141635,14.2549109 14.6723819,14.3783283 C14.7306003,14.5017455 14.8261688,14.6190556 14.9590874,14.7302584 C15.092006,14.8414613 15.2706486,14.9408313 15.4950154,15.0283685 C15.7026343,15.1080172 15.9289948,15.1776144 16.1740966,15.2371601 C16.4191986,15.2967057 16.6559268,15.3683387 16.884281,15.4520589 C17.1126351,15.535779 17.3161336,15.6411291 17.4947763,15.768109 C17.6734189,15.8950888 17.8000904,16.0621475 17.8747906,16.269285 L17.8755881,16.2681399 Z M13.0905171,18.2243679 C13.1319878,18.2243679 13.1963204,18.1985393 13.283515,18.1468822 C13.3707096,18.0952251 13.4559105,18.0336436 13.5391176,17.962138 C13.6223246,17.8906323 13.6950311,17.8189993 13.7572371,17.7472391 C13.819443,17.675479 13.850546,17.6197503 13.850546,17.5800532 C13.850546,17.5322131 13.8380516,17.4487474 13.8130629,17.329656 C13.7880743,17.2105647 13.758965,17.0793861 13.7257354,16.9361202 C13.6925058,16.7928544 13.659276,16.6517514 13.6260464,16.5128116 C13.5928168,16.3738716 13.5637075,16.2605058 13.5387189,16.1727142 C13.6219259,16.109097 13.6925058,16.0394998 13.7504583,15.9639226 C13.8084108,15.8883454 13.8375199,15.8108597 13.8377858,15.7314654 C13.8377858,15.6678483 13.8149238,15.6021954 13.7691998,15.5345067 C13.7234758,15.466818 13.6715045,15.4091808 13.6132861,15.3615952 C13.5468269,15.3058666 13.4762471,15.250138 13.4015468,15.1944093 L12.7782913,15.1944093 C12.6950843,15.250138 12.6245044,15.3058666 12.5665519,15.3615952 C12.5165745,15.4094353 12.4708505,15.4651639 12.4293799,15.5287811 C12.3879093,15.5923984 12.367174,15.6560155 12.367174,15.7196327 C12.367174,15.7674727 12.3982769,15.8310899 12.4604829,15.9104842 C12.5226888,15.9898785 12.5995158,16.0654557 12.6909638,16.1372158 C12.665975,16.2087215 12.6327454,16.3121629 12.5912748,16.4475403 C12.5498041,16.5829176 12.5103274,16.7240206 12.4728443,16.870849 C12.4353613,17.0176774 12.4021315,17.1568717 12.3731553,17.2884321 C12.344179,17.4199924 12.3296909,17.5174539 12.3296909,17.5808166 C12.3296909,17.6205137 12.3607939,17.6762423 12.4229998,17.7480025 C12.4852058,17.8197627 12.5600389,17.8913956 12.6474994,17.9629013 C12.7349599,18.034407 12.8201606,18.0959885 12.9031019,18.1476456 C12.9860431,18.1993027 13.048382,18.2251313 13.0901184,18.2251313 L13.0905171,18.2243679 Z" id="形状" fill="#FFFFFF" fill-rule="nonzero"></path>
        </g>
    </g>
</svg>