<?xml version="1.0" encoding="UTF-8"?>
<svg width="14px" height="14px" viewBox="0 0 14 14" version="1.1" xmlns="http://www.w3.org/2000/svg" xmlns:xlink="http://www.w3.org/1999/xlink">
    <title>编组 13</title>
    <g id="黑色版本" stroke="none" stroke-width="1" fill="none" fill-rule="evenodd">
        <g id="平台默认图片尺寸" transform="translate(-694.000000, -941.000000)">
            <g id="编组-13" transform="translate(694.000000, 941.000000)">
                <g id="编组" transform="translate(1.000000, 1.000000)" fill="#FFFFFF" fill-rule="nonzero">
                    <path d="M7.00427961,2.73617512 L1.97102235,2.73617512 L3.65588389,1.0296659 C3.88906304,0.793490783 3.88906304,0.411866359 3.65588389,0.177131336 C3.42270474,-0.0590437788 3.04592136,-0.0590437788 2.81416403,0.177131336 L0.172414887,2.85138249 C0.0444507193,2.98099078 -0.00957859585,3.15380184 0.00179599682,3.32229263 C-0.0110004199,3.49078341 0.0444507193,3.66359447 0.172414887,3.79320276 L2.81274221,6.46745392 C2.92933178,6.58554147 3.08146696,6.64458525 3.23360214,6.64458525 C3.38573732,6.64458525 3.53787249,6.58554147 3.65446207,6.46745392 C3.88764122,6.2312788 3.88764122,5.84965438 3.65446207,5.61491935 L2.00372431,3.94297235 L6.92892293,3.94297235 C9.00905157,3.94297235 10.7621607,5.60195853 10.8090809,7.70881336 C10.8574229,9.87327189 9.13275026,11.6503456 7.00570143,11.6503456 L6.24360372,11.6503456 C6.23507278,11.6503456 6.22512001,11.6489055 6.21658907,11.6489055 L1.10513149,11.6489055 C1.09517872,11.6489055 1.08664777,11.6503456 1.07811683,11.6503456 C0.793752011,11.6633065 0.56341651,11.8764401 0.517918139,12.1543779 L0.517918139,12.3531106 C0.56341651,12.6296083 0.793752011,12.8427419 1.07527318,12.8571429 L6.91612651,12.8571429 C9.6545597,12.8571429 11.9493838,10.6624424 11.9991476,7.89026498 C12.0503333,5.05760369 9.78963299,2.73617512 7.00427961,2.73617512 Z" id="路径"></path>
                </g>
                <rect id="矩形" fill="#D8D8D8" opacity="0" x="0" y="0" width="14" height="14"></rect>
            </g>
        </g>
    </g>
</svg>