<?xml version="1.0" encoding="UTF-8"?>
<svg width="24px" height="24px" viewBox="0 0 24 24" version="1.1" xmlns="http://www.w3.org/2000/svg" xmlns:xlink="http://www.w3.org/1999/xlink">
    <title>Shuttlesystem</title>
    <g id="后续新增页面" stroke="none" stroke-width="1" fill="none" fill-rule="evenodd">
        <g id="Shuttlesystem">
            <circle id="椭圆形" fill="#166AEA" fill-rule="nonzero" cx="7" cy="7" r="7"></circle>
            <circle id="椭圆形备份-2" stroke="#9DC3FF" fill-opacity="0.7" fill="#9ABFF6" cx="13" cy="13" r="10"></circle>
            <g id="编组" transform="translate(6.079799, 9.845788)" fill="#FFFFFF" fill-rule="nonzero">
                <path d="M1.47563201,6.09556349 C1.57160848,6.33938523 1.51966027,6.62060255 1.34405366,6.80785199 C1.16844704,6.99510143 0.903840758,7.05142635 0.673838857,6.95051601 C0.443836956,6.84960567 0.293833947,6.61137632 0.293894102,6.34711069 C0.293246571,5.98750102 0.567194517,5.69539016 0.905839654,5.69459896 C1.15469686,5.69343768 1.37965554,5.85174176 1.47563201,6.09556349 Z M3.98129321,6.09556349 C4.07726968,6.33938522 4.02532147,6.62060255 3.84971486,6.80785199 C3.67410824,6.99510143 3.40950196,7.05142635 3.17950006,6.95051601 C2.94949815,6.84960567 2.79949514,6.61137632 2.79955375,6.34711069 C2.79920255,6.17440304 2.86347862,6.00862044 2.9782445,5.8862455 C3.09301039,5.76387057 3.24886153,5.6949314 3.41150085,5.69459896 C3.66035805,5.69343768 3.88531673,5.85174175 3.98129321,6.09556349 Z M10.9817152,6.09556349 C11.0776917,6.33938523 11.0257435,6.62060255 10.8501369,6.80785199 C10.6745303,6.99510143 10.409924,7.05142635 10.1799221,6.95051601 C9.94992018,6.84960567 9.79991717,6.61137632 9.79997733,6.34711069 C9.79932979,5.98750102 10.0732777,5.69539016 10.4119229,5.69459896 C10.6607801,5.69343768 10.8857388,5.85174176 10.9817152,6.09556349 Z M13.430253,6.09755734 C13.5253778,6.34147326 13.4727608,6.62222135 13.2969398,6.80887556 C13.1211188,6.99552977 12.8567232,7.05132698 12.6270531,6.95024633 C12.397383,6.84916569 12.2476739,6.61111586 12.247742,6.34711069 C12.247742,6.17402276 12.3125041,6.00802667 12.4277765,5.88565183 C12.5430488,5.76327699 12.6993856,5.6945514 12.8623829,5.69459888 C13.1109972,5.69459888 13.3351282,5.85364142 13.430253,6.09755734 Z M10.99584,5.01466023 L0.000168806233,5.01466023 L0.000168806233,3.12649921 C0.000665724041,1.53125487 1.13182314,0.19210917 2.62517936,0.0188224591 L2.62517936,1.46549439e-13 L14,1.46549439e-13 L14,5.01466023 L10.9951648,5.01466023 L10.99584,5.01466023 Z M0.700059082,2.9716173 L2.68358796,2.9716173 L2.68358796,0.804704717 C1.63095273,0.955147181 0.811744396,1.85017017 0.700059082,2.9716173 Z M3.96672012,0.743038773 L3.96672012,2.9716173 L5.60013505,2.9716173 L5.60013505,0.743576556 L3.96672012,0.743038773 Z M6.47508229,0.743038773 L6.47508229,2.9716173 L8.10832841,2.9716173 L8.10832841,0.743576556 L6.47508229,0.743038773 Z M8.86662728,0.743038773 L8.86662728,2.9716173 L10.5000422,2.9716173 L10.5000422,0.743576556 L8.86662728,0.743038773 Z M11.2583411,0.743038773 L11.2583411,2.9716173 L12.8915872,2.9716173 L12.8915872,0.743576556 L11.2583411,0.743038773 Z M13.9415914,6.19097395 L13.5702073,6.19097395 C13.4969661,5.82972245 13.1961891,5.57177127 12.8482028,5.57177127 C12.5002164,5.57177127 12.1994394,5.82972245 12.1261983,6.19097395 L11.1040478,6.19097395 C11.0306439,5.82982912 10.7298814,5.57202691 10.3819589,5.57202691 C10.0340365,5.57202691 9.73327391,5.82982912 9.65987001,6.19097395 L4.10598917,6.19097395 C4.03274797,5.82972245 3.73197099,5.57177127 3.38398466,5.57177127 C3.03599832,5.57177127 2.73522134,5.82972245 2.66198015,6.19097395 L1.63966093,6.19097395 C1.56641973,5.82972245 1.26564275,5.57177127 0.917656418,5.57177127 C0.569670083,5.57177127 0.268893103,5.82972245 0.195651908,6.19097395 L0,6.19097395 L0,5.07650543 L13.9415914,5.07650543 L13.9415914,6.19097395 Z" id="形状"></path>
            </g>
        </g>
    </g>
</svg>