<?xml version="1.0" encoding="UTF-8"?>
<svg width="16px" height="16px" viewBox="0 0 16 16" version="1.1" xmlns="http://www.w3.org/2000/svg" xmlns:xlink="http://www.w3.org/1999/xlink">
    <title>开始漫游</title>
    <g id="后续新增页面" stroke="none" stroke-width="1" fill="none" fill-rule="evenodd">
        <g id="运行监测" transform="translate(-1297.000000, -942.000000)" fill="#FFFFFF" fill-rule="nonzero">
            <g id="编组-44" transform="translate(1297.000000, 939.000000)">
                <g id="开始漫游" transform="translate(0.000000, 3.000000)">
                    <path d="M15.7937332,2.10998482 L13.9488034,0.237192446 C13.6179622,-0.0790641487 13.1022127,-0.0790641487 12.7713715,0.237192446 L10.9293066,2.1128974 C10.7727321,2.27140276 10.684713,2.48679126 10.684713,2.71143369 C10.684713,2.93607612 10.7727321,3.15146461 10.9293066,3.30996998 C11.0852113,3.46915625 11.2970658,3.55864363 11.5180225,3.55864363 C11.7389792,3.55864363 11.9508337,3.46915625 12.1067384,3.30996998 L12.5565117,2.85269409 L12.5565117,12.1729671 C12.5831232,12.8580864 12.2387832,13.5030653 11.6592194,13.8536743 C11.0796556,14.2042832 10.3578322,14.2042832 9.77826842,13.8536743 C9.19870463,13.5030653 8.85436468,12.8580864 8.88097614,12.1729671 L8.88097614,4.07015474 C8.8266756,2.13694681 7.26956611,0.598425781 5.36730166,0.598425781 C3.46503721,0.598425781 1.90792773,2.13694681 1.85362718,4.07015474 L1.85362718,13.1253825 L1.4296371,12.679757 C1.10370717,12.3467817 0.573987743,12.3454777 0.246475635,12.6768444 C-0.0810364742,13.0082112 -0.0823190959,13.5467668 0.243610819,13.8797421 L2.08854059,15.7525345 C2.41392711,16.0824885 2.94058597,16.0824885 3.26597248,15.7525345 L5.10803746,13.8768296 C5.405484,13.5418541 5.39259682,13.028666 5.07872493,12.7095585 C4.76485305,12.3904509 4.26008496,12.3773488 3.93060557,12.679757 L3.52380429,13.0962567 L3.52380429,4.06724216 C3.562896,3.05767888 4.37926298,2.2597255 5.37303125,2.2597255 C6.36679953,2.2597255 7.18316651,3.05767888 7.22225822,4.06724216 L7.22225822,12.1613168 C7.27646835,14.0881554 8.82847387,15.6215619 10.7244735,15.6215619 C12.6204732,15.6215619 14.1724787,14.0881554 14.2266888,12.1613168 L14.2266888,2.90512061 L14.6077069,3.30705739 C14.9371863,3.60946563 15.4419544,3.59636347 15.7558263,3.2772559 C16.0696982,2.95814834 16.0825853,2.44496023 15.7851388,2.10998482 L15.7937332,2.10998482 Z" id="路径"></path>
                </g>
            </g>
        </g>
    </g>
</svg>