<?xml version="1.0" encoding="UTF-8"?>
<svg width="20px" height="20px" viewBox="0 0 20 20" version="1.1" xmlns="http://www.w3.org/2000/svg" xmlns:xlink="http://www.w3.org/1999/xlink">
    <title>编组 6</title>
    <g id="后续新增页面" stroke="none" stroke-width="1" fill="none" fill-rule="evenodd">
        <g id="首页备份" transform="translate(-182.000000, -90.000000)" fill="#FFFFFF">
            <g id="编组-5" transform="translate(176.000000, 84.000000)">
                <g id="编组-6" transform="translate(6.857143, 6.857143)">
                    <path d="M1.62793088,1.5412824 L5.81403885,1.5412824 C6.71312025,1.5412824 7.44196973,2.27013188 7.44196973,3.16921327 L7.44196973,7.35532125 C7.44196973,8.25440264 6.71312025,8.98325212 5.81403885,8.98325212 L1.62793088,8.98325212 C0.72884948,8.98325212 0,8.25440264 0,7.35532125 L0,3.16921327 C0,2.27013188 0.72884948,1.5412824 1.62793088,1.5412824 Z" id="矩形"></path>
                    <path d="M1.62793088,10.8437446 L5.81403885,10.8437446 C6.71312025,10.8437446 7.44196973,11.572594 7.44196973,12.4716754 L7.44196973,16.6577834 C7.44196973,17.5568648 6.71312025,18.2857143 5.81403885,18.2857143 L1.62793088,18.2857143 C0.72884948,18.2857143 0,17.5568648 0,16.6577834 L0,12.4716754 C0,11.572594 0.72884948,10.8437446 1.62793088,10.8437446 Z" id="矩形备份-6"></path>
                    <path d="M14.174568,1.15112096 L17.1345933,4.1111463 C17.7703399,4.74689285 17.7703399,5.77764167 17.1345933,6.41338822 L14.174568,9.37341356 C13.5388214,10.0091601 12.5080726,10.0091601 11.8723261,9.37341356 L8.91230073,6.41338822 C8.27655417,5.77764167 8.27655417,4.74689285 8.91230073,4.1111463 L11.8723261,1.15112096 C12.5080726,0.51537441 13.5388214,0.51537441 14.174568,1.15112096 Z" id="矩形备份-5"></path>
                    <path d="M10.930393,10.8437446 L15.116501,10.8437446 C16.0155824,10.8437446 16.7444319,11.572594 16.7444319,12.4716754 L16.7444319,16.6577834 C16.7444319,17.5568648 16.0155824,18.2857143 15.116501,18.2857143 L10.930393,18.2857143 C10.0313116,18.2857143 9.30246216,17.5568648 9.30246216,16.6577834 L9.30246216,12.4716754 C9.30246216,11.572594 10.0313116,10.8437446 10.930393,10.8437446 Z" id="矩形备份-7"></path>
                </g>
            </g>
        </g>
    </g>
</svg>