<?xml version="1.0" encoding="UTF-8"?>
<svg width="24px" height="24px" viewBox="0 0 24 24" version="1.1" xmlns="http://www.w3.org/2000/svg" xmlns:xlink="http://www.w3.org/1999/xlink">
    <title>Systemoverview</title>
    <g id="后续新增页面" stroke="none" stroke-width="1" fill="none" fill-rule="evenodd">
        <g id="Systemoverview">
            <circle id="椭圆形" fill="#166AEA" fill-rule="nonzero" cx="7" cy="7" r="7"></circle>
            <circle id="椭圆形备份-2" stroke="#9DC3FF" fill-opacity="0.7" fill="#9ABFF6" cx="13" cy="13" r="10"></circle>
            <g id="编组" transform="translate(7.374644, 8.665893)" fill="#FFFFFF" fill-rule="nonzero">
                <path d="M9.40714285,10 L2.59285715,10 C2.35714286,10 2.16428572,9.80645161 2.16428572,9.56989247 C2.16428572,9.33333331 2.35714286,9.13978494 2.59285715,9.13978494 L9.40714285,9.13978494 C9.64285714,9.13978494 9.83571428,9.33333332 9.83571428,9.56989247 C9.83571428,9.8064516 9.64285714,10 9.40714285,10 Z M10.8214286,8.52651283e-14 L1.17857143,8.52651283e-14 C0.53571429,8.52651283e-14 1.8189894e-11,0.516129032 1.8189894e-11,1.18279569 L1.8189894e-11,6.88172043 C1.8189894e-11,7.52688171 0.53571429,8.06451613 1.17857143,8.06451613 L10.8214286,8.06451613 C11.4642857,8.06451613 12,7.52688171 12,6.88172043 L12,1.18279569 C12,0.516129032 11.4642857,8.52651283e-14 10.8214286,8.52651283e-14 Z M4.2857143,5.29032258 L4.2857143,5.59139785 C4.2857143,5.82795698 4.09285715,6.02150536 3.85714285,6.02150536 C3.62142856,6.02150536 3.42857143,5.82795698 3.42857143,5.59139785 L3.42857143,5.2688172 L3.34285714,5.2688172 C3.10714286,5.2688172 2.91428572,5.07526881 2.91428572,4.83870968 C2.91428572,4.60215054 3.10714286,4.40860215 3.34285714,4.40860214 L3.42857143,4.40860214 L3.42857143,2.43010753 C3.42857143,2.19354839 3.62142857,2 3.85714285,2 C4.09285714,2 4.28571428,2.19354839 4.2857143,2.43010753 L4.2857143,4.40860214 L4.37142857,4.40860214 C4.60714285,4.40860214 4.8,4.60215053 4.8,4.83870968 C4.8,5.07526883 4.60714286,5.29032258 4.37142857,5.29032258 L4.2857143,5.29032258 Z M6.42857142,3.61290323 L6.42857142,5.59139785 C6.42857142,5.82795698 6.23571428,6.02150536 6,6.02150536 C5.76428572,6.02150536 5.57142858,5.82795698 5.57142858,5.59139785 L5.57142858,3.61290323 L5.48571428,3.61290323 C5.25,3.61290323 5.05714286,3.41935484 5.05714286,3.18279569 C5.05714286,2.94623654 5.25,2.75268816 5.48571428,2.75268816 L5.57142858,2.75268816 L5.57142858,2.43010753 C5.57142858,2.19354839 5.76428572,2 6,2 C6.23571428,2 6.42857142,2.19354839 6.42857142,2.43010753 L6.42857142,2.75268816 L6.51428572,2.75268816 C6.75,2.75268816 6.94285714,2.94623655 6.94285714,3.18279569 C6.94285714,3.41935483 6.75,3.61290321 6.51428572,3.61290323 L6.42857142,3.61290323 Z M8.67857142,5.29032257 L8.57142857,5.29032257 L8.57142857,5.61290322 C8.57142857,5.84946236 8.37857143,6.04301075 8.14285715,6.04301075 C7.90714286,6.04301075 7.71428572,5.84946236 7.7142857,5.61290322 L7.7142857,5.29032257 L7.62857143,5.29032257 C7.39285715,5.29032257 7.2,5.09677419 7.2,4.86021505 C7.2,4.6236559 7.41428572,4.43010753 7.62857143,4.43010753 L7.7142857,4.43010753 L7.75714286,2.4516129 C7.75714286,2.21505376 7.95,2.02150536 8.18571428,2.02150536 C8.42142857,2.02150536 8.6142857,2.21505375 8.6142857,2.4516129 L8.57142857,4.43010753 L8.65714286,4.43010753 C8.89285714,4.43010753 9.08571428,4.62365591 9.08571428,4.86021505 C9.08571428,5.11827956 8.89285714,5.29032256 8.67857142,5.29032257 Z" id="形状"></path>
            </g>
        </g>
    </g>
</svg>