<?xml version="1.0" encoding="UTF-8"?>
<svg width="24px" height="24px" viewBox="0 0 24 24" version="1.1" xmlns="http://www.w3.org/2000/svg" xmlns:xlink="http://www.w3.org/1999/xlink">
    <title>Systemmanagement</title>
    <g id="后续新增页面" stroke="none" stroke-width="1" fill="none" fill-rule="evenodd">
        <g id="Systemmanagement">
            <circle id="椭圆形" fill="#166AEA" fill-rule="nonzero" cx="7" cy="7" r="7"></circle>
            <circle id="椭圆形备份-2" stroke="#9DC3FF" fill-opacity="0.7" fill="#9ABFF6" cx="13" cy="13" r="10"></circle>
            <g id="编组" transform="translate(7.000000, 7.000000)" fill="#FFFFFF" fill-rule="nonzero">
                <g id="形状结合">
                    <path d="M4.78846154,6.23076923 C5.33076923,6.23076923 5.76923078,6.66923078 5.76923078,7.21153847 L5.76923078,9.11538462 C5.76923078,10.7076923 4.47692307,12 2.88461538,12 C1.29230769,12 9.23705556e-14,10.7076923 9.23705556e-14,9.11538462 C9.23705556e-14,7.52307693 1.29230769,6.23076923 2.88461538,6.23076923 L4.78846154,6.23076923 Z M9.11538462,6.23076923 C10.7076923,6.23076923 12,7.52307693 12,9.11538462 C12,10.7076923 10.7076923,12 9.11538462,12 C7.52307693,12 6.23076923,10.7076923 6.23076923,9.11538462 L6.23076923,7.21153847 C6.23076923,6.66923078 6.66923078,6.23076923 7.21153847,6.23076923 L9.11538462,6.23076923 Z M9.11538462,0 C10.7076923,0 12,1.29230769 12,2.88461538 C12,4.47692307 10.7076923,5.76923078 9.11538462,5.76923078 L7.21153847,5.76923078 C6.66923078,5.76923078 6.23076923,5.33076923 6.23076923,4.78846154 L6.23076923,2.88461538 C6.23076923,1.29230769 7.52307693,0 9.11538462,0 Z M2.88461538,0 C4.47692307,0 5.76923078,1.29230769 5.76923078,2.88461538 L5.76923078,4.78846154 C5.76923078,5.33076923 5.33076923,5.76923078 4.78846154,5.76923078 L2.88461538,5.76923078 C1.29230769,5.76923078 0,4.47692307 0,2.88461538 C0,1.29230769 1.29230769,0 2.88461538,0 Z" id="形状"></path>
                </g>
            </g>
        </g>
    </g>
</svg>