<?xml version="1.0" encoding="UTF-8"?>
<svg width="24px" height="24px" viewBox="0 0 24 24" version="1.1" xmlns="http://www.w3.org/2000/svg" xmlns:xlink="http://www.w3.org/1999/xlink">
    <title>System</title>
    <g id="后续新增页面" stroke="none" stroke-width="1" fill="none" fill-rule="evenodd">
        <g id="System">
            <circle id="椭圆形" fill="#166AEA" fill-rule="nonzero" cx="7" cy="7" r="7"></circle>
            <circle id="椭圆形备份-2" stroke="#9DC3FF" fill-opacity="0.7" fill="#9ABFF6" cx="13" cy="13" r="10"></circle>
            <g id="编组" transform="translate(7.443880, 8.416694)" fill="#FFFFFF" fill-rule="nonzero">
                <g id="形状结合" transform="translate(-0.000000, -0.000000)">
                    <g id="编组" transform="translate(-0.000000, -0.000000)">
                        <g transform="translate(-0.000000, -0.000000)" id="形状">
                            <g transform="translate(-0.000000, -0.000000)">
                                <g transform="translate(-0.000000, -0.000000)">
                                    <g transform="translate(-0.000000, -0.000000)">
                                        <g transform="translate(-0.000000, -0.000000)">
                                            <g transform="translate(-0.000000, -0.000000)">
                                                <g transform="translate(-0.000000, -0.000000)">
                                                    <g transform="translate(-0.000000, -0.000000)">
                                                        <path d="M9.4285889,9.16661266 C9.65305873,9.16661266 9.78132721,9.26864421 9.81339433,9.47270733 L9.8214111,9.58337114 C9.8214111,9.86112371 9.69047036,10 9.4285889,10 L1.57141111,10 C1.34694127,10 1.21867279,9.89796844 1.18660567,9.69390533 L1.17858889,9.58324151 C1.17858889,9.30548894 1.30952963,9.16661266 1.57141111,9.16661266 L9.4285889,9.16661266 Z M10.2666667,-1.37134748e-12 C10.6716755,-1.37134748e-12 11,0.348222327 11,0.777776337 L11,7.5555786 C11,7.76185771 10.9227383,7.95968817 10.7852116,8.10554953 C10.647685,8.25141089 10.4611588,8.33335494 10.2666667,8.33335494 L0.733333333,8.33335494 C0.328324517,8.33335494 -4.54747351e-13,7.98513261 -4.54747351e-13,7.5555786 L-4.54747351e-13,0.777776337 C-4.54747351e-13,0.348222327 0.328324517,-1.37134748e-12 0.733333333,-1.37134748e-12 L10.2666667,-1.37134748e-12 Z M7.4641111,4.99993519 L3.5358889,4.99993519 C3.31890541,4.99993519 3.14300555,5.1864953 3.14300555,5.41662886 C3.14300555,5.64676241 3.31890541,5.83332253 3.5358889,5.83332253 L7.4641111,5.83332253 C7.68109459,5.83332253 7.85699445,5.64676241 7.85699445,5.41662886 C7.85699445,5.1864953 7.68109459,4.99993519 7.4641111,4.99993519 Z M7.4641111,2.91666127 L3.5358889,2.91666127 C3.31890541,2.91666127 3.14300555,3.10322137 3.14300555,3.33335494 C3.14300555,3.5634885 3.31890541,3.75004861 3.5358889,3.75004861 L7.4641111,3.75004861 C7.68109459,3.75004861 7.85699445,3.5634885 7.85699445,3.33335494 C7.85699445,3.10322137 7.68109459,2.91666127 7.4641111,2.91666127 Z"></path>
                                                    </g>
                                                </g>
                                            </g>
                                        </g>
                                    </g>
                                </g>
                            </g>
                        </g>
                    </g>
                </g>
            </g>
        </g>
    </g>
</svg>