<?xml version="1.0" encoding="UTF-8"?>
<svg width="14px" height="14px" viewBox="0 0 14 14" version="1.1" xmlns="http://www.w3.org/2000/svg" xmlns:xlink="http://www.w3.org/1999/xlink">
    <title>编组备份 3</title>
    <g id="黑色版本" stroke="none" stroke-width="1" fill="none" fill-rule="evenodd">
        <g id="切换" transform="translate(-1845.000000, -185.000000)">
            <g id="编组备份-3" transform="translate(1845.000000, 185.000000)">
                <path d="M5.09400786,6.52076425 L1.42203038,6.52076425 C0.635408665,6.51896216 -0.00102984013,5.88031133 1.25108428e-06,5.09379326 L1.25108428e-06,1.42230606 C0.00128645684,0.637503363 0.637123342,0.00154271966 1.42203038,7.034384e-07 L5.09400786,7.034384e-07 C5.88055482,-0.000772436779 6.51894825,0.635864795 6.5202361,1.42230606 L6.5202361,5.09379326 C6.52035981,5.47212574 6.37016646,5.83501188 6.10269679,6.10262086 C5.83522713,6.37022983 5.47239087,6.52064051 5.09400786,6.52076425 Z M1.42203038,1.15070546 C1.27201987,1.15070546 1.1503979,1.27231558 1.1503979,1.42230606 L1.1503979,5.09379326 C1.1496663,5.16647774 1.17789409,5.23646824 1.22885964,5.28830256 C1.27982519,5.34013689 1.34933403,5.36954906 1.42203038,5.37004501 L5.09400786,5.37004501 C5.16735507,5.37041728 5.23780016,5.3414183 5.28962129,5.28951642 C5.34144241,5.23761454 5.37032613,5.16712993 5.36983258,5.09379326 L5.36983258,1.42230606 C5.36950991,1.34954228 5.34029982,1.27988381 5.2886208,1.22865237 C5.23664907,1.17790447 5.16664652,1.14987362 5.09400786,1.15070546 L1.42203038,1.15070546 Z M5.09400786,13.9999981 L1.42203038,13.9999981 C0.637198829,13.9987116 0.00128721583,13.3628849 1.25196103e-06,12.5781582 L1.25196103e-06,8.90620434 C-0.00102953856,8.11976216 0.635484024,7.48124488 1.42203038,7.47969565 L5.09400786,7.47969565 C5.472033,7.4787667 5.8355905,7.62902329 6.10300827,7.896872 C6.37042605,8.16472071 6.52070271,8.52776304 6.5202371,8.90620434 L6.5202371,12.5781582 C6.51974132,12.9558292 6.36918547,13.3178283 6.10170228,13.5844882 C5.83421908,13.851148 5.47172911,14.0006154 5.09400786,13.9999981 L5.09400786,13.9999981 Z M1.42203038,8.63038978 C1.34941567,8.63091577 1.27997821,8.66026381 1.22902614,8.71199689 C1.17807408,8.76372997 1.14979105,8.8336003 1.15040229,8.90620434 L1.15040229,12.5781582 C1.15040229,12.7279481 1.27222041,12.8497493 1.42203038,12.8497493 L5.09400786,12.8497493 C5.1665988,12.8503363 5.23650806,12.8223428 5.2886208,12.7718118 C5.34021347,12.7205222 5.36940789,12.6509012 5.36985923,12.5781582 L5.36985923,8.90620434 C5.37097181,8.83271736 5.34228049,8.76190375 5.2903041,8.7099343 C5.23832771,8.65796485 5.16750465,8.62927736 5.09400786,8.63038978 L1.42203038,8.63038978 L1.42203038,8.63038978 Z" id="形状" fill="#FFF7F7" fill-rule="nonzero"></path>
                <path d="M8.22929979,1 L13.25,1 C13.6642136,1 14,1.33578644 14,1.75 C14,2.16421356 13.6642136,2.5 13.25,2.5 L8.22929979,2.5 C7.81508622,2.5 7.47929979,2.16421356 7.47929979,1.75 C7.47929979,1.33578644 7.81508622,1 8.22929979,1 Z" id="矩形" fill="#FFFFFF"></path>
                <path d="M8.22929979,9 L13.25,9 C13.6642136,9 14,9.33578644 14,9.75 C14,10.1642136 13.6642136,10.5 13.25,10.5 L8.22929979,10.5 C7.81508622,10.5 7.47929979,10.1642136 7.47929979,9.75 C7.47929979,9.33578644 7.81508622,9 8.22929979,9 Z" id="矩形备份-4" fill="#FFFFFF"></path>
                <path d="M8.22929979,4 L13.25,4 C13.6642136,4 14,4.33578644 14,4.75 C14,5.16421356 13.6642136,5.5 13.25,5.5 L8.22929979,5.5 C7.81508622,5.5 7.47929979,5.16421356 7.47929979,4.75 C7.47929979,4.33578644 7.81508622,4 8.22929979,4 Z" id="矩形备份" fill="#FFFFFF"></path>
                <path d="M8.22929979,12 L13.25,12 C13.6642136,12 14,12.3357864 14,12.75 C14,13.1642136 13.6642136,13.5 13.25,13.5 L8.22929979,13.5 C7.81508622,13.5 7.47929979,13.1642136 7.47929979,12.75 C7.47929979,12.3357864 7.81508622,12 8.22929979,12 Z" id="矩形备份-5" fill="#FFFFFF"></path>
            </g>
        </g>
    </g>
</svg>