<?xml version="1.0" encoding="UTF-8"?>
<svg width="14px" height="14px" viewBox="0 0 14 14" version="1.1" xmlns="http://www.w3.org/2000/svg" xmlns:xlink="http://www.w3.org/1999/xlink">
    <title>编组</title>
    <g id="黑色版本" stroke="none" stroke-width="1" fill="none" fill-rule="evenodd">
        <g id="切换" transform="translate(-1818.000000, -185.000000)" fill="#FFF7F7" fill-rule="nonzero">
            <g id="编组" transform="translate(1818.000000, 185.000000)">
                <path d="M5.09400786,6.52076425 L1.42203038,6.52076425 C0.635408665,6.51896216 -0.00102984013,5.88031133 1.25108116e-06,5.09379326 L1.25108116e-06,1.42230606 C0.00128645684,0.637503364 0.637123342,0.00154272087 1.42203038,7.0463862e-07 L5.09400786,7.0463862e-07 C5.88055482,-0.000772435579 6.51894825,0.635864796 6.5202361,1.42230606 L6.5202361,5.09379326 C6.52035981,5.47212575 6.37016646,5.83501188 6.10269679,6.10262086 C5.83522713,6.37022983 5.47239087,6.52064051 5.09400786,6.52076425 Z M1.42203038,1.15070546 C1.27201987,1.15070546 1.1503979,1.27231558 1.1503979,1.42230606 L1.1503979,5.09379326 C1.1496663,5.16647774 1.17789409,5.23646825 1.22885964,5.28830257 C1.27982519,5.34013689 1.34933403,5.36954907 1.42203038,5.37004501 L5.09400786,5.37004501 C5.16735507,5.37041728 5.23780016,5.3414183 5.28962129,5.28951643 C5.34144241,5.23761455 5.37032613,5.16712993 5.36983258,5.09379326 L5.36983258,1.42230606 C5.36950991,1.34954228 5.34029982,1.27988381 5.2886208,1.22865237 C5.23664907,1.17790447 5.16664652,1.14987362 5.09400786,1.15070546 L1.42203038,1.15070546 Z M12.5775054,8.91787213 L8.90599464,8.91787213 C8.52782638,8.91848968 8.16493472,8.76871701 7.89731025,8.50156593 C7.62968577,8.23441486 7.47929979,7.87181731 7.47929979,7.49369903 L7.47929979,1.42230606 C7.48084483,0.635789417 8.11937183,-0.000772720126 8.90599464,7.04037471e-07 L12.5775054,7.04037471e-07 C13.3624884,0.00154190329 13.9984593,0.637427875 14,1.42230606 L14,7.49369903 C13.999487,8.27930605 13.363216,8.91632695 12.5775054,8.91787213 L12.5775054,8.91787213 Z M8.90599464,1.15070465 C8.83330667,1.14985266 8.76328229,1.17805055 8.71148757,1.22904971 C8.65969285,1.28004887 8.63042003,1.34962297 8.63017631,1.42230606 L8.63017631,7.49369903 C8.63017631,7.64395562 8.7515177,7.7662141 8.90226106,7.7662141 L12.5737718,7.7662141 C12.7239332,7.76569991 12.8453899,7.64384123 12.8453899,7.49369903 L12.8453899,1.42230606 C12.8451529,1.27386448 12.7259493,1.15301564 12.5775054,1.15070465 L8.90599464,1.15070465 Z M5.09400786,13.9999981 L1.42203038,13.9999981 C0.637198829,13.9987116 0.00128721583,13.3628849 1.25196076e-06,12.5781582 L1.25196076e-06,8.90620434 C-0.00102953856,8.11976216 0.635484024,7.48124488 1.42203038,7.47969565 L5.09400786,7.47969565 C5.472033,7.4787667 5.8355905,7.62902329 6.10300827,7.896872 C6.37042605,8.16472071 6.52070271,8.52776304 6.5202371,8.90620434 L6.5202371,12.5781582 C6.51974132,12.9558292 6.36918547,13.3178283 6.10170228,13.5844882 C5.83421908,13.851148 5.47172911,14.0006154 5.09400786,13.9999981 L5.09400786,13.9999981 Z M1.42203038,8.63038979 C1.34941567,8.63091577 1.27997821,8.66026381 1.22902614,8.71199689 C1.17807408,8.76372997 1.14979105,8.83360031 1.15040229,8.90620434 L1.15040229,12.5781582 C1.15040229,12.7279481 1.27222041,12.8497493 1.42203038,12.8497493 L5.09400786,12.8497493 C5.1665988,12.8503363 5.23650806,12.8223428 5.2886208,12.7718119 C5.34021347,12.7205222 5.36940789,12.6509012 5.36985923,12.5781582 L5.36985923,8.90620434 C5.37097181,8.83271737 5.34228049,8.76190375 5.2903041,8.7099343 C5.23832771,8.65796485 5.16750465,8.62927736 5.09400786,8.63038979 L1.42203038,8.63038979 L1.42203038,8.63038979 Z M12.5775054,13.9999981 L8.90599464,13.9999981 C8.52823037,14.0006155 8.16569233,13.8511629 7.89813504,13.5845165 C7.63057774,13.31787 7.47991816,12.955872 7.47929979,12.5781582 L7.47929979,11.3065767 C7.48007227,10.5212731 8.11685216,9.88499582 8.90226106,9.88473681 L12.5737718,9.88473681 C12.9515628,9.88412065 13.3141443,10.0334977 13.5818389,10.3000442 C13.8483232,10.5669597 13.9995333,10.9290687 14,11.3065767 L14,12.5781582 C13.9984585,13.3629604 13.3624129,13.9987124 12.5775054,13.9999981 L12.5775054,13.9999981 Z M8.90599464,11.0354612 C8.75609014,11.0354612 8.63442414,11.1566931 8.63390988,11.3065767 L8.63390988,12.5781582 C8.63390988,12.7279481 8.75618467,12.84974 8.90599464,12.84974 L12.5775054,12.84974 C12.7275159,12.84974 12.8491235,12.7281486 12.8491235,12.5781582 L12.8491235,11.3065767 C12.8491235,11.2345916 12.8204919,11.1655616 12.7695402,11.1147042 C12.7185884,11.0638468 12.6495001,11.0353377 12.5775054,11.0354612 L8.90599464,11.0354612 Z" id="形状"></path>
            </g>
        </g>
    </g>
</svg>