<?xml version="1.0" encoding="UTF-8"?>
<svg width="24px" height="24px" viewBox="0 0 24 24" version="1.1" xmlns="http://www.w3.org/2000/svg" xmlns:xlink="http://www.w3.org/1999/xlink">
    <title>编组 26</title>
    <g id="页面调整" stroke="none" stroke-width="1" fill="none" fill-rule="evenodd">
        <g id="工单效率-负荷分析" transform="translate(-1223.000000, -354.000000)" fill="#0271E3" fill-rule="nonzero">
            <g id="编组-30" transform="translate(979.000000, 275.000000)">
                <g id="编组-26" transform="translate(244.000000, 79.000000)">
                    <circle id="椭圆形" fill-opacity="0.15" cx="12" cy="12" r="12"></circle>
                    <g id="编组-11" transform="translate(7.000000, 6.000000)">
                        <path d="M1.58537548,0.972151898 C1.80367554,1.01265823 1.88305739,1.15443039 1.89298012,1.35696203 C1.91282558,1.71139241 1.89298012,2.06582278 1.90290285,2.42025316 C1.92274832,3.35189873 2.4387303,3.89873418 3.35162151,3.90886076 C4.42327639,3.92911392 5.48500857,3.90886076 6.55666346,3.91898734 C7.3802501,3.92911392 8.08476396,3.34177215 8.02522758,2.42025316 C8.00538213,2.08607595 8.01530486,1.74177216 8.03515032,1.39746836 C8.05499577,1.09367088 8.14430034,1.01265823 8.44198226,0.98227848 C9.17626432,0.901265824 10.0097737,1.39746836 9.99985096,2.41012658 C9.99338445,4.19195368 9.99113208,5.97378077 9.99309384,7.75841059 C9.47016637,7.13959176 8.7069851,6.75 7.85714286,6.75 C7.76344321,6.75 7.67079703,6.75473597 7.5794096,6.76399237 C7.59466826,6.66080049 7.59590302,6.5161998 7.59855018,6.31898734 C7.59855018,6.08607595 7.52909105,6.02531646 7.30086826,6.02531646 C5.93153144,6.04556963 4.56219463,6.03544304 3.19285782,6.03544304 C2.41888484,6.03544303 2.4387303,6.03544303 2.42880757,6.80506329 C2.42880757,7.01772152 2.48834396,7.06835443 2.68679856,7.06835443 C3.20278055,7.05485232 3.71876254,7.05485232 4.23474452,7.05635256 L5.0087175,7.05822785 L6.59353936,7.05859496 C5.95427521,7.39012168 5.45014144,7.96535575 5.19121085,8.66872076 C4.49880504,8.67094555 3.80614051,8.66835443 3.11347598,8.66835443 C2.34942572,8.66835443 2.36927118,8.66835443 2.35934845,9.44810127 C2.35934845,9.67088607 2.4387303,9.70126582 2.62726218,9.70126582 C3.13662902,9.68776371 3.64599585,9.68776371 4.15536268,9.68926395 L4.91941293,9.69113924 L5.00052998,9.6916311 C5.00017719,9.71104283 5,9.73049969 5,9.75 C5,10.6350052 5.36496973,11.4305049 5.94549388,11.9796132 C4.63185256,11.9862132 3.28220206,11.9953462 2.03048359,11.9986946 L1.11900714,12 L1.16862079,11.9898734 C0.920552538,11.9898734 0.761788842,11.9493671 0.583179697,11.8177215 C0.217030929,11.5716456 0.00359299876,11.2517468 0.000735252229,10.8211139 L0.00766131794,10.6734177 L0.00766131794,2.2886076 C-0.0915659848,1.43797468 0.791557033,0.840506332 1.58537548,0.972151898 Z M4.97894931,1.78205277e-12 C5.56439041,1.78205277e-12 5.96129963,0.324050637 6.14983152,0.88101266 C6.19944517,1.01265823 6.25898155,1.05316455 6.39789978,1.05316455 C6.71542716,1.04303797 7.0230318,1.06329114 7.34055918,1.04303797 C7.58862745,1.03291139 7.70770021,1.10379746 7.68785475,1.38734177 C7.66800929,1.78227848 7.68785475,2.1772152 7.67793202,2.57215189 C7.66800929,3.17974683 7.3802501,3.4835443 6.794809,3.49367088 C6.18952244,3.51392405 5.56439041,3.50379746 4.93925839,3.50379746 L3.14324417,3.50379746 C2.4684985,3.49367088 2.19066204,3.22025316 2.19066204,2.53164557 C2.19066204,2.1670886 2.20058477,1.80253164 2.18073931,1.43797468 C2.17081658,1.2050633 2.26012115,1.11392405 2.4684985,1.0835443 C2.80587134,1.02278481 3.13332144,1.05316455 3.47069428,1.05316455 C3.63938069,1.05316455 3.72868528,1.01265823 3.79814439,0.840506332 C4.01644445,0.324050637 4.40343095,1.78205277e-12 4.97894931,1.78205277e-12 Z" id="形状结合"></path>
                        <path d="M7.85714286,7.5 C9.04061018,7.5 10,8.50735931 10,9.75 C10,10.9926407 9.04061018,12 7.85714286,12 C6.67367554,12 5.71428571,10.9926407 5.71428571,9.75 C5.71428571,8.50735931 6.67367554,7.5 7.85714286,7.5 Z M8.25970463,8.87450625 L7.68970463,8.87450625 L7.76970463,8.97425625 L7.76470463,9.00050625 L7.00720463,9.00050625 L6.98470463,9.17375625 L7.74220463,9.17375625 L7.73220463,9.24988125 L7.06970463,9.24988125 L7.00970463,9.69875625 L7.67470463,9.69875625 L7.66470463,9.77225625 L6.97720463,9.77225625 L6.95220463,9.94813125 L7.64220463,9.94813125 L7.63220463,10.0216313 L6.86970463,10.0216313 L6.84720463,10.1975063 L7.60720463,10.1975063 L7.59720463,10.2710063 L6.90970463,10.2710063 L6.88470463,10.4468813 L7.57470463,10.4468813 L7.56470463,10.5203813 L7.33970463,10.7645063 L7.83470463,10.7645063 C7.88303796,10.7645063 7.92553796,10.7483188 7.96220463,10.7159438 C7.99887129,10.6835688 8.02137129,10.6420063 8.02970463,10.5912563 L8.04720463,10.4468813 L8.73470463,10.4468813 L8.76720463,10.1975063 L8.84220463,10.1975063 L8.86470463,10.0216313 L8.79220463,10.0216313 L8.82720463,9.77225625 L8.13970463,9.77225625 L8.14970463,9.69875625 L8.81470463,9.69875625 L8.87470463,9.24988125 L8.20970463,9.24988125 L8.21970463,9.17375625 L8.97970463,9.17375625 L9.00220463,9.00050625 L8.24220463,9.00050625 L8.25970463,8.87450625 Z" id="形状结合"></path>
                    </g>
                </g>
            </g>
        </g>
    </g>
</svg>