<?xml version="1.0" encoding="UTF-8"?>
<svg width="11px" height="10px" viewBox="0 0 11 10" version="1.1" xmlns="http://www.w3.org/2000/svg" xmlns:xlink="http://www.w3.org/1999/xlink">
    <title>路径</title>
    <g id="黑色版本" stroke="none" stroke-width="1" fill="none" fill-rule="evenodd">
        <g id="模版管理-模版分割，点击字变色" transform="translate(-368.000000, -173.000000)" fill="#FFFFFF" fill-rule="nonzero">
            <g id="title/second" transform="translate(288.000000, 168.000000)">
                <path d="M86.2306325,11.9708545 C84.6715773,11.9708545 84.0932182,11.8723166 83.1181102,12.2439454 C81.7713995,12.8351729 80.8717297,13.5615382 80,14.7777778 C80.019558,14.6707937 80.0307341,14.5638097 80.0502921,14.459641 L80.1089662,14.1415043 C80.3911608,12.8379883 80.7823216,11.5541799 81.489205,10.4224014 C82.2156464,9.26528458 82.4447549,8.86550213 83.6713233,8.27427456 C84.4676149,7.88856896 84.7805436,7.86886138 85.6550673,7.80973862 C85.8422657,7.79566177 86.0266701,7.79003103 86.2194564,7.78158492 L86.2194564,5.02533832 C86.2334265,5.01970759 86.2446025,5.00563074 86.2529845,5 L91,9.88185047 C89.4074168,11.5063186 87.8176276,13.1223406 86.2250445,14.7439933 C86.2306325,13.8261829 86.2306325,12.8999264 86.2306325,11.9708545 Z" id="路径"></path>
            </g>
        </g>
    </g>
</svg>