<?xml version="1.0" encoding="UTF-8"?>
<svg width="24px" height="24px" viewBox="0 0 24 24" version="1.1" xmlns="http://www.w3.org/2000/svg" xmlns:xlink="http://www.w3.org/1999/xlink">
    <title>tenantry</title>
    <g id="后续新增页面" stroke="none" stroke-width="1" fill="none" fill-rule="evenodd">
        <g id="tenantry">
            <circle id="椭圆形" fill="#166AEA" fill-rule="nonzero" cx="7" cy="7" r="7"></circle>
            <circle id="椭圆形备份-2" stroke="#9DC3FF" fill-opacity="0.7" fill="#9ABFF6" cx="13" cy="13" r="10"></circle>
            <g id="编组" transform="translate(7.000000, 7.000000)" fill="#FFFFFF" fill-rule="nonzero">
                <g id="形状">
                    <path d="M5.56165332,5.95819882 C6.07513653,5.95979223 6.5861484,6.034101 7.08128988,6.17918208 L7.08128988,6.17918208 L6.60486835,6.47655234 C6.49536195,6.54695722 6.45753552,6.69703899 6.51918372,6.81651835 L6.51918372,6.81651835 L6.75730075,7.24067593 C6.5802916,7.47346215 6.4395595,7.73511489 6.34050222,8.01559845 L6.34050222,8.01559845 L5.87833021,8.01559845 C5.81514516,8.01559842 5.75455072,8.04238383 5.70988972,8.09005657 C5.66522872,8.1377293 5.64016344,8.20238013 5.64021319,8.26977303 L5.64021319,8.26977303 L5.64021319,9.75082492 C5.64015747,9.81831198 5.6652477,9.88305664 5.70996085,9.93080692 C5.75472972,9.97849779 5.81543187,10.0052589 5.8787052,10.0051995 L5.8787052,10.0051995 L6.35043939,10.0051995 C6.44950849,10.2856771 6.59023956,10.5473279 6.76723792,10.780122 L6.76723792,10.780122 L6.52912089,11.2042796 C6.46561947,11.3244502 6.50365984,11.4767126 6.61480552,11.5472453 L6.61480552,11.5472453 L7.36065552,12 L0.879185296,12 C0.29982972,12 -0.128968412,11.2936706 0.03546358,10.5721428 C0.661776342,7.86048165 2.9432928,5.95559286 5.56165332,5.95819882 Z M9.91911561,5.96577798 C9.97229812,5.95050895 10.028991,5.9584326 10.0766895,5.98780122 L10.0766895,5.98780122 L11.1414663,6.64073593 C11.1892628,6.66995574 11.2241801,6.71827636 11.2384998,6.77501643 C11.2528194,6.83175649 11.2453621,6.89224315 11.2177762,6.94310569 L11.2177762,6.94310569 L11.015283,7.31906809 C11.1705701,7.52618271 11.2950826,7.75752843 11.3844581,8.00499949 L11.3844581,8.00499949 L11.7928194,8.00439955 C11.9071993,8.0045098 11.9998966,8.10338043 12,8.22537747 L12,8.22537747 L12,9.54644536 C12,9.60505234 11.9781721,9.66125893 11.9393182,9.70270033 C11.9004643,9.74414173 11.8477671,9.76742326 11.7928194,9.76742326 L11.7928194,9.76742326 L11.3853956,9.76742326 C11.2950362,10.0118111 11.1696744,10.2397664 11.0137831,10.4431557 L11.0137831,10.4431557 L11.2162763,10.8191181 C11.2438621,10.8699806 11.2513195,10.9304673 11.2369998,10.9872074 C11.2226802,11.0439474 11.1877628,11.0922681 11.1399663,11.1214879 L11.1399663,11.1214879 L10.0776269,11.7744226 C9.98177452,11.8282964 9.86318074,11.7938781 9.80613604,11.6956304 L9.80613604,11.6956304 L9.60120541,11.3170683 C9.47679643,11.3387408 9.35096263,11.3497749 9.22490553,11.350065 C9.10042014,11.3493546 8.97617491,11.3383224 8.85329298,11.3170683 L8.85329298,11.3170683 L8.64742488,11.6966303 C8.6196166,11.7478824 8.57368605,11.785086 8.51993265,11.7998986 C8.46617926,11.8147113 8.40910098,11.8058934 8.36149698,11.7754225 L8.36149698,11.7754225 L7.29428274,11.1224878 C7.24655629,11.0931963 7.21171197,11.0448615 7.19743219,10.9881402 C7.18315243,10.9314188 7.19060988,10.8709687 7.2181603,10.820118 L7.2181603,10.820118 L7.42534086,10.4441556 C7.26945399,10.2374773 7.14488548,10.0060277 7.05616573,9.75822418 L7.05616573,9.75822418 L6.64892938,9.75822418 C6.53450671,9.75822418 6.44174883,9.659289 6.44174883,9.53724628 L6.44174883,9.53724628 L6.44174883,8.22597741 C6.44185219,8.10398037 6.53454955,8.00510974 6.64892938,8.00499949 L6.64892938,8.00499949 L7.05147838,8.00499949 C7.14085657,7.75752979 7.26536892,7.52618449 7.42065351,7.31906809 L7.42065351,7.31906809 L7.2181603,6.94310569 C7.19114085,6.89131641 7.18475877,6.8301213 7.20044748,6.77326495 C7.21613619,6.71640861 7.25258053,6.66865723 7.30159501,6.64073593 L7.30159501,6.64073593 L8.36393439,5.98780122 C8.41162119,5.95837825 8.46833121,5.95042429 8.52152854,5.96569758 C8.57472589,5.98097086 8.62002949,6.01821355 8.64742488,6.06919308 L8.64742488,6.06919308 L8.85948028,6.44515548 C8.98235647,6.4238514 9.10660534,6.41281893 9.23109282,6.41215878 C9.35477173,6.41282271 9.47821033,6.4238556 9.60026794,6.44515548 L9.60026794,6.44515548 L9.79319898,6.06919308 C9.82063008,6.01825429 9.86593308,5.981047 9.91911561,5.96577798 Z M10.2127738,8.18350402 C9.89716761,7.67958763 9.29177587,7.48363116 8.76682692,7.7154721 C8.24187795,7.94731305 7.94357473,8.54238163 8.05434511,9.13676265 C8.16511548,9.73114368 8.65410891,10.1592967 9.22228062,10.1593841 C9.53816028,10.1594326 9.84111897,10.0256325 10.0645024,9.78742125 C10.4663014,9.35895147 10.5283799,8.6874204 10.2127738,8.18350402 Z M5.71914805,0 C7.23594727,0 8.46555602,1.31149545 8.46555602,2.92930707 C8.46566415,3.97579804 7.94235093,4.94286501 7.092727,5.46625338 C6.24298543,5.98952368 5.19606064,5.98952368 4.34631907,5.46625338 C3.49640649,4.94306829 2.97274011,3.97596306 2.97274011,2.92930707 C2.97274011,1.31149545 4.20234883,0 5.71914805,0 Z"></path>
                </g>
            </g>
        </g>
    </g>
</svg>