<?xml version="1.0" encoding="UTF-8"?>
<svg width="24px" height="24px" viewBox="0 0 24 24" version="1.1" xmlns="http://www.w3.org/2000/svg" xmlns:xlink="http://www.w3.org/1999/xlink">
    <title>text</title>
    <g id="后续新增页面" stroke="none" stroke-width="1" fill="none" fill-rule="evenodd">
        <g id="text">
            <circle id="椭圆形" fill="#166AEA" fill-rule="nonzero" cx="7" cy="7" r="7"></circle>
            <circle id="椭圆形备份-2" stroke="#9DC3FF" fill-opacity="0.7" fill="#9ABFF6" cx="13" cy="13" r="10"></circle>
            <path d="M17.5944406,9.9358 L15.2904576,7.4398 C15.0326131,7.1592694 14.6800215,7.00083175 14.3117148,7 L9.6919366,7 C9.50694744,7.0015849 9.33012607,7.08149455 9.20037398,7.2221482 C9.07062189,7.36280185 8.99856879,7.55267695 9.00002155,7.75 L9.00002155,18.25 C9.00002155,18.664 9.31056431,19 9.6919366,19 L17.3081301,19 C17.6895023,19 18,18.664 18,18.25 L18,10.996 C18,10.5988 17.8537511,10.2166 17.5944406,9.9358 Z M14.8848981,8.0608 L17.0212573,10.375 L15.576768,10.375 C15.1948333,10.375 14.8848981,10.039 14.8848981,9.625 L14.8848981,8.0608 L14.8848981,8.0608 Z M10.7364913,12.724 C10.7364913,12.6724 10.7753035,12.6304 10.8225532,12.6304 L16.188201,12.6304 C16.2354506,12.6304 16.2748253,12.6724 16.2748253,12.724 L16.2748253,13.2868 C16.2748253,13.3378 16.2354506,13.3804 16.188201,13.3804 L10.8225532,13.3804 C10.7747509,13.3794193 10.7364913,13.3377989 10.7364913,13.2868 L10.7364913,12.724 Z M10.7421162,16.468 C10.7421162,16.4164 10.7803659,16.3744 10.8281782,16.3744 L16.1932633,16.3744 C16.2410756,16.3744 16.2798877,16.4164 16.2798877,16.468 L16.2798877,17.0308 C16.2798877,17.0824 16.2410756,17.1244 16.1932633,17.1244 L10.8281782,17.1244 C10.7801553,17.1237431 10.7415537,17.0820289 10.7415537,17.0308 L10.7415537,16.468 L10.7421162,16.468 Z M16.2798877,15.1672 C16.2798877,15.2188 16.2410756,15.2614 16.1932633,15.2614 L10.8281782,15.2614 C10.7799354,15.2607414 10.7412405,15.2186623 10.74155,15.1672 L10.74155,14.605 C10.74155,14.5534 10.7809284,14.5114 10.8281782,14.5114 L16.1932633,14.5114 C16.2410756,14.5114 16.2798877,14.5534 16.2798877,14.605 L16.2798877,15.1672 Z" id="形状" fill="#FFFFFF" fill-rule="nonzero"></path>
        </g>
    </g>
</svg>