<?xml version="1.0" encoding="UTF-8"?>
<svg width="20px" height="20px" viewBox="0 0 20 20" version="1.1" xmlns="http://www.w3.org/2000/svg" xmlns:xlink="http://www.w3.org/1999/xlink">
    <title>编组</title>
    <g id="控件" stroke="none" stroke-width="1" fill="none" fill-rule="evenodd">
        <g id="编组" fill="#FFFFFF" fill-rule="nonzero">
            <path d="M9.99999999,18.8235294 C14.9411765,18.8235294 18.8235294,14.8235294 18.8235294,9.99999999 C18.8235294,5.17647057 14.8235294,1.17647057 9.99999999,1.17647057 C5.17647057,1.17647057 1.17647057,5.17647057 1.17647057,9.99999999 C1.17647057,12.5882353 2.11764703,13.6470588 4.35294116,14.3529412 C4.58823527,14.4705882 4.70588234,14.4705882 4.94117647,14.5882353 C5.05882354,14.5882353 5.52941176,14.7058824 5.52941176,14.8235294 C6.94117646,15.2941177 7.64705882,15.5294118 8.2352941,16.2352941 C8.70588235,16.7058824 9.05882352,17.2941177 9.4117647,17.8823529 C9.52941177,18.117647 9.64705881,18.3529412 9.64705881,18.4705882 C9.88235292,18.4705882 9.88235292,18.7058823 9.99999999,18.8235294 Z M10,20 C8.35294117,20 9.4117647,18.8235294 7.52941175,16.9411765 C5.76470587,15.1764706 1.56737368e-15,16.2352941 1.56737368e-15,10 C1.56737368e-15,4.47058823 4.47058823,7.83686841e-16 10,7.83686841e-16 C15.5294117,7.83686841e-16 20,4.47058823 20,10 C20,15.5294117 15.5294118,20 10,20 Z M12,17.0588235 C10.8235294,17.0588235 9.88235295,16.1176471 9.88235295,14.9411765 C9.88235295,13.7647059 10.8235294,12.9411765 12,12.9411765 C13.1764706,12.9411765 14.1176471,13.8823529 14.1176471,14.9411765 C14.1176471,16 13.1764706,17.0588235 12,17.0588235 Z M12,15.8823529 C12.4705883,15.8823529 12.9411765,15.5294118 12.9411765,14.9411765 C12.9411765,14.3529411 12.5882353,14.1176471 12,14.1176471 C11.4117647,14.1176471 11.0588235,14.4705882 11.0588235,14.9411765 C11.0588235,15.4117647 11.5294118,15.8823529 12,15.8823529 Z M12.9411765,5.88235293 C12.2352941,5.88235293 11.7647059,5.41176469 11.7647059,4.70588234 C11.7647059,3.99999998 12.2352941,3.52941177 12.9411765,3.52941177 C13.6470588,3.52941177 14.1176471,4.00000001 14.1176471,4.70588234 C14.1176471,5.41176466 13.6470588,5.88235293 12.9411765,5.88235293 Z M9.64705881,4.94117647 C8.94117646,4.94117647 8.47058824,4.47058823 8.47058824,3.76470587 C8.47058824,3.05882352 8.94117648,2.58823528 9.64705881,2.58823528 C10.3529411,2.58823528 10.8235294,3.05882352 10.8235294,3.76470587 C10.8235294,4.47058823 10.3529412,4.94117647 9.64705881,4.94117647 Z M15.2941176,8.2352941 C14.5882353,8.2352941 14.1176471,7.76470586 14.1176471,7.05882353 C14.1176471,6.35294121 14.5882353,5.88235293 15.2941176,5.88235293 C16,5.88235293 16.4705882,6.35294118 16.4705882,7.05882353 C16.4705882,7.76470589 16,8.2352941 15.2941176,8.2352941 Z M6.47058822,5.88235293 C5.76470587,5.88235293 5.29411765,5.41176469 5.29411765,4.70588234 C5.29411765,3.99999998 5.76470589,3.52941177 6.47058822,3.52941177 C7.17647055,3.52941177 7.64705882,4.00000001 7.64705882,4.70588234 C7.64705882,5.41176466 7.17647057,5.88235293 6.47058822,5.88235293 Z" id="形状"></path>
        </g>
    </g>
</svg>