<?xml version="1.0" encoding="UTF-8"?>
<svg width="24px" height="24px" viewBox="0 0 24 24" version="1.1" xmlns="http://www.w3.org/2000/svg" xmlns:xlink="http://www.w3.org/1999/xlink">
    <title>toroidal</title>
    <g id="后续新增页面" stroke="none" stroke-width="1" fill="none" fill-rule="evenodd">
        <g id="toroidal">
            <circle id="椭圆形" fill="#166AEA" fill-rule="nonzero" cx="7" cy="7" r="7"></circle>
            <circle id="椭圆形备份-2" stroke="#9DC3FF" fill-opacity="0.7" fill="#9ABFF6" cx="13" cy="13" r="10"></circle>
            <path d="M19,13.6165414 C18.7286432,16.4436091 16.4673367,18.6992481 13.6030151,19 L13.6030151,19 L13.6030151,16.5639097 C15.1105528,16.2932331 16.2864322,15.1203007 16.5577889,13.6165414 L16.5577889,13.6165414 L19,13.6165414 Z M9.44221105,13.6165414 C9.7135678,15.1203007 10.8894472,16.2932331 12.3969848,16.5639097 L12.3969848,19 C9.5326633,18.6992481 7.27135676,16.4436091 7,13.6165414 L9.44221105,13.6165414 Z M12.3969848,7 L12.3969848,9.4360903 C10.8894472,9.70676695 9.7135678,10.8796993 9.44221105,12.3834586 L9.44221105,12.3834586 L7,12.3834586 C7.27135678,9.52631575 9.5326633,7.30075188 12.3969848,7 L12.3969848,7 Z M13.6030151,7 C16.4673367,7.30075188 18.7286432,9.52631575 19,12.3834586 L16.5577889,12.3834586 C16.2864322,10.8796993 15.1105528,9.70676695 13.6030151,9.4360903 L13.6030151,7 Z" id="形状结合" fill="#FFFFFF" fill-rule="nonzero"></path>
        </g>
    </g>
</svg>