<?xml version="1.0" encoding="UTF-8"?>
<svg width="44px" height="44px" viewBox="0 0 44 44" version="1.1" xmlns="http://www.w3.org/2000/svg" xmlns:xlink="http://www.w3.org/1999/xlink">
    <title>编组 5</title>
    <g id="页面调整" stroke="none" stroke-width="1" fill="none" fill-rule="evenodd">
        <g id="工单效率-负荷分析" transform="translate(-497.000000, -283.000000)">
            <g id="编组-19" transform="translate(497.000000, 281.000000)">
                <g id="编组-5" transform="translate(0.000000, 2.000000)">
                    <rect id="矩形" fill="#0271E3" x="0" y="0" width="44" height="44" rx="8"></rect>
                    <g id="编组-25备份" transform="translate(6.000000, 6.000000)">
                        <rect id="矩形" x="0" y="0" width="32" height="32"></rect>
                        <g id="编组-11" transform="translate(6.000000, 4.000000)">
                            <path d="M0.0153226359,4.3864979 C-0.18313197,2.75611814 1.58311407,1.61097047 3.17075096,1.86329114 C3.60735109,1.94092827 3.76611477,2.21265824 3.78596023,2.60084389 C3.82565115,3.28016879 3.78596023,3.95949366 3.80580569,4.63881856 C3.84549664,6.42447257 4.87746061,7.47257384 6.70324303,7.49198312 C8.84655279,7.53080168 10.9700171,7.49198312 13.1133269,7.5113924 C14.7605002,7.53080168 16.1695279,6.40506329 16.0504552,4.63881856 C16.0107643,3.99831223 16.0306097,3.33839663 16.0703006,2.67848101 C16.1099915,2.09620253 16.2886007,1.94092827 16.8839645,1.88270042 C18.3525286,1.72742616 20.0195474,2.67848101 19.9997019,4.61940928 C19.9798565,9.85991562 19.9798565,15.1004219 19.9997019,20.3603375 C20.0195474,21.835443 19.0471198,23.0194093 17.4793284,22.9417722 C12.7561086,22.9417722 6.98107947,23 2.23801429,23 L2.23801429,23 L2.33724159,22.9805907 C1.84110508,22.9805907 1.52357768,22.9029536 1.16635939,22.6506329 C0.352695465,22.1265823 -0.0839046669,21.4278481 0.0153226359,20.457384 L0.0153226359,20.457384 Z M14.4429728,16.5949367 C11.7042992,16.6337553 8.96562558,16.614346 6.22695195,16.614346 L6.22695195,16.614346 L5.9229056,16.6148906 C4.70421782,16.6219711 4.73712483,16.721097 4.7186969,18.1088608 C4.7186969,18.535865 4.87746061,18.5940928 5.25452436,18.5940928 C6.78262487,18.5552743 8.31072535,18.5746835 9.83882586,18.5746835 L9.83882586,18.5746835 L13.8979676,18.5741672 C14.9664113,18.5679709 15.034019,18.4874196 15.038098,17.440252 L15.0383366,17.1578059 C15.0581821,16.6531646 14.879573,16.5949367 14.4429728,16.5949367 Z M14.6017365,11.5485232 C11.8630629,11.5873418 9.12438926,11.5679325 6.38571563,11.5679325 C4.83776969,11.5679325 4.87746061,11.5679325 4.85761515,13.043038 C4.85761515,13.4506329 4.97668791,13.5476793 5.37359712,13.5476793 C6.92154309,13.5088608 8.46948904,13.52827 10.017435,13.52827 L10.017435,13.52827 L13.8802565,13.5282055 C15.1957334,13.5264628 15.1779637,13.4776673 15.1971004,12.1113924 C15.1971004,11.6649789 15.0581821,11.5485232 14.6017365,11.5485232 Z M9.95789863,1.58184577e-12 C11.1287808,1.58184577e-12 11.9225993,0.621097054 12.299663,1.6886076 C12.3988903,1.94092827 12.5179631,2.0185654 12.7957996,2.0185654 C13.4308543,1.99915611 14.0460636,2.03797468 14.6811184,1.99915611 C15.1772549,1.97974683 15.4154004,2.11561181 15.3757095,2.65907173 C15.3360186,3.41603376 15.3757095,4.17299579 15.355864,4.9299578 C15.3360186,6.09451475 14.7605002,6.67679324 13.589618,6.69620253 C12.3790449,6.73502109 11.1287808,6.71561181 9.87851678,6.71561181 L6.28648833,6.71561181 C4.93699699,6.69620253 4.38132407,6.17215188 4.38132407,4.85232067 C4.38132407,4.15358649 4.40116953,3.4548523 4.36147861,2.75611814 C4.34163315,2.30970465 4.5202423,2.13502109 4.93699699,2.07679324 C5.61174267,1.96033755 6.26664287,2.0185654 6.94138855,2.0185654 C7.27876138,2.0185654 7.45737055,1.94092827 7.59628877,1.61097047 C8.03288891,0.621097054 8.80686189,1.58184577e-12 9.95789863,1.58184577e-12 Z" id="形状结合" fill="#FFFFFF" fill-rule="nonzero"></path>
                            <g id="编组" transform="translate(13.007080, 16.051885)"></g>
                            <g id="编组" transform="translate(13.046514, 16.890589)"></g>
                        </g>
                    </g>
                </g>
            </g>
        </g>
    </g>
</svg>