<?xml version="1.0" encoding="UTF-8"?>
<svg width="28px" height="28px" viewBox="0 0 28 28" version="1.1" xmlns="http://www.w3.org/2000/svg" xmlns:xlink="http://www.w3.org/1999/xlink">
    <title>总工时</title>
    <g id="页面调整" stroke="none" stroke-width="1" fill="none" fill-rule="evenodd">
        <g id="工单效率-负荷分析备份" transform="translate(-1390.000000, -420.000000)" fill="#4CC09E" fill-rule="nonzero">
            <g id="总工时" transform="translate(1390.000000, 420.000000)">
                <circle id="椭圆形" fill-opacity="0.15" cx="14" cy="14" r="14"></circle>
                <g id="编组" transform="translate(8.000000, 8.000000)">
                    <path d="M6,12 C9.31364999,12 12,9.31365001 12,6 C12,2.68634999 9.31364999,0 6,0 C2.68635001,0 0,2.68635001 0,6 C0,9.31364999 2.68634999,12 6,12 Z M3.43185,7.93185 L5.55,5.81355 L5.55,3.3 C5.55,3.05147186 5.75147186,2.85 6,2.85 C6.24852814,2.85 6.45,3.05147186 6.45,3.3 L6.45,6 C6.45,6.11933767 6.40254722,6.23377827 6.31815,6.31815 L4.06815,8.56815 C3.95516649,8.68513046 3.78785495,8.73204567 3.63052171,8.69086372 C3.47318846,8.64968177 3.35031823,8.52681154 3.30913628,8.36947829 C3.26795433,8.21214505 3.31486954,8.04483351 3.43185,7.93185 L3.43185,7.93185 Z" id="形状"></path>
                </g>
            </g>
        </g>
    </g>
</svg>