<?xml version="1.0" encoding="UTF-8"?>
<svg width="24px" height="24px" viewBox="0 0 24 24" version="1.1" xmlns="http://www.w3.org/2000/svg" xmlns:xlink="http://www.w3.org/1999/xlink">
    <title>tour</title>
    <g id="后续新增页面" stroke="none" stroke-width="1" fill="none" fill-rule="evenodd">
        <g id="tour">
            <circle id="椭圆形" fill="#166AEA" fill-rule="nonzero" cx="7" cy="7" r="7"></circle>
            <circle id="椭圆形备份-2" stroke="#9DC3FF" fill-opacity="0.7" fill="#9ABFF6" cx="13" cy="13" r="10"></circle>
            <g id="编组" transform="translate(7.000000, 7.000000)" fill="#FFFFFF" fill-rule="nonzero">
                <path d="M6,7.71860059 C5.38600335,7.71895727 4.81845647,7.39172409 4.51114873,6.86016603 C4.20384102,6.32860797 4.20345981,5.67348135 4.51014875,5.14156602 C4.81683767,4.60965069 5.38400335,4.28175726 5.99800001,4.28139941 C6.94715658,4.28084771 7.71704772,5.04984344 7.7176006,5.999 C7.71815229,6.94815657 6.94915657,7.71804772 6,7.71860059 L6,7.71860059 Z M6.4296,0 C9.41259999,0.214599993 11.785,2.58800001 11.9986,5.571 L8.5414,5.571 C8.35772295,4.48902364 7.51015896,3.64137945 6.4282,3.45760001 L6.4282,0 L6.4296,0 L6.4296,0 Z M5.56960001,0 L5.56960001,3.45760001 C4.48764104,3.64137945 3.64007706,4.48902364 3.4564,5.571 L0,5.571 C0.213800006,2.5874 2.58680001,0.214000004 5.5704,0 L5.56960001,0 L5.56960001,0 Z M6.4296,12 L6.4296,8.54239999 C7.51155895,8.35862055 8.35912295,7.51097635 8.5428,6.429 L12,6.429 C11.7862,9.4126 9.41319999,11.786 6.4296,12 L6.4296,12 Z M5.56960001,12 C2.58640001,11.7866 0.213399999,9.4136 0,6.4304 L3.4572,6.4304 C3.64087706,7.51237635 4.48844105,8.36002055 5.5704,8.54379999 L5.56960001,12 L5.56960001,12 Z" id="形状"></path>
            </g>
        </g>
    </g>
</svg>