<?xml version="1.0" encoding="UTF-8"?>
<svg width="24px" height="24px" viewBox="0 0 24 24" version="1.1" xmlns="http://www.w3.org/2000/svg" xmlns:xlink="http://www.w3.org/1999/xlink">
    <title>Usermanagement</title>
    <g id="后续新增页面" stroke="none" stroke-width="1" fill="none" fill-rule="evenodd">
        <g id="Usermanagement">
            <circle id="椭圆形" fill="#166AEA" fill-rule="nonzero" cx="7" cy="7" r="7"></circle>
            <circle id="椭圆形备份-2" stroke="#9DC3FF" fill-opacity="0.7" fill="#9ABFF6" cx="13" cy="13" r="10"></circle>
            <g id="编组" transform="translate(7.000000, 6.999973)" fill="#FFFFFF" fill-rule="nonzero">
                <g id="形状">
                    <path d="M6.32789504,4.0217902e-05 C6.5387336,-0.00121827941 6.74820308,0.0270773759 6.95082716,0.0823212745 C7.14386766,0.137565173 7.33143183,0.207630605 7.5121506,0.292517572 C7.6764404,0.373362301 7.82840844,0.473070801 7.96942385,0.588948246 C8.09537936,0.681919685 8.20764404,0.792407483 8.30211066,0.916369402 C8.48967485,1.17237771 8.63205933,1.45668168 8.72241871,1.75984941 C8.81551626,2.04145856 8.88260126,2.32980475 8.91956646,2.62354061 C8.96474615,2.94018246 8.9839133,3.25951915 8.97706788,3.57885583 C9.02909298,3.61523596 9.06742727,3.66643762 9.08659442,3.72707117 C9.11945237,3.79444178 9.14409584,3.86720204 9.15915573,3.94130969 C9.1769538,4.04775526 9.1769538,4.15689565 9.15915573,4.2633412 C9.14546491,4.40077725 9.11123789,4.53551847 9.05510553,4.66217521 C9.01403309,4.74840959 8.95790075,4.82790691 8.88944667,4.89662492 C8.83879065,4.95456365 8.77718198,4.99902824 8.70735882,5.03001872 C8.67586994,5.15263323 8.64985739,5.29545893 8.60878494,5.39786225 C8.56634342,5.50026557 8.52527097,5.60266889 8.47872219,5.70507221 C8.43764975,5.79130659 8.38151741,5.86810908 8.31306332,5.93547969 C8.25419282,5.99476584 8.18984598,6.05000974 8.12139191,6.09851657 C8.06525955,6.13759152 8.01186537,6.18205612 7.96531661,6.23191038 C7.91739874,6.28311203 7.87906446,6.34105076 7.85168283,6.40572654 C7.77501426,6.6011013 7.74078722,6.80995019 7.75310895,7.01879907 C7.75858529,7.14545581 7.78870508,7.27076515 7.84073018,7.3866426 C7.90096977,7.52138382 7.98996008,7.64130349 8.10085568,7.73966458 C8.24324016,7.86632132 8.40752996,7.96872465 8.58414147,8.0414849 C8.78539647,8.12367704 8.99212778,8.19374248 9.20159726,8.25168119 C9.42475757,8.28806132 10.3173987,8.71653839 10.5200228,8.79873053 C10.7170513,8.87956188 10.9021616,8.9860604 11.0703936,9.11537239 C11.2305762,9.25146102 11.3483172,9.42797202 11.412664,9.6260416 L11.412664,9.6260416 L11.3976041,9.60313559 C11.4414147,9.75269834 11.4701654,9.90630333 11.4811181,10.0626031 C11.5071306,10.2458512 11.5071306,10.0976359 11.5071306,10.2822313 C11.5071306,10.4614371 11.496178,10.640643 11.4701654,10.8185014 C11.4564746,10.9518952 11.4167712,11.0812467 11.3565317,11.2011664 C11.2648032,11.2833586 11.1539076,11.3426447 11.0347975,11.3749826 C9.53976041,11.8075019 7.9872219,12.0176982 6.42920708,11.9988344 C4.84107245,11.9947922 3.25567599,11.8344501 1.69903023,11.5178083 C1.49503708,11.4773859 1.29652025,11.4113627 1.11169424,11.3183913 C0.989845979,11.1486173 0.925499145,10.9451581 0.92960639,10.7363092 C0.891272105,10.4290992 0.907701084,10.117847 0.976155162,9.81602671 C1.00764404,9.56136582 1.12675414,9.32422128 1.31431831,9.14636287 C1.50462065,8.99141048 1.72093554,8.87149079 1.95367941,8.79334088 C2.19874502,8.70036945 3.33097547,8.28671392 3.59520822,8.21530106 C3.83895167,8.15200795 4.06933907,8.04662133 4.27564176,7.90404887 C4.41118083,7.82185672 4.5330291,7.72214821 4.63981746,7.60761818 C4.71648603,7.52273122 4.77809469,7.42706496 4.82190531,7.3219668 C4.85476326,7.22495313 4.87256133,7.12254981 4.87393041,7.02014648 L4.87393041,7.02014648 L4.87393041,6.68329344 C4.86982316,6.52160399 4.8082145,6.36530418 4.69731888,6.24403709 C4.59053052,6.13220187 4.47689675,6.0244089 4.35504849,5.92200558 C4.28522534,5.85598237 4.23046206,5.77648507 4.19349687,5.68755586 C4.15242441,5.59054218 4.11135197,5.48813886 4.07438676,5.38573554 L4.07438676,5.38573554 L3.960753,5.01250236 C3.90188249,4.99498601 3.84711923,4.96803777 3.79920137,4.93031023 C3.74580719,4.87776115 3.69788934,4.82251725 3.65407872,4.7618837 C3.58973189,4.66756485 3.5445522,4.56111929 3.51853965,4.4506315 C3.48157445,4.33340664 3.46651455,4.21079213 3.47746721,4.08817762 C3.49663434,3.99924842 3.52401597,3.91166663 3.56098118,3.82812708 C3.59247005,3.73785047 3.63901883,3.6529635 3.69652025,3.57750841 C3.67187679,2.99812119 3.73211637,2.41873396 3.87313178,1.85551567 C3.94432401,1.57929619 4.06069595,1.31789822 4.21540217,1.07805886 C4.47963491,0.692698983 4.85339418,0.392226071 5.29013121,0.214367666 C5.45579007,0.140259997 5.62966344,0.0850160988 5.80901312,0.0513307948 C5.98014831,0.0203403151 6.15402168,0.00282395707 6.32789504,4.0217902e-05 Z M6.70713063,8.21260625 L6.14580718,8.21260625 C6.07735311,8.26515532 6.01300627,8.32309405 5.95413576,8.38642241 C5.90621792,8.43492925 5.86377639,8.49017315 5.82954935,8.54945928 C5.79395322,8.60874543 5.773417,8.67476862 5.77204793,8.74348663 C5.773417,8.81085724 5.7953223,8.87688045 5.83502566,8.93212433 C5.8925271,9.0170113 5.96098118,9.09516122 6.03764975,9.16253182 C6.00752996,9.26358773 5.99247005,9.33500057 5.95002852,9.47378402 C5.90758699,9.61256749 5.87062179,9.75539317 5.840502,9.89821886 C5.81038219,10.0410445 5.75288078,10.1838702 5.75288078,10.3118744 C5.73097547,10.4088881 5.71865373,10.5085966 5.71591557,10.6083051 C5.72549915,10.6689386 5.75424986,10.7268773 5.79942956,10.7713419 C5.85966914,10.8508393 5.92812321,10.9235995 6.00205362,10.9909701 C6.07598403,11.0583407 6.15402168,11.1203217 6.23616657,11.1755656 C6.28408443,11.2119457 6.34158585,11.2361991 6.40182545,11.2469784 C6.46754136,11.238894 6.52778094,11.2119457 6.57843696,11.1701759 C6.66058186,11.114932 6.73725043,11.0542985 6.80707359,10.9855805 C6.87826582,10.9195573 6.94398174,10.8481444 7.00422133,10.7713419 L7.00422133,10.7713419 C7.05213919,10.7363092 7.0808899,10.6770231 7.09047348,10.6136947 C7.08636622,10.5288078 7.07541357,10.4452682 7.05898459,10.3630761 C7.03844838,10.2404615 6.98094694,10.1070677 6.98094694,9.9696317 L6.98094694,9.9696317 L6.8878494,9.54519688 C6.86183685,9.40237118 6.80981175,9.29457821 6.80981175,9.20295418 C6.88921848,9.13962581 6.96041073,9.06821297 7.02338847,8.98871565 C7.07130633,8.91999762 7.09868796,8.83780549 7.10142612,8.75426594 C7.10142612,8.6842005 7.07952082,8.61682989 7.03844838,8.56023859 C7.00422133,8.49421538 6.95630347,8.43492925 6.89880205,8.38642241 L6.89880205,8.38642241 L6.70713063,8.21260625 Z M3.06263549,1.73020634 C2.99144324,2.0010362 2.93941813,2.2786031 2.90656019,2.55751741 C2.86959498,2.82699985 2.85042785,3.09782969 2.84905875,3.37000694 C2.81483172,3.43872496 2.78608101,3.5087904 2.76143754,3.58020324 C2.70941244,3.72437634 2.67381631,3.87259168 2.65738734,4.02484926 C2.63274387,4.27951016 2.66286366,4.53551847 2.74500855,4.77670524 C2.79429549,4.97208 2.87917855,5.15802288 2.99418141,5.32375458 C3.07084997,5.43020013 3.15984027,5.52721382 3.25841415,5.6147956 L3.25841415,5.6147956 L3.25841415,5.70641963 C3.29948659,5.83442378 3.35151169,5.95164865 3.40353679,6.07426316 C3.48157445,6.25212155 3.5965773,6.4124636 3.74169994,6.54450999 L3.74169994,6.54450999 L3.94980034,6.73314769 C3.94432401,6.77626488 3.94432401,6.81938207 3.94980034,6.86115185 C3.95390759,6.94064917 3.97170564,7.02014648 4.00182544,7.09560157 L4.00182544,7.09560157 L4.00182544,7.12659204 C3.93610953,7.19665748 3.86081004,7.25729103 3.77866515,7.30579786 C3.6335425,7.40146412 3.47472903,7.47152956 3.30633199,7.51599415 C3.12561324,7.57258547 2.62179122,7.74101198 1.68670849,8.08325468 L1.68670849,8.08325468 L1.68670849,8.10077103 L1.6196235,8.10077103 C1.28693668,8.20182695 0.97478608,8.36351641 0.700969766,8.57640753 C0.366913861,8.86879597 0.153337137,9.27301961 0.1040502,9.71092856 L0.1040502,9.71092856 L0.1040502,9.76213023 C0.0780376497,9.95076793 0.0465487735,10.0935936 0.0465487735,10.2215978 L0.0465487735,10.2215978 L0,10.2215978 L0,8.05495903 C0.316257843,7.94312381 0.78311466,7.7746973 0.918653736,7.73831717 C1.10211067,7.68981033 1.27735311,7.61435524 1.43753565,7.51329934 C1.53747861,7.45266579 1.627838,7.37855812 1.70724473,7.29367115 C1.76337707,7.23169019 1.80718768,7.16027735 1.83730748,7.08347486 C1.86332002,7.01340942 1.87564176,6.93930175 1.87427268,6.86384668 L1.87427268,6.86384668 L1.87427268,6.62400731 C1.87564176,6.50543505 1.83183114,6.3895576 1.74968625,6.3019758 C1.6716486,6.21978367 1.58813463,6.14028635 1.5005134,6.06752609 C1.45259555,6.01901926 1.41289218,5.96242794 1.38687963,5.89909956 C1.35128351,5.82229707 1.32527096,5.75088423 1.29378209,5.67408173 L1.29378209,5.67408173 L1.21574444,5.40864154 C1.17330291,5.39382 1.13359954,5.37360883 1.09663434,5.34666058 C1.05830006,5.30893304 1.02407302,5.26716326 0.992584142,5.22404607 C0.946035368,5.15398064 0.911808328,5.07852556 0.888533941,4.99902824 C0.873474045,4.91144646 0.873474045,4.82116984 0.888533941,4.73358805 C0.899486595,4.59345718 0.948773531,4.45871596 1.03365659,4.34553335 C1.02818026,4.12321033 1.03913292,3.90223475 1.06514547,3.68125915 C1.08841985,3.47914732 1.1294923,3.27838291 1.18425556,3.08300816 C1.24038791,2.88224375 1.32527096,2.69091121 1.43890473,2.51574764 C1.53200227,2.36753229 1.64974329,2.23683332 1.78665145,2.12769294 C1.90713063,2.03472149 2.03719338,1.95387676 2.17547062,1.88785357 C2.30142612,1.83395708 2.43422704,1.79488212 2.56976611,1.7706287 C2.6970907,1.74502788 2.82715345,1.73155376 2.95858528,1.73020634 L2.95858528,1.73020634 L3.06263549,1.73020634 Z M9.53428408,1.74098564 C9.68762122,1.74098564 9.83958927,1.76254424 9.98608101,1.8029666 C10.254421,1.8811165 10.506332,2.00777324 10.7281232,2.17619977 C10.8184826,2.24357038 10.8992584,2.3244151 10.9663434,2.41603913 C11.1114661,2.59928719 11.2250998,2.80409383 11.3045066,3.02372201 C11.3661152,3.22987607 11.412664,3.44007238 11.4441529,3.6529635 C11.4756418,3.88337098 11.4893326,4.11647329 11.4852253,4.34822816 C11.5235596,4.37517641 11.5509412,4.41290396 11.563263,4.45602115 C11.5865374,4.5058754 11.6057045,4.55707705 11.6207644,4.60962612 C11.6317171,4.68642863 11.6317171,4.76592595 11.6207644,4.84407585 C11.6111808,4.94513175 11.5851683,5.04349284 11.5427268,5.13511687 C11.513976,5.19844525 11.4756418,5.25773138 11.429093,5.30893304 C11.3825442,5.34935541 11.3277809,5.38169329 11.2675414,5.40055706 C11.2470051,5.49218109 11.19498,5.58515253 11.19498,5.67138692 C11.1689675,5.74684199 11.1388477,5.81960224 11.1018825,5.8910151 C11.0745009,5.95703829 11.0347975,6.01632442 10.9827724,6.06483126 L10.9827724,6.06483126 L10.8472333,6.18205612 C10.8034227,6.20900436 10.7637193,6.24134226 10.7281232,6.2790698 C10.6925271,6.31679734 10.6651455,6.35991453 10.6446092,6.40707395 C10.5925841,6.54720482 10.5706788,6.69676756 10.5816315,6.84633032 C10.5871078,6.93930175 10.6090131,7.03092578 10.6446092,7.11716016 C10.6897889,7.21552125 10.7555049,7.30175563 10.8362807,7.37316847 C10.9416999,7.4647925 11.06081,7.53890017 11.1895037,7.59279666 C11.3359954,7.64938796 11.4838562,7.69924221 11.6358243,7.74101198 L11.6358243,7.74101198 L11.4811181,7.74101198 C11.6577296,7.80029813 11.8302339,7.86901614 12,7.94581864 L12,7.94581864 L12,10.1730909 L11.9685111,10.1730909 C11.9698802,10.0868566 11.9589276,10.0006222 11.9370222,9.91708262 C11.9205933,9.71092856 11.882259,9.50746933 11.8233885,9.30939974 C11.7207074,8.98602083 11.530405,8.69632721 11.2730177,8.47130938 C11.0567028,8.29884063 10.8157444,8.16005716 10.556988,8.05765384 L10.556988,8.05765384 L10.2612664,7.92964969 L9.74238448,7.69519998 C9.57535653,7.61570266 9.40148317,7.54967947 9.22350256,7.49578298 C9.04689105,7.45131837 8.87301768,7.39337966 8.70462064,7.3219668 C8.60330862,7.28154444 8.50884198,7.22630054 8.42395893,7.15892993 C8.46913861,7.07000074 8.49104392,6.97298706 8.49104392,6.87327856 L8.49104392,6.87327856 L8.49104392,6.64826073 C8.70462064,6.48522386 8.8716486,6.26963791 8.97432972,6.0244089 C9.03046206,5.90179439 9.08248716,5.77917988 9.13040502,5.65656538 L9.13040502,5.65656538 L9.13040502,5.62557489 L9.16737022,5.51373969 C9.33713634,5.37495624 9.47267541,5.19979265 9.56714203,5.00307049 C9.65476326,4.80230607 9.71226469,4.59076237 9.73827724,4.373829 C9.76702795,4.18384388 9.76702795,3.99116395 9.73827724,3.80117883 C9.7040502,3.62197302 9.64107244,3.44950426 9.55071306,3.29050962 C9.54523674,3.03045908 9.52470051,2.77040853 9.4877353,2.51305281 C9.45350827,2.25165485 9.40011409,1.99429913 9.32618368,1.74098564 L9.32618368,1.74098564 L9.53428408,1.74098564 Z"></path>
                </g>
            </g>
        </g>
    </g>
</svg>