<?xml version="1.0" encoding="UTF-8"?>
<svg width="24px" height="24px" viewBox="0 0 24 24" version="1.1" xmlns="http://www.w3.org/2000/svg" xmlns:xlink="http://www.w3.org/1999/xlink">
    <title>Userauthorization</title>
    <g id="后续新增页面" stroke="none" stroke-width="1" fill="none" fill-rule="evenodd">
        <g id="Userauthorization">
            <circle id="椭圆形" fill="#166AEA" fill-rule="nonzero" cx="7" cy="7" r="7"></circle>
            <circle id="椭圆形备份-2" stroke="#9DC3FF" fill-opacity="0.7" fill="#9ABFF6" cx="13" cy="13" r="10"></circle>
            <g id="编组" transform="translate(8.000000, 7.000000)" fill="#FFFFFF" fill-rule="nonzero">
                <g id="形状">
                    <path d="M6.87474546,4.94807144 C6.49591178,5.09683635 6.14273172,5.29862051 5.8269785,5.54669747 C5.51259714,5.79286848 5.2354316,6.0789014 5.00328218,6.3967464 C4.52590757,7.05520739 4.27259592,7.83652556 4.27741953,8.63560773 C4.27504626,8.99162973 4.32496868,9.34623026 4.42574798,9.68918952 C4.5242727,10.0205363 4.66523576,10.3391848 4.84548596,10.6380118 L4.52989349,10.6380118 C4.31213469,10.6380118 4.06281665,10.6380118 3.77562752,10.6170599 C3.48843839,10.5961079 3.19178147,10.5841354 2.88565679,10.5601904 C2.57953211,10.5362454 2.27340741,10.506314 1.97359457,10.4733896 C1.67378172,10.4404652 1.39606037,10.4105339 1.14989825,10.3746163 C0.903736131,10.3386987 0.69544511,10.3027812 0.518713341,10.2668636 C0.407795909,10.2499774 0.300932282,10.2145045 0.203120873,10.1621041 C0.121066829,10.1052346 0.0611042666,9.92863994 0.0200772518,9.63531318 C-0.0184588657,9.25877853 -0.00146372676,8.87898714 0.0705720404,8.50690313 C0.0966500069,8.35320687 0.162826596,8.20813187 0.263083451,8.08487178 C0.358370865,7.96675491 0.474807705,7.86544245 0.607079226,7.78555878 C0.745202624,7.70075108 0.894922329,7.63428459 1.05206459,7.58801219 C1.21617267,7.53712898 1.38659259,7.4892389 1.55701253,7.44434195 C1.72743245,7.399445 1.89469646,7.34856177 2.05564862,7.29468543 C2.21012396,7.24568735 2.3583248,7.18042916 2.49747806,7.10013198 C2.62714917,7.02301326 2.74502252,6.92934887 2.84778569,6.82177089 C2.92482944,6.74663036 2.98779849,6.65957958 3.03398523,6.5643617 C3.07617149,6.47798885 3.09875078,6.38417267 3.10025964,6.28899372 L3.10025964,5.98968072 C3.09172034,5.84452961 3.02777933,5.70728564 2.92037195,5.60356694 C2.81622644,5.50778676 2.69945723,5.40901347 2.57322026,5.30425392 C2.50682037,5.24522819 2.45228358,5.17524923 2.4122681,5.09772795 C2.36333862,5.00951565 2.32012743,4.91855517 2.28287519,4.82535309 C2.24500409,4.72059354 2.20713299,4.60984773 2.17241781,4.49610879 C2.11564406,4.48148082 2.06216688,4.45713588 2.01462159,4.42427367 C1.96094634,4.37924288 1.9122993,4.32909326 1.86944906,4.27461716 C1.80638802,4.19172156 1.76035086,4.09830438 1.73374431,3.9992492 C1.69873478,3.89281547 1.68377835,3.78136257 1.68956136,3.67000488 C1.69552217,3.57828075 1.71793502,3.48819281 1.75583577,3.4036163 C1.78911105,3.32178492 1.83836291,3.24664071 1.90100831,3.18212468 C1.90104392,2.91212066 1.91684775,2.64232574 1.94834718,2.37397955 C1.98219941,2.12648175 2.03386683,1.88147064 2.10298748,1.64066268 C2.17453052,1.38970697 2.29203629,1.15263437 2.4501392,0.940270229 C2.5837227,0.756827493 2.74662891,0.594246018 2.93299565,0.458376278 C3.09711753,0.336583335 3.27752114,0.235937631 3.46950282,0.159063272 C3.6482123,0.0917301254 3.8346342,0.0445150044 4.02494556,0.0183861516 C4.19786802,0.00085197939 4.3719485,-0.00415107522 4.54567311,0.00342049647 C4.75807328,0.00466260593 4.96970523,0.0277448528 5.17685804,0.0722624936 C5.38219662,0.116940949 5.58288072,0.179049309 5.7764837,0.257836565 C5.95093422,0.330102078 6.11698746,0.419378477 6.27196386,0.524225135 C6.40132889,0.607644437 6.51720797,0.708471591 6.61595964,0.823538156 C6.80595515,1.04510196 6.94950018,1.29909533 7.03885353,1.57182068 C7.12558322,1.82675453 7.1899724,2.08804434 7.23136494,2.35302764 C7.26828519,2.63801484 7.28620437,2.9249279 7.28501565,3.21205598 C7.33812416,3.2468564 7.38058623,3.29435637 7.40809671,3.34973996 C7.44364538,3.4091951 7.46819564,3.473985 7.48068299,3.54130028 C7.50011426,3.64022028 7.50011426,3.74169332 7.48068299,3.84061331 C7.47454712,3.96702672 7.44238331,4.09107909 7.38600524,4.20577517 C7.34760543,4.2842165 7.2928544,4.35447036 7.22505309,4.41230115 C7.16336861,4.46561253 7.09011659,4.50545757 7.01045021,4.52903322 C7.01045021,4.57393017 6.9820469,4.61882712 6.96626727,4.66971033 L6.90946064,4.8163737 C6.89548257,4.87036968 6.87755561,4.92337661 6.85580991,4.97500961 L6.87474546,4.94807144 Z M8.47479923,5.28928827 C8.94604385,5.28559472 9.412794,5.37637337 9.8444705,5.55567686 C10.264453,5.72902706 10.6449464,5.97807548 10.9648237,6.28899372 C11.284225,6.59637035 11.5400624,6.95779286 11.7190897,7.35454805 C12.0936368,8.18517272 12.0936368,9.12495344 11.7190897,9.95557811 C11.5393004,10.3528287 11.2835755,10.715107 10.9648237,11.0241256 C10.6435276,11.3288919 10.2630828,11.5718102 9.8444705,11.7394837 C9.41144393,11.9140524 8.94531248,12.0026734 8.47479923,11.999886 C8.00010807,12.003633 7.52965035,11.9150062 7.09250426,11.7394837 C6.67389191,11.5718102 6.29344712,11.3288919 5.97215103,11.0241256 C5.65339922,10.715107 5.39767433,10.3528287 5.21788505,9.95557811 C4.84333799,9.12495344 4.84333799,8.18517272 5.21788505,7.35454805 C5.39691234,6.95779286 5.65274979,6.59637035 5.97215103,6.28899372 C6.29314584,5.98237166 6.67356423,5.7374376 7.09250426,5.56764938 C7.52747247,5.38361451 7.99851122,5.28875859 8.47479923,5.28928827 L8.47479923,5.28928827 Z M10.5324621,7.98310536 C10.5807454,7.85190524 10.5583542,7.70660508 10.4724995,7.59399846 C10.3889851,7.47950186 10.2698109,7.39263873 10.1316596,7.34556866 C9.99393533,7.29873657 9.84333413,7.29873657 9.70560981,7.34556866 C9.55039341,7.40035854 9.43277676,7.52306303 9.39001736,7.67481297 C9.35214627,7.7975313 9.3174311,7.90827711 9.28271592,8.01004353 C9.24800075,8.11180995 9.2164415,8.21956263 9.18172634,8.33330159 C9.14701118,8.44704054 9.10598415,8.56975886 9.05864528,8.70145659 C9.01130642,8.83315433 8.94818792,8.98281081 8.87560164,9.15042611 C8.80301537,9.3180414 8.69255802,9.42280094 8.56000919,9.41082843 C8.41884269,9.3954975 8.29778841,9.30824204 8.24441673,9.18335054 C8.15871039,9.03532935 8.08282091,8.88238286 8.01719016,8.72540163 C7.94565588,8.56377261 7.87622553,8.40513672 7.80889914,8.24949395 L7.62901145,7.82446947 C7.57851665,7.69576488 7.5343337,7.59399845 7.49646261,7.52515646 C7.44112709,7.41532629 7.32783237,7.34216849 7.19980569,7.33359614 C7.06196837,7.3203717 6.92286117,7.34098599 6.79584735,7.39345874 C6.66890438,7.44768771 6.55983818,7.53354305 6.48025488,7.64188853 C6.39560496,7.74921282 6.38100372,7.89230942 6.44238378,8.01303666 C6.49287858,8.1567069 6.55284116,8.31234966 6.62227149,8.49193749 C6.69170183,8.67152531 6.75797624,8.84811998 6.83371845,9.03369404 C6.90946065,9.2192681 6.97889097,9.39885591 7.04516538,9.57545058 L7.22505309,10.0304064 C7.32168437,10.2768229 7.49997069,10.4868722 7.73315696,10.6290324 C7.9474047,10.7597935 8.19492654,10.8332187 8.44955183,10.8415446 C8.69804495,10.845685 8.94319218,10.7867846 9.15963486,10.6709362 C9.38362865,10.5620432 9.56013009,10.3819326 9.65827095,10.1621041 C9.74032499,9.97653002 9.82553496,9.7849697 9.91074492,9.58442997 L10.156907,8.98580396 C10.2927366,8.65218942 10.4211063,8.31588584 10.5419298,7.9771191 L10.5324621,7.98310536 Z"></path>
                </g>
            </g>
        </g>
    </g>
</svg>