<?xml version="1.0" encoding="UTF-8"?>
<svg width="16px" height="16px" viewBox="0 0 16 16" version="1.1" xmlns="http://www.w3.org/2000/svg" xmlns:xlink="http://www.w3.org/1999/xlink">
    <title>切片</title>
    <g id="黑色版本" stroke="none" stroke-width="1" fill="none" fill-rule="evenodd">
        <g id="系统默认图标" transform="translate(-329.000000, -641.000000)" fill="#FFFFFF" fill-rule="nonzero" stroke="#FFFFFF" stroke-width="0.2">
            <g id="icon/任务备份" transform="translate(329.000000, 641.000000)">
                <g id="编组" transform="translate(2.000000, 2.000000)">
                    <path d="M7.88653846,6.28557692 C8.81394231,5.67115385 9.42836538,4.62115385 9.42836538,3.42836538 C9.42836538,1.5375 7.89086538,0 6,0 C4.10913462,0 2.57163462,1.5375 2.57163462,3.42836538 C2.57163462,4.62115385 3.18605769,5.67259615 4.11346154,6.28557692 C1.72788462,7.02259615 0,9.11105769 0,11.5716346 C0,11.8081731 0.191826923,12 0.428365385,12 C0.664903846,12 0.856730769,11.8081731 0.856730769,11.5716346 C0.856730769,8.97259615 3.16298077,6.85673077 6,6.85673077 C8.83557692,6.85673077 11.1432692,8.97115385 11.1432692,11.5716346 C11.1432692,11.8081731 11.3350962,12 11.5716346,12 C11.8081731,12 12,11.8081731 12,11.5716346 C12,9.11105769 10.2721154,7.02259615 7.88653846,6.28557692 L7.88653846,6.28557692 Z M3.42836538,3.42836538 C3.42836538,2.01057692 4.58221154,0.856730769 6,0.856730769 C7.41778846,0.856730769 8.57163462,2.01057692 8.57163462,3.42836538 C8.57163462,4.84615385 7.41778846,6 6,6 C4.58221154,6 3.42836538,4.84615385 3.42836538,3.42836538 Z" id="形状"></path>
                </g>
            </g>
        </g>
    </g>
</svg>