<?xml version="1.0" encoding="UTF-8"?>
<svg width="24px" height="24px" viewBox="0 0 24 24" version="1.1" xmlns="http://www.w3.org/2000/svg" xmlns:xlink="http://www.w3.org/1999/xlink">
    <title>user</title>
    <g id="后续新增页面" stroke="none" stroke-width="1" fill="none" fill-rule="evenodd">
        <g id="user">
            <circle id="椭圆形" fill="#166AEA" fill-rule="nonzero" cx="7" cy="7" r="7"></circle>
            <circle id="椭圆形备份-2" stroke="#9DC3FF" fill-opacity="0.7" fill="#9ABFF6" cx="13" cy="13" r="10"></circle>
            <path d="M13.1214371,7 C11.4257327,7 10.0485749,8.3428 10.0485749,10 C10.0485749,11.6572 11.4251304,13 13.1214371,13 C14.818346,13 16.1949017,11.6572 16.1949017,10 C16.1949017,8.3428 14.8195504,7 13.1214371,7 Z M13.1214371,7 C11.4257327,7 10.0485749,8.3428 10.0485749,10 C10.0485749,11.6572 11.4251304,13 13.1214371,13 C14.818346,13 16.1949017,11.6572 16.1949017,10 C16.1949017,8.3428 14.8195504,7 13.1214371,7 Z M11.9700923,14.0002 C9.7775993,14.0002 8,15.7354 8,17.875 L8,18.124 C8,18.9994 9.7775993,19 11.9700923,19 L14.5311121,19 C16.7230028,19 18.5,18.9676 18.5,18.124 L18.5,17.875 C18.5,15.7354 16.7230028,14.0002 14.5311121,14.0002 L11.9700923,14.0002 Z" id="形状" fill="#FFFFFF" fill-rule="nonzero"></path>
        </g>
    </g>
</svg>