<?xml version="1.0" encoding="UTF-8"?>
<svg width="24px" height="24px" viewBox="0 0 24 24" version="1.1" xmlns="http://www.w3.org/2000/svg" xmlns:xlink="http://www.w3.org/1999/xlink">
    <title>Videopatrol</title>
    <g id="后续新增页面" stroke="none" stroke-width="1" fill="none" fill-rule="evenodd">
        <g id="Videopatrol">
            <circle id="椭圆形" fill="#166AEA" fill-rule="nonzero" cx="7" cy="7" r="7"></circle>
            <circle id="椭圆形备份-2" stroke="#9DC3FF" fill-opacity="0.7" fill="#9ABFF6" cx="13" cy="13" r="10"></circle>
            <g id="编组" transform="translate(8.000000, 7.000000)" fill="#FFFFFF" fill-rule="nonzero">
                <path d="M6.48502338,4.09960475 C6.13676213,3.74071147 5.73020163,3.56837944 5.25,3.56837944 C4.76979837,3.56837944 4.36323787,3.74071147 4.01497663,4.09960475 C3.66671537,4.44584981 3.4994886,4.86482214 3.4994886,5.3596838 C3.4994886,5.85454546 3.66671537,6.27351779 4.01497663,6.61976284 C4.36170369,6.9660079 4.76979837,7.13833993 5.25,7.13833993 C5.73020163,7.13833993 6.13676213,6.9660079 6.48502338,6.61976284 C6.83328463,6.27351779 7.0005114,5.85454546 7.0005114,5.3596838 C7.0005114,4.86482214 6.83175044,4.44584981 6.48502338,4.09960475 L6.48502338,4.09960475 Z M6.48502338,4.09960475 C6.13676213,3.74071147 5.73020163,3.56837944 5.25,3.56837944 C4.76979837,3.56837944 4.36323787,3.74071147 4.01497663,4.09960475 C3.66671537,4.44584981 3.4994886,4.86482214 3.4994886,5.3596838 C3.4994886,5.85454546 3.66671537,6.27351779 4.01497663,6.61976284 C4.36170369,6.9660079 4.76979837,7.13833993 5.25,7.13833993 C5.73020163,7.13833993 6.13676213,6.9660079 6.48502338,6.61976284 C6.83328463,6.27351779 7.0005114,5.85454546 7.0005114,5.3596838 C7.0005114,4.86482214 6.83175044,4.44584981 6.48502338,4.09960475 L6.48502338,4.09960475 Z M6.48502338,4.09960475 C6.13676213,3.74071147 5.73020163,3.56837944 5.25,3.56837944 C4.76979837,3.56837944 4.36323787,3.74071147 4.01497663,4.09960475 C3.66671537,4.44584981 3.4994886,4.86482214 3.4994886,5.3596838 C3.4994886,5.85454546 3.66671537,6.27351779 4.01497663,6.61976284 C4.36170369,6.9660079 4.76979837,7.13833993 5.25,7.13833993 C5.73020163,7.13833993 6.13676213,6.9660079 6.48502338,6.61976284 C6.83328463,6.27351779 7.0005114,5.85454546 7.0005114,5.3596838 C7.0005114,4.86482214 6.83175044,4.44584981 6.48502338,4.09960475 L6.48502338,4.09960475 Z" id="形状"></path>
                <path d="M9.79273817,8.05217392 C10.2606663,7.22529645 10.5,6.33517786 10.5,5.3596838 C10.5,4.38418973 10.2606663,3.49407114 9.79273817,2.66719367 C9.32481005,1.83873518 8.67738165,1.19683794 7.875,0.716205534 C7.07108416,0.233992095 6.19659556,0 5.25,0 C4.30340445,0 3.41664232,0.233992095 2.61272647,0.716205534 C1.81034482,1.19841897 1.17365576,1.84031621 0.707261835,2.66719367 C0.239333723,3.49407114 0,4.38418973 0,5.3596838 C0,6.33517786 0.239333723,7.22529645 0.707261835,8.05217392 C1.09387785,8.73675889 1.59555815,9.29486166 2.21230275,9.73913044 C1.45287844,9.97944665 0.984950322,10.3083004 0.984950322,10.6719368 C0.984950322,11.4055336 2.89501753,12 5.25,12 C7.60498247,12 9.51504968,11.4055336 9.51504968,10.6719368 C9.51504968,10.3067194 9.04405319,9.97786561 8.28002631,9.73754941 C8.89830509,9.29328064 9.40612216,8.73675889 9.79273817,8.05217392 Z M3.24788136,3.32173913 C3.79865576,2.7541502 4.47063121,2.46956522 5.25,2.46956522 C6.02936879,2.46956522 6.69981005,2.7541502 7.25211865,3.32173913 C7.80289305,3.87826086 8.07904734,4.55652174 8.07904734,5.3596838 C8.07904734,6.16284585 7.80289305,6.84268775 7.25211865,7.39762846 C6.70134425,7.9541502 6.02936879,8.23715415 5.25,8.23715415 C4.47063121,8.23715415 3.80018995,7.95256917 3.24788136,7.39762846 C2.69710695,6.84110673 2.42095266,6.16284585 2.42095266,5.3596838 C2.42095266,4.55810276 2.69710695,3.87826086 3.24788136,3.32173913 Z" id="形状"></path>
            </g>
        </g>
    </g>
</svg>