<?xml version="1.0" encoding="UTF-8"?>
<svg width="24px" height="24px" viewBox="0 0 24 24" version="1.1" xmlns="http://www.w3.org/2000/svg" xmlns:xlink="http://www.w3.org/1999/xlink">
    <title>video</title>
    <g id="后续新增页面" stroke="none" stroke-width="1" fill="none" fill-rule="evenodd">
        <g id="video">
            <circle id="椭圆形" fill="#166AEA" fill-rule="nonzero" cx="7" cy="7" r="7"></circle>
            <circle id="椭圆形备份-2" stroke="#9DC3FF" fill-opacity="0.7" fill="#9ABFF6" cx="13" cy="13" r="10"></circle>
            <path d="M17.0366733,15.58552 C17.0534049,15.6109655 17.0686469,15.6373283 17.0823252,15.66448 L17.8125102,17.12488 C18.1325611,17.76496 17.8730538,18.54328 17.2329517,18.8632 C17.0535228,18.9530746 16.8550138,18.9999508 16.6536375,19 L10.3463625,19 C9.63082515,19 9.05077845,18.41992 9.05077845,17.704 C9.05077845,17.5031521 9.09752655,17.3049672 9.1874898,17.12464 L9.9176748,15.664 C9.9311958,15.6368437 9.94644315,15.6105517 9.9633267,15.58528 C10.839446,16.3362569 11.9626454,16.7497708 13.1250204,16.74928 L13.8749796,16.74928 C15.037327,16.7498591 16.1605303,16.3364292 17.0366733,15.58552 L17.0366733,15.58552 Z M13.5,7 C15.9852168,7 18,9.016 18,11.5 C18,13.984 15.9852168,16 13.5,16 C11.0147832,16 9,13.9852 9,11.5 C9,9.0148 11.0147832,7 13.5,7 Z M13.5,14.12488 C14.5355883,14.12488 15.3753866,13.28632 15.3756308,12.25072 C15.3758748,11.21512 14.5370531,10.37536 13.5014648,10.37512 L13.5,10.37512 C12.4644117,10.37512 11.6253459,11.21512 11.6258336,12.25072 C11.6263224,13.28632 12.465144,14.12464 13.5,14.12488 Z M13.5397928,13 C13.1247762,13 12.7898334,12.664 12.7898334,12.25 C12.7898334,11.836 13.1255087,11.5 13.5397928,11.5 C13.954077,11.5 14.2897521,11.836 14.2897521,12.25 C14.2897521,12.664 13.954077,13 13.5397928,13 Z" id="形状" fill="#FFFFFF" fill-rule="nonzero"></path>
        </g>
    </g>
</svg>