<?xml version="1.0" encoding="UTF-8"?>
<svg width="24px" height="24px" viewBox="0 0 24 24" version="1.1" xmlns="http://www.w3.org/2000/svg" xmlns:xlink="http://www.w3.org/1999/xlink">
    <title>钻石</title>
    <g id="首页" stroke="none" stroke-width="1" fill="none" fill-rule="evenodd">
        <g id="能源首页" transform="translate(-263.000000, -475.000000)" fill="#0271E3" fill-rule="nonzero">
            <g id="编组-5备份-2" transform="translate(252.000000, 469.000000)">
                <g id="编组-43" transform="translate(2.000000, 0.000000)">
                    <g id="钻石" transform="translate(9.000000, 6.000000)">
                        <circle id="椭圆形" fill-opacity="0.15" cx="12" cy="12" r="12"></circle>
                        <path d="M11.5,18 C9.01482608,18 7,15.924 7,13.364 C7,11.656 8.49986956,9.2016 11.5,6 C14.5001304,9.202 16,11.6564 16,13.364 C16,15.924 13.9851739,18 11.5,18 Z M8.20208696,14.0048 C8.50401757,15.2978928 9.42190172,16.3490628 10.6446087,16.802 C10.7440656,16.8383024 10.8535822,16.8325344 10.9488627,16.7859757 C11.0441432,16.739417 11.1173097,16.6559171 11.1521304,16.554 C11.2260668,16.3417429 11.118596,16.1082701 10.9114783,16.0312 C9.94208756,15.6717843 9.21430662,14.8384057 8.97452174,13.8132 C8.94096985,13.6721515 8.83635399,13.5601149 8.70008196,13.5192932 C8.56380994,13.4784714 8.41658469,13.5150664 8.31386457,13.6152932 C8.21114444,13.7155199 8.16853505,13.8641515 8.20208696,14.0052 L8.20208696,14.0048 Z" id="形状"></path>
                    </g>
                </g>
            </g>
        </g>
    </g>
</svg>