<?xml version="1.0" encoding="UTF-8"?>
<svg width="24px" height="24px" viewBox="0 0 24 24" version="1.1" xmlns="http://www.w3.org/2000/svg" xmlns:xlink="http://www.w3.org/1999/xlink">
    <title>WC</title>
    <g id="后续新增页面" stroke="none" stroke-width="1" fill="none" fill-rule="evenodd">
        <g id="WC">
            <circle id="椭圆形" fill="#166AEA" fill-rule="nonzero" cx="7" cy="7" r="7"></circle>
            <circle id="椭圆形备份-2" stroke="#9DC3FF" fill-opacity="0.7" fill="#9ABFF6" cx="13" cy="13" r="10"></circle>
            <g id="编组" transform="translate(8.060490, 6.504266)" fill="#FFFFFF" fill-rule="nonzero">
                <path d="M3.56648303,13 L0.973625588,13 L0.973625588,8.14700009 L0.0195219061,8.14700009 C0.0126455734,8.02480129 0.0030262919,7.93228569 0.0030262919,7.83975739 L0.0030262919,4.6465663 C-0.0226587369,4.26862705 0.116095105,3.89807296 0.383378183,3.6308038 C0.650661261,3.36353465 1.02020398,3.22581865 1.39636831,3.25329686 L3.15955334,3.25329686 C3.52584277,3.23221176 3.88387557,3.36799884 4.14487367,3.62698822 C4.40587177,3.88597761 4.54539273,4.24391497 4.52884084,4.61204593 C4.53297422,5.77195057 4.52884084,6.93186793 4.52884084,8.12146847 L3.56648303,8.12146847 L3.56648303,13 Z M9.08284329,9.1156652 L9.08284329,12.9979179 L7.13339057,12.9979179 L7.13339057,9.12396837 L5.21280833,9.12396837 C5.21678838,9.06266177 5.22528913,9.00173599 5.23824064,8.94169219 C5.77440492,7.32887119 6.29408623,5.71051473 6.85706062,4.10872654 C7.02613755,3.65997667 7.42171101,3.33667441 7.8935342,3.26161648 C8.36535739,3.18655855 8.84103752,3.37126125 9.13990167,3.74557075 C9.23119505,3.85806106 9.3023623,3.98560933 9.35023653,4.12253976 C9.88824208,5.72432373 10.4223544,7.32771586 10.9525735,8.93271615 C10.9670088,8.97484141 10.9759455,9.01970899 11,9.1156779 L9.08284329,9.1156652 Z M1.77224442,0.11669467 C2.2540739,-0.0839892772 2.80882915,0.0268091773 3.17756462,0.397372153 C3.54630009,0.767935128 3.65630767,1.32519416 3.45623863,1.809035 C3.25616959,2.29287584 2.78547402,2.60789363 2.26386055,2.60704954 C1.55432622,2.60363172 0.980085634,2.02654511 0.977074181,1.31388449 C0.976519475,0.789973642 1.29041494,0.317378618 1.77224442,0.11669467 Z M9.38737494,1.31594124 C9.37789941,2.03113069 8.79446822,2.60400799 8.08238271,2.59731344 C7.37029721,2.59061888 6.79764467,2.00687285 6.80151325,1.29163082 C6.80538182,0.576388782 7.38431507,-0.00107361101 8.09643096,1.49877989e-06 C8.81343906,0.00833591045 9.38967154,0.595731231 9.38737494,1.31594124 Z" id="形状"></path>
            </g>
        </g>
    </g>
</svg>