<?xml version="1.0" encoding="UTF-8"?>
<svg width="24px" height="24px" viewBox="0 0 24 24" version="1.1" xmlns="http://www.w3.org/2000/svg" xmlns:xlink="http://www.w3.org/1999/xlink">
    <title>Workorder</title>
    <g id="后续新增页面" stroke="none" stroke-width="1" fill="none" fill-rule="evenodd">
        <g id="Workorder">
            <circle id="椭圆形" fill="#166AEA" fill-rule="nonzero" cx="7" cy="7" r="7"></circle>
            <circle id="椭圆形备份-2" stroke="#9DC3FF" fill-opacity="0.7" fill="#9ABFF6" cx="13" cy="13" r="10"></circle>
            <g id="编组" transform="translate(8.000000, 7.000000)" fill="#FFFFFF" fill-rule="nonzero">
                <g>
                    <path d="M1.98928796,1.04403867 L1.98928796,2.57142857 C1.98928796,3.37701396 2.68241966,4.02148227 3.54883428,4.02792696 L3.54883428,4.02792696 L7.61751733,4.02792696 C8.48393194,4.02792696 9.17706364,3.38345865 9.17706364,2.57787326 L9.17706364,2.57787326 L9.17706364,1.04403867 L9.44045369,1.04403867 C10.3068683,1.04403867 11,1.68850698 11,2.49409238 L11,2.49409238 L11,10.2 C11,11.1941126 10.155737,12 9.11428571,12 L9.11428571,12 L1.55954631,12 C0.693131695,12 0,11.3555317 0,10.5499463 L0,10.5499463 L0,2.49409238 C0,1.68850698 0.693131695,1.04403867 1.55954631,1.04403867 L1.55954631,1.04403867 L1.98928796,1.04403867 Z M8.43330741,7.69769448 L2.63675403,7.69769448 C2.28960361,7.69769448 2.0081826,7.96632363 2.0081826,8.29769448 C2.0081826,8.62906533 2.28960361,8.89769448 2.63675403,8.89769448 L2.63675403,8.89769448 L8.43330741,8.89769448 C8.78045782,8.89769448 9.06187884,8.62906533 9.06187884,8.29769448 C9.06187884,7.96632363 8.78045782,7.69769448 8.43330741,7.69769448 L8.43330741,7.69769448 Z M8.43330741,5.89769448 L2.63675403,5.89769448 C2.28960361,5.89769448 2.0081826,6.16632363 2.0081826,6.49769448 C2.0081826,6.82906533 2.28960361,7.09769448 2.63675403,7.09769448 L2.63675403,7.09769448 L8.43330741,7.09769448 C8.78045782,7.09769448 9.06187884,6.82906533 9.06187884,6.49769448 C9.06187884,6.16632363 8.78045782,5.89769448 8.43330741,5.89769448 L8.43330741,5.89769448 Z" id="形状结合"></path>
                    <path d="M3.54883428,3.29967777 L7.62444865,3.29967777 C8.05419029,3.29967777 8.40075615,2.97744361 8.40075615,2.57787325 L8.40075615,1.04403867 L6.84120982,1.04403867 C6.75803403,0.483351235 6.23125395,0 5.53812224,0 C4.92816635,0 4.40831759,0.483351235 4.32514178,1.04403867 L2.76559547,1.04403867 L2.76559547,2.57787325 C2.76559547,2.97744361 3.11216131,3.29967777 3.54883428,3.29967777 Z" id="形状"></path>
                </g>
            </g>
        </g>
    </g>
</svg>