<?xml version="1.0" standalone="no"?><!DOCTYPE svg PUBLIC "-//W3C//DTD SVG 1.1//EN" "http://www.w3.org/Graphics/SVG/1.1/DTD/svg11.dtd"><svg t="1772112820371" class="icon" viewBox="0 0 1024 1024" version="1.1" xmlns="http://www.w3.org/2000/svg" p-id="9755" xmlns:xlink="http://www.w3.org/1999/xlink" width="200" height="200"><path d="M760.1152 783.50336c-9.19552 25.78432-33.85344 44.31872-62.75072 44.31872H264.35584c-36.72064 0-66.60096-29.88032-66.60096-66.60096V220.38528c0-36.72064 29.88032-66.60096 66.60096-66.60096h433.00864c36.72064 0 66.60096 29.88032 66.60096 66.60096v253.66528l81.92-78.19264v-175.47264c0-81.89952-66.62144-148.52096-148.52096-148.52096H264.35584c-81.89952 0-148.52096 66.62144-148.52096 148.52096v540.81536c0 81.89952 66.62144 148.52096 148.52096 148.52096h433.00864c81.89952 0 148.52096-66.62144 148.52096-148.52096V701.6448l-85.77024 81.85856z" fill="#231815" p-id="9756"></path><path d="M631.296 329.48224H333.0048c-22.6304 0-40.96-18.3296-40.96-40.96s18.3296-40.96 40.96-40.96h298.2912c22.6304 0 40.96 18.3296 40.96 40.96s-18.3296 40.96-40.96 40.96zM487.936 497.07008H333.0048c-22.6304 0-40.96-18.3296-40.96-40.96s18.3296-40.96 40.96-40.96h154.9312c22.6304 0 40.96 18.3296 40.96 40.96s-18.3296 40.96-40.96 40.96zM688.29184 755.46624l-126.7712-103.0144c-17.55136-14.27456-20.23424-40.05888-5.95968-57.61024 14.27456-17.55136 40.05888-20.23424 57.61024-5.95968l71.168 57.81504 152.4736-143.50336c16.46592-15.50336 42.3936-14.72512 57.89696 1.76128 15.50336 16.46592 14.72512 42.3936-1.76128 57.89696l-204.65664 192.6144z" fill="#231815" p-id="9757"></path></svg>