<?xml version="1.0" standalone="no"?><!DOCTYPE svg PUBLIC "-//W3C//DTD SVG 1.1//EN" "http://www.w3.org/Graphics/SVG/1.1/DTD/svg11.dtd"><svg t="1756104757285" class="icon" viewBox="0 0 1024 1024" version="1.1" xmlns="http://www.w3.org/2000/svg" p-id="14165" xmlns:xlink="http://www.w3.org/1999/xlink" width="200" height="200"><path d="M501.4 768.6c0-161.7 131.1-292.8 292.8-292.8 46.8 0 91.1 11 130.3 30.5V286.5c0-20.1-11.3-38.5-29.2-47.7l-159.6-81.5L599.8 232l-0.5 0.3L285 392.8c-3.6 2.2-10.1 6.9-15.1 15.1-6.7 11.1-6.8 21.9-6.6 26.2v154.8l-74.8-37.4V413.7c0-34.3 19-65.4 49.6-81l326.7-166.9 90.4-49.7L486.6 30c-15.3-7.8-33.4-7.8-48.7 0L29.2 238.8C11.3 248 0 266.4 0 286.5v432.7c0 20.1 11.3 38.5 29.2 47.7l408.7 208.8c15.3 7.8 33.4 7.8 48.7 0l70.1-35.8c-34.7-48.2-55.3-107.4-55.3-171.3z" fill="#1296db" p-id="14166"></path><path d="M719.9 985.5c-88.6-32.5-148.1-117.7-148.2-212-0.1-60 23.5-116.7 66.3-159.6 2.7-2.7 5.4-5.3 8.2-7.8l-0.1-58.7 151.4-0.1 0.1 79.9c-38.7 0-75.2 15.4-103 43.1-27.7 27.8-43 64.4-43 103.1 0.1 61 38.5 116 95.8 137l-27.5 75.1zM798.2 999.8l-0.1-79.9c38.7 0 75.3-15.4 103-43.1 27.7-27.8 43-64.4 43-103.1-0.1-61-38.5-116-95.8-137l27.5-75c88.6 32.5 148.1 117.7 148.2 212 0.1 60-23.5 116.7-66.3 159.6-2.7 2.7-5.4 5.3-8.2 7.8l0.1 58.7H798.2z" fill="#1296db" p-id="14167"></path></svg>