<?xml version="1.0" encoding="UTF-8"?>
<svg width="30px" height="30px" viewBox="0 0 30 30" version="1.1" xmlns="http://www.w3.org/2000/svg" xmlns:xlink="http://www.w3.org/1999/xlink">
    <title>unconfirm</title>
    <g id="黑色版本" stroke="none" stroke-width="1" fill="none" fill-rule="evenodd">
        <g id="消息对象默认图标" transform="translate(-94.000000, -104.000000)">
            <g id="unconfirm" transform="translate(94.000000, 104.000000)">
                <circle id="椭圆形" fill="#FF4D4F" cx="15" cy="15" r="15"></circle>
                <g id="编组" transform="translate(7.000000, 7.000000)" fill="#FFFFFF" fill-rule="nonzero">
                    <path d="M13.2129507,15.2921875 C13.0768911,15.15625 12.9017339,15.059375 12.7062459,15.0203125 C12.5889532,14.996875 12.5045024,14.896875 12.5045024,14.778125 L12.5045024,9.034375 C12.5045024,6.55 10.4698637,4.490625 7.98325697,4.49996812 C5.50446971,4.509375 3.49641745,6.5203125 3.49641745,9 L3.49641745,14.778125 C3.49641745,14.896875 3.41196665,14.996875 3.29467388,15.0203125 C2.83801402,15.1140625 2.49551912,15.5171875 2.49551912,16 L13.5054007,16 C13.5054007,15.7234375 13.3927996,15.4734375 13.2129507,15.2921875 Z M8.86529862,7.25 L8.56190131,9.9578125 L9.75203198,9.9578125 L7.13718511,13.75 L7.44058241,11.0421875 L6.24888784,11.0421875 L8.86529862,7.25 Z M8.00045991,3.25 C7.72364897,3.25 7.50001075,3.0265625 7.50001075,2.75 L7.50001075,0.5 C7.50001075,0.2234375 7.72364897,0 8.00045991,0 C8.27727085,0 8.50090907,0.2234375 8.50090907,0.5 L8.50090907,2.75 C8.50090907,3.0265625 8.27727085,3.25 8.00045991,3.25 Z M4.37220348,4.6265625 C4.13292623,4.7640625 3.82640111,4.6828125 3.68877759,4.44375 L2.56276698,2.4953125 C2.42514346,2.25625 2.50646645,1.95 2.7457437,1.8125 C2.98502096,1.675 3.29154607,1.75625 3.42916959,1.9953125 L4.55518021,3.94375 C4.69280373,4.1828125 4.61148074,4.4875 4.37220348,4.6265625 Z M11.6287163,4.6265625 C11.8679936,4.7640625 12.1745187,4.6828125 12.3121422,4.44375 L13.4381528,2.4953125 C13.5757764,2.25625 13.4944534,1.95 13.2551761,1.8125 C13.0158989,1.675 12.7093738,1.75625 12.5717502,1.9953125 L11.4457396,3.94375 C11.3081161,4.1828125 11.3894391,4.4875 11.6287163,4.6265625 Z M3.16017817,6.9515625 C3.0882386,7.21875 2.81455546,7.3765625 2.54712794,7.3046875 L0.371737988,6.7234375 C0.104310466,6.6515625 -0.0536438006,6.378125 0.0167318629,6.1109375 C0.08867143,5.84375 0.362354566,5.6859375 0.629782087,5.7578125 L2.80517204,6.340625 C3.07259956,6.4109375 3.23055383,6.684375 3.16017817,6.9515625 L3.16017817,6.9515625 Z M12.8407417,6.9515625 C12.9126812,7.21875 13.1863644,7.3765625 13.4537919,7.3046875 L15.6291818,6.721875 C15.8966094,6.65 16.0545636,6.3765625 15.9826241,6.109375 C15.9106845,5.8421875 15.6370014,5.684375 15.3695738,5.75625 L13.1941839,6.3390625 C12.9283203,6.4109375 12.770366,6.684375 12.8407417,6.9515625 Z" id="形状"></path>
                </g>
            </g>
        </g>
    </g>
</svg>