<?xml version="1.0" encoding="UTF-8"?>
<svg width="32px" height="32px" viewBox="0 0 32 32" version="1.1" xmlns="http://www.w3.org/2000/svg" xmlns:xlink="http://www.w3.org/1999/xlink">
    <title>table</title>
    <g id="icon" stroke="none" stroke-width="1" fill="none" fill-rule="evenodd">
        <g id="平台icon" transform="translate(-64.000000, -2947.000000)">
            <g id="table" transform="translate(64.000000, 2947.000000)">
                <rect id="矩形" x="0" y="0" width="32" height="32"></rect>
                <g id="编组" transform="translate(6.000000, 6.000000)" fill="#0271E3" fill-rule="nonzero">
                    <path d="M16.9230769,0 L3.07692308,0 C1.38461538,0 0,1.38461538 0,3.07692308 L0,16.9230769 C0,18.6153846 1.38461538,20 3.07692308,20 L16.9230769,20 C18.6153846,20 20,18.6153846 20,16.9230769 L20,3.07692308 C20,1.38461538 18.6153846,0 16.9230769,0 Z M13.8461538,14.6153846 C13.8461538,15.0461538 13.5076923,15.3846154 13.0769231,15.3846154 L5.38461538,15.3846154 C4.95384615,15.3846154 4.61538462,15.0461538 4.61538462,14.6153846 L4.61538462,14.6153846 C4.61538462,14.1846154 4.95384615,13.8461538 5.38461538,13.8461538 L13.0769231,13.8461538 C13.5076923,13.8461538 13.8461538,14.1846154 13.8461538,14.6153846 L13.8461538,14.6153846 Z M4.61538462,10 C4.61538462,9.56923077 4.95384615,9.23076923 5.38461538,9.23076923 L11.5384615,9.23076923 C11.9692308,9.23076923 12.3076923,9.56923077 12.3076923,10 C12.3076923,10.4307692 11.9692308,10.7692308 11.5384615,10.7692308 L5.38461538,10.7692308 C4.95384615,10.7692308 4.61538462,10.4307692 4.61538462,10 Z M14.6153846,6.15384615 L5.38461538,6.15384615 C4.95384615,6.15384615 4.61538462,5.81538462 4.61538462,5.38461538 C4.61538462,4.95384615 4.95384615,4.61538462 5.38461538,4.61538462 L14.6153846,4.61538462 C15.0461538,4.61538462 15.3846154,4.95384615 15.3846154,5.38461538 C15.3846154,5.81538462 15.0461538,6.15384615 14.6153846,6.15384615 Z" id="形状"></path>
                </g>
            </g>
        </g>
    </g>
</svg>