<?xml version="1.0" standalone="no"?><!DOCTYPE svg PUBLIC "-//W3C//DTD SVG 1.1//EN" "http://www.w3.org/Graphics/SVG/1.1/DTD/svg11.dtd"><svg t="1773632174132" class="icon" viewBox="0 0 1024 1024" version="1.1" xmlns="http://www.w3.org/2000/svg" p-id="25171" xmlns:xlink="http://www.w3.org/1999/xlink" width="200" height="200"><path d="M746.94595 967.411621H315.771631a26.005689 26.005689 0 0 1 0-52.011377h431.174319a26.005689 26.005689 0 0 1 0 52.011377zM598.089388 780.170662H336.576182a26.005689 26.005689 0 0 1 0-52.011377h261.513206a26.005689 26.005689 0 1 1 0 52.011377z" p-id="25172" fill="#2c2c2c"></path><path d="M804.574557 1024A26.005689 26.005689 0 0 1 786.682643 1016.302316l-55.340106-55.340106a26.005689 26.005689 0 0 1 36.824055-36.720032l36.928078 36.928078L954.887438 811.377489 750.898815 606.868753a26.005689 26.005689 0 0 1 36.824055-36.720033l222.296628 222.296627a26.005689 26.005689 0 0 1 0 36.824056l-187.240959 187.240959a26.005689 26.005689 0 0 1-18.203982 7.489638z" p-id="25173" fill="#2c2c2c"></path><path d="M607.035345 780.170662H501.86834a109.223893 109.223893 0 0 1 0-218.447785h260.056887a26.005689 26.005689 0 0 1 0 52.011377h-260.056887a57.212515 57.212515 0 0 0 0 114.425031h105.167005a26.005689 26.005689 0 0 1 0 52.011377zM311.506698 967.411621a26.005689 26.005689 0 0 1-14.043072-4.16091L52.906129 805.448192a7.385616 7.385616 0 0 1-1.456318-1.040228 113.592848 113.592848 0 0 1-23.197075-157.802519l1.664364-2.080455c34.847623-41.609102 89.87566-52.531491 143.551402-29.022349a25.173507 25.173507 0 0 1 4.056888 2.184478l167.892726 112.968712a26.005689 26.005689 0 0 1-29.126371 43.169443L150.583496 662.312881c-16.435595-6.865502-52.84356-16.435595-80.097521 14.771231-19.868346 30.270622-15.291345 64.806176 11.33848 85.194636l243.829338 156.762292A26.005689 26.005689 0 0 1 311.506698 967.411621z" p-id="25174" fill="#2c2c2c"></path><path d="M89.730184 634.538805a26.005689 26.005689 0 0 1-26.005688-26.005688V84.154409A84.258432 84.258432 0 0 1 147.462813 0h549.34417a84.258432 84.258432 0 0 1 84.258431 84.154409V566.924015a26.005689 26.005689 0 0 1-52.011377 0V84.154409A32.247054 32.247054 0 0 0 696.806983 52.011377H147.462813a32.143031 32.143031 0 0 0-32.143031 32.143032V608.533117A26.005689 26.005689 0 0 1 89.730184 634.538805z" p-id="25175" fill="#2c2c2c"></path><path d="M605.579026 205.132873h-374.481918a26.005689 26.005689 0 0 1 0-52.011378h374.481918a26.005689 26.005689 0 1 1 0 52.011378zM605.579026 371.569281h-374.481918a26.005689 26.005689 0 0 1 0-52.011378h374.481918a26.005689 26.005689 0 0 1 0 52.011378zM605.579026 538.005689h-374.481918a26.005689 26.005689 0 0 1 0-52.011378h374.481918a26.005689 26.005689 0 0 1 0 52.011378z" p-id="25176" fill="#2c2c2c"></path></svg>